<svg id="Camada_1" data-name="Camada 1" xmlns="http://www.w3.org/2000/svg" viewBox="0 0 805.71 302.53"><defs><style>.cls-1{fill:#052453;}.cls-2{fill:#37b4aa;}</style></defs><path class="cls-1" d="M178.84,190.48v36.4a2.26,2.26,0,0,1-.9,1.81l-76.37,57.55a2.27,2.27,0,0,1-2.73,0L75,268.28a1.14,1.14,0,0,1,0-1.81l25-18.83L177,189.57a1.13,1.13,0,0,1,1.81.91"/><path class="cls-1" d="M100,15.45V51.84a2.29,2.29,0,0,1-.9,1.81L56.08,86l-10.75,8.1a1.13,1.13,0,0,1-1.81-.9V56.85a2.24,2.24,0,0,1,.9-1.8l53.74-40.5a1.13,1.13,0,0,1,1.81.9"/><path class="cls-1" d="M100,74.07v36.38a2.29,2.29,0,0,1-.9,1.81l-43,32.4-10.75,8.1a1.13,1.13,0,0,1-1.81-.91V115.47a2.26,2.26,0,0,1,.9-1.81L98.16,73.17a1.13,1.13,0,0,1,1.81.9"/><path class="cls-2" d="M132.67,143.76a1.14,1.14,0,0,1,0,1.81L100,170.21,45.33,211.38a1.13,1.13,0,0,1-1.81-.9v-36.4a2.23,2.23,0,0,1,.9-1.8L100,130.41l6.13-4.61a2.25,2.25,0,0,1,2.72,0Z"/><path class="cls-2" d="M171.57,174.87,44,271a2.27,2.27,0,0,1-2.73,0L17.44,253a1.14,1.14,0,0,1,0-1.81L145,155.09a2.25,2.25,0,0,1,2.72,0l23.86,18a1.14,1.14,0,0,1,0,1.8"/><path class="cls-1" d="M297.83,149.57a27.24,27.24,0,0,0-21.59,10V108.33a1.13,1.13,0,0,0-1.8-.91l-16.61,12.26a2.26,2.26,0,0,0-.9,1.81v105.2a1.14,1.14,0,0,0,1.13,1.13h15.61a1.14,1.14,0,0,0,1.13-1.13v-8.85s6.6,11.91,23,11.91c19.8,0,37.19-16.58,37.19-40.09s-17.39-40.09-37.19-40.09m-3.38,62.15c-12.72,0-18.21-10.63-18.21-10.63V178.22s5.49-10.62,18.21-10.62c13,0,20.93,9.5,20.93,22.06s-7.89,22.06-20.93,22.06"/><path class="cls-1" d="M664.62,149.57a27.24,27.24,0,0,0-21.59,10V108.33a1.13,1.13,0,0,0-1.8-.91l-16.61,12.26a2.26,2.26,0,0,0-.9,1.81v105.2a1.13,1.13,0,0,0,1.13,1.13h15.6a1.13,1.13,0,0,0,1.13-1.13v-8.85s6.61,11.91,23,11.91c19.8,0,37.19-16.58,37.19-40.09s-17.39-40.09-37.19-40.09m-3.38,62.15c-12.73,0-18.21-10.63-18.21-10.63V178.22s5.48-10.62,18.21-10.62c13,0,20.93,9.5,20.93,22.06s-7.9,22.06-20.93,22.06"/><path class="cls-1" d="M418.61,189.34c0,1.27,0,3.64-.1,6.16a1.14,1.14,0,0,1-1.14,1.08H361.45c1.45,6.77,9.34,15.46,21.42,15.46a31.47,31.47,0,0,0,20-6.89,1.13,1.13,0,0,1,1.66.25L412.9,218a1.13,1.13,0,0,1-.23,1.51,49.36,49.36,0,0,1-29.8,10.28c-23.19,0-41.06-17.71-41.06-40.09s16.26-40.09,38.32-40.09c20.93,0,38.48,16.26,38.48,39.77m-19.32-6.77c-.32-6.6-6.44-15.45-19.16-15.45-12.4,0-18,8.69-18.68,15.45Z"/><path class="cls-1" d="M502.2,189.34c0,1.27,0,3.64-.1,6.16a1.14,1.14,0,0,1-1.14,1.08H445c1.45,6.77,9.34,15.46,21.42,15.46a31.47,31.47,0,0,0,20-6.89,1.13,1.13,0,0,1,1.66.25L496.49,218a1.13,1.13,0,0,1-.23,1.51,49.36,49.36,0,0,1-29.8,10.28c-23.19,0-41.06-17.71-41.06-40.09s16.26-40.09,38.32-40.09c20.93,0,38.48,16.26,38.48,39.77m-19.32-6.77c-.32-6.6-6.44-15.45-19.16-15.45-12.4,0-18,8.69-18.68,15.45Z"/><path class="cls-1" d="M511.25,121.51V226.69a1.14,1.14,0,0,0,1.13,1.13h17.06a1.13,1.13,0,0,0,1.13-1.13V108.33a1.13,1.13,0,0,0-1.8-.91l-16.6,12.28a2.24,2.24,0,0,0-.92,1.81"/><path class="cls-1" d="M612.41,178.07v48.62a1.14,1.14,0,0,1-1.13,1.13H595.67a1.13,1.13,0,0,1-1.13-1.13v-8.53s-7.89,11.59-25.12,11.59c-14.33,0-27.54-9.34-27.54-25.6,0-14.65,13.37-25.28,30-25.28,14,0,21.26,5.48,21.26,5.48V180c0-10-9.67-13.2-16.43-13.2-9.11,0-18.66,3.79-21.8,5.15a1.13,1.13,0,0,1-1.5-.62l-5.45-13.84a1.13,1.13,0,0,1,.59-1.45c3.46-1.53,15.66-6.47,29.13-6.47,21.9,0,34.78,11.11,34.78,28.5M593.09,204.8v-7.89A38.58,38.58,0,0,0,575.7,193c-6,0-14.17,2.58-14.17,10.79,0,8,7.89,9.82,13.84,9.82a22.64,22.64,0,0,0,17.72-8.85"/><path class="cls-1" d="M718.6,202.91a1.13,1.13,0,0,1,1.67-.13c2.73,2.6,11.5,10.07,22.14,10.07,7.89,0,14.49-2.26,14.49-6.93,0-5-3.54-6-15.14-8.37-15.13-3.22-28.34-9.66-28.34-24.15,0-11.92,11.92-23.83,32.85-23.83a49.47,49.47,0,0,1,27.78,8.67,1.13,1.13,0,0,1,.27,1.56l-8.41,12.33a1.12,1.12,0,0,1-1.55.31c-2.48-1.65-9.76-6-18.09-6-7.25,0-13.85,2.58-13.85,7.25s5.16,5.8,18,8.53c15.13,3.22,25.92,8.21,25.92,24,0,13-13.85,23.51-33.33,23.51-19.3,0-30.94-10.29-33.78-13.13a1.13,1.13,0,0,1-.09-1.48Z"/></svg>