<svg id="Camada_1" data-name="Camada 1" xmlns="http://www.w3.org/2000/svg" viewBox="0 0 500.85 508.32">
  <defs>
    <style>.cls-1{fill:#052453;}.cls-2{fill:#37b4aa;}</style>
  </defs>
  <polygon class="cls-1" points="294.62 296.7 294.62 296.72 220.93 339.26 147.23 296.72 220.93 254.16 294.62 296.7" />
  <polygon class="cls-1" points="220.93 169.07 220.93 254.16 147.23 296.72 147.23 211.63 220.93 169.07" />
  <polygon class="cls-1" points="442 381.82 220.93 509.45 -0.16 381.82 73.55 339.26 220.93 424.36 368.32 339.26 442 381.82" />
  <polygon class="cls-1" points="73.55 83.97 73.55 339.26 -0.16 381.82 -0.16 126.53 73.55 83.97" />
  <polygon class="cls-2" points="442 126.53 442 381.82 368.32 339.26 368.32 169.07 220.93 83.97 220.93 -1.12 442 126.53" />
  <polygon class="cls-2" points="294.62 211.63 294.62 296.7 220.93 254.16 220.93 169.07 294.62 211.63" />
  <polygon class="cls-1" points="220.94 -1.13 220.94 83.98 147.24 126.54 73.56 83.98 220.94 -1.13" />
</svg>