<svg xmlns="http://www.w3.org/2000/svg" viewBox="0 0 958.47 226.75"><defs><style>.cls-1{isolation:isolate;}.cls-2{mix-blend-mode:multiply;}.cls-3{fill:#fff;}</style></defs><g class="cls-1"><g id="Camada_1" data-name="Camada 1"><g class="cls-2"><path class="cls-3" d="M283.93,76.68c-19.87,0-29.58,13.69-29.58,13.69V20.16a1.56,1.56,0,0,0-2.48-1.25L229.11,35.72a3.08,3.08,0,0,0-1.24,2.47v144.2a1.56,1.56,0,0,0,1.55,1.55h21.39a1.55,1.55,0,0,0,1.55-1.55V170.25s9.05,16.34,31.57,16.34c27.14,0,51-22.74,51-55S311.07,76.68,283.93,76.68Zm-4.63,85.19c-17.44,0-25-14.57-25-14.57V116s7.51-14.57,25-14.57c17.87,0,28.69,13,28.69,30.24S297.17,161.87,279.3,161.87Z"/><path class="cls-3" d="M449.49,131.19c0,1.74,0,5-.15,8.44a1.56,1.56,0,0,1-1.55,1.49H371.14c2,9.27,12.8,21.19,29.35,21.19a43.15,43.15,0,0,0,27.4-9.44,1.54,1.54,0,0,1,2.28.33l11.48,17.22a1.54,1.54,0,0,1-.31,2.07,67.63,67.63,0,0,1-40.85,14.1c-31.78,0-56.28-24.28-56.28-55s22.29-54.95,52.53-54.95C425.43,76.68,449.49,99,449.49,131.19ZM423,121.92c-.44-9-8.82-21.19-26.26-21.19-17,0-24.72,11.92-25.6,21.19Z"/><path class="cls-3" d="M564.06,131.19c0,1.74,0,5-.14,8.44a1.56,1.56,0,0,1-1.55,1.49H485.71c2,9.27,12.8,21.19,29.36,21.19a43.15,43.15,0,0,0,27.4-9.44,1.54,1.54,0,0,1,2.28.33l11.48,17.22a1.54,1.54,0,0,1-.32,2.07,67.57,67.57,0,0,1-40.84,14.1c-31.78,0-56.28-24.28-56.28-55s22.29-54.95,52.53-54.95C540,76.68,564.06,99,564.06,131.19Zm-26.48-9.27c-.44-9-8.83-21.19-26.26-21.19-17,0-24.72,11.92-25.61,21.19Z"/><path class="cls-3" d="M592.39,131.39V131c0-29.93,22.88-54.57,55-54.57,19.76,0,32.08,6.65,41.87,17.6L671,113.59c-6.65-7-13.3-11.54-23.86-11.54-14.87,0-25.43,13.11-25.43,28.56V131c0,16,10.37,28.95,26.6,28.95,10,0,16.83-4.3,24.06-11.15l17.41,17.61c-10.17,11.15-21.91,19.17-42.84,19.17C615.47,185.58,592.39,161.32,592.39,131.39Z"/><path class="cls-3" d="M697.57,78.38h29.74V99.51c6.06-14.48,15.84-23.86,33.45-23.08v31.1h-1.57c-19.76,0-31.88,11.93-31.88,37v38.73H697.57Z"/><path class="cls-3" d="M766.89,109.35l26.37-29.21a1.93,1.93,0,0,1,3.36,1.3V93.25c6.85-8.8,15.85-16.82,30.91-16.82,13.69,0,24.06,6.06,29.53,16.62,9.2-10.75,20.15-16.62,34.43-16.62,22.11,0,35.41,13.3,35.41,38.53v68.27H897.16V124.74c0-14.08-6.25-21.32-17.4-21.32s-18,7.24-18,21.32v58.49H832V124.74c0-14.08-6.26-21.32-17.41-21.32s-18,7.24-18,21.32v58.49H766.89Z"/><polygon class="cls-3" points="129.17 136.13 129.17 136.14 104.55 150.35 79.93 136.14 104.55 121.92 129.17 136.13"/><polygon class="cls-3" points="104.55 93.49 104.55 121.92 79.93 136.14 79.93 107.71 104.55 93.49"/><polygon class="cls-3" points="178.41 164.57 104.55 207.21 30.69 164.57 55.31 150.35 104.55 178.78 153.79 150.35 178.41 164.57"/><polygon class="cls-3" points="55.31 65.06 55.31 150.35 30.69 164.57 30.69 79.28 55.31 65.06"/><polygon class="cls-3" points="178.41 79.28 178.41 164.57 153.79 150.35 153.79 93.49 104.55 65.06 104.55 36.63 178.41 79.28"/><polygon class="cls-3" points="129.17 107.71 129.17 136.13 104.55 121.92 104.55 93.49 129.17 107.71"/><polygon class="cls-3" points="104.55 36.63 104.55 65.07 79.93 79.28 55.31 65.07 104.55 36.63"/></g></g></g></svg>