<svg xmlns="http://www.w3.org/2000/svg" xmlns:xlink="http://www.w3.org/1999/xlink" viewBox="0 0 1190.55 841.89"><defs><style>.cls-1{isolation:isolate;}.cls-2{fill:#aebddc;}.cls-3{fill:#ffc4ad;}.cls-4{fill:#194866;}.cls-5{fill:#cfd9e8;}.cls-6{fill:#161711;}.cls-7{fill:#163f59;}.cls-8{fill:#2c7eea;}.cls-9{fill:#f3f3f3;}.cls-10{fill:#e4eef3;}.cls-11{fill:#8dcfff;}.cls-12{fill:#a3cf6f;}.cls-13{fill:#b6c2c9;}.cls-14{fill:#3dc7c9;}.cls-15{fill:#b7bec0;}.cls-16{fill:#969c9e;}.cls-17,.cls-20{fill:#a0e06e;}.cls-18{fill:#7ec8ef;}.cls-18,.cls-19,.cls-20{mix-blend-mode:multiply;}.cls-19{fill:#63e4e6;}.cls-21{fill:#88bdda;}.cls-22{fill:#91e2f6;}.cls-23{fill:#001f46;}.cls-24{fill:#367082;}.cls-25{fill:#3d7aa8;}.cls-26{fill:#74b2e8;}.cls-27{fill:#86c0f0;}.cls-28{fill:#e6b09c;}.cls-29{fill:#316091;}.cls-30{fill:#879ba6;}.cls-31{fill:#33a8b5;}.cls-32{fill:#b0bfde;}.cls-33{fill:#282723;}.cls-34{fill:#d1dbea;}.cls-35{fill:#d0dee6;}.cls-36{fill:#acd5f4;}.cls-37{fill:#86bbd8;}.cls-38{fill:url(#New_Gradient_Swatch_39);}.cls-39{fill:#e9d6b8;}.cls-40{fill:#2c5eea;}.cls-41{fill:#e2c59c;}.cls-42{fill:none;stroke:#fff;stroke-width:4.38px;}.cls-43{fill:#fff;}</style><radialGradient id="New_Gradient_Swatch_39" cx="6324.72" cy="330.03" r="383.47" gradientTransform="matrix(-1, 0, 0, 1, 7059.94, 0)" gradientUnits="userSpaceOnUse"><stop offset="0" stop-color="#cdf7f1"/><stop offset="1" stop-color="#5dcfca"/></radialGradient></defs><g class="cls-1"><g id="Camada_1" data-name="Camada 1"><path class="cls-2" d="M1044.08,282.49s7.29,10.8-5.94,23.19c-22.55,21.11-51.65,32.76-57.27,35.2s-22.73,6.45-28.48-1.13,11.87-21.64,11.87-21.64,19.8-10.89,37.62-22.31S1044.08,282.49,1044.08,282.49Z"/><path class="cls-2" d="M925.58,261.49s21.86-10.93,23.68-5.46c8,24,20.27,49.93,21.59,55.92s1.94,23.55-6.6,27.73-18.94-15.82-18.94-15.82-6.88-21.53-14.64-41.22S925.58,261.49,925.58,261.49Z"/><path class="cls-3" d="M1023.91,282c.53,6.32,3.93,11.8,7.5,12.05h10.17c3.57-.25,7-5.73,7.49-12.05q1.26-15.63,2.5-31.26c.56-6.25-1.88-18.8-7.29-22.5a13.48,13.48,0,0,0-15.57,0c-5.41,3.7-7.86,16.25-7.3,22.5Q1022.66,266.32,1023.91,282Z"/><path class="cls-3" d="M1101.86,386.89l-27.2,44.2s40.44-19.42,38.35-37.51S1101.86,386.89,1101.86,386.89Z"/><path class="cls-4" d="M1038.88,437.06s-15.17,71.87-31,110c-14,33.76-30.35-10.16-30.35-10.16l25.58-130.72,42.16-3.2S1048.18,404,1038.88,437.06Z"/><path class="cls-4" d="M1035.37,403.31l-5.18,56,7.31,4.29s4.23,83.15,5.61,87.36c7.9,24.06,28.36,9.62,31.15,1.6s7.43-67.39,6.5-110.72l-.92-43.32Z"/><path class="cls-5" d="M998.64,298.47l27.12-13.83,7.29,3,20.94-2.28,32.52,11.14s6.6,8.6.7,39.52c-5.87,30.76-6.41,80.38-6.41,80.38l-81.1,4.81S988.88,291.7,998.64,298.47Z"/><path class="cls-5" d="M1072.56,297.8s11-9.52,23.72,8c18.87,26.12,30,56.26,32.08,62.29s4.88,24.12-3.49,29.47L1116.5,403l-18.62-10.87,3.2-5.87,2.17-2.68s-9.76-21.44-20.22-40.86S1072.56,297.8,1072.56,297.8Z"/><polygon class="cls-2" points="1031.68 286.92 1036.92 296.93 1053.08 285.09 1049.9 279.4 1031.68 286.92"/><polygon class="cls-2" points="1023.01 279.71 1030.31 286.92 1023.26 295.38 1019.24 284.58 1023.01 279.71"/><path class="cls-6" d="M1072.78,689.9c.71,1,.17,3.54.17,3.54s-12.53,1.61-16.55.57a19.64,19.64,0,0,1-4.47-2.34c-.28-.18-.78-1.26-1-1.44-.5-.33-.76.23-1.19-.07a14.14,14.14,0,0,1-1.91-1.47c-1.07-6.44.4-9.05.4-9.05s10.68-4,12.66-1.26C1065.52,684.89,1071.22,687.77,1072.78,689.9Z"/><path class="cls-6" d="M983.54,675.69l-1.91,10.47H971.46s-.56-1.48-1.42-1.48-1.66,1.48-2.65,1.48H941.54s-.46-2.2.1-3a9.6,9.6,0,0,1,3.12-1.4c5.25-1.55,20.28-6.39,22.89-11.66C970.83,663.72,983.54,675.69,983.54,675.69Z"/><path class="cls-4" d="M1044.88,529s-3.38,15.73-2.89,45.46c.3,18.84,2,68.74,5.3,105.88.2,2.27,17.67.55,17.67.55s10.64-120.56,11.57-143.9C1076.82,530,1058.83,512.4,1044.88,529Z"/><path class="cls-4" d="M984.6,534.91s5.5-2.16,20.47,2.16c9.75,2.81-20,140.33-20,140.33l-22-8.1,15.16-135.82Z"/><path class="cls-7" d="M1035,220.82v-7.23h-15.62a9.51,9.51,0,0,0-9.51,9.51v7.23h15.62A9.51,9.51,0,0,0,1035,220.82Z"/><path class="cls-3" d="M1050,264.7a8.46,8.46,0,0,1-8.46,8.46h-19.19a8.45,8.45,0,0,1-8.45-8.46V226.33a8.45,8.45,0,0,1,8.45-8.46h19.19a8.46,8.46,0,0,1,8.46,8.46Z"/><path class="cls-7" d="M1035.6,213.59a9.5,9.5,0,0,1,8,4.31h3.26a7.36,7.36,0,0,1,7.37,7.36v18.2H1049v-7.39a5.2,5.2,0,0,0-5.18-5.19h-15.66a9.5,9.5,0,0,1-9.5-9.51v-7.78Z"/><path class="cls-3" d="M1047.36,248.19a4.51,4.51,0,0,1,4.52-4.5h.37a4.51,4.51,0,0,1,4.51,4.5v5.48a4.52,4.52,0,0,1-4.51,4.52h-.37a4.51,4.51,0,0,1-4.13-2.69"/><polygon class="cls-8" points="948.58 295.23 952.57 284.2 967.62 669.7 963.2 669.7 948.58 295.23"/><polygon class="cls-8" points="965.01 669.7 963.2 669.7 948.58 295.23 950.22 290.71 965.01 669.7"/><polygon class="cls-8" points="901.89 491.02 967.48 491.02 958.18 252.9 892.59 252.9 901.89 491.02"/><polygon class="cls-5" points="798.78 450.53 792.91 443.71 770.75 681.84 777.25 681.84 798.78 450.53"/><polygon class="cls-2" points="774.59 681.84 777.25 681.84 798.78 450.53 796.37 447.73 774.59 681.84"/><polygon class="cls-5" points="929.14 450.53 923.27 443.71 901.11 681.84 907.61 681.84 929.14 450.53"/><polygon class="cls-2" points="904.95 681.84 907.61 681.84 929.14 450.53 926.73 447.73 904.95 681.84"/><polygon class="cls-9" points="935.32 491.02 778.97 491.02 801.13 252.9 957.48 252.9 935.32 491.02"/><path class="cls-3" d="M948.61,252.35c-1.54,2.26-1.34,2.17-1.34,2.17a10.12,10.12,0,0,0-6.38,0c-1.54.6-6.11,3.16-6.11,3.16l-6.84,3.72-3,2s-1.63,1.25-2.27,1.22c-1.87-.09-1.11-1.46-1.11-1.46l11.1-8.69-12.44,5.26s-1.71.41-2.23-.34,0-.95,0-.95l12.66-9.23-6.73,2s-1.68.37-2.23-.34-.79-1-.79-1L934,244S950.15,250.08,948.61,252.35Z"/><path class="cls-3" d="M930.9,252.6l-9,3.2a8,8,0,0,1-3.09.82,1.26,1.26,0,0,1-1.26-1.3l13-6.13Z"/><polygon class="cls-10" points="807.02 401.02 802.13 401.02 797.08 449.06 801.97 449.06 807.02 401.02"/><polygon class="cls-10" points="814.19 401.02 809.3 401.02 804.25 449.06 809.14 449.06 814.19 401.02"/><polygon class="cls-10" points="821.35 401.02 816.47 401.02 811.42 449.06 816.3 449.06 821.35 401.02"/><polygon class="cls-10" points="828.52 401.02 823.64 401.02 818.59 449.06 823.48 449.06 828.52 401.02"/><polygon class="cls-10" points="835.69 401.02 830.8 401.02 825.75 449.06 830.64 449.06 835.69 401.02"/><polygon class="cls-10" points="842.87 401.02 837.98 401.02 832.93 449.06 837.82 449.06 842.87 401.02"/><polygon class="cls-10" points="850.03 401.02 845.13 401.02 840.09 449.06 844.98 449.06 850.03 401.02"/><polygon class="cls-10" points="857.19 401.02 852.31 401.02 847.26 449.06 852.15 449.06 857.19 401.02"/><polygon class="cls-10" points="864.36 401.02 859.47 401.02 854.42 449.06 859.31 449.06 864.36 401.02"/><polygon class="cls-10" points="871.53 401.02 866.64 401.02 861.6 449.06 866.49 449.06 871.53 401.02"/><polygon class="cls-10" points="878.7 401.02 873.81 401.02 868.76 449.06 873.65 449.06 878.7 401.02"/><polygon class="cls-10" points="885.86 401.02 880.98 401.02 875.93 449.06 880.82 449.06 885.86 401.02"/><polygon class="cls-10" points="893.04 401.02 888.15 401.02 883.1 449.06 887.99 449.06 893.04 401.02"/><polygon class="cls-10" points="900.21 401.02 895.32 401.02 890.27 449.06 895.15 449.06 900.21 401.02"/><polygon class="cls-10" points="907.37 401.02 902.48 401.02 897.43 449.06 902.32 449.06 907.37 401.02"/><polygon class="cls-10" points="914.54 401.02 909.65 401.02 904.6 449.06 909.49 449.06 914.54 401.02"/><polygon class="cls-10" points="921.7 401.02 916.82 401.02 911.77 449.06 916.65 449.06 921.7 401.02"/><polygon class="cls-10" points="928.87 401.02 923.99 401.02 918.94 449.06 923.82 449.06 928.87 401.02"/><polygon class="cls-11" points="806.1 409.79 801.21 409.79 797.08 449.06 801.97 449.06 806.1 409.79"/><polygon class="cls-12" points="812.65 415.6 807.77 415.6 804.25 449.06 809.14 449.06 812.65 415.6"/><polygon class="cls-13" points="818.27 430.28 813.39 430.28 811.42 449.06 816.3 449.06 818.27 430.28"/><polygon class="cls-14" points="826.28 422.32 821.4 422.32 818.59 449.06 823.48 449.06 826.28 422.32"/><polygon class="cls-11" points="831.43 441.54 826.54 441.54 825.75 449.06 830.64 449.06 831.43 441.54"/><polygon class="cls-12" points="839.79 430.26 834.9 430.26 832.93 449.06 837.82 449.06 839.79 430.26"/><polygon class="cls-13" points="847.66 423.57 842.76 423.57 840.09 449.06 844.98 449.06 847.66 423.57"/><polygon class="cls-14" points="854.21 429.42 849.32 429.42 847.26 449.06 852.15 449.06 854.21 429.42"/><polygon class="cls-11" points="863.44 409.79 858.55 409.79 854.42 449.06 859.31 449.06 863.44 409.79"/><polygon class="cls-12" points="870.09 414.8 865.2 414.8 861.6 449.06 866.49 449.06 870.09 414.8"/><polygon class="cls-13" points="878.26 405.2 873.37 405.2 868.76 449.06 873.65 449.06 878.26 405.2"/><polygon class="cls-14" points="883.76 421.07 878.87 421.07 875.93 449.06 880.82 449.06 883.76 421.07"/><polygon class="cls-11" points="892.03 410.62 887.14 410.62 883.1 449.06 887.99 449.06 892.03 410.62"/><polygon class="cls-12" points="898.45 417.73 893.56 417.73 890.27 449.06 895.15 449.06 898.45 417.73"/><polygon class="cls-13" points="904.34 429.84 899.45 429.84 897.43 449.06 902.32 449.06 904.34 429.84"/><polygon class="cls-14" points="909.8 446.13 904.9 446.13 904.6 449.06 909.49 449.06 909.8 446.13"/><polygon class="cls-11" points="920.17 415.64 915.28 415.64 911.77 449.06 916.65 449.06 920.17 415.64"/><polygon class="cls-12" points="928.04 408.96 923.15 408.96 918.94 449.06 923.82 449.06 928.04 408.96"/><polygon class="cls-15" points="938.39 285.66 811.51 285.66 811.75 283.65 938.63 283.65 938.39 285.66"/><polygon class="cls-15" points="910.26 289.33 811.05 289.33 811.3 287.32 910.51 287.32 910.26 289.33"/><polygon class="cls-16" points="838.9 339.25 812.93 339.25 813.18 337.25 839.14 337.25 838.9 339.25"/><polygon class="cls-15" points="830.35 342.93 820.58 342.93 820.83 340.92 830.59 340.92 830.35 342.93"/><polygon class="cls-17" points="872.51 280.74 811.91 280.74 812.31 277.48 872.91 277.48 872.51 280.74"/><polygon class="cls-15" points="888.38 371.53 801.82 371.53 801.99 369.52 888.54 369.52 888.38 371.53"/><polygon class="cls-15" points="869.19 375.2 801.51 375.2 801.68 373.19 869.36 373.19 869.19 375.2"/><polygon class="cls-17" points="862.97 366.61 802.37 366.61 802.77 363.35 863.37 363.35 862.97 366.61"/><polygon class="cls-15" points="820.42 300.5 819.33 297.4 814.45 297.4 814.49 297.11 819.55 297.11 819.58 297.19 820.7 300.37 820.42 300.5"/><polygon class="cls-15" points="820.25 295.85 814.65 295.85 814.79 294.64 820.39 294.64 820.25 295.85"/><polygon class="cls-15" points="830.41 311.95 832.26 308.85 837.14 308.85 837.17 308.56 832.11 308.56 832.06 308.64 830.16 311.82 830.41 311.95"/><polygon class="cls-15" points="831.73 307.3 837.33 307.3 837.48 306.1 831.87 306.1 831.73 307.3"/><polygon class="cls-15" points="841.71 306.73 843.55 303.63 848.43 303.63 848.47 303.34 843.4 303.34 843.36 303.42 841.46 306.6 841.71 306.73"/><polygon class="cls-15" points="843.02 302.08 848.62 302.08 848.77 300.87 843.17 300.87 843.02 302.08"/><polygon class="cls-18" points="821.34 300.56 824.88 316.97 828.42 333.37 817.32 333.37 806.21 333.37 813.78 316.97 821.34 300.56"/><polygon class="cls-19" points="830.06 313.03 832.26 323.2 834.45 333.37 827.56 333.37 820.68 333.37 825.37 323.2 830.06 313.03"/><polygon class="cls-20" points="841.37 307.69 844.14 320.53 846.91 333.37 838.21 333.37 829.52 333.37 835.44 320.53 841.37 307.69"/><polygon class="cls-16" points="884.82 339.25 858.85 339.25 859.09 337.25 885.06 337.25 884.82 339.25"/><polygon class="cls-15" points="876.26 342.93 866.5 342.93 866.74 340.92 876.51 340.92 876.26 342.93"/><polygon class="cls-15" points="875.98 302.1 874.89 299.01 870.02 299.01 870.05 298.72 875.11 298.72 875.14 298.8 876.26 301.98 875.98 302.1"/><polygon class="cls-15" points="875.81 297.45 870.21 297.45 870.36 296.25 875.96 296.25 875.81 297.45"/><polygon class="cls-15" points="866.38 311.55 865.29 308.45 860.42 308.45 860.46 308.16 865.51 308.16 865.54 308.25 866.66 311.42 866.38 311.55"/><polygon class="cls-15" points="866.21 306.9 860.61 306.9 860.76 305.69 866.36 305.69 866.21 306.9"/><polygon class="cls-15" points="886.44 306.52 888.29 303.43 893.16 303.43 893.2 303.14 888.14 303.14 888.09 303.22 886.19 306.4 886.44 306.52"/><polygon class="cls-15" points="887.75 301.88 893.36 301.88 893.5 300.67 887.9 300.67 887.75 301.88"/><polygon class="cls-18" points="867.13 313.03 869.33 323.2 871.52 333.37 864.64 333.37 857.75 333.37 862.44 323.2 867.13 313.03"/><polygon class="cls-19" points="876.38 302.79 879.68 318.08 882.98 333.37 872.63 333.37 862.27 333.37 869.33 318.08 876.38 302.79"/><polygon class="cls-20" points="885.67 307.69 888.45 320.53 891.21 333.37 882.52 333.37 873.83 333.37 879.75 320.53 885.67 307.69"/><polygon class="cls-16" points="929.52 339.25 903.56 339.25 903.8 337.25 929.77 337.25 929.52 339.25"/><polygon class="cls-15" points="920.97 342.93 911.21 342.93 911.45 340.92 921.22 340.92 920.97 342.93"/><polygon class="cls-15" points="908.56 323.2 907.47 320.11 902.6 320.11 902.63 319.82 907.69 319.82 907.72 319.9 908.84 323.08 908.56 323.2"/><polygon class="cls-15" points="908.39 318.56 902.78 318.56 902.93 317.35 908.53 317.35 908.39 318.56"/><polygon class="cls-15" points="927.77 311.95 929.62 308.85 934.5 308.85 934.53 308.56 929.47 308.56 929.42 308.64 927.52 311.82 927.77 311.95"/><polygon class="cls-15" points="929.08 307.3 934.69 307.3 934.84 306.1 929.23 306.1 929.08 307.3"/><polygon class="cls-15" points="921.98 303.51 923.82 300.41 928.7 300.41 928.74 300.12 923.68 300.12 923.63 300.2 921.73 303.39 921.98 303.51"/><polygon class="cls-15" points="923.29 298.86 928.89 298.86 929.04 297.65 923.44 297.65 923.29 298.86"/><polygon class="cls-18" points="909.02 324.16 910.02 328.77 911.01 333.37 907.89 333.37 904.77 333.37 906.9 328.77 909.02 324.16"/><polygon class="cls-19" points="921.38 304.59 924.48 318.98 927.59 333.37 917.85 333.37 908.11 333.37 914.74 318.98 921.38 304.59"/><polygon class="cls-20" points="927.52 313.03 929.71 323.2 931.9 333.37 925.02 333.37 918.13 333.37 922.83 323.2 927.52 313.03"/><path class="cls-21" d="M569.74,594.53,576,604l-52.36,16.77s-3.5-3.34,9.35-10.06C547.92,602.92,569.74,594.53,569.74,594.53Z"/><path class="cls-21" d="M579,594.53,572.81,604l52.36,16.77s3.5-3.34-9.35-10.06C600.86,602.92,579,594.53,579,594.53Z"/><rect class="cls-21" x="568.92" y="566.25" width="10.94" height="38.96"/><path class="cls-22" d="M569,596.53l5.33,9.08-44.82,16s-3-3.19,8-9.6C550.36,604.54,569,596.53,569,596.53Z"/><path class="cls-22" d="M579.74,596.53l-5.34,9.08,44.83,16s3-3.19-8-9.6C598.42,604.54,579.74,596.53,579.74,596.53Z"/><path class="cls-23" d="M534.63,625.21a3.81,3.81,0,1,1-3.81-3.8A3.81,3.81,0,0,1,534.63,625.21Z"/><path class="cls-23" d="M621.48,625.21a3.81,3.81,0,1,1-3.81-3.8A3.81,3.81,0,0,1,621.48,625.21Z"/><path class="cls-24" d="M525.42,625.21a3.8,3.8,0,1,1-3.8-3.8A3.8,3.8,0,0,1,525.42,625.21Z"/><path class="cls-24" d="M630.68,625.21a3.8,3.8,0,1,1-3.8-3.8A3.8,3.8,0,0,1,630.68,625.21Z"/><rect class="cls-24" x="570.25" y="551.97" width="8" height="14.01"/><path class="cls-24" d="M584.25,544.57a7.8,7.8,0,0,1-7.8,7.8h-4.4a7.81,7.81,0,0,1-7.81-7.8h0a7.81,7.81,0,0,1,7.81-7.81h4.4a7.81,7.81,0,0,1,7.8,7.81Z"/><path class="cls-14" d="M633.73,537.43c.2-.92.31-6.68.31-7.67,0-6.3-4.08-11.41-9.1-11.41H523.56c-5,0-9.1,5.11-9.1,11.41,0,1,.11,6.75.3,7.67Z"/><path class="cls-24" d="M513.53,540.52c0,1.93,1.12,3.49,2.51,3.49H632.45c1.4,0,2.52-1.56,2.52-3.49h0c0-1.93-1.12-3.49-2.52-3.49H516c-1.39,0-2.51,1.56-2.51,3.49Z"/><path class="cls-25" d="M593.78,518s-65.19.14-90.36.52c-17.41.26-19-24.56-12.13-28.3,20.85-11.34,85.91-17.18,85.91-17.18l44.25,40.64S619,513.66,593.78,518Z"/><path class="cls-26" d="M532.31,385s-16.76-4.69-24.06,17.2c-11.19,33.6-10.2,64.4-8.64,71,.71,3,2.87,13.46,21.6,13.86,7.59.16,4.55-16.12,4.55-16.12s4.87-13.81,10.06-37.2S532.31,385,532.31,385Z"/><path class="cls-27" d="M519.05,386.89,562,373l32.54-2.19,35.66,10.79s11.66,8,.83,33.89-6.67,66.34-6.67,66.34l-92,2.95a748,748,0,0,0-7.84-74.88C523.23,401.53,523.06,391.69,519.05,386.89Z"/><path class="cls-26" d="M582.15,483h-4.69a389.67,389.67,0,0,1,.73-109.46l4.24,2.52C581.24,412.86,583.27,449.7,582.15,483Z"/><path class="cls-28" d="M563.87,383.12c.64,5,4.7,9.28,9,9.48H585c4.27-.2,8.33-4.51,9-9.48q1.5-12.3,3-24.59c.66-4.92-2.26-14.79-8.72-17.7a23.18,23.18,0,0,0-18.61,0c-6.47,2.91-9.39,12.78-8.72,17.7Q562.38,370.83,563.87,383.12Z"/><polygon class="cls-26" points="579.4 393.22 587.11 405.87 601.25 388.18 599.03 378.89 594.44 375.12 594.38 382.12 579.4 393.22"/><polygon class="cls-26" points="578.46 393.22 570.75 405.87 557.59 389.4 559.75 379.3 563.05 375.05 564.38 383.31 578.46 393.22"/><path class="cls-7" d="M580.75,325.22a9.74,9.74,0,0,1,8.14,4.4h3.33a7.54,7.54,0,0,1,7.54,7.54v18.61h-5.3V348.2a5.31,5.31,0,0,0-5.3-5.3h-1.43a9.72,9.72,0,0,1-9.73-9.72v-8Z"/><path class="cls-28" d="M590.15,362.7a4.6,4.6,0,0,0,4.61,4.61h.39a4.61,4.61,0,0,0,4.61-4.61v-5.6a4.61,4.61,0,0,0-4.61-4.61h-.39a4.62,4.62,0,0,0-4.22,2.74"/><path class="cls-7" d="M584.88,332.62v-7.4h-16a9.73,9.73,0,0,0-9.73,9.73v7.39h16A9.72,9.72,0,0,0,584.88,332.62Z"/><path class="cls-3" d="M560.56,369.77c0,3.87,3,10.41,7.87,12.49a28.27,28.27,0,0,0,21.18,0c4.91-2.07,7.84-8.61,7.87-12.48V336.85c0-3.89-3.85-7.16-8.65-7.25H569.21c-4.79.09-8.68,3.36-8.65,7.25Z"/><path class="cls-7" d="M575.24,325.22a9.74,9.74,0,0,0-8.13,4.4h-3.34a7.53,7.53,0,0,0-7.53,7.54v18.61h5.3V348.2a5.31,5.31,0,0,1,5.3-5.3h6.78a9.72,9.72,0,0,0,9.72-9.72v-8Z"/><path class="cls-3" d="M565.78,357.09a4.61,4.61,0,0,0-4.62-4.6h-.38a4.6,4.6,0,0,0-4.61,4.6v5.61a4.61,4.61,0,0,0,4.61,4.61h.38a4.62,4.62,0,0,0,4.23-2.75"/><path class="cls-7" d="M583.34,334.53a10.06,10.06,0,0,1-.19-1.91v-7.4H590a9.73,9.73,0,0,1,9.72,9.73v7.39h-6.89a10.12,10.12,0,0,1-2-.21A9.71,9.71,0,0,0,583.34,334.53Z"/><path class="cls-6" d="M668.7,642.7c1,1.22.27,4.42.27,4.42s-17.55,2-23.19.63a30.12,30.12,0,0,1-6.29-3c-.39-.23-1.09-1.57-1.47-1.8-.7-.42-1.07.28-1.68-.1a19.62,19.62,0,0,1-2.68-1.85c-1.54-8,.51-11.29.51-11.29s15-5,17.75-1.51C658.51,636.4,666.51,640,668.7,642.7Z"/><path class="cls-6" d="M504.68,633.94l-1.22,13.26-13.27,1.3s-.92-1.77-2-1.66c-.95.1-2,2.06-3.28,2.18l-7.13.7-26.63,2.61s-.87-2.68-.23-3.7c.33-.52,2.47-1.58,3.91-2.14,6.67-2.6,25.7-10.53,28.47-17.42C486.63,620.7,504.68,633.94,504.68,633.94Z"/><path class="cls-3" d="M524.75,466.11l44.87,18.33s-31.83,4.54-51.73.48C504.43,482.18,524.13,465.52,524.75,466.11Z"/><path class="cls-25" d="M626.61,494s4.32,41,3.7,62.64c-.46,16.34-.51,47.66,3.38,74.36.24,1.63,21.12.4,21.12.4s7.48-101.59,9.71-118.33S660.28,484.3,626.61,494Z"/><path class="cls-29" d="M495.32,503.91s6.73,10.62,25.18,13.13C527.17,518,509.75,636,509.75,636l-27.26-8.72,5.27-130.51Z"/><path class="cls-29" d="M570.53,517s35.63,5.09,59.42,7.58c8.72.92,16.28-23.5,17.29-24.56,6.37-6.67,12.65-5.82,12.43-6.06-5.15-5.57-31.84-10.74-59.73-17.28s-32.14-2.42-32.14-2.42Z"/><path class="cls-25" d="M599.94,476.72c27.89,6.54,54.58,11.71,59.73,17.28.22.24-6.06-.61-12.43,6.06-.28.3-1.89,8.12-3,10.92,4.54-8.19-61-31.29-75.16-37.28C571.69,472.86,579.4,471.9,599.94,476.72Z"/><polygon class="cls-29" points="630.56 516.74 633.29 596.48 636.02 614.98 636.32 596.48 635.72 584.96 642.08 567.07 645.42 525.53 640.57 527.35 641.17 509.16 630.56 516.74"/><path class="cls-25" d="M496.24,494l-6.66,1.82-2.43,95.81,14,34.26-6.67-23.34,2.72-48.21s9.71,23.34,9.71,22.13-8.19-50.63-8.19-50.63,9.1,7.58,8.19,7.27S501.4,498.55,496.24,494Z"/><path class="cls-27" d="M610.53,382s14.33-11.22,28.34,9.61c20.54,30.53,29.46,63,32.72,72.39,2.5,7.21,1.13,27.59-7.27,36-2,2-14.15.4-14.15.4l-8-5.51,3.33-6.41.18-5.06S635.54,458.83,623,435.62,610.53,382,610.53,382Z"/><path class="cls-3" d="M645.55,475.31,599,477.74s44.8,20.55,46.28,17C653.72,474.68,645.55,475.31,645.55,475.31Z"/><path class="cls-3" d="M620,473.88c-2.71-1.3-2.47-1.33-2.47-1.33a11.15,11.15,0,0,1-6.08,3.51c-1.79.28-7.56.35-7.56.35l-8.56.21-4-.23s-2.24-.29-2.84.09c-1.73,1.11-.25,2-.25,2l15.36,2.18-14.75,1.83s-1.86.55-2,1.55.54.9.54.9l17.14,1.83-7.52,1.8s-1.79.58-1.93,1.55-.22,1.35-.22,1.35l15.76-1.54S622.68,475.19,620,473.88Z"/><path class="cls-3" d="M603,483.37l-10.31,1.89a8.5,8.5,0,0,0-3.4.92,1.38,1.38,0,0,0-.5,1.92l15.82-1.33Z"/><path class="cls-13" d="M538.29,491.49a.93.93,0,0,0,0-.1l0-2.93h91.64v2.93a.31.31,0,0,1,0,.1l-.32.54c-1.56,2.55-4.36,3-7.57,3H546.17c-3.21,0-6-.45-7.57-3Z"/><rect class="cls-30" x="553.75" y="489.14" width="60.67" height="2.07"/><path class="cls-10" d="M538.35,488.77l-.25-60.07a2.86,2.86,0,0,1,2.86-2.87h85.77a2.87,2.87,0,0,1,2.87,2.87l.25,60.07Z"/><path class="cls-13" d="M578.42,457.3a5.56,5.56,0,1,0,5.53-5.55A5.52,5.52,0,0,0,578.42,457.3Z"/><polygon class="cls-26" points="651.59 498.55 654.78 478.16 649.49 472.71 637.74 474.59 640.14 497.16 651.59 498.55"/><polygon class="cls-27" points="508.99 483.91 507.77 476.41 522.63 463.08 530.66 466.7 520.15 486.82 508.99 483.91"/><path class="cls-24" d="M248,593.17a16.75,16.75,0,0,1-11.08-4c-5.56-4.84-8-13.45-7.17-25.59.55-8.2,3.78-16.49,7.19-25.28,5.75-14.77,12.26-31.52,8.85-53.67l6.33-1c3.67,23.84-3.47,42.21-9.21,57-3.37,8.68-6.29,16.17-6.77,23.38-.65,9.85,1,16.86,4.93,20.29a10.63,10.63,0,0,0,8.46,2.38l1.28,6.27A15.17,15.17,0,0,1,248,593.17Z"/><path class="cls-21" d="M297.07,644l6.23,9.51-52.36,16.77s-3.5-3.34,9.35-10.06C275.25,652.35,297.07,644,297.07,644Z"/><path class="cls-21" d="M306.37,644l-6.24,9.51,52.36,16.77s3.5-3.34-9.35-10.06C328.18,652.35,306.37,644,306.37,644Z"/><rect class="cls-21" x="296.24" y="615.68" width="10.94" height="38.96"/><path class="cls-22" d="M296.36,646,301.7,655l-44.82,16s-3-3.19,8-9.6C277.69,654,296.36,646,296.36,646Z"/><path class="cls-22" d="M307.06,646,301.73,655l44.83,16s3-3.19-8-9.6C325.75,654,307.06,646,307.06,646Z"/><path class="cls-23" d="M262,674.64a3.8,3.8,0,1,1-3.8-3.8A3.8,3.8,0,0,1,262,674.64Z"/><path class="cls-23" d="M348.8,674.64a3.8,3.8,0,1,1-3.8-3.8A3.8,3.8,0,0,1,348.8,674.64Z"/><path class="cls-24" d="M252.75,674.64a3.81,3.81,0,1,1-3.81-3.8A3.81,3.81,0,0,1,252.75,674.64Z"/><path class="cls-24" d="M358,674.64a3.81,3.81,0,1,1-3.81-3.8A3.81,3.81,0,0,1,358,674.64Z"/><rect class="cls-24" x="297.57" y="601.4" width="8" height="14.01"/><path class="cls-24" d="M311.58,594a7.8,7.8,0,0,1-7.8,7.8h-4.41a7.8,7.8,0,0,1-7.8-7.8h0a7.81,7.81,0,0,1,7.8-7.81h4.41a7.8,7.8,0,0,1,7.8,7.81Z"/><path class="cls-14" d="M361.06,586.86c.19-.92.3-6.68.3-7.67,0-6.3-4.07-11.41-9.09-11.41H250.88c-5,0-9.09,5.11-9.09,11.41,0,1,.11,6.75.3,7.67Z"/><path class="cls-24" d="M240.85,590c0,1.93,1.13,3.49,2.52,3.49H359.78c1.39,0,2.52-1.56,2.52-3.49h0c0-1.93-1.13-3.49-2.52-3.49H243.37c-1.39,0-2.52,1.56-2.52,3.49Z"/><path class="cls-14" d="M246.53,528.32c2.5.19,18.39.47,21.13.5,17.39.21,32.38-3.05,33.21-7.34a148.48,148.48,0,0,0,.45-53.87c-.74-4.28-15.95-7.55-33.71-7.33-2.79,0-19,.32-21.56.5A145.71,145.71,0,0,1,246.53,528.32Z"/><path class="cls-24" d="M244.14,460.78c-1.95,0-3.31,1-3,2.06a145.51,145.51,0,0,1,.54,63.43c-.24,1.12,1.11,2,3,2.06h0c1.91,0,3.67-.86,3.91-2a145.88,145.88,0,0,0-.41-63.58c-.27-1.13-2.06-2-4-2Z"/><path class="cls-31" d="M243.36,528.29a42.24,42.24,0,0,0,4.56.3c3.79,0,7.69-3.3,8.45-7.51a146,146,0,0,0-.24-53.05c-.79-4.22-4.79-7.56-8.66-7.51a43.91,43.91,0,0,0-4.65.31A145.64,145.64,0,0,1,243.36,528.29Z"/><path class="cls-28" d="M348.85,477.56S349,482,370.46,482s53-5.27,53-5.27l-49.57-4.68S354.9,471.17,348.85,477.56Z"/><path class="cls-28" d="M406.59,478.3c10.22.33,14.44,5.59,18.44,7.3a73.38,73.38,0,0,1,8,4.23c-2.14-4.44-5.43-4.67-7-6.14s-1.2-.74,2.44-.9c2.07-.08,5.6,3.67,8.15,5.78a8.41,8.41,0,0,0,3.63,2,44.55,44.55,0,0,0-5.81-6.84,52.19,52.19,0,0,0-10.07-7.38c-2.16-.92-9-1.37-13.87-.88C404.92,476,399.24,478.07,406.59,478.3Z"/><path class="cls-28" d="M423.75,476.53s7.75,2.24,9.09,3.32c.94.75,4.8,5.07,4.8,5.07a10.23,10.23,0,0,1-4.55-2.21C431.45,481.08,423.75,476.53,423.75,476.53Z"/><path class="cls-32" d="M358.58,468.55s-19.82.57-18.86,12.34c.54,6.69,5,9.16,11,8.88,11.14-.52,23.77-1.7,23.77-1.7l6.24-18Z"/><path class="cls-32" d="M354.38,470l-17.29-61s-2.54-8.94-7.3-7.44c-6.87,2.16-3.76,9.51-3.31,13.82.91,8.78,0,12.56,5.5,33.86,3.41,13.13,6.23,28.23,9.3,36.89,2.12,6,6.35-2.33,12.41-4.48C365,477.64,354.38,470,354.38,470Z"/><path class="cls-33" d="M320.84,389.31c-3,13.28-16.39,21.58-29.95,18.54s-22.16-16.27-19.18-29.55,16.38-21.59,30-18.55S323.82,376,320.84,389.31Z"/><path class="cls-33" d="M344,375.66A18.93,18.93,0,0,1,321.41,390l-2.66-9.81a18.92,18.92,0,0,1-14.33-22.61l1.55-6.92a18.94,18.94,0,0,1,22.62-14.34l4.61,1A18.94,18.94,0,0,1,347.54,360Z"/><path class="cls-3" d="M342.72,346.84a38.08,38.08,0,0,1-1.61,5.11c-4.52,11.44-13.75,18.83-21.88,18.18a57.85,57.85,0,0,1-5.82,13.72c-2.52,4.35-9.11,8.06-9.11,8.06-3.19,8,28.77,34.73,30.14,34,2.9-1.48-2.3-20.69-7.53-26.64-2.45-2.79-5-6.07-5-7.95-.18-6.6,1.91-8,5.08-11a15.52,15.52,0,0,1,11.94-2.69,2.16,2.16,0,0,0,1.71-.33,13.16,13.16,0,0,0,1.45-3.73l3.41-15.24A13.37,13.37,0,0,0,342.72,346.84Z"/><path class="cls-8" d="M309.58,516.74s8.19,7.42,10.49,8.08c3.08.88,11.71-2.85,11.71-2.85s-2.38-38.45-1.49-53.69,4.46-19.64,4-24.35c-.66-7.52,5.45-11.36,3.64-17.1s-6.33-26.35-6.64-23.49c-2.66,24.38-12,5.58-13.87,2.64C316.44,404.36,309.58,516.74,309.58,516.74Z"/><path class="cls-34" d="M326.69,396.81s10.83,7.94,10.68,11.61,5.6,14.51,3.27,30.82c-2.66,18.61-3.65,31.1-3.1,43s6,22.17,6.2,36.78c.15,11.45-2.47,12.48-2.47,12.48a9.5,9.5,0,0,1-9.3-2.05c-4.25-3.91-3.49-43.1-2.85-53s3.72-33.1,4.43-39.88a72.26,72.26,0,0,0-.88-19.06A81.11,81.11,0,0,0,328.12,401c-.21-.53-3-2.78-3.21-3.2C324.14,396,325.8,395.81,326.69,396.81Z"/><path class="cls-32" d="M323.8,392.82s-2.25-.47-.33,2.1a5.31,5.31,0,0,1,1.11,2.66s1-1,2.44.44,3.43,3,3.43,3a36.79,36.79,0,0,0-1.66-4.1C327.69,395.93,323.8,392.82,323.8,392.82Z"/><path class="cls-33" d="M313.67,422.78c-3.11,13.87-17.12,22.55-31.29,19.37s-23.13-17-20-30.87,17.12-22.54,31.29-19.37S316.77,408.91,313.67,422.78Z"/><polygon class="cls-3" points="367.76 648.29 362.85 685.99 384.1 695.75 395.9 698.23 374.96 682.6 381.81 648.58 367.76 648.29"/><path class="cls-6" d="M361.46,691.68l4.61,1.2,3.09-2.79,17,8.25,15.06,3.44a2.78,2.78,0,0,0-.32-1.81c-1.9-2.39-12.44-7.71-12.44-7.71s-.17,3.49-1.67,3.59-14.51-6.5-17.51-8.34c-5.18-3.16-6.15-5.13-6.55-4.88C361.67,683.28,361.46,691.68,361.46,691.68Z"/><polygon class="cls-3" points="419.06 595.85 435.94 627.98 459.29 626.84 470.9 623.61 445.12 619.39 431.04 591.94 419.06 595.85"/><path class="cls-6" d="M437.33,633.67l4.64-1.06,1.46-3.9,20.94-.3,12.5-2.83a10.62,10.62,0,0,0-2.44-2c-2.79-1.12-12.67-1.7-12.67-1.7s1,2.74-.24,3.52-15.68,1.25-19.2,1c-6.05-.42-7.82-1.71-8.06-1.32C433.64,626.12,437.33,633.67,437.33,633.67Z"/><path class="cls-4" d="M295.71,499.76l12.59,5.48,5.48,16.43,81-13.34s8.26-2.54,13.51,10.49c7.48,18.56,26.52,76.25,26.52,76.25l-12.05,12.6L385,542.49S307.54,578.81,282,571c-9.8-3-17.28-20.31-15.89-37.8A225,225,0,0,1,270,506.88Z"/><path class="cls-7" d="M306.66,570.54l62-4.45-5.33,95.62,18.28.58,13.5-112s-3.65-16.66-15.48-14.15S339.13,560.61,306.66,570.54Z"/><path class="cls-34" d="M314.48,524s1.49-38.9,2.63-57.36.89-54.06,1.14-58.5a54.56,54.56,0,0,0-1-10.69s-5.61-9.57-11.86-8.73c-5.49.73-14,8.38-19.28,11.92s-4.62,68.52-4.88,71.79c-.94,11.82-8,23.49-13.29,34.84-3.4,7.28-4.19,18.77-4.19,18.77S295.34,520,314.48,524Z"/><polygon class="cls-32" points="307.37 385.73 311.82 390.11 318.08 396.83 314.9 404.36 303.86 388.87 307.37 385.73"/><path class="cls-3" d="M298.89,487.38s.67,4.76,26.14,1.95,62.26-12.67,62.26-12.67L328,478.15S305.3,479.7,298.89,487.38Z"/><path class="cls-3" d="M367.44,480.58c12.15-1,17.78,4.11,22.72,5.43a89.24,89.24,0,0,1,9.95,3.5c-3.06-4.5-7-4.31-9.08-5.69s-1.51-.64,2.79-1.29c2.45-.37,7.07,3.23,10.35,5.15a10.24,10.24,0,0,0,4.54,1.68,49.7,49.7,0,0,0-7.7-6.6,62,62,0,0,0-12.82-6.62c-2.66-.71-10.81-.3-16.54.88C365.18,478.34,358.68,481.3,367.44,480.58Z"/><path class="cls-3" d="M387.56,476.41s9.46,1.38,11.18,2.37c1.19.68,6.28,4.83,6.28,4.83a12.78,12.78,0,0,1-5.65-1.78C397.23,480.28,387.56,476.41,387.56,476.41Z"/><path class="cls-32" d="M309.35,476.39l-2.83-60.2s-3.25-12.61-8-15.51c-5.61-3.43-13.32,2.94-13.32,2.94s-4,9.4-1.3,53.79c1.77,29.69,4.51,45.06,18.59,42.89,13.13-2,28-5,28-5l5.27-20.26Z"/><path class="cls-35" d="M360,491.35s0-.06-.05-.09l.05-3H483.63v3s0,.06,0,.09l-.31.56c-1.59,2.59-4.44,3-7.71,3H368c-3.27,0-6.12-.46-7.71-3Z"/><path class="cls-13" d="M389.79,491.86a.1.1,0,0,1,0,.08l-.31.45a5,5,0,0,1-1.81,1.52h-18.8c-3.14,0-5.88-.38-7.41-2.47l-.3-.45a.35.35,0,0,1-.05-.08l0-1.47h28.65Z"/><rect class="cls-13" x="406.48" y="488.96" width="61.78" height="2.11"/><path class="cls-35" d="M390.47,488.16l16-60.75a4,4,0,0,1,3.67-2.91h86.75a2.16,2.16,0,0,1,2.13,2.91l-16,60.75Z"/><path class="cls-13" d="M439.53,456.33c-.82,3.1,1,5.62,4.13,5.62a7.82,7.82,0,0,0,7.1-5.62c.82-3.1-1-5.62-4.13-5.62A7.83,7.83,0,0,0,439.53,456.33Z"/><polygon class="cls-36" points="748.01 703.67 760.67 703.67 739.79 501.45 721.44 501.45 748.01 703.67"/><polygon class="cls-37" points="722.66 510.77 730.71 572.01 740.26 506.01 739.79 501.45 723.75 501.45 722.66 510.77"/><polygon class="cls-36" points="336.58 703.67 349.23 703.67 328.35 501.45 310 501.45 336.58 703.67"/><polygon class="cls-37" points="311.23 510.77 319.27 572.01 328.82 506.01 328.35 501.45 312.31 501.45 311.23 510.77"/><polygon class="cls-36" points="203.71 703.67 191.05 703.67 211.93 501.45 230.28 501.45 203.71 703.67"/><polygon class="cls-37" points="229.06 510.77 204.5 573.18 211.46 506.01 211.93 501.45 227.97 501.45 229.06 510.77"/><rect class="cls-24" x="194.22" y="494.88" width="388.74" height="11.82"/><rect class="cls-38" x="339.74" y="494.88" width="415.14" height="11.82"/><path class="cls-39" d="M673.89,417.28s4.72.64,2.09,25.93-12.18,61.84-12.18,61.84l1.1-58.86S666.31,423.69,673.89,417.28Z"/><path class="cls-39" d="M667.56,485.33c-.91,12.05,4.18,17.61,5.53,22.51a85.87,85.87,0,0,0,3.54,9.85c-4.49-3-4.33-6.92-5.7-9s-.65-1.5-1.26,2.77c-.36,2.44,3.23,7,5.16,10.24a10.26,10.26,0,0,1,1.7,4.49,49.94,49.94,0,0,1-6.61-7.6,62,62,0,0,1-6.64-12.68c-.72-2.63-.36-10.71.77-16.41C665.33,483.1,668.22,476.64,667.56,485.33Z"/><polygon class="cls-39" points="676.03 720.59 674.56 753.71 653.72 755.36 644.47 754.22 662.85 748.43 664.9 720.88 676.03 720.59"/><path class="cls-6" d="M673,758l-4.55.59-.78-1.28-17.24.24L642,755.32s-.34-1.47.44-1.91c2.35-1.34,11.28-2,11.28-2s-1.18,1.66-.24,2.39,12.42.32,15.26-.14c4.9-.82,6.46-2.28,6.61-1.87C675.77,752.79,673,758,673,758Z"/><path class="cls-4" d="M669.69,480.27l-2.81,125.32-8.54,123,18.79,1.48s17.55-123.91,19.64-134.63,24.32-96.69,14-118.63S669.69,480.27,669.69,480.27Z"/><path class="cls-39" d="M743.23,410.56C753.72,423.22,759,475.31,759,475.31s-3.46,19.94-22.75-46.95C730.47,408.28,740.64,407.44,743.23,410.56Z"/><path class="cls-39" d="M754.58,520.28l4.38-4.82,2.38-4.75.66-8.6s-.43-9.19-1.84-12.59-1.1-17-1.6-18.71-9.09-3.7-9.09-3.7,3.77,14.11,4.78,19.83-.34,14.37,0,16.63a25.56,25.56,0,0,0,2,6.88s.24-6.11.12-7.71,1.73-.9,1.73-.9.56,8.43-.21,10.67a14.15,14.15,0,0,1-2.25,4Z"/><path class="cls-8" d="M687.25,381.42,680.51,452v4.11L660.28,455s5.86-54.51,6.74-57.14,2.94-25.5,2.64-29.6.59-24.62,14.07-22.57S687.25,381.42,687.25,381.42Z"/><path class="cls-8" d="M730.94,381.42,737.68,452v4.11L757.9,455c-9.11-41.32-11.16-49.53-11.43-57.14-.09-2.78-.59-25.5-.29-29.6s.56-15.24-11.73-22.57C722.74,338.67,730.94,381.42,730.94,381.42Z"/><path class="cls-39" d="M709.15,716.78l.29,42.5L727,753.12s7.43-5.39,1-4.69c-9.38,1-7.47-2.93-7.77-10.55s1.18-22.27,1.18-22.27Z"/><path class="cls-6" d="M729.37,748.43a32.74,32.74,0,0,1-4.1,3.22c-2,1.32-8,4.23-10.25,4.69a22,22,0,0,1-5.72.3s-1.32,4.38,1.61,4.1,17.59-6.75,19.63-8.2S732.89,748.72,729.37,748.43Z"/><path class="cls-4" d="M713.06,482.62l-2.24,114.93-2.06,121.86,14.85-.78s15-122.66,16.24-133.51,19.22-83,7.21-104.06S713.06,482.62,713.06,482.62Z"/><path class="cls-40" d="M710.13,340.19s-23.06,1.56-28.53,3.91-4.29,29.3-.78,49.23,1.95,42.2-3.13,54.71-9,36.34-9,36.34l80.89-1.17s-18.37-49.63-18.37-68.78,5.07-62.91,4.68-67.21S715.21,340.19,710.13,340.19Z"/><path class="cls-4" d="M728.26,305.28A20.26,20.26,0,0,1,708,325.54l-5.07-9.63a20.26,20.26,0,0,1-20.26-20.25v-7.6a20.26,20.26,0,0,1,20.26-20.25H708a20.26,20.26,0,0,1,20.26,20.25Z"/><path class="cls-4" d="M725.76,349.38c0,15.21-12.6,27.54-28.13,27.54s-28.14-12.33-28.14-27.54,12.6-27.55,28.14-27.55S725.76,334.16,725.76,349.38Z"/><path class="cls-4" d="M739.63,361.58c0,15.22-12.6,27.56-28.14,27.56s-28.13-12.34-28.13-27.56S696,334,711.49,334,739.63,346.37,739.63,361.58Z"/><path class="cls-4" d="M696.53,293c-5.65,0-9.34,1.64-13.75,4.45.17,6.28.53,7.81.53,12,0,10-2.88,16.76-7.92,22.82,5,7.78,11.08,15.78,21.14,15.78,15.54,0,28.14-12.33,28.14-27.54S712.07,293,696.53,293Z"/><path class="cls-4" d="M728.24,304.79c0-.59.06-1.16.09-1.74a28.34,28.34,0,0,0-9.21-1.55c-15.55,0-28.14,12.34-28.14,27.56s12.59,27.54,28.14,27.54a28,28,0,0,0,27.13-20.37A36.7,36.7,0,0,1,728.24,304.79Z"/><path class="cls-4" d="M754.39,351.65a19.16,19.16,0,1,1-19.16-19.16A19.16,19.16,0,0,1,754.39,351.65Z"/><path class="cls-6" d="M85.08,718.31c.86-1,.23-3.77.23-3.77s-15-1.66-19.8-.53a25.26,25.26,0,0,0-5.36,2.51c-.34.2-.93,1.34-1.26,1.54-.61.36-.92-.24-1.43.08a17.35,17.35,0,0,0-2.29,1.58c-1.31,6.88.43,9.65.43,9.65s12.33,3.83,15.15,1.28C77.9,724.19,83.21,720.59,85.08,718.31Z"/><path class="cls-6" d="M132.51,724l2.13,11.16H146s.63-1.58,1.59-1.58c.81,0,1.86,1.58,3,1.58h29s.52-2.35-.11-3.16a11.37,11.37,0,0,0-3.51-1.49c-5.87-1.65-22.7-6.81-25.63-12.43C146.73,711.23,132.51,724,132.51,724Z"/><path class="cls-39" d="M141.56,347.59l2.71-13.53s9.62.74,11.5-4.44c3.76-10.37.6-27-1.67-31.61-6.48-13.23-9.22-36.41-39.53-18-11.52,7,6.27,41,7.6,48.35s-2.61,15.82-2.61,15.82l7.09,5.32Z"/><path class="cls-41" d="M87.66,475.66l-1,42.66S70.59,500.59,69,480.42,86.66,474.08,87.66,475.66Z"/><path class="cls-7" d="M105.73,563.58s4.44,1.93-8.64,64c-9.41,44.66-17.46,77.34-21.23,92.13-1.46,5.75-3.1,4.71-3.1,4.71l-12.45,1.39-5.93-5.14,17.8-101.22Z"/><path class="cls-39" d="M187.23,447.86l-25.5,48.91s48.66-35.21,45.6-54.57S187.23,447.86,187.23,447.86Z"/><path class="cls-32" d="M87.39,360.78s-10.34,6.32-17.78,57.66-2.71,49.37-2.71,49.37l1.36,11.7,19.33,2.08L98,437.28Z"/><path class="cls-7" d="M134.86,494.11s-28.51,118.1-50.91,171c-13.12,31-13.23-28.5-13.23-28.5L91.1,465.13l59.53-2.88S143.88,464.34,134.86,494.11Z"/><path class="cls-7" d="M114.1,462.58s21.55,152.91,23.81,159.82c7.67,23.34,19.49-7.27,22.2-15S167.32,542,166.42,500l-.91-42Z"/><path class="cls-7" d="M135.75,584.15s-3.26,18.24-6,41.54c-2,17.1-2,66,1.11,99.91.19,2.08,21.77-4.24,21.77-4.24s7.89-95,9.69-116.28S149.28,569,135.75,584.15Z"/><path class="cls-34" d="M86.75,360.89l25.46-11.56,7-6.64,27.06-.65,4.74,7.8,21,9.09s5.18,8.14.68,38.34c-5,33.47-6,84.05-6,84.05l-79.31,3.83S94.19,377.13,86.75,360.89Z"/><path class="cls-34" d="M165.24,359s4.73-5.26,16.22,9c19.61,24.36,29.1,54.57,31.13,60.42s4.63,14.13-3.39,23.85c-6.13,7.44-8.12,9.94-8.12,9.94l-17.59-11,2.77-5.27,2-2.61s-9.46-20.8-19.61-39.64S165.24,359,165.24,359Z"/><path class="cls-4" d="M145.55,301.89s-3.42-2.1-4,.53,1.31,8.43,2.9,9,2.1,7.64,2.1,7.64l-4.22,7.91H121s-6.58-2.9-7.11-7.65-5.8-38.2-5.8-38.2l15-7.91a99.73,99.73,0,0,1,13.43-5.53c8.49-2.42,10.27,2.11,10,4.48s2.37,2.63,5.8,2.63,7.65,2.64,5.8,4.22c-.76.65,2.64,2.74,1.28,5.26-1.92,3.59-8.4,4.76-8.92,10.55C150.31,297.41,149.24,306.11,145.55,301.89Z"/><path class="cls-32" d="M205.55,453.66s-6.91-4.74-7.51-5.14a10.06,10.06,0,0,0-1.77-.79l-4.94,1.58,2.76,2.37a3,3,0,0,1-2.17.4c-1.38-.2-3.56-.2-3,.79s11.07,7.71,11.85,7.9S206.74,455.83,205.55,453.66Z"/><polygon class="cls-14" points="988.17 82.41 852.53 82.41 852.53 204.88 942.1 204.88 969.05 231.83 969.05 204.88 988.17 204.88 988.17 82.41"/><path class="cls-26" d="M678.3,263.34a13,13,0,0,1-13,13H594.92a13,13,0,0,1-13-13V193a13,13,0,0,1,13-13H665.3a13,13,0,0,1,13,13Z"/><polygon class="cls-26" points="662.32 300.43 662.32 266.86 628.75 266.86 662.32 300.43"/><path class="cls-8" d="M499.38,314.75A18.21,18.21,0,0,1,481.16,333H366.56a18.21,18.21,0,0,1-18.21-18.21V244.07a18.21,18.21,0,0,1,18.21-18.21h114.6a18.21,18.21,0,0,1,18.22,18.21Z"/><polygon class="cls-8" points="376.09 352.08 376.09 332 396.16 332 376.09 352.08"/><path class="cls-36" d="M297.38,243.1l-11.83-11.91-11.47,9.63a45.37,45.37,0,0,0-14.92-6.66l-1.23-15.39-16.78-.05-1.29,14.91a45.57,45.57,0,0,0-15.26,5.84l-11.76-10-11.91,11.83,9.64,11.46a45.12,45.12,0,0,0-6.67,14.93l-15.39,1.22,0,16.79,14.91,1.3a45.73,45.73,0,0,0,5.84,15.26l-10,11.75L211,325.91l11.47-9.64a45.39,45.39,0,0,0,14.92,6.67l1.23,15.38,16.78.06,1.3-14.91A45.25,45.25,0,0,0,272,317.62l11.75,10,11.91-11.84L286,304.34a45.41,45.41,0,0,0,6.66-14.91l15.39-1.24.05-16.78-14.91-1.3a45.73,45.73,0,0,0-5.84-15.26Z"/><line class="cls-42" x1="248.59" y1="244.46" x2="248.59" y2="251.9"/><line class="cls-42" x1="266.5" y1="249.25" x2="262.78" y2="255.7"/><line class="cls-42" x1="279.61" y1="262.37" x2="273.17" y2="266.09"/><line class="cls-42" x1="284.41" y1="280.28" x2="276.97" y2="280.28"/><line class="cls-42" x1="279.61" y1="298.19" x2="273.17" y2="294.47"/><line class="cls-42" x1="266.5" y1="311.3" x2="262.78" y2="304.86"/><line class="cls-42" x1="248.59" y1="316.1" x2="248.59" y2="308.65"/><line class="cls-42" x1="230.68" y1="311.3" x2="234.4" y2="304.86"/><line class="cls-42" x1="217.57" y1="298.19" x2="224.02" y2="294.47"/><line class="cls-42" x1="212.77" y1="280.28" x2="220.21" y2="280.28"/><line class="cls-42" x1="217.57" y1="262.37" x2="224.01" y2="266.09"/><line class="cls-42" x1="230.68" y1="249.25" x2="234.4" y2="255.7"/><polyline class="cls-42" points="265.67 261.18 248.74 278.61 235.36 270.23"/><path class="cls-43" d="M428.19,249.42h4.07a3.66,3.66,0,0,0,.56.1,34.56,34.56,0,0,1,6.3,1.14,31.8,31.8,0,0,1,22.95,26.56,31.58,31.58,0,0,1-4.27,20.39,32,32,0,0,1-10.56,10.69,31.55,31.55,0,0,1-6.34,3,33.17,33.17,0,0,1-6.69,1.55,32.19,32.19,0,0,1-10.59-.44,31.54,31.54,0,0,1-8.6-3.11.86.86,0,0,0-.63-.05l-7.5,2.37L397,314.81v-.21a7.45,7.45,0,0,0,.32-.7c.32-.95.63-1.91,1-2.86,1.45-4.26,2.9-8.53,4.36-12.78a1.18,1.18,0,0,0-.12-1.08,29.49,29.49,0,0,1-3.29-8,31.72,31.72,0,0,1-.77-12A32,32,0,0,1,426,249.72ZM405,306.89c.32-.09.54-.14.75-.21,3.07-1,6.13-1.95,9.2-2.9a1.14,1.14,0,0,1,.77.08c1.21.61,2.36,1.33,3.6,1.87a26.92,26.92,0,0,0,28.85-4.52,26.46,26.46,0,0,0,3.62-36,26.76,26.76,0,0,0-6.31-6,26.29,26.29,0,0,0-10.89-4.37,27.06,27.06,0,0,0-27,11.87,26.38,26.38,0,0,0-3.69,8.58,26.71,26.71,0,0,0-.61,7.72,25.73,25.73,0,0,0,1.35,6.79,27.35,27.35,0,0,0,3.52,6.89.81.81,0,0,1,.08.61c-.62,1.88-1.27,3.75-1.9,5.63C405.93,304.22,405.5,305.5,405,306.89Z"/><path class="cls-43" d="M411.94,270.28c0-2.18,1.31-4.88,3.76-7a2.84,2.84,0,0,1,1.46-.7,19.73,19.73,0,0,1,3.35.05c.68.07,1,.74,1.2,1.29,1.08,2.51,2.12,5,3.16,7.56a2.17,2.17,0,0,1-.48,2.19c-.63.9-1.36,1.73-2.07,2.57a1.47,1.47,0,0,0-.2,2,26,26,0,0,0,10,9.76c1,.56,2.13,1,3.22,1.49a1.4,1.4,0,0,0,1.91-.49l2.88-3.55a1.45,1.45,0,0,1,2.06-.53c2.63,1.21,5.24,2.47,7.86,3.71a1.29,1.29,0,0,1,.78,1.33,8.39,8.39,0,0,1-1,4.33,8,8,0,0,1-2.09,2.08,9.41,9.41,0,0,1-7.84,1.89c-2.29-.55-4.53-1.36-6.77-2.12a27.29,27.29,0,0,1-8.94-5.23,41.38,41.38,0,0,1-7.29-8c-1-1.47-2.07-2.94-3-4.49A14.93,14.93,0,0,1,411.94,270.28Z"/><path class="cls-43" d="M958.21,117a13.18,13.18,0,0,0-12.71-12.71H894.65A13.18,13.18,0,0,0,881.94,117v50.84a13.17,13.17,0,0,0,12.71,12.71h25.42v-28.8h-9.32V139h9.32v-5c0-8.54,6.42-16.23,14.3-16.23h10.28v12.71H934.37c-1.12,0-2.43,1.37-2.43,3.41V139h12.71v12.71H931.94v28.8H945.5a13.17,13.17,0,0,0,12.71-12.71Zm0,0"/><path class="cls-43" d="M645.47,216.6a8.43,8.43,0,0,0-8.46-6.83c-2.8,0-5.59,0-8.39,0s-5.48,0-8.22,0a10.26,10.26,0,0,0-2,.18,8.41,8.41,0,0,0-6.81,8.53q0,8.31,0,16.62a9.67,9.67,0,0,0,.19,1.94,8.41,8.41,0,0,0,8.48,6.8q8.37,0,16.74,0a9.2,9.2,0,0,0,1.82-.17,8.43,8.43,0,0,0,6.84-8.51q0-8.34,0-16.68A9.08,9.08,0,0,0,645.47,216.6Zm-16.9,21.57A11.36,11.36,0,1,1,640,226.82,11.37,11.37,0,0,1,628.57,238.17Zm11.22-20.83a1.68,1.68,0,0,1-1.7-1.73,1.72,1.72,0,1,1,1.7,1.73Z"/><path class="cls-43" d="M628.62,195.28a31.53,31.53,0,1,0,31.52,31.53A31.53,31.53,0,0,0,628.62,195.28Zm20.83,40a12.24,12.24,0,0,1-10.68,12.25,12,12,0,0,1-1.7.11H620.21A12.23,12.23,0,0,1,607.91,237a13.14,13.14,0,0,1-.11-1.77c0-5.56.06-11.12,0-16.68a12.35,12.35,0,0,1,10.72-12.4,12.14,12.14,0,0,1,1.59-.11q8.52,0,17,0a12.21,12.21,0,0,1,12.19,10.66,23.13,23.13,0,0,1,.12,3.12c0,2.37,0,4.73,0,7.1Z"/><path class="cls-43" d="M628.64,219.24a7.57,7.57,0,1,0,7.55,7.57A7.6,7.6,0,0,0,628.64,219.24Z"/></g></g></svg>