<svg xmlns="http://www.w3.org/2000/svg" xmlns:xlink="http://www.w3.org/1999/xlink" viewBox="0 0 1190.55 841.89"><defs><style>.cls-1{isolation:isolate;}.cls-2{fill:#aebddc;}.cls-3{fill:#ffc4ad;}.cls-4{fill:#194866;}.cls-5{fill:#cfd9e8;}.cls-6{fill:#161711;}.cls-7{fill:#163f59;}.cls-8{fill:#2c7eea;}.cls-9{fill:#f3f3f3;}.cls-10{fill:#e4eef3;}.cls-11{fill:#8dcfff;}.cls-12{fill:#a3cf6f;}.cls-13{fill:#b6c2c9;}.cls-14{fill:#3dc7c9;}.cls-15{fill:#b7bec0;}.cls-16{fill:#969c9e;}.cls-17,.cls-20{fill:#a0e06e;}.cls-18{fill:#7ec8ef;}.cls-18,.cls-19,.cls-20{mix-blend-mode:multiply;}.cls-19{fill:#63e4e6;}.cls-21{fill:#88bdda;}.cls-22{fill:#91e2f6;}.cls-23{fill:#001f46;}.cls-24{fill:#367082;}.cls-25{fill:#3d7aa8;}.cls-26{fill:#74b2e8;}.cls-27{fill:#86c0f0;}.cls-28{fill:#e6b09c;}.cls-29{fill:#316091;}.cls-30{fill:#879ba6;}.cls-31{fill:#33a8b5;}.cls-32{fill:#b0bfde;}.cls-33{fill:#282723;}.cls-34{fill:#d1dbea;}.cls-35{fill:#d0dee6;}.cls-36{fill:#acd5f4;}.cls-37{fill:#86bbd8;}.cls-38{fill:url(#New_Gradient_Swatch_39);}.cls-39{fill:#e9d6b8;}.cls-40{fill:#2c5eea;}.cls-41{fill:#e2c59c;}.cls-42{fill:none;stroke:#fff;stroke-width:4.37px;}</style><radialGradient id="New_Gradient_Swatch_39" cx="6314.88" cy="323" r="382.94" gradientTransform="matrix(-1, 0, 0, 1, 7059.94, 0)" gradientUnits="userSpaceOnUse"><stop offset="0" stop-color="#cdf7f1"/><stop offset="1" stop-color="#5dcfca"/></radialGradient></defs><g class="cls-1"><g id="Camada_1" data-name="Camada 1"><path class="cls-2" d="M1053.49,275.53s7.29,10.78-5.92,23.15c-22.52,21.09-51.58,32.71-57.19,35.15s-22.7,6.44-28.45-1.12,11.85-21.61,11.85-21.61,19.78-10.88,37.58-22.28S1053.49,275.53,1053.49,275.53Z"/><path class="cls-2" d="M935.16,254.56S957,243.64,958.8,249.1c8,24,20.25,49.87,21.56,55.84s1.94,23.52-6.58,27.7-18.92-15.8-18.92-15.8-6.87-21.5-14.62-41.16S935.16,254.56,935.16,254.56Z"/><path class="cls-3" d="M1033.35,275c.53,6.3,3.92,11.78,7.49,12H1051c3.57-.25,7-5.73,7.49-12q1.26-15.62,2.5-31.22c.55-6.24-1.89-18.77-7.29-22.47a13.48,13.48,0,0,0-15.55,0c-5.4,3.7-7.84,16.23-7.28,22.47Z"/><path class="cls-3" d="M1111.19,379.78,1084,423.93s40.39-19.4,38.3-37.46S1111.19,379.78,1111.19,379.78Z"/><path class="cls-4" d="M1048.3,429.89s-15.14,71.77-30.93,109.82c-14,33.71-30.31-10.15-30.31-10.15L1012.6,399l42.1-3.19S1057.59,396.9,1048.3,429.89Z"/><path class="cls-4" d="M1044.8,396.18l-5.17,55.9,7.29,4.29s4.22,83,5.6,87.23c7.9,24,28.32,9.62,31.11,1.6s7.43-67.3,6.5-110.56l-.93-43.27Z"/><path class="cls-5" d="M1008.12,291.48l27.08-13.81,7.28,3,20.91-2.28,32.48,11.13s6.59,8.59.7,39.46-6.4,80.27-6.4,80.27l-81,4.8S998.37,284.72,1008.12,291.48Z"/><path class="cls-5" d="M1081.94,290.81s11-9.5,23.68,8c18.85,26.09,29.94,56.19,32,62.21s4.87,24.08-3.49,29.43l-8.35,5.35L1107.22,385l3.19-5.86,2.17-2.67s-9.75-21.41-20.19-40.81S1081.94,290.81,1081.94,290.81Z"/><polygon class="cls-2" points="1041.11 279.94 1046.34 289.95 1062.48 278.13 1059.3 272.44 1041.11 279.94"/><polygon class="cls-2" points="1032.45 272.75 1039.75 279.94 1032.71 288.4 1028.68 277.62 1032.45 272.75"/><path class="cls-6" d="M1082.15,682.37c.71,1,.18,3.54.18,3.54s-12.51,1.61-16.53.57a20.06,20.06,0,0,1-4.47-2.34c-.28-.18-.77-1.25-1-1.43-.5-.34-.77.23-1.2-.07a14,14,0,0,1-1.9-1.48c-1.07-6.43.4-9,.4-9s10.66-4,12.65-1.26C1074.9,677.37,1080.59,680.25,1082.15,682.37Z"/><path class="cls-6" d="M993,668.19l-1.9,10.45H981s-.56-1.48-1.42-1.48-1.66,1.48-2.64,1.48H951.1s-.46-2.2.1-2.95a9.32,9.32,0,0,1,3.11-1.4c5.25-1.55,20.25-6.39,22.86-11.65C980.35,656.23,993,668.19,993,668.19Z"/><path class="cls-4" d="M1054.3,521.72s-3.38,15.71-2.9,45.39c.31,18.82,2,68.65,5.3,105.73.2,2.27,17.65.56,17.65.56S1085,553,1085.9,529.69C1086.19,522.68,1068.23,505.11,1054.3,521.72Z"/><path class="cls-4" d="M994.1,527.6s5.49-2.16,20.44,2.15c9.74,2.81-20,140.14-20,140.14l-22-8.09,15.13-135.63Z"/><path class="cls-7" d="M1044.42,214v-7.23h-15.59a9.51,9.51,0,0,0-9.5,9.5v7.22h15.6A9.49,9.49,0,0,0,1044.42,214Z"/><path class="cls-3" d="M1059.36,257.76a8.44,8.44,0,0,1-8.44,8.45h-19.16a8.44,8.44,0,0,1-8.44-8.45V219.44a8.44,8.44,0,0,1,8.44-8.44h19.16a8.44,8.44,0,0,1,8.44,8.44Z"/><path class="cls-7" d="M1045,206.72a9.51,9.51,0,0,1,8,4.3h3.26a7.35,7.35,0,0,1,7.35,7.36v18.17h-5.17v-7.39a5.19,5.19,0,0,0-5.18-5.17H1037.6a9.49,9.49,0,0,1-9.49-9.5v-7.77Z"/><path class="cls-3" d="M1056.77,241.28a4.5,4.5,0,0,1,4.51-4.5h.37a4.5,4.5,0,0,1,4.51,4.5v5.47a4.5,4.5,0,0,1-4.51,4.5h-.37a4.5,4.5,0,0,1-4.12-2.68"/><polygon class="cls-8" points="958.13 288.25 962.11 277.23 977.14 662.2 972.73 662.2 958.13 288.25"/><polygon class="cls-8" points="974.54 662.2 972.73 662.2 958.13 288.25 959.76 283.74 974.54 662.2"/><polygon class="cls-8" points="911.5 483.77 977 483.77 967.72 245.97 902.22 245.97 911.5 483.77"/><polygon class="cls-5" points="808.53 443.33 802.67 436.53 780.54 674.33 787.04 674.33 808.53 443.33"/><polygon class="cls-2" points="784.37 674.33 787.04 674.33 808.53 443.33 806.13 440.54 784.37 674.33"/><polygon class="cls-5" points="938.71 443.33 932.85 436.53 910.72 674.33 917.22 674.33 938.71 443.33"/><polygon class="cls-2" points="914.55 674.33 917.22 674.33 938.71 443.33 936.31 440.54 914.55 674.33"/><polygon class="cls-9" points="944.88 483.77 788.75 483.77 810.88 245.97 967.01 245.97 944.88 483.77"/><path class="cls-3" d="M958.16,245.43c-1.54,2.26-1.34,2.17-1.34,2.17a10.16,10.16,0,0,0-6.38,0c-1.53.6-6.09,3.16-6.09,3.16l-6.83,3.72-3,2s-1.63,1.25-2.27,1.22c-1.86-.09-1.1-1.46-1.1-1.46l11.08-8.68-12.43,5.26s-1.7.41-2.23-.34,0-.95,0-.95l12.64-9.22-6.72,2s-1.68.36-2.23-.34-.78-1-.78-1L943.56,237S959.7,243.17,958.16,245.43Z"/><path class="cls-3" d="M940.48,245.68l-9,3.19a7.72,7.72,0,0,1-3.08.82,1.26,1.26,0,0,1-1.27-1.29l13-6.13Z"/><polygon class="cls-10" points="816.76 393.89 811.88 393.89 806.84 441.86 811.72 441.86 816.76 393.89"/><polygon class="cls-10" points="823.92 393.89 819.03 393.89 813.99 441.86 818.88 441.86 823.92 393.89"/><polygon class="cls-10" points="831.07 393.89 826.2 393.89 821.15 441.86 826.03 441.86 831.07 393.89"/><polygon class="cls-10" points="838.24 393.89 833.36 393.89 828.31 441.86 833.2 441.86 838.24 393.89"/><polygon class="cls-10" points="845.39 393.89 840.51 393.89 835.47 441.86 840.35 441.86 845.39 393.89"/><polygon class="cls-10" points="852.56 393.89 847.67 393.89 842.63 441.86 847.52 441.86 852.56 393.89"/><polygon class="cls-10" points="859.71 393.89 854.82 393.89 849.78 441.86 854.67 441.86 859.71 393.89"/><polygon class="cls-10" points="866.87 393.89 861.99 393.89 856.94 441.86 861.83 441.86 866.87 393.89"/><polygon class="cls-10" points="874.02 393.89 869.14 393.89 864.1 441.86 868.98 441.86 874.02 393.89"/><polygon class="cls-10" points="881.19 393.89 876.3 393.89 871.26 441.86 876.14 441.86 881.19 393.89"/><polygon class="cls-10" points="888.34 393.89 883.46 393.89 878.42 441.86 883.3 441.86 888.34 393.89"/><polygon class="cls-10" points="895.5 393.89 890.62 393.89 885.58 441.86 890.45 441.86 895.5 393.89"/><polygon class="cls-10" points="902.66 393.89 897.78 393.89 892.74 441.86 897.62 441.86 902.66 393.89"/><polygon class="cls-10" points="909.82 393.89 904.94 393.89 899.89 441.86 904.77 441.86 909.82 393.89"/><polygon class="cls-10" points="916.97 393.89 912.09 393.89 907.05 441.86 911.93 441.86 916.97 393.89"/><polygon class="cls-10" points="924.13 393.89 919.25 393.89 914.21 441.86 919.09 441.86 924.13 393.89"/><polygon class="cls-10" points="931.29 393.89 926.41 393.89 921.37 441.86 926.24 441.86 931.29 393.89"/><polygon class="cls-10" points="938.45 393.89 933.57 393.89 928.52 441.86 933.4 441.86 938.45 393.89"/><polygon class="cls-11" points="815.84 402.65 810.96 402.65 806.84 441.86 811.72 441.86 815.84 402.65"/><polygon class="cls-12" points="822.39 408.45 817.51 408.45 813.99 441.86 818.88 441.86 822.39 408.45"/><polygon class="cls-13" points="828 423.11 823.12 423.11 821.15 441.86 826.03 441.86 828 423.11"/><polygon class="cls-14" points="836 415.17 831.12 415.17 828.31 441.86 833.2 441.86 836 415.17"/><polygon class="cls-11" points="841.14 434.36 836.25 434.36 835.47 441.86 840.35 441.86 841.14 434.36"/><polygon class="cls-12" points="849.49 423.09 844.61 423.09 842.63 441.86 847.52 441.86 849.49 423.09"/><polygon class="cls-13" points="857.35 416.42 852.46 416.42 849.78 441.86 854.67 441.86 857.35 416.42"/><polygon class="cls-14" points="863.88 422.26 859 422.26 856.94 441.86 861.83 441.86 863.88 422.26"/><polygon class="cls-11" points="873.1 402.65 868.22 402.65 864.1 441.86 868.98 441.86 873.1 402.65"/><polygon class="cls-12" points="879.74 407.65 874.86 407.65 871.26 441.86 876.14 441.86 879.74 407.65"/><polygon class="cls-13" points="887.9 398.06 883.02 398.06 878.42 441.86 883.3 441.86 887.9 398.06"/><polygon class="cls-14" points="893.39 413.92 888.52 413.92 885.58 441.86 890.45 441.86 893.39 413.92"/><polygon class="cls-11" points="901.65 403.48 896.77 403.48 892.74 441.86 897.62 441.86 901.65 403.48"/><polygon class="cls-12" points="908.06 410.58 903.18 410.58 899.89 441.86 904.77 441.86 908.06 410.58"/><polygon class="cls-13" points="913.95 422.67 909.06 422.67 907.05 441.86 911.93 441.86 913.95 422.67"/><polygon class="cls-14" points="919.39 438.94 914.51 438.94 914.21 441.86 919.09 441.86 919.39 438.94"/><polygon class="cls-11" points="929.75 408.49 924.88 408.49 921.37 441.86 926.24 441.86 929.75 408.49"/><polygon class="cls-12" points="937.61 401.82 932.73 401.82 928.52 441.86 933.4 441.86 937.61 401.82"/><polygon class="cls-15" points="947.95 278.69 821.24 278.69 821.49 276.69 948.2 276.69 947.95 278.69"/><polygon class="cls-15" points="919.86 282.36 820.79 282.36 821.03 280.35 920.11 280.35 919.86 282.36"/><polygon class="cls-16" points="848.6 332.21 822.66 332.21 822.91 330.21 848.84 330.21 848.6 332.21"/><polygon class="cls-15" points="840.05 335.88 830.3 335.88 830.55 333.88 840.3 333.88 840.05 335.88"/><polygon class="cls-17" points="882.16 273.78 821.64 273.78 822.04 270.52 882.56 270.52 882.16 273.78"/><polygon class="cls-15" points="898.01 364.44 811.57 364.44 811.74 362.44 898.17 362.44 898.01 364.44"/><polygon class="cls-15" points="878.85 368.11 811.26 368.11 811.43 366.1 879.02 366.1 878.85 368.11"/><polygon class="cls-17" points="872.63 359.53 812.11 359.53 812.51 356.27 873.03 356.27 872.63 359.53"/><polygon class="cls-15" points="830.14 293.51 829.05 290.41 824.18 290.41 824.22 290.12 829.27 290.12 829.3 290.21 830.42 293.38 830.14 293.51"/><polygon class="cls-15" points="829.97 288.87 824.38 288.87 824.52 287.66 830.12 287.66 829.97 288.87"/><polygon class="cls-15" points="840.12 304.94 841.97 301.85 846.84 301.85 846.87 301.56 841.82 301.56 841.77 301.64 839.88 304.82 840.12 304.94"/><polygon class="cls-15" points="841.43 300.3 847.03 300.3 847.18 299.1 841.58 299.1 841.43 300.3"/><polygon class="cls-15" points="851.4 299.73 853.24 296.63 858.11 296.63 858.15 296.34 853.1 296.34 853.05 296.43 851.15 299.6 851.4 299.73"/><polygon class="cls-15" points="852.71 295.09 858.3 295.09 858.45 293.88 852.86 293.88 852.71 295.09"/><polygon class="cls-18" points="831.07 293.58 834.6 309.96 838.13 326.34 827.04 326.34 815.95 326.34 823.51 309.96 831.07 293.58"/><polygon class="cls-19" points="839.77 306.03 841.96 316.18 844.15 326.34 837.27 326.34 830.4 326.34 835.08 316.18 839.77 306.03"/><polygon class="cls-20" points="851.06 300.69 853.83 313.51 856.59 326.34 847.91 326.34 839.23 326.34 845.14 313.51 851.06 300.69"/><polygon class="cls-16" points="894.45 332.21 868.52 332.21 868.76 330.21 894.69 330.21 894.45 332.21"/><polygon class="cls-15" points="885.91 335.88 876.15 335.88 876.4 333.88 886.15 333.88 885.91 335.88"/><polygon class="cls-15" points="885.63 295.11 884.54 292.02 879.67 292.02 879.71 291.73 884.76 291.73 884.79 291.81 885.91 294.99 885.63 295.11"/><polygon class="cls-15" points="885.46 290.47 879.86 290.47 880.01 289.27 885.6 289.27 885.46 290.47"/><polygon class="cls-15" points="876.04 304.54 874.96 301.45 870.09 301.45 870.12 301.16 875.17 301.16 875.2 301.25 876.32 304.42 876.04 304.54"/><polygon class="cls-15" points="875.87 299.9 870.28 299.9 870.42 298.7 876.01 298.7 875.87 299.9"/><polygon class="cls-15" points="896.07 299.53 897.91 296.44 902.79 296.44 902.82 296.14 897.77 296.14 897.72 296.23 895.82 299.4 896.07 299.53"/><polygon class="cls-15" points="897.38 294.88 902.98 294.88 903.13 293.68 897.53 293.68 897.38 294.88"/><polygon class="cls-18" points="876.79 306.03 878.98 316.18 881.17 326.34 874.3 326.34 867.42 326.34 872.11 316.18 876.79 306.03"/><polygon class="cls-19" points="886.03 295.8 889.32 311.07 892.61 326.34 882.28 326.34 871.94 326.34 878.98 311.07 886.03 295.8"/><polygon class="cls-20" points="895.31 300.69 898.07 313.51 900.84 326.34 892.16 326.34 883.48 326.34 889.39 313.51 895.31 300.69"/><polygon class="cls-16" points="939.1 332.21 913.17 332.21 913.41 330.21 939.34 330.21 939.1 332.21"/><polygon class="cls-15" points="930.55 335.88 920.8 335.88 921.05 333.88 930.8 333.88 930.55 335.88"/><polygon class="cls-15" points="918.16 316.18 917.07 313.09 912.2 313.09 912.24 312.8 917.29 312.8 917.32 312.88 918.44 316.06 918.16 316.18"/><polygon class="cls-15" points="917.99 311.54 912.39 311.54 912.54 310.34 918.14 310.34 917.99 311.54"/><polygon class="cls-15" points="937.35 304.94 939.19 301.85 944.06 301.85 944.1 301.56 939.04 301.56 939 301.64 937.1 304.82 937.35 304.94"/><polygon class="cls-15" points="938.66 300.3 944.25 300.3 944.4 299.1 938.8 299.1 938.66 300.3"/><polygon class="cls-15" points="931.56 296.52 933.4 293.43 938.27 293.43 938.31 293.13 933.26 293.13 933.21 293.22 931.31 296.39 931.56 296.52"/><polygon class="cls-15" points="932.87 291.88 938.46 291.88 938.61 290.67 933.02 290.67 932.87 291.88"/><polygon class="cls-18" points="918.62 317.14 919.62 321.74 920.61 326.34 917.49 326.34 914.38 326.34 916.5 321.74 918.62 317.14"/><polygon class="cls-19" points="930.96 297.6 934.06 311.97 937.16 326.34 927.43 326.34 917.71 326.34 924.33 311.97 930.96 297.6"/><polygon class="cls-20" points="937.1 306.03 939.28 316.18 941.47 326.34 934.6 326.34 927.72 326.34 932.41 316.18 937.1 306.03"/><path class="cls-21" d="M579.81,587.14l6.22,9.49-52.29,16.75s-3.49-3.34,9.34-10C558,595.51,579.81,587.14,579.81,587.14Z"/><path class="cls-21" d="M589.09,587.14l-6.22,9.49,52.29,16.75s3.49-3.34-9.34-10C610.88,595.51,589.09,587.14,589.09,587.14Z"/><rect class="cls-21" x="578.99" y="558.89" width="10.92" height="38.9"/><path class="cls-22" d="M579.11,589.14l5.33,9.06-44.77,16s-3-3.19,8-9.59C560.46,597.13,579.11,589.14,579.11,589.14Z"/><path class="cls-22" d="M589.79,589.14l-5.33,9.06,44.77,16s3-3.19-8-9.59C608.45,597.13,589.79,589.14,589.79,589.14Z"/><path class="cls-23" d="M544.74,617.78A3.8,3.8,0,1,1,541,614,3.79,3.79,0,0,1,544.74,617.78Z"/><path class="cls-23" d="M631.47,617.78a3.8,3.8,0,1,1-3.79-3.8A3.79,3.79,0,0,1,631.47,617.78Z"/><path class="cls-24" d="M535.55,617.78a3.8,3.8,0,1,1-3.8-3.8A3.79,3.79,0,0,1,535.55,617.78Z"/><path class="cls-24" d="M640.67,617.78a3.8,3.8,0,1,1-3.8-3.8A3.79,3.79,0,0,1,640.67,617.78Z"/><rect class="cls-24" x="580.31" y="544.64" width="7.99" height="13.99"/><path class="cls-24" d="M594.3,537.24a7.8,7.8,0,0,1-7.79,7.8h-4.4a7.8,7.8,0,0,1-7.79-7.8h0a7.79,7.79,0,0,1,7.79-7.79h4.4a7.79,7.79,0,0,1,7.79,7.79Z"/><path class="cls-14" d="M643.71,530.11c.19-.91.31-6.67.31-7.65,0-6.3-4.07-11.4-9.09-11.4H533.69c-5,0-9.08,5.1-9.08,11.4,0,1,.11,6.74.29,7.65Z"/><path class="cls-24" d="M523.67,533.2c0,1.93,1.13,3.49,2.51,3.49H642.44c1.39,0,2.51-1.56,2.51-3.49h0c0-1.92-1.12-3.49-2.51-3.49H526.18c-1.38,0-2.51,1.57-2.51,3.49Z"/><path class="cls-25" d="M603.82,510.75s-65.11.14-90.24.52c-17.39.26-19-24.53-12.11-28.26,20.82-11.33,85.78-17.15,85.78-17.15l44.2,40.58S629,506.37,603.82,510.75Z"/><path class="cls-26" d="M542.43,377.9s-16.74-4.69-24,17.17c-11.17,33.55-10.19,64.31-8.63,70.87.72,3,2.87,13.44,21.57,13.84,7.58.17,4.55-16.09,4.55-16.09s4.86-13.8,10-37.15S542.43,377.9,542.43,377.9Z"/><path class="cls-27" d="M529.19,379.78l42.93-13.88,32.49-2.18,35.61,10.77s11.65,8,.83,33.84-6.65,66.25-6.65,66.25l-91.86,2.94a745.91,745.91,0,0,0-7.82-74.77C533.36,394.4,533.19,384.58,529.19,379.78Z"/><path class="cls-26" d="M592.2,475.72h-4.68a389,389,0,0,1,.72-109.31l4.24,2.52C591.29,405.72,593.31,442.5,592.2,475.72Z"/><path class="cls-28" d="M574,376c.63,5,4.68,9.28,8.95,9.48H595c4.27-.2,8.33-4.51,9-9.48q1.49-12.27,3-24.55c.66-4.91-2.25-14.77-8.71-17.68a23.19,23.19,0,0,0-18.58,0c-6.46,2.91-9.38,12.77-8.71,17.68Q572.46,363.73,574,376Z"/><polygon class="cls-26" points="589.45 386.1 597.16 398.73 611.28 381.07 609.05 371.79 604.48 368.03 604.41 375.02 589.45 386.1"/><polygon class="cls-26" points="588.52 386.1 580.81 398.73 567.68 382.29 569.83 372.2 573.13 367.95 574.46 376.21 588.52 386.1"/><path class="cls-7" d="M590.81,318.2a9.71,9.71,0,0,1,8.12,4.39h3.33a7.53,7.53,0,0,1,7.53,7.53V348.7h-5.3v-7.55a5.3,5.3,0,0,0-5.29-5.3h-1.43a9.71,9.71,0,0,1-9.71-9.71V318.2Z"/><path class="cls-28" d="M600.19,355.63a4.6,4.6,0,0,0,4.61,4.6h.38a4.61,4.61,0,0,0,4.61-4.6V350a4.61,4.61,0,0,0-4.61-4.6h-.38a4.61,4.61,0,0,0-4.22,2.74"/><path class="cls-7" d="M594.93,325.59V318.2H579a9.7,9.7,0,0,0-9.7,9.71v7.38h15.94A9.7,9.7,0,0,0,594.93,325.59Z"/><path class="cls-3" d="M570.64,362.69c0,3.86,3,10.4,7.86,12.46a28.19,28.19,0,0,0,21.15,0c4.9-2.06,7.83-8.6,7.86-12.46V329.81c0-3.88-3.85-7.15-8.63-7.24H579.27c-4.77.09-8.66,3.35-8.63,7.24Z"/><path class="cls-7" d="M585.3,318.2a9.7,9.7,0,0,0-8.12,4.39h-3.33a7.53,7.53,0,0,0-7.53,7.53V348.7h5.3v-7.55a5.3,5.3,0,0,1,5.29-5.3h6.77a9.71,9.71,0,0,0,9.71-9.71V318.2Z"/><path class="cls-3" d="M575.85,350a4.6,4.6,0,0,0-4.61-4.6h-.38a4.61,4.61,0,0,0-4.61,4.6v5.59a4.62,4.62,0,0,0,4.61,4.61h.38a4.61,4.61,0,0,0,4.22-2.75"/><path class="cls-7" d="M593.39,327.49a10,10,0,0,1-.19-1.9V318.2h6.88a9.71,9.71,0,0,1,9.71,9.71v7.38H602.9a9.4,9.4,0,0,1-2-.21A9.71,9.71,0,0,0,593.39,327.49Z"/><path class="cls-6" d="M678.63,635.24c1,1.22.27,4.41.27,4.41s-17.52,2-23.16.63a30.48,30.48,0,0,1-6.28-2.94c-.39-.23-1.08-1.57-1.46-1.8-.71-.42-1.08.28-1.68-.1a19.62,19.62,0,0,1-2.68-1.85c-1.54-8,.51-11.27.51-11.27s14.93-5,17.72-1.51C668.45,629,676.44,632.58,678.63,635.24Z"/><path class="cls-6" d="M514.83,626.49l-1.21,13.25L500.36,641s-.92-1.76-2-1.66c-.95.1-2,2.06-3.28,2.18l-7.11.7-26.6,2.6s-.87-2.67-.23-3.68c.33-.53,2.47-1.59,3.9-2.15,6.66-2.59,25.67-10.51,28.44-17.39C496.81,613.27,514.83,626.49,514.83,626.49Z"/><path class="cls-3" d="M534.88,458.89l44.81,18.3s-31.79,4.54-51.66.49C514.59,474.94,534.26,458.31,534.88,458.89Z"/><path class="cls-25" d="M636.6,486.78s4.31,40.92,3.7,62.55c-.47,16.32-.52,47.59,3.37,74.25.24,1.63,21.09.4,21.09.4s7.47-101.45,9.69-118.16S670.22,477.06,636.6,486.78Z"/><path class="cls-29" d="M505.49,496.64s6.72,10.61,25.15,13.12c6.65.9-10.74,118.75-10.74,118.75l-27.22-8.71,5.26-130.33Z"/><path class="cls-29" d="M580.6,509.76s35.58,5.07,59.34,7.57c8.71.91,16.25-23.47,17.26-24.53,6.36-6.66,12.63-5.82,12.41-6.06-5.14-5.56-31.8-10.72-59.65-17.26s-32.09-2.41-32.09-2.41Z"/><path class="cls-25" d="M610,469.48c27.85,6.54,54.51,11.7,59.65,17.26.22.24-6.05-.6-12.41,6.06-.28.29-1.88,8.1-3,10.9,4.54-8.17-60.91-31.25-75-37.22C581.76,465.64,589.46,464.68,610,469.48Z"/><polygon class="cls-29" points="640.55 509.45 643.27 589.09 646 607.55 646.3 589.09 645.7 577.58 652.05 559.72 655.38 518.23 650.54 520.05 651.14 501.88 640.55 509.45"/><path class="cls-25" d="M506.41,486.74l-6.65,1.82-2.43,95.68,13.93,34.21-6.66-23.31L507.32,547S517,570.31,517,569.1s-8.17-50.56-8.17-50.56,9.08,7.57,8.17,7.26S511.56,491.29,506.41,486.74Z"/><path class="cls-27" d="M620.55,374.88s14.3-11.21,28.29,9.59c20.51,30.49,29.42,62.91,32.68,72.3,2.5,7.19,1.12,27.55-7.27,35.93-2,2-14.12.4-14.12.4l-8-5.5,3.33-6.4.17-5.05S645.52,451.63,633,428.44,620.55,374.88,620.55,374.88Z"/><path class="cls-3" d="M655.52,468.08l-46.45,2.43s44.74,20.52,46.21,17C663.67,467.45,655.52,468.08,655.52,468.08Z"/><path class="cls-3" d="M630,466.66c-2.71-1.31-2.47-1.33-2.47-1.33a11.12,11.12,0,0,1-6.07,3.5c-1.79.27-7.55.34-7.55.34l-8.55.22-4-.23s-2.24-.29-2.83.09c-1.73,1.11-.25,2-.25,2l15.33,2.17-14.73,1.83s-1.85.54-1.94,1.55.54.9.54.9l17.11,1.83-7.51,1.79s-1.79.58-1.93,1.55-.22,1.35-.22,1.35l15.74-1.54S632.67,468,630,466.66Z"/><path class="cls-3" d="M613,476.13,602.67,478a8.54,8.54,0,0,0-3.39.93,1.36,1.36,0,0,0-.49,1.91l15.79-1.32Z"/><path class="cls-13" d="M548.4,484.23a.41.41,0,0,0,0-.09l0-2.93h91.51v2.93s0,.06,0,.09l-.31.55c-1.56,2.54-4.36,3-7.56,3H556.27c-3.2,0-6-.45-7.56-3Z"/><rect class="cls-30" x="563.84" y="481.89" width="60.59" height="2.07"/><path class="cls-10" d="M548.46,481.53l-.25-60a2.85,2.85,0,0,1,2.85-2.86h85.66a2.87,2.87,0,0,1,2.87,2.86l.25,60Z"/><path class="cls-13" d="M588.48,450.1a5.55,5.55,0,1,0,5.52-5.55A5.51,5.51,0,0,0,588.48,450.1Z"/><polygon class="cls-26" points="661.54 491.29 664.73 470.92 659.44 465.48 647.71 467.36 650.11 489.9 661.54 491.29"/><polygon class="cls-27" points="519.14 476.67 517.92 469.18 532.76 455.86 540.78 459.48 530.29 479.58 519.14 476.67"/><path class="cls-24" d="M258.49,585.77a16.67,16.67,0,0,1-11.06-4c-5.56-4.83-8-13.43-7.16-25.55.55-8.19,3.77-16.47,7.18-25.24,5.74-14.76,12.24-31.48,8.84-53.6l6.32-1c3.66,23.81-3.47,42.15-9.2,56.88-3.37,8.67-6.28,16.15-6.76,23.35-.66,9.83,1,16.84,4.92,20.26a10.58,10.58,0,0,0,8.45,2.37l1.28,6.27A15.72,15.72,0,0,1,258.49,585.77Z"/><path class="cls-21" d="M307.51,636.5l6.23,9.49-52.3,16.75s-3.49-3.34,9.34-10C285.72,644.88,307.51,636.5,307.51,636.5Z"/><path class="cls-21" d="M316.8,636.5,310.57,646l52.29,16.75s3.49-3.34-9.34-10C338.58,644.88,316.8,636.5,316.8,636.5Z"/><rect class="cls-21" x="306.69" y="608.25" width="10.93" height="38.91"/><path class="cls-22" d="M306.81,638.5l5.33,9.06-44.76,16s-3-3.19,8-9.59C288.16,646.49,306.81,638.5,306.81,638.5Z"/><path class="cls-22" d="M317.49,638.5l-5.32,9.06,44.76,16s3-3.19-8-9.59C336.15,646.49,317.49,638.5,317.49,638.5Z"/><path class="cls-23" d="M272.44,667.14a3.8,3.8,0,1,1-3.79-3.8A3.8,3.8,0,0,1,272.44,667.14Z"/><path class="cls-23" d="M359.17,667.14a3.8,3.8,0,1,1-3.79-3.8A3.8,3.8,0,0,1,359.17,667.14Z"/><path class="cls-24" d="M263.25,667.14a3.8,3.8,0,1,1-3.8-3.8A3.8,3.8,0,0,1,263.25,667.14Z"/><path class="cls-24" d="M368.37,667.14a3.8,3.8,0,1,1-3.8-3.8A3.8,3.8,0,0,1,368.37,667.14Z"/><rect class="cls-24" x="308.02" y="594" width="7.99" height="13.99"/><path class="cls-24" d="M322,586.6a7.79,7.79,0,0,1-7.79,7.8h-4.4a7.8,7.8,0,0,1-7.79-7.8h0a7.79,7.79,0,0,1,7.79-7.79h4.4A7.79,7.79,0,0,1,322,586.6Z"/><path class="cls-14" d="M371.42,579.48c.19-.92.3-6.67.3-7.66,0-6.3-4.07-11.4-9.09-11.4H261.39c-5,0-9.08,5.1-9.08,11.4,0,1,.11,6.74.3,7.66Z"/><path class="cls-24" d="M251.37,582.56c0,1.93,1.13,3.49,2.52,3.49H370.14c1.39,0,2.51-1.56,2.51-3.49h0c0-1.92-1.12-3.48-2.51-3.48H253.89c-1.39,0-2.52,1.56-2.52,3.48Z"/><path class="cls-14" d="M257,521c2.5.19,18.37.46,21.1.5,17.37.21,32.34-3,33.17-7.33a148.32,148.32,0,0,0,.45-53.8c-.74-4.28-15.93-7.54-33.67-7.32-2.79,0-19,.32-21.53.5A145.6,145.6,0,0,1,257,521Z"/><path class="cls-24" d="M254.65,453.57c-1.94,0-3.3.95-3,2.06a145.25,145.25,0,0,1,.54,63.34c-.24,1.12,1.1,2,3,2.06h0c1.9,0,3.66-.86,3.9-2a145.47,145.47,0,0,0-.41-63.49c-.27-1.13-2.06-2-4-2Z"/><path class="cls-31" d="M253.88,521a44.57,44.57,0,0,0,4.55.3c3.79.05,7.69-3.3,8.44-7.5a146,146,0,0,0-.24-53c-.79-4.21-4.79-7.54-8.64-7.5a43.73,43.73,0,0,0-4.65.31A145.39,145.39,0,0,1,253.88,521Z"/><path class="cls-28" d="M359.22,470.32s.13,4.43,21.59,4.45,53-5.26,53-5.26l-49.5-4.68S365.26,464,359.22,470.32Z"/><path class="cls-28" d="M416.89,471.07c10.2.33,14.41,5.57,18.41,7.29a71.63,71.63,0,0,1,8,4.22c-2.14-4.44-5.43-4.66-7-6.13s-1.2-.74,2.45-.9c2.06-.08,5.58,3.67,8.13,5.77a8.35,8.35,0,0,0,3.63,2,45,45,0,0,0-5.8-6.83,52.8,52.8,0,0,0-10.06-7.37c-2.16-.92-9-1.37-13.85-.88C415.21,468.8,409.54,470.84,416.89,471.07Z"/><path class="cls-28" d="M434,469.3s7.74,2.24,9.08,3.31c.93.75,4.79,5.06,4.79,5.06a10.15,10.15,0,0,1-4.54-2.2C441.71,473.84,434,469.3,434,469.3Z"/><path class="cls-32" d="M368.94,461.33s-19.79.57-18.84,12.32c.54,6.68,5,9.15,10.95,8.87,11.12-.51,23.74-1.7,23.74-1.7l6.23-18Z"/><path class="cls-32" d="M364.75,462.81l-17.27-60.94s-2.54-8.93-7.29-7.43c-6.86,2.16-3.75,9.5-3.31,13.8.91,8.77,0,12.55,5.49,33.82,3.41,13.11,6.22,28.18,9.29,36.83,2.12,6,6.35-2.33,12.4-4.47C375.34,470.41,364.75,462.81,364.75,462.81Z"/><path class="cls-33" d="M331.25,382.19c-3,13.27-16.37,21.56-29.91,18.53s-22.12-16.25-19.15-29.52,16.36-21.56,29.91-18.52S334.22,368.93,331.25,382.19Z"/><path class="cls-33" d="M354.4,368.57a18.91,18.91,0,0,1-22.58,14.31l-2.66-9.79a18.92,18.92,0,0,1-14.31-22.59l1.55-6.91A18.92,18.92,0,0,1,339,329.27l4.61,1a18.9,18.9,0,0,1,14.31,22.57Z"/><path class="cls-3" d="M353.1,339.79a36.16,36.16,0,0,1-1.61,5.1c-4.51,11.43-13.73,18.81-21.85,18.16a57.45,57.45,0,0,1-5.81,13.7c-2.52,4.34-9.09,8.05-9.09,8.05-3.19,8,28.73,34.68,30.09,34,2.9-1.48-2.29-20.66-7.51-26.6-2.46-2.79-4.95-6.07-5-7.95-.19-6.58,1.91-8,5.08-11a15.44,15.44,0,0,1,11.92-2.68,2.17,2.17,0,0,0,1.71-.34,13.26,13.26,0,0,0,1.44-3.72l3.41-15.21A13.35,13.35,0,0,0,353.1,339.79Z"/><path class="cls-8" d="M320,509.46s8.17,7.4,10.47,8.06c3.08.88,11.7-2.84,11.7-2.84s-2.38-38.4-1.5-53.62,4.46-19.62,4.05-24.32c-.66-7.51,5.44-11.34,3.64-17.07s-6.32-26.32-6.64-23.46c-2.65,24.34-12,5.57-13.85,2.63C326.86,397.23,320,509.46,320,509.46Z"/><path class="cls-34" d="M337.09,389.68s10.82,7.94,10.67,11.6,5.59,14.5,3.27,30.78c-2.66,18.58-3.65,31.06-3.1,42.92s6,22.14,6.19,36.73c.15,11.44-2.47,12.46-2.47,12.46a9.5,9.5,0,0,1-9.29-2c-4.24-3.91-3.48-43.05-2.84-52.9s3.71-33.05,4.43-39.83a71.91,71.91,0,0,0-.89-19,80.32,80.32,0,0,0-4.54-16.5c-.21-.52-3-2.78-3.2-3.19C334.55,388.9,336.2,388.69,337.09,389.68Z"/><path class="cls-32" d="M334.21,385.7s-2.25-.46-.33,2.1a5.34,5.34,0,0,1,1.1,2.66s1-1,2.44.44,3.43,3,3.43,3a36,36,0,0,0-1.66-4.09C338.09,388.81,334.21,385.7,334.21,385.7Z"/><path class="cls-33" d="M324.09,415.62C321,429.48,307,438.14,292.84,435s-23.1-17-20-30.83,17.09-22.51,31.24-19.34S327.19,401.77,324.09,415.62Z"/><polygon class="cls-3" points="378.11 640.82 373.2 678.47 394.43 688.21 406.21 690.7 385.3 675.09 392.14 641.12 378.11 640.82"/><path class="cls-6" d="M371.81,684.15l4.61,1.2,3.09-2.78,16.95,8.23,15,3.44a2.78,2.78,0,0,0-.32-1.81c-1.89-2.38-12.42-7.7-12.42-7.7s-.17,3.49-1.67,3.59S382.6,681.83,379.6,680c-5.17-3.16-6.14-5.12-6.53-4.88C372,675.76,371.81,684.15,371.81,684.15Z"/><polygon class="cls-3" points="429.33 588.46 446.19 620.54 469.51 619.4 481.11 616.17 455.36 611.96 441.3 584.55 429.33 588.46"/><path class="cls-6" d="M447.58,626.22l4.63-1.05,1.46-3.9,20.91-.3,12.49-2.83a10.4,10.4,0,0,0-2.44-2c-2.78-1.12-12.65-1.7-12.65-1.7s1,2.73-.25,3.51-15.65,1.25-19.16,1c-6.05-.42-7.81-1.71-8.05-1.31C443.89,618.68,447.58,626.22,447.58,626.22Z"/><path class="cls-4" d="M306.15,492.5,318.73,498l5.47,16.41,80.91-13.32s8.25-2.54,13.5,10.47c7.46,18.54,26.48,76.15,26.48,76.15l-12,12.58-37.74-65.1S318,571.44,292.48,563.61c-9.79-3-17.27-20.29-15.87-37.75a223.08,223.08,0,0,1,3.83-26.25Z"/><path class="cls-7" d="M317.09,563.18,379,558.73l-5.32,95.49,18.24.58L405.39,543s-3.64-16.64-15.46-14.13S349.51,553.26,317.09,563.18Z"/><path class="cls-34" d="M324.9,516.74s1.49-38.85,2.63-57.28.89-54,1.13-58.42a53.59,53.59,0,0,0-1-10.68s-5.6-9.55-11.84-8.71c-5.48.73-13.94,8.37-19.26,11.91S292,462,291.73,465.25c-.94,11.8-8,23.45-13.28,34.79-3.4,7.26-4.18,18.74-4.18,18.74S305.78,512.74,324.9,516.74Z"/><polygon class="cls-32" points="317.8 378.62 322.24 383 328.49 389.7 325.32 397.22 314.3 381.76 317.8 378.62"/><path class="cls-3" d="M309.33,480.14s.67,4.74,26.11,1.94,62.17-12.65,62.17-12.65l-59.24,1.48S315.73,472.47,309.33,480.14Z"/><path class="cls-3" d="M377.78,473.34c12.14-1,17.76,4.1,22.7,5.42a88.94,88.94,0,0,1,9.93,3.5c-3.06-4.49-7-4.31-9.06-5.68s-1.51-.64,2.78-1.29c2.44-.37,7.06,3.22,10.33,5.14a10.36,10.36,0,0,0,4.54,1.69,49.91,49.91,0,0,0-7.69-6.6,62.79,62.79,0,0,0-12.8-6.62c-2.66-.7-10.79-.29-16.52.88C375.53,471.11,369,474.06,377.78,473.34Z"/><path class="cls-3" d="M397.88,469.18s9.45,1.38,11.16,2.36c1.2.68,6.28,4.83,6.28,4.83a12.78,12.78,0,0,1-5.65-1.78C407.54,473.05,397.88,469.18,397.88,469.18Z"/><path class="cls-32" d="M319.78,469.16,317,409s-3.24-12.59-8-15.48c-5.61-3.43-13.31,2.92-13.31,2.92s-3.94,9.39-1.3,53.72c1.77,29.65,4.51,45,18.56,42.84,13.12-2,27.94-5,27.94-5l5.26-20.23Z"/><path class="cls-35" d="M370.35,484.1a.47.47,0,0,1-.05-.1l.05-3H493.82v3s0,.07,0,.1l-.32.56c-1.58,2.58-4.43,3-7.69,3H378.36c-3.26,0-6.11-.47-7.69-3Z"/><path class="cls-13" d="M400.1,484.6s0,.06,0,.09l-.3.44a5,5,0,0,1-1.81,1.52H379.22c-3.14,0-5.88-.37-7.4-2.46l-.3-.45-.06-.08,0-1.47h28.6Z"/><rect class="cls-13" x="416.77" y="481.71" width="61.7" height="2.11"/><path class="cls-35" d="M400.79,480.91l16-60.67a4,4,0,0,1,3.66-2.9h86.63a2.16,2.16,0,0,1,2.13,2.9l-16,60.67Z"/><path class="cls-13" d="M449.78,449.13c-.82,3.09,1,5.61,4.13,5.61a7.83,7.83,0,0,0,7.09-5.61c.81-3.1-1-5.62-4.14-5.62A7.8,7.8,0,0,0,449.78,449.13Z"/><polygon class="cls-36" points="757.84 696.13 770.48 696.13 749.63 494.18 731.3 494.18 757.84 696.13"/><polygon class="cls-37" points="732.52 503.49 740.56 564.65 750.09 498.74 749.63 494.18 733.61 494.18 732.52 503.49"/><polygon class="cls-36" points="346.97 696.13 359.6 696.13 338.75 494.18 320.43 494.18 346.97 696.13"/><polygon class="cls-37" points="321.65 503.49 329.69 564.65 339.22 498.74 338.75 494.18 322.73 494.18 321.65 503.49"/><polygon class="cls-36" points="214.28 696.13 201.64 696.13 222.49 494.18 240.82 494.18 214.28 696.13"/><polygon class="cls-37" points="239.6 503.49 215.07 565.81 222.03 498.74 222.49 494.18 238.51 494.18 239.6 503.49"/><rect class="cls-24" x="204.8" y="487.63" width="388.2" height="11.8"/><rect class="cls-38" x="350.12" y="487.63" width="414.57" height="11.8"/><path class="cls-39" d="M683.82,410.13s4.7.64,2.08,25.89-12.17,61.76-12.17,61.76L674.84,439S676.25,416.53,683.82,410.13Z"/><path class="cls-39" d="M677.49,478.08c-.91,12,4.18,17.59,5.52,22.49a89.29,89.29,0,0,0,3.54,9.84c-4.48-3-4.32-6.92-5.7-9s-.64-1.51-1.25,2.76c-.36,2.43,3.23,7,5.15,10.22a10.26,10.26,0,0,1,1.7,4.49,49.78,49.78,0,0,1-6.6-7.59,62.6,62.6,0,0,1-6.63-12.66c-.72-2.63-.36-10.7.77-16.39C675.26,475.86,678.15,469.4,677.49,478.08Z"/><polygon class="cls-39" points="685.95 713.02 684.49 746.09 663.67 747.74 654.43 746.61 672.79 740.83 674.84 713.31 685.95 713.02"/><path class="cls-6" d="M682.88,750.34l-4.53.59-.79-1.28-17.21.24L652,747.71s-.34-1.47.44-1.91c2.35-1.34,11.27-2,11.27-2s-1.19,1.66-.24,2.38,12.4.33,15.23-.13c4.9-.82,6.45-2.28,6.6-1.87C685.7,745.18,682.88,750.34,682.88,750.34Z"/><path class="cls-4" d="M679.62,473l-2.81,125.14L668.29,721l18.76,1.48S704.58,598.73,706.66,588,731,491.47,720.59,469.55,679.62,473,679.62,473Z"/><path class="cls-39" d="M753.05,403.42c10.48,12.64,15.78,64.66,15.78,64.66S765.38,488,746.11,421.2C740.32,401.14,750.47,400.3,753.05,403.42Z"/><path class="cls-39" d="M764.39,513l4.37-4.81,2.38-4.75.66-8.58s-.43-9.18-1.83-12.58-1.1-17-1.61-18.68-9.07-3.7-9.07-3.7,3.76,14.09,4.78,19.8-.35,14.36,0,16.61a26,26,0,0,0,2,6.87s.24-6.1.12-7.7,1.73-.9,1.73-.9.56,8.42-.22,10.66a13.85,13.85,0,0,1-2.24,4Z"/><path class="cls-8" d="M697.15,374.32l-6.73,70.52V449l-20.19-1.18s5.85-54.43,6.73-57.07,2.93-25.46,2.63-29.55.59-24.59,14-22.54S697.15,374.32,697.15,374.32Z"/><path class="cls-8" d="M740.79,374.32l6.73,70.52V449l20.19-1.18c-9.1-41.26-11.14-49.46-11.42-57.07-.09-2.77-.58-25.46-.29-29.55s.57-15.22-11.7-22.54C732.6,331.63,740.79,374.32,740.79,374.32Z"/><path class="cls-39" d="M719,709.21l.29,42.45,17.56-6.16s7.43-5.38,1-4.67c-9.37,1-7.46-2.93-7.75-10.54s1.17-22.24,1.17-22.24Z"/><path class="cls-6" d="M739.22,740.83a33.17,33.17,0,0,1-4.1,3.21c-2,1.31-7.94,4.23-10.24,4.68a21.79,21.79,0,0,1-5.7.3s-1.32,4.38,1.6,4.1,17.57-6.74,19.61-8.2S742.74,741.11,739.22,740.83Z"/><path class="cls-4" d="M722.93,475.38,720.7,590.15l-2.06,121.7,14.82-.78s15-122.5,16.22-133.33,19.2-82.87,7.2-103.92S722.93,475.38,722.93,475.38Z"/><path class="cls-40" d="M720,333.15s-23,1.55-28.48,3.9-4.29,29.26-.79,49.17,1.95,42.14-3.12,54.63-9,36.29-9,36.29L759.42,476s-18.34-49.56-18.34-68.68,5.06-62.83,4.67-67.12S725.08,333.15,720,333.15Z"/><path class="cls-4" d="M738.11,298.28a20.23,20.23,0,0,1-20.23,20.23l-5.06-9.61a20.23,20.23,0,0,1-20.23-20.23v-7.58a20.23,20.23,0,0,1,20.23-20.23h5.06a20.23,20.23,0,0,1,20.23,20.23Z"/><path class="cls-4" d="M735.61,342.32c0,15.19-12.58,27.5-28.09,27.5s-28.1-12.31-28.1-27.5,12.58-27.51,28.1-27.51S735.61,327.12,735.61,342.32Z"/><path class="cls-4" d="M749.46,354.51c0,15.2-12.57,27.51-28.1,27.51s-28.09-12.31-28.09-27.51S705.85,327,721.36,327,749.46,339.32,749.46,354.51Z"/><path class="cls-4" d="M706.42,286c-5.64,0-9.32,1.64-13.73,4.44.18,6.28.53,7.8.53,12,0,9.95-2.87,16.74-7.91,22.79,5,7.76,11.07,15.76,21.11,15.76,15.52,0,28.1-12.31,28.1-27.51S721.94,286,706.42,286Z"/><path class="cls-4" d="M738.09,297.79c0-.59.06-1.16.09-1.74a28.59,28.59,0,0,0-9.2-1.54c-15.52,0-28.1,12.32-28.1,27.52s12.58,27.5,28.1,27.5a28,28,0,0,0,27.1-20.34A36.64,36.64,0,0,1,738.09,297.79Z"/><path class="cls-4" d="M764.21,344.59a19.14,19.14,0,1,1-19.14-19.14A19.13,19.13,0,0,1,764.21,344.59Z"/><path class="cls-6" d="M95.82,710.75c.86-1,.23-3.77.23-3.77s-15-1.66-19.78-.53A25.22,25.22,0,0,0,70.92,709c-.34.2-.93,1.34-1.25,1.53-.62.36-.92-.23-1.44.09A15.81,15.81,0,0,0,66,712.16c-1.31,6.86.43,9.63.43,9.63s12.31,3.83,15.13,1.28C88.65,716.61,94,713,95.82,710.75Z"/><path class="cls-6" d="M143.18,716.42l2.13,11.15h11.37s.63-1.59,1.59-1.59c.81,0,1.86,1.59,3,1.59h28.93s.51-2.35-.11-3.16a11.16,11.16,0,0,0-3.5-1.49c-5.87-1.65-22.68-6.81-25.6-12.42C157.39,703.67,143.18,716.42,143.18,716.42Z"/><path class="cls-39" d="M152.22,340.54,154.93,327s9.6.74,11.47-4.43c3.76-10.36.61-26.92-1.66-31.56-6.47-13.22-9.21-36.37-39.48-18-11.5,7,6.27,40.94,7.59,48.28s-2.6,15.8-2.6,15.8l7.08,5.32Z"/><path class="cls-41" d="M98.39,468.43l-1,42.6s-16.06-17.71-17.61-37.84S97.39,466.85,98.39,468.43Z"/><path class="cls-7" d="M116.43,556.23s4.44,1.93-8.62,63.87c-9.4,44.6-17.44,77.23-21.2,92-1.46,5.73-3.1,4.7-3.1,4.7l-12.43,1.38-5.92-5.13L82.94,612Z"/><path class="cls-39" d="M197.82,440.67l-25.46,48.84S221,454.35,217.9,435,197.82,440.67,197.82,440.67Z"/><path class="cls-32" d="M98.12,353.71S87.8,360,80.37,411.28s-2.71,49.31-2.71,49.31L79,472.28l19.31,2.07,10.42-44.25Z"/><path class="cls-7" d="M145.53,486.85S117.06,604.79,94.69,657.66c-13.1,31-13.22-28.46-13.22-28.46l20.36-171.29L161.28,455S154.54,457.13,145.53,486.85Z"/><path class="cls-7" d="M124.8,455.37S146.31,608.06,148.58,615c7.65,23.32,19.45-7.25,22.16-15s7.2-65.29,6.3-107.26l-.9-42Z"/><path class="cls-7" d="M146.41,576.77s-3.25,18.21-5.95,41.48c-2,17.08-2.05,65.89,1.1,99.78.2,2.07,21.75-4.24,21.75-4.24s7.87-94.87,9.67-116.12S159.93,561.6,146.41,576.77Z"/><path class="cls-34" d="M97.49,353.81l25.41-11.54,7-6.63,27-.64,4.72,7.78,21,9.08s5.17,8.13.67,38.29c-5,33.42-6,83.94-6,83.94L98.06,477.9S104.92,370,97.49,353.81Z"/><path class="cls-34" d="M175.87,351.93s4.72-5.25,16.2,9c19.57,24.33,29.05,54.51,31.08,60.35s4.62,14.11-3.39,23.81c-6.12,7.43-8.1,9.93-8.1,9.93l-17.57-11,2.76-5.26,2-2.61s-9.45-20.76-19.59-39.58S175.87,351.93,175.87,351.93Z"/><path class="cls-4" d="M156.2,294.9s-3.42-2.1-3.94.53,1.31,8.42,2.89,8.95,2.1,7.62,2.1,7.62L153,319.9H131.73s-6.57-2.9-7.1-7.63-5.79-38.15-5.79-38.15l15-7.9a98.47,98.47,0,0,1,13.42-5.52c8.48-2.42,10.25,2.1,10,4.47s2.37,2.63,5.79,2.63,7.64,2.63,5.79,4.21c-.76.65,2.64,2.73,1.29,5.25-1.93,3.59-8.39,4.75-8.92,10.54C161,290.43,159.89,299.11,156.2,294.9Z"/><path class="cls-32" d="M216.12,446.46s-6.9-4.74-7.5-5.13a9,9,0,0,0-1.77-.79l-4.93,1.58,2.76,2.37a3.05,3.05,0,0,1-2.17.39c-1.38-.2-3.56-.2-3,.79s11,7.7,11.84,7.89S217.31,448.63,216.12,446.46Z"/><polygon class="cls-14" points="997.67 75.72 862.21 75.72 862.21 198.02 951.65 198.02 978.57 224.94 978.57 198.02 997.67 198.02 997.67 75.72"/><path class="cls-26" d="M688.22,256.41a13,13,0,0,1-13,13H605a13,13,0,0,1-13-13v-70.3a13,13,0,0,1,13-13h70.29a13,13,0,0,1,13,13Z"/><polygon class="cls-26" points="672.26 293.44 672.26 259.92 638.74 259.92 672.26 293.44"/><path class="cls-8" d="M509.54,307.74a18.19,18.19,0,0,1-18.19,18.18H376.91a18.18,18.18,0,0,1-18.18-18.18V237.16A18.18,18.18,0,0,1,376.91,219H491.35a18.19,18.19,0,0,1,18.19,18.19Z"/><polygon class="cls-8" points="386.42 345.02 386.42 324.96 406.47 324.96 386.42 345.02"/><path class="cls-36" d="M307.82,236.19,296,224.3l-11.45,9.62a45.36,45.36,0,0,0-14.9-6.66l-1.23-15.36-16.76-.06-1.29,14.89a45.55,45.55,0,0,0-15.24,5.84l-11.74-10-11.89,11.82,9.62,11.44a45.15,45.15,0,0,0-6.66,14.9L199.11,262l-.06,16.76,14.89,1.3a45.28,45.28,0,0,0,5.84,15.23l-10,11.74,11.81,11.9,11.46-9.63a45,45,0,0,0,14.9,6.66l1.22,15.36,16.76.06,1.3-14.89a45.07,45.07,0,0,0,15.23-5.84l11.74,10,11.89-11.82-9.62-11.44a45.36,45.36,0,0,0,6.66-14.9l15.36-1.23.06-16.76-14.89-1.29a45.44,45.44,0,0,0-5.83-15.24Z"/><line class="cls-42" x1="259.1" y1="237.54" x2="259.1" y2="244.98"/><line class="cls-42" x1="276.99" y1="242.34" x2="273.27" y2="248.77"/><line class="cls-42" x1="290.08" y1="255.43" x2="283.64" y2="259.14"/><line class="cls-42" x1="294.87" y1="273.32" x2="287.44" y2="273.32"/><line class="cls-42" x1="290.08" y1="291.2" x2="283.64" y2="287.49"/><line class="cls-42" x1="276.99" y1="304.3" x2="273.27" y2="297.86"/><line class="cls-42" x1="259.1" y1="309.09" x2="259.1" y2="301.65"/><line class="cls-42" x1="241.21" y1="304.3" x2="244.93" y2="297.86"/><line class="cls-42" x1="228.12" y1="291.2" x2="234.56" y2="287.49"/><line class="cls-42" x1="223.33" y1="273.32" x2="230.76" y2="273.32"/><line class="cls-42" x1="228.12" y1="255.43" x2="234.56" y2="259.14"/><line class="cls-42" x1="241.22" y1="242.34" x2="244.93" y2="248.77"/><polyline class="cls-42" points="276.16 254.24 259.25 271.65 245.89 263.29"/></g></g></svg>