<svg xmlns="http://www.w3.org/2000/svg" viewBox="0 300 1190.55 200"><defs><style>.cls-1{isolation:isolate;}.cls-2{mix-blend-mode:multiply;}.cls-3{fill:#052453;}.cls-4{fill:#37b4aa;}</style></defs><g class="cls-1"><g id="Camada_1" data-name="Camada 1"><g class="cls-2"><path class="cls-3" d="M387.39,356.29c-19.87,0-29.59,13.69-29.59,13.69V299.77a1.55,1.55,0,0,0-2.47-1.25l-22.77,16.81a3.1,3.1,0,0,0-1.23,2.47V462a1.54,1.54,0,0,0,1.55,1.55h21.39a1.55,1.55,0,0,0,1.55-1.55V449.86s9.05,16.34,31.57,16.34c27.14,0,51-22.74,51-55S414.53,356.29,387.39,356.29Zm-4.63,85.19c-17.44,0-25-14.57-25-14.57V395.57s7.52-14.57,25-14.57c17.87,0,28.69,13,28.69,30.24S400.63,441.48,382.76,441.48Z"/><path class="cls-3" d="M552.94,410.8c0,1.74,0,5-.14,8.45a1.55,1.55,0,0,1-1.55,1.48H474.59c2,9.27,12.8,21.19,29.36,21.19a43.15,43.15,0,0,0,27.4-9.44,1.55,1.55,0,0,1,2.28.33L545.11,450a1.54,1.54,0,0,1-.32,2.07A67.57,67.57,0,0,1,504,466.2c-31.78,0-56.28-24.28-56.28-55S470,356.29,500.2,356.29C528.89,356.29,552.94,378.58,552.94,410.8Zm-26.48-9.27c-.44-9-8.83-21.19-26.26-21.19-17,0-24.72,11.92-25.61,21.19Z"/><path class="cls-3" d="M667.52,410.8c0,1.74,0,5-.15,8.45a1.54,1.54,0,0,1-1.55,1.48H589.17c2,9.27,12.8,21.19,29.35,21.19a43.16,43.16,0,0,0,27.41-9.44,1.55,1.55,0,0,1,2.28.33L659.69,450a1.55,1.55,0,0,1-.32,2.07,67.63,67.63,0,0,1-40.85,14.1c-31.78,0-56.28-24.28-56.28-55s22.3-54.95,52.53-54.95C643.46,356.29,667.52,378.58,667.52,410.8ZM641,401.53c-.45-9-8.83-21.19-26.27-21.19-17,0-24.72,11.92-25.6,21.19Z"/><path class="cls-3" d="M695.84,411v-.38c0-29.93,22.89-54.58,55-54.58,19.76,0,32.08,6.65,41.86,17.6l-18.19,19.57c-6.65-7-13.3-11.55-23.87-11.55-14.86,0-25.42,13.11-25.42,28.56v.4c0,16,10.36,28.95,26.6,28.95,10,0,16.82-4.31,24.06-11.16L793.26,446c-10.17,11.15-21.91,19.17-42.84,19.17C718.93,465.19,695.84,440.93,695.84,411Z"/><path class="cls-3" d="M801,358h29.73v21.12c6.07-14.47,15.85-23.86,33.45-23.08v31.1h-1.56c-19.76,0-31.89,11.93-31.89,37v38.73H801Z"/><path class="cls-3" d="M870.34,389l26.38-29.2a1.93,1.93,0,0,1,3.36,1.29v11.81c6.84-8.8,15.84-16.82,30.9-16.82,13.7,0,24.06,6.06,29.54,16.63C969.71,361.91,980.67,356,995,356c22.1,0,35.4,13.3,35.4,38.53v68.27h-29.73V404.36c0-14.09-6.26-21.33-17.41-21.33s-18,7.24-18,21.33v58.48H935.48V404.36c0-14.09-6.26-21.33-17.41-21.33s-18,7.24-18,21.33v58.48H870.34Z"/><polygon class="cls-3" points="232.62 415.74 232.62 415.75 208.01 429.96 183.38 415.75 208.01 401.53 232.62 415.74"/><polygon class="cls-3" points="208.01 373.1 208.01 401.53 183.38 415.75 183.38 387.32 208.01 373.1"/><polygon class="cls-3" points="281.86 444.18 208.01 486.82 134.14 444.18 158.77 429.96 208.01 458.39 257.25 429.96 281.86 444.18"/><polygon class="cls-3" points="158.77 344.67 158.77 429.96 134.14 444.18 134.14 358.89 158.77 344.67"/><polygon class="cls-4" points="281.86 358.89 281.86 444.18 257.25 429.96 257.25 373.1 208.01 344.67 208.01 316.25 281.86 358.89"/><polygon class="cls-4" points="232.62 387.32 232.62 415.74 208.01 401.53 208.01 373.1 232.62 387.32"/><polygon class="cls-3" points="208.01 316.24 208.01 344.68 183.38 358.89 158.77 344.68 208.01 316.24"/></g></g></g></svg>