<svg id="Camada_1" data-name="Camada 1" xmlns="http://www.w3.org/2000/svg" xmlns:xlink="http://www.w3.org/1999/xlink" viewBox="0 0 1190.55 841.89"><defs><style>.cls-1,.cls-12,.cls-13,.cls-37{fill:none;}.cls-2{fill:#96a2bd;}.cls-3{fill:#35a3bf;}.cls-4{fill:#38bfa1;}.cls-5{fill:#3bcaab;}.cls-6{fill:#052453;}.cls-7{fill:#e9f6ff;}.cls-8{fill:#d4edff;}.cls-9{fill:#074fdf;}.cls-10{fill:#8dcfff;}.cls-11{fill:#acd4f8;}.cls-12,.cls-13{stroke:#7eb3ff;}.cls-12,.cls-13,.cls-37{stroke-miterlimit:10;}.cls-12{stroke-width:0.17px;}.cls-13{stroke-width:0.17px;}.cls-14{fill:#7eb3ff;}.cls-15,.cls-25{fill:#fff;}.cls-15{opacity:0.34;}.cls-16{fill:#c5e1f9;}.cls-17{fill:#9ac7f7;}.cls-18{fill:#eaf4fe;}.cls-19{fill:#e0edff;}.cls-20{fill:#cee2ff;}.cls-21{fill:#0561fc;}.cls-22{fill:#161711;}.cls-23{fill:#0253a2;}.cls-24{fill:#e9d6b8;}.cls-26{fill:#42210b;}.cls-27{fill:#754c24;}.cls-28{fill:#e7f5fe;}.cls-29{fill:#0071bc;}.cls-30{fill:#d1dbea;}.cls-31{fill:#603813;}.cls-32{fill:#387bff;}.cls-33{fill:#333;}.cls-34{fill:#ec9568;}.cls-35{fill:#212957;}.cls-36{fill:#3b47bc;}.cls-37{stroke:#9ac7f7;stroke-width:1.28px;}.cls-38{fill:#f7b68b;}.cls-39{fill:#202954;}.cls-40{fill:#dd000b;}.cls-41{fill:#fd2227;}.cls-42{fill:#f0bf97;}.cls-43{fill:#212a54;}.cls-44{fill:#281617;}.cls-45{isolation:isolate;}.cls-46{fill:#ced6d9;}.cls-47{fill:#94999b;}.cls-48{clip-path:url(#clip-path);}.cls-49{fill:#a9b0b2;}.cls-50{clip-path:url(#clip-path-2);}.cls-51{clip-path:url(#clip-path-3);}.cls-52{fill:#adb4b6;}.cls-53{clip-path:url(#clip-path-4);}.cls-54{fill:#979d9f;}.cls-55{clip-path:url(#clip-path-5);}.cls-56{fill:#393ca6;}.cls-57{fill:#9969f3;}.cls-58{clip-path:url(#clip-path-6);}.cls-59{fill:#c8a756;}.cls-60{fill:#f3cc68;}.cls-61{clip-path:url(#clip-path-7);}.cls-62{fill:#c5c7a0;}.cls-63{clip-path:url(#clip-path-8);}.cls-64{fill:#734fb8;}.cls-65{clip-path:url(#clip-path-9);}.cls-66{fill:#f4901e;}.cls-67{fill:#fec12f;}.cls-68{fill:#3fb94a;}.cls-69{clip-path:url(#clip-path-10);}.cls-70{fill:#bfd8f1;}.cls-71{clip-path:url(#clip-path-11);}.cls-72{fill:#c5a555;}.cls-73{fill:#c2a354;}.cls-74{fill:#bfa153;}.cls-75{fill:#2dbc42;}.cls-76{clip-path:url(#clip-path-12);}.cls-77{fill:#613dcd;}.cls-78{fill:#c9c4bb;}.cls-79{clip-path:url(#clip-path-14);}.cls-80{fill:#1f70be;}.cls-81{fill:#bb8f37;}.cls-82{clip-path:url(#clip-path-15);}.cls-83{fill:#c9c9c9;}.cls-84{fill:#ccc;}.cls-85{clip-path:url(#clip-path-16);}.cls-86{fill:#3bb6d5;}.cls-87{fill:#b0bfde;}.cls-88{fill:#535c68;}.cls-89{fill:#92a4b7;}.cls-90{fill:#b1c8df;}.cls-91{clip-path:url(#clip-path-17);}.cls-92{fill:#bbc5c9;}.cls-93{clip-path:url(#clip-path-19);}.cls-94{fill:#3ac8a7;}.cls-95{fill:#39c5a5;}.cls-96{fill:#38c2a3;}.cls-97{fill:#36bc9f;}.cls-98{clip-path:url(#clip-path-20);}.cls-99{fill:#57606b;}.cls-100{fill:#545d69;}.cls-101{clip-path:url(#clip-path-21);}.cls-102{fill:#48f7d0;}.cls-103{clip-path:url(#clip-path-22);}.cls-104{clip-path:url(#clip-path-23);}.cls-105{clip-path:url(#clip-path-24);}</style><clipPath id="clip-path"><path class="cls-1" d="M482.18,388.72c-.25.48-.5,1-.74,1.45l-10.86-9.5c.24-.49.49-1,.74-1.45C474.58,382.06,478.92,385.86,482.18,388.72Z"/></clipPath><clipPath id="clip-path-2"><path class="cls-1" d="M467.88,386.73l10.86,9.51c-.27.7-.53,1.41-.79,2.13l-10.86-9.5C467.34,388.15,467.61,387.44,467.88,386.73Z"/></clipPath><clipPath id="clip-path-3"><path class="cls-1" d="M465.73,393.07l10.87,9.5c0,.05,0,.1-.05.15l-10.86-9.51A.74.74,0,0,0,465.73,393.07Z"/></clipPath><clipPath id="clip-path-4"><path class="cls-1" d="M524.14,349.71l-.85.34-10.86-9.5.85-.35Z"/></clipPath><clipPath id="clip-path-5"><path class="cls-1" d="M530.29,347.62l-1.37.4-10.86-9.5c.46-.14.91-.28,1.37-.4Z"/></clipPath><clipPath id="clip-path-6"><path class="cls-1" d="M474.29,419.89c0,.28,0,.57,0,.85l-10.85-9.51,0-.85Z"/></clipPath><clipPath id="clip-path-7"><path class="cls-1" d="M463.51,412.15l10.86,9.5-2.61-2.25-8.24-7.1C463.52,412.25,463.51,412.2,463.51,412.15Z"/></clipPath><clipPath id="clip-path-8"><path class="cls-1" d="M537,336.52,547.9,346c-.8-.1-1.61-.17-2.44-.21l-10.85-9.51C535.43,336.35,536.24,336.42,537,336.52Z"/></clipPath><clipPath id="clip-path-9"><path class="cls-1" d="M528.15,352.6,539,362.1a32.15,32.15,0,0,0-10.49,1.26l-10.85-9.51A32.32,32.32,0,0,1,528.15,352.6Z"/></clipPath><clipPath id="clip-path-10"><path class="cls-1" d="M541.2,357.59l10.86,9.51a21.09,21.09,0,0,0-13-5l-10.86-9.5A21.14,21.14,0,0,1,541.2,357.59Z"/></clipPath><clipPath id="clip-path-11"><path class="cls-1" d="M474.37,421.65c.7,9.38,4.31,17.24,10.37,22.54l-10.86-9.5c-6-5.27-9.63-13.08-10.36-22.39l4,3.45,1.42,1.23.71.61,2.79,2.4.66.57C473.48,420.89,474.14,421.2,474.37,421.65Z"/></clipPath><clipPath id="clip-path-12"><path class="cls-1" d="M573.18,367c.27.87.51,1.75.71,2.66L563,360.11c-.21-.9-.45-1.78-.72-2.65C565.58,360.31,570.83,363.33,573.18,367Z"/></clipPath><clipPath id="clip-path-14"><path class="cls-2" d="M553.68,343.4l10.86,9.5A29.37,29.37,0,0,1,573.18,367c.26.86.5,1.75.7,2.65L563,360.11c-.2-.91-.44-1.79-.7-2.65A29.33,29.33,0,0,0,553.68,343.4Z"/></clipPath><clipPath id="clip-path-15"><path class="cls-1" d="M570.36,401.14c-.4,1-.82,2-1.25,3l-10.86-9.5c.44-1,.86-2,1.25-3,4.59-11.6,5.59-22.5,3.54-31.52l10.85,9.51C576,378.63,575,389.53,570.36,401.14Z"/></clipPath><clipPath id="clip-path-16"><path class="cls-3" d="M570.36,401.14c-.4,1-.82,2-1.25,3l-10.86-9.5c.44-1,.86-2,1.25-3,4.59-11.6,5.59-22.5,3.54-31.52l10.85,9.51C576,378.63,575,389.53,570.36,401.14Z"/></clipPath><clipPath id="clip-path-17"><path class="cls-1" d="M557.26,396.73l10.86,9.5c0,.12-.11.23-.16.35l-10.86-9.51Z"/></clipPath><clipPath id="clip-path-19"><path class="cls-1" d="M566.17,409.57a79.38,79.38,0,0,1-5.2,8.61,76.46,76.46,0,0,1-6.57,8.34,101,101,0,0,1-7.9,7.72c-1.31,1.08-3,2.53-4.41,3.53,0,0-4.37,3-5.41,3.74-.89.6-1.76,1.12-2.08,1.32l-10.86-9.5c1-.58,1.91-1.16,2.85-1.76a84.18,84.18,0,0,0,28.91-31.34c.56-1,1.09-2.09,1.6-3.16l.16-.34c.34-.7.68-1.41,1-2.13l10.62,9.29c-.48,1.09-.89,1.89-1.11,2.27-.1.17-1.3,2.77-1.31,2.8C566.37,409.14,566.26,409.39,566.17,409.57Z"/></clipPath><clipPath id="clip-path-20"><path class="cls-1" d="M537.45,441.07c-.94.61-1.9,1.19-2.85,1.76l-10.86-9.5c1-.57,1.91-1.15,2.85-1.76Z"/></clipPath><clipPath id="clip-path-21"><path class="cls-4" d="M534.93,442.63l-.33.2-10.86-9.5c1-.57,1.91-1.15,2.85-1.76l10.86,9.5C536.86,441.45,536.09,441.94,534.93,442.63Z"/></clipPath><clipPath id="clip-path-22"><path class="cls-5" d="M559.49,391.63l10.86,9.51c-.38,1-.78,1.9-1.19,2.84l-10.86-9.5C558.71,393.54,559.11,392.6,559.49,391.63Z"/></clipPath><clipPath id="clip-path-23"><path class="cls-5" d="M559.49,391.64l10.86,9.5c-.38,1-.77,1.9-1.19,2.84l-10.86-9.5C558.72,393.54,559.11,392.6,559.49,391.64Z"/></clipPath><clipPath id="clip-path-24"><path class="cls-5" d="M566.17,409.57c.09-.18.2-.43.28-.61,0,0,1.21-2.62,1.31-2.8.22-.38.63-1.18,1.11-2.27l.24.21c-.31.72-.65,1.43-1,2.13,0,.12-.11.23-.16.35-.51,1.06-1.05,2.12-1.6,3.16a84.15,84.15,0,0,1-28.91,31.33c-.94.6-1.88,1.19-2.85,1.76.32-.2,1.19-.72,2.08-1.32,1-.7,5.38-3.73,5.41-3.74,1.37-1,3.1-2.45,4.41-3.53a101,101,0,0,0,7.9-7.72,76.46,76.46,0,0,0,6.57-8.34A79.38,79.38,0,0,0,566.17,409.57Z"/></clipPath></defs><rect class="cls-6" x="205.4" y="50.73" width="719.88" height="599.96"/><rect class="cls-7" x="406.04" y="398.01" width="242.24" height="189.98"/><rect class="cls-8" x="406.04" y="375.97" width="242.24" height="22.8"/><path class="cls-9" d="M422.76,386.32a4.56,4.56,0,1,1-4.56-4.55A4.57,4.57,0,0,1,422.76,386.32Z"/><path class="cls-10" d="M437.2,386.32a4.56,4.56,0,1,1-4.56-4.55A4.57,4.57,0,0,1,437.2,386.32Z"/><path class="cls-11" d="M451.64,386.32a4.56,4.56,0,1,1-4.56-4.55A4.57,4.57,0,0,1,451.64,386.32Z"/><rect class="cls-12" x="465.74" y="410.18" width="143.66" height="162.86"/><line class="cls-13" x1="465.74" y1="549.78" x2="609.39" y2="549.78"/><line class="cls-13" x1="465.74" y1="526.51" x2="609.39" y2="526.51"/><line class="cls-13" x1="465.74" y1="503.24" x2="609.39" y2="503.24"/><line class="cls-13" x1="465.74" y1="479.98" x2="609.39" y2="479.98"/><line class="cls-13" x1="465.74" y1="456.71" x2="609.39" y2="456.71"/><line class="cls-13" x1="465.74" y1="433.45" x2="609.39" y2="433.45"/><line class="cls-13" x1="561.51" y1="410.18" x2="561.51" y2="573.04"/><line class="cls-13" x1="513.62" y1="410.18" x2="513.62" y2="573.04"/><line class="cls-13" x1="465.74" y1="410.18" x2="458.31" y2="417.61"/><line class="cls-13" x1="465.74" y1="433.45" x2="458.31" y2="440.88"/><line class="cls-13" x1="465.74" y1="456.71" x2="458.31" y2="464.14"/><line class="cls-13" x1="465.74" y1="479.98" x2="458.31" y2="487.41"/><line class="cls-13" x1="465.74" y1="503.24" x2="458.31" y2="510.68"/><line class="cls-13" x1="465.74" y1="526.51" x2="458.31" y2="533.94"/><line class="cls-13" x1="465.74" y1="549.78" x2="458.31" y2="557.21"/><path class="cls-14" d="M451.85,561.55h-.59v-3.92l-1.18.44v-.53l1.68-.64h.09Z"/><path class="cls-14" d="M456.47,559.58a2.75,2.75,0,0,1-.35,1.53,1.27,1.27,0,0,1-1.11.5,1.25,1.25,0,0,1-1.09-.49,2.53,2.53,0,0,1-.37-1.46v-.79a2.65,2.65,0,0,1,.35-1.51,1.49,1.49,0,0,1,2.21,0,2.61,2.61,0,0,1,.36,1.48Zm-.59-.81a2.12,2.12,0,0,0-.21-1.08.81.81,0,0,0-1.32,0,2.1,2.1,0,0,0-.21,1v.94a2.08,2.08,0,0,0,.22,1.1.7.7,0,0,0,.65.36.72.72,0,0,0,.65-.33,2.09,2.09,0,0,0,.22-1.07Z"/><path class="cls-14" d="M453,538.45h-3V538l1.6-1.78a3.63,3.63,0,0,0,.49-.66,1.1,1.1,0,0,0,.14-.52.84.84,0,0,0-.22-.59.75.75,0,0,0-.59-.23.89.89,0,0,0-.68.25.93.93,0,0,0-.24.69h-.59a1.33,1.33,0,0,1,.42-1,1.52,1.52,0,0,1,1.09-.39,1.49,1.49,0,0,1,1,.33,1.17,1.17,0,0,1,.38.9,2.64,2.64,0,0,1-.87,1.63L450.63,538H453Z"/><path class="cls-14" d="M456.47,536.48a2.72,2.72,0,0,1-.35,1.53,1.27,1.27,0,0,1-1.11.5,1.25,1.25,0,0,1-1.09-.49,2.53,2.53,0,0,1-.37-1.46v-.79a2.65,2.65,0,0,1,.35-1.51,1.51,1.51,0,0,1,2.21,0,2.61,2.61,0,0,1,.36,1.48Zm-.59-.8a2.13,2.13,0,0,0-.21-1.09.81.81,0,0,0-1.32,0,2.1,2.1,0,0,0-.21,1v.94a2.08,2.08,0,0,0,.22,1.1.7.7,0,0,0,.65.36.72.72,0,0,0,.65-.33,2.07,2.07,0,0,0,.22-1.06Z"/><path class="cls-14" d="M450.78,512.75h.44a1,1,0,0,0,.65-.22.81.81,0,0,0-.57-1.39.83.83,0,0,0-.61.22.78.78,0,0,0-.22.58h-.59a1.19,1.19,0,0,1,.4-.92,1.48,1.48,0,0,1,1-.36,1.42,1.42,0,0,1,1,.35,1.24,1.24,0,0,1,.38,1,1,1,0,0,1-.2.58,1.16,1.16,0,0,1-.53.42,1.2,1.2,0,0,1,.59.4,1.12,1.12,0,0,1,.21.68,1.26,1.26,0,0,1-.41,1,1.49,1.49,0,0,1-1.06.37,1.52,1.52,0,0,1-1.05-.36,1.13,1.13,0,0,1-.41-.92h.59a.75.75,0,0,0,.24.58,1,1,0,0,0,1.28,0,.88.88,0,0,0,.23-.64.76.76,0,0,0-.25-.62,1.06,1.06,0,0,0-.71-.22h-.44Z"/><path class="cls-14" d="M456.47,513.37a2.76,2.76,0,0,1-.35,1.54,1.47,1.47,0,0,1-2.2,0,2.56,2.56,0,0,1-.37-1.47v-.78a2.65,2.65,0,0,1,.35-1.51,1.49,1.49,0,0,1,2.21,0,2.6,2.6,0,0,1,.36,1.47Zm-.59-.8a2.16,2.16,0,0,0-.21-1.09.81.81,0,0,0-1.32,0,2.18,2.18,0,0,0-.21,1v.94a2.13,2.13,0,0,0,.22,1.1.78.78,0,0,0,1.3,0,2,2,0,0,0,.22-1.06Z"/><path class="cls-14" d="M452.4,490.7H453v.48h-.64v1.07h-.59v-1.07h-2.1v-.35l2.07-3.2h.62Zm-2,0h1.44v-2.27l-.07.13Z"/><path class="cls-14" d="M456.47,490.28a2.72,2.72,0,0,1-.35,1.53,1.27,1.27,0,0,1-1.11.5,1.25,1.25,0,0,1-1.09-.49,2.53,2.53,0,0,1-.37-1.46v-.79a2.65,2.65,0,0,1,.35-1.51,1.49,1.49,0,0,1,2.21,0,2.61,2.61,0,0,1,.36,1.48Zm-.59-.81a2.12,2.12,0,0,0-.21-1.08.81.81,0,0,0-1.32,0,2.1,2.1,0,0,0-.21,1v.94a2.08,2.08,0,0,0,.22,1.1.7.7,0,0,0,.65.36.72.72,0,0,0,.65-.33,2.09,2.09,0,0,0,.22-1.07Z"/><path class="cls-14" d="M450.19,466.83l.24-2.3h2.36v.54h-1.86l-.14,1.26a1.5,1.5,0,0,1,.77-.2,1.27,1.27,0,0,1,1,.42,1.6,1.6,0,0,1,.37,1.13,1.56,1.56,0,0,1-.39,1.12,1.39,1.39,0,0,1-1.07.41,1.44,1.44,0,0,1-1-.34,1.37,1.37,0,0,1-.44-.94h.55a.94.94,0,0,0,.28.6.93.93,0,0,0,.61.2.77.77,0,0,0,.64-.28,1.18,1.18,0,0,0,.23-.77,1,1,0,0,0-.25-.74.85.85,0,0,0-.67-.28,1,1,0,0,0-.6.16l-.16.13Z"/><path class="cls-14" d="M456.47,467.18a2.72,2.72,0,0,1-.35,1.53,1.27,1.27,0,0,1-1.11.5,1.25,1.25,0,0,1-1.09-.49,2.53,2.53,0,0,1-.37-1.46v-.79a2.65,2.65,0,0,1,.35-1.51,1.51,1.51,0,0,1,2.21,0,2.61,2.61,0,0,1,.36,1.48Zm-.59-.8a2.16,2.16,0,0,0-.21-1.09.81.81,0,0,0-1.32,0,2.1,2.1,0,0,0-.21,1v.94a2.08,2.08,0,0,0,.22,1.1.7.7,0,0,0,.65.36.72.72,0,0,0,.65-.33,2.07,2.07,0,0,0,.22-1.06Z"/><path class="cls-14" d="M452.23,441.42v.5h-.11a1.51,1.51,0,0,0-1.09.41,1.67,1.67,0,0,0-.47,1.1,1.24,1.24,0,0,1,1-.42,1.21,1.21,0,0,1,1,.43,1.86,1.86,0,0,1,0,2.24,1.43,1.43,0,0,1-2.12-.08,2.05,2.05,0,0,1-.41-1.31v-.23a3.06,3.06,0,0,1,.54-1.95,2,2,0,0,1,1.62-.69Zm-.77,2.08a.94.94,0,0,0-.56.18.92.92,0,0,0-.35.46v.21a1.46,1.46,0,0,0,.26.92.75.75,0,0,0,.64.35.73.73,0,0,0,.62-.29,1.39,1.39,0,0,0,0-1.53A.74.74,0,0,0,451.46,443.5Z"/><path class="cls-14" d="M456.47,444.08a2.75,2.75,0,0,1-.35,1.53,1.47,1.47,0,0,1-2.2,0,2.56,2.56,0,0,1-.37-1.47v-.78a2.65,2.65,0,0,1,.35-1.51,1.49,1.49,0,0,1,2.21,0,2.6,2.6,0,0,1,.36,1.47Zm-.59-.81a2.09,2.09,0,0,0-.21-1.08.72.72,0,0,0-.66-.35.73.73,0,0,0-.66.34,2.18,2.18,0,0,0-.21,1.05v.94a2.11,2.11,0,0,0,.22,1.1.78.78,0,0,0,1.3,0,2,2,0,0,0,.22-1.06Z"/><path class="cls-14" d="M452.91,418.66,451,423h-.61l1.9-4.14h-2.49v-.48h3.12Z"/><path class="cls-14" d="M456.47,421a2.75,2.75,0,0,1-.35,1.53,1.27,1.27,0,0,1-1.11.5,1.25,1.25,0,0,1-1.09-.49,2.55,2.55,0,0,1-.37-1.46v-.79a2.65,2.65,0,0,1,.35-1.51,1.49,1.49,0,0,1,2.21,0,2.6,2.6,0,0,1,.36,1.47Zm-.59-.81a2.12,2.12,0,0,0-.21-1.08.71.71,0,0,0-.66-.34.73.73,0,0,0-.66.33,2.18,2.18,0,0,0-.21,1.05v.94a2.11,2.11,0,0,0,.22,1.1.78.78,0,0,0,1.3,0,2,2,0,0,0,.22-1.06Z"/><path class="cls-14" d="M482.71,581.64h-3v-.42l1.59-1.78a3.78,3.78,0,0,0,.5-.66,1.06,1.06,0,0,0,.13-.52.8.8,0,0,0-.22-.59.73.73,0,0,0-.58-.23.88.88,0,0,0-.68.25.9.9,0,0,0-.25.69h-.58a1.33,1.33,0,0,1,.41-1,1.52,1.52,0,0,1,1.1-.39,1.49,1.49,0,0,1,1,.33,1.16,1.16,0,0,1,.37.9,2.64,2.64,0,0,1-.87,1.63l-1.24,1.34h2.32Z"/><path class="cls-14" d="M486.23,579.67a2.64,2.64,0,0,1-.35,1.53,1.25,1.25,0,0,1-1.1.5,1.24,1.24,0,0,1-1.09-.49,2.53,2.53,0,0,1-.37-1.46V579a2.57,2.57,0,0,1,.35-1.51,1.25,1.25,0,0,1,1.1-.49,1.26,1.26,0,0,1,1.1.47,2.54,2.54,0,0,1,.36,1.48Zm-.58-.8a2.14,2.14,0,0,0-.22-1.09.8.8,0,0,0-1.31,0,2.09,2.09,0,0,0-.22,1v.94a2.19,2.19,0,0,0,.22,1.1.79.79,0,0,0,1.31,0,2.18,2.18,0,0,0,.22-1.06Z"/><path class="cls-14" d="M490,581.64h-3v-.42l1.6-1.78a3.63,3.63,0,0,0,.49-.66,1.07,1.07,0,0,0,.14-.52.84.84,0,0,0-.22-.59.75.75,0,0,0-.59-.23.89.89,0,0,0-.68.25.93.93,0,0,0-.24.69h-.59a1.36,1.36,0,0,1,.41-1,1.56,1.56,0,0,1,1.1-.39,1.49,1.49,0,0,1,1,.33,1.17,1.17,0,0,1,.38.9,2.64,2.64,0,0,1-.87,1.63l-1.24,1.34H490Z"/><path class="cls-14" d="M493.53,579.67a2.64,2.64,0,0,1-.36,1.53,1.46,1.46,0,0,1-2.19,0,2.53,2.53,0,0,1-.37-1.46V579a2.65,2.65,0,0,1,.35-1.51,1.51,1.51,0,0,1,2.21,0,2.61,2.61,0,0,1,.36,1.48Zm-.59-.8a2.16,2.16,0,0,0-.21-1.09.81.81,0,0,0-1.32,0,2,2,0,0,0-.21,1v.94a2.08,2.08,0,0,0,.22,1.1.7.7,0,0,0,.65.36.72.72,0,0,0,.65-.33,2.07,2.07,0,0,0,.22-1.06Z"/><path class="cls-14" d="M531.56,581.64h-3v-.42l1.6-1.78a3.78,3.78,0,0,0,.5-.66,1.06,1.06,0,0,0,.13-.52.8.8,0,0,0-.22-.59.73.73,0,0,0-.58-.23.88.88,0,0,0-.68.25.9.9,0,0,0-.25.69h-.58a1.33,1.33,0,0,1,.41-1A1.52,1.52,0,0,1,530,577a1.49,1.49,0,0,1,1,.33,1.16,1.16,0,0,1,.37.9,2.64,2.64,0,0,1-.87,1.63l-1.24,1.34h2.32Z"/><path class="cls-14" d="M535.08,579.67a2.64,2.64,0,0,1-.35,1.53,1.25,1.25,0,0,1-1.1.5,1.24,1.24,0,0,1-1.09-.49,2.45,2.45,0,0,1-.37-1.46V579a2.57,2.57,0,0,1,.35-1.51,1.25,1.25,0,0,1,1.1-.49,1.26,1.26,0,0,1,1.1.47,2.54,2.54,0,0,1,.36,1.48Zm-.58-.8a2.14,2.14,0,0,0-.22-1.09.69.69,0,0,0-.66-.34.71.71,0,0,0-.66.34,2.22,2.22,0,0,0-.21,1v.94a2.19,2.19,0,0,0,.22,1.1.72.72,0,0,0,.66.36.7.7,0,0,0,.64-.33,2.16,2.16,0,0,0,.23-1.06Z"/><path class="cls-14" d="M538.86,581.64h-3v-.42l1.6-1.78a3.63,3.63,0,0,0,.49-.66,1.06,1.06,0,0,0,.13-.52.84.84,0,0,0-.21-.59.77.77,0,0,0-.59-.23.89.89,0,0,0-.68.25.93.93,0,0,0-.24.69h-.59a1.36,1.36,0,0,1,.41-1,1.54,1.54,0,0,1,1.1-.39,1.49,1.49,0,0,1,1,.33,1.17,1.17,0,0,1,.38.9,2.62,2.62,0,0,1-.88,1.63l-1.23,1.34h2.32Z"/><path class="cls-14" d="M541.41,581.64h-.59v-3.91l-1.18.43v-.53l1.68-.63h.09Z"/><path class="cls-14" d="M580.41,581.64h-3v-.42l1.6-1.78a3.63,3.63,0,0,0,.49-.66,1,1,0,0,0,.14-.52.8.8,0,0,0-.22-.59.75.75,0,0,0-.58-.23.91.91,0,0,0-.69.25.93.93,0,0,0-.24.69h-.58a1.33,1.33,0,0,1,.41-1,1.52,1.52,0,0,1,1.1-.39,1.51,1.51,0,0,1,1,.33,1.16,1.16,0,0,1,.37.9,2.64,2.64,0,0,1-.87,1.63l-1.24,1.34h2.32Z"/><path class="cls-14" d="M583.93,579.67a2.72,2.72,0,0,1-.35,1.53,1.25,1.25,0,0,1-1.1.5,1.24,1.24,0,0,1-1.09-.49,2.52,2.52,0,0,1-.38-1.46V579a2.57,2.57,0,0,1,.36-1.51,1.25,1.25,0,0,1,1.1-.49,1.26,1.26,0,0,1,1.1.47,2.54,2.54,0,0,1,.36,1.48Zm-.58-.8a2.14,2.14,0,0,0-.22-1.09.69.69,0,0,0-.66-.34.71.71,0,0,0-.66.34,2.22,2.22,0,0,0-.21,1v.94a2.08,2.08,0,0,0,.22,1.1.79.79,0,0,0,1.3,0,2.16,2.16,0,0,0,.23-1.06Z"/><path class="cls-14" d="M587.71,581.64h-3v-.42l1.6-1.78a3.63,3.63,0,0,0,.49-.66,1.06,1.06,0,0,0,.13-.52.84.84,0,0,0-.21-.59.77.77,0,0,0-.59-.23.89.89,0,0,0-.68.25.93.93,0,0,0-.24.69h-.59a1.36,1.36,0,0,1,.41-1,1.54,1.54,0,0,1,1.1-.39,1.49,1.49,0,0,1,1,.33,1.17,1.17,0,0,1,.38.9,2.62,2.62,0,0,1-.88,1.63l-1.23,1.34h2.32Z"/><path class="cls-14" d="M591.36,581.64h-3v-.42l1.6-1.78a4.18,4.18,0,0,0,.49-.66,1.06,1.06,0,0,0,.13-.52.84.84,0,0,0-.21-.59.77.77,0,0,0-.59-.23.89.89,0,0,0-.68.25.93.93,0,0,0-.24.69h-.59a1.36,1.36,0,0,1,.41-1,1.54,1.54,0,0,1,1.1-.39,1.49,1.49,0,0,1,1,.33,1.16,1.16,0,0,1,.37.9,2.59,2.59,0,0,1-.87,1.63L589,581.16h2.32Z"/><rect class="cls-15" x="465.74" y="433.45" width="143.66" height="23.26"/><rect class="cls-15" x="465.74" y="479.98" width="143.66" height="23.26"/><rect class="cls-15" x="465.74" y="526.51" width="143.66" height="23.26"/><rect class="cls-16" x="465.74" y="433.45" width="64.56" height="3.71"/><rect class="cls-17" x="465.74" y="443.22" width="110.89" height="3.72"/><rect class="cls-18" x="465.74" y="453" width="39.52" height="3.71"/><rect class="cls-16" x="465.74" y="479.98" width="116.53" height="3.71"/><rect class="cls-17" x="465.74" y="489.76" width="47.88" height="3.72"/><rect class="cls-18" x="465.74" y="499.53" width="95.77" height="3.71"/><rect class="cls-16" x="465.74" y="526.81" width="47.88" height="3.72"/><rect class="cls-17" x="465.74" y="536.59" width="95.77" height="3.72"/><rect class="cls-18" x="465.74" y="546.36" width="79.05" height="3.71"/><path class="cls-19" d="M737.53,461a6.21,6.21,0,0,1-6.22,6.22H677.4a6.21,6.21,0,0,1-6.22-6.22V382.2A6.22,6.22,0,0,1,677.4,376h37.32l22.81,22.81Z"/><polygon class="cls-20" points="716.8 396.71 737.53 417.18 737.53 398.79 735.46 396.71 716.8 396.71"/><path class="cls-21" d="M714.72,376v16.59a6.22,6.22,0,0,0,6.22,6.22h16.59Z"/><rect class="cls-16" x="683.62" y="434.04" width="41.47" height="4.15"/><rect class="cls-16" x="691.91" y="417.45" width="20.74" height="4.15"/><rect class="cls-16" x="683.62" y="425.74" width="41.47" height="4.15"/><polygon class="cls-16" points="725.09 413.3 702.63 413.3 683.62 413.3 683.62 409.15 725.09 409.15 725.09 413.3"/><rect class="cls-16" x="683.62" y="442.33" width="41.47" height="4.15"/><rect class="cls-16" x="683.62" y="450.63" width="41.47" height="4.15"/><rect class="cls-16" x="683.62" y="413.3" width="4.15" height="41.47"/><rect class="cls-16" x="708.5" y="427.82" width="4.15" height="26.96"/><rect class="cls-16" x="720.95" y="413.3" width="4.15" height="41.47"/><path class="cls-22" d="M289.78,765.17l-.77,9-1.65,7.49-3,2-2.28.69-.66,1.27-7.88,5.21a13.7,13.7,0,0,1-8.76.53c-1.24-.29.49-3.67.92-4.18a62.38,62.38,0,0,1,6.28-6.12l6.15-7.57,7-9.47Z"/><path class="cls-22" d="M360,755.37,358,759,357,763.06l.15,6.49,3.49.51,2.66-.55,1.72,1.22s9.93,2,13.66,2.12c6.18.21,9.57-.41,10.79-1.61.67-.67-2.2-2-3.15-2.12-5.49-.86-11.26-4.39-11.26-4.39l-4.52-5.13-.86-3.62Z"/><polygon class="cls-23" points="332.3 558.94 275.4 773.14 289.86 774.07 317.47 705.92 324.15 685.37 356.98 604.74 363.3 560.4 332.3 558.94"/><polygon class="cls-23" points="357.26 756.02 361.34 673.67 357.75 635.94 353.39 584.15 359.99 549.48 382.59 553.1 385.14 608.94 383.74 661.91 382.62 681.87 374.09 760.46 357.26 756.02"/><path class="cls-24" d="M411.73,486.27s13.23,2.26,35.18-10.13c7.41-4.18,2.42,1.5-1.33,8.84s-22.25,14.36-39.47,12.74S411.73,486.27,411.73,486.27Z"/><path class="cls-24" d="M443.9,480.45s.66-9.12,2.69-10.7,9.77-6.84,9.77-6.84l2.09-1.16s2.38,1.67-2.87,5.14-1.88,3.22-1.88,3.22l5.81-1.29,7.2-1,3.16-.88s1.76-.64,2.29-.42c1.51.64.44,1.65.44,1.65l-12.07,4.51,12.05-1s1.55.14,1.74,1-.32.86-.32.86L460.47,478l6.23.22s1.52.18,1.74,1,.34,1.11.34,1.11L444.48,483Z"/><rect class="cls-25" x="436.37" y="478.67" width="9.06" height="11.25" transform="translate(-192.16 316.45) rotate(-32.84)"/><path class="cls-24" d="M461.35,474.84l8.5-.19a6.47,6.47,0,0,1,2.83.2,1.17,1.17,0,0,1,.63,1.54L460.47,478Z"/><path class="cls-26" d="M356,448s-3.76,5.94,9.88,40.76c7.62,19.46,11.93,31.79,21.12,32.66,15.74,1.48,57.54-25.13,57.54-25.13l-6.79-19.25s-31,15.18-40.18,10.94c-2.14-1-16-38.78-23.34-43.66C370.82,442.09,358.23,446.86,356,448Z"/><path class="cls-27" d="M391.5,604l-8.4,8.69-6.81-22.83-6.69,26.37L316.15,609s7.91-46.54,13-68.11L312,486.77s.7-38.78,15.35-40.87a277.32,277.32,0,0,1,45.21-2.45S406,534.13,391.5,604Z"/><polygon class="cls-7" points="356.96 445.57 360.91 496.41 334.5 455.92 334.04 445.42 356.96 445.57"/><polyline class="cls-24" points="323.26 583.65 315.15 579.71 314.16 578.78 315.16 576.97 316.91 577.09 316.31 571.98 324.47 570.06 328.59 567.85 325.45 581.97"/><path class="cls-24" d="M298,534.17l30.38,33.07s-.75,5.1-3.18,2.55c-.3-.3,1-1.4-.76-2.25-7.21-3.43-23.95-8.4-30.36-13.94a101.3,101.3,0,0,1-14.61-16.06Z"/><rect class="cls-28" x="309.26" y="552.97" width="10.21" height="11.25" transform="translate(-306.18 398.04) rotate(-46.12)"/><path class="cls-29" d="M351.66,453.78s16.78,38.22,6.41,77.28c-.82,3.07-4.79,4.89-4.79,4.89l-4.62-5S354.12,486,351.66,453.78Z"/><polygon class="cls-30" points="349.82 452.17 348.8 458.75 334.1 448.68 333.99 445.42 349.82 452.17"/><polygon class="cls-30" points="352.33 445.09 355.7 457.92 352.36 453.52 352.33 445.09"/><path class="cls-26" d="M314.07,485.51,300.92,531.4l18.68,24.14s-7.36,10.93-10.42,9.65C288,556.34,271.29,526,271.29,526l23.26-64.68s5-10.36,24.29-13.56C332.81,445.42,315,481.7,314.07,485.51Z"/><path class="cls-24" d="M331.77,437.14a49.82,49.82,0,0,0,2.89,8.4c1.75,3.4,15.48,7.14,17.58,7.52s-1.09-10.43-1.23-12.92c-.11-1.9-1.3-1.24,0-4.06Z"/><polygon class="cls-31" points="351.97 444.17 356.04 455.53 361.26 499.07 368.76 464.84 362.59 458.92 365.94 453.41 358.55 444.43 351.97 444.17"/><path class="cls-26" d="M376.12,564l.62,24L372,566.34l-44.31,28.51s-3.66-32.36,1.41-53.93L312,486.77s-18.55-30.56,1.79-37.9c3.17-1.14,14.23-2.6,17.64-2.83,4.83-.34,13.83,13.5,16,17.48,2.32,4.25,17.39,42.87,17.39,42.87Z"/><polygon class="cls-26" points="333.02 445.11 325.12 446.87 331.48 458.73 340.54 464.12 340.48 474.38 364.05 508 348.66 463.67 333.02 445.11"/><polygon class="cls-31" points="333.02 444.48 325.12 446.24 331.45 458.14 340.5 463.27 340.41 473.09 363.89 505.19 348.61 462.82 333.02 444.48"/><polygon class="cls-32" points="352.24 453.06 349.82 452.8 350.06 458.78 352.98 460.85 354.66 458.34 352.24 453.06"/><path class="cls-24" d="M354.51,432a3.91,3.91,0,0,1-3,4.66l-17.25,3.75a3.91,3.91,0,0,1-4.66-3l-5.56-25.54a3.93,3.93,0,0,1,3-4.67l17.24-3.74a3.91,3.91,0,0,1,4.66,3Z"/><path d="M350.12,411.74s1.78-3,1.87-4.59a5.82,5.82,0,0,0-3.48-4.25c-2.17-.7-3.31,1.72-3.31,1.72s3.43,1,3.73,1.64S350.12,411.74,350.12,411.74Z"/><path class="cls-33" d="M324.79,423.77s-4.73-9.25-4.88-12.22-.26-5.05,3.18-6.13c5.15-1.62,5.46-.52,7.66-2.67s6-7,7.46-7.72c2.5-1.22,6.81-1.23,8.05,3.68a5.61,5.61,0,0,0,3.37,4.17c-.1.49-1,1.12-2.46,2.32-4.27,3.44-7,4.54-10.92,4.38s-11.16-.75-11.37,2.14,1.91,11.12,1.74,11.82S325.54,424.12,324.79,423.77Z"/><path class="cls-24" d="M331.89,430.26a1.31,1.31,0,0,1-1,1.55l-3.72.81a1.31,1.31,0,0,1-1.56-1l-1.48-6.81a1.32,1.32,0,0,1,1-1.56l3.72-.8a1.29,1.29,0,0,1,1.55,1Z"/><path class="cls-24" d="M354.1,425.42a1.29,1.29,0,0,1-1,1.55l-3.72.82a1.32,1.32,0,0,1-1.56-1L346.34,420a1.32,1.32,0,0,1,1-1.55l3.73-.81a1.31,1.31,0,0,1,1.55,1Z"/><path class="cls-33" d="M326.93,425.65l2.92,13.4c.66,3,3.32,9.43,20.43,5.69,10.14-2.19,8.15-9.56,7.61-12-.4-1.86-3.72-7-5-7.82-.05,0,.9,4.15.9,4.15a8.29,8.29,0,0,0-7.81-2.53c-7.77,1.68-8.55,6.62-12,7.28C331.32,434.33,328.41,430.46,326.93,425.65Z"/><path class="cls-24" d="M344.2,433.82l5.32-1.16a1.31,1.31,0,0,0,1-1.56l-.16-.75-7.88,1.72.17.75A1.31,1.31,0,0,0,344.2,433.82Z"/><rect class="cls-31" x="319.95" y="483.43" width="18.66" height="5.66" transform="translate(-67.22 53.06) rotate(-8.36)"/><path class="cls-34" d="M636,557l-36.19,38.92s.69,7.77,6.07,4.38S641,575.47,641,575.47,655.4,550.33,636,557Z"/><path class="cls-16" d="M702.53,778s.49,4.74.49,6.2-3.16,5.59-3.41,6.81l-.24,1.22H723.2s.48-2.44-3.41-5.6-5.1-5.34-5.59-9.36S702.53,778,702.53,778Z"/><path class="cls-16" d="M661.93,778.56l2.43,13.13h-37.2a5.38,5.38,0,0,1,4.13-5.35c4.38-1.21,16.29-4.86,19.45-8.75S661.93,778.56,661.93,778.56Z"/><path class="cls-17" d="M645.82,523.4c2.79-2.09,8-5.84,15.14-5.47s-4.2,11.85-9.67,15.5-8,2.37-8,2.37S642.17,526.13,645.82,523.4Z"/><path class="cls-35" d="M639.8,587.7s-10.57,34.53,1.83,98c2.63,13.5,1.79,15.5,3.28,27,4.62,35.68,4.74,63.82,5.83,64.92,2.5,2.49,6.85.88,9.49,0,1.09-.37,5.47-52.88,4.37-62-1.58-13.23-3.92-15.91-4-25.16-.12-13.25,9.36-31.64,6.93-46.56C665,628.18,642.71,580.1,639.8,587.7Z"/><path class="cls-36" d="M685,588.31s10.21,22.25,11.3,32.46c1,9.79,1.83,68.2,1.83,68.2s8.38,19.69,10.94,29.17,5.1,59.08,5.1,59.08l-11.67.73-37.2-136.39L639.8,589.89Z"/><path class="cls-37" d="M663.14,591.23s4,14.95,24.07,12"/><path class="cls-37" d="M687.21,611.65l6.93,79.14s17.14,39.75,17.87,79.87"/><path class="cls-16" d="M683,518.47s8.57,8.39,7.48,16.41-5.23,11.49-6.69,21.7-4.13,27.11,1,31.12-47.16,1.95-47.16,1.95,7.9-26.44,2.91-37.93c-1.89-4.36-1.27-14.28,4.56-17.93s14.41-16,14.41-16S677.73,515.74,683,518.47Z"/><path class="cls-17" d="M683,518.47s8.57.73,11.67,7.48,10.58,36.83,10.58,44.31-.92,10.76-.92,10.76l-19.51-10.4S680.47,519.2,683,518.47Z"/><path class="cls-38" d="M704.35,581s-.36,4.19-.36,5.1-4,2-8.21,2S660.59,570.26,657.67,569a66.12,66.12,0,0,0-11.3-3.28c-1.64-.18-2.92-4.74-2-7.66.61-1.93,1.21-3.62,2.13-4.17a1.51,1.51,0,0,1,1.7.16c2,1.28,10,8.21,10,8.21S677,565.7,684.48,569,700.71,576.28,704.35,581Z"/><path class="cls-34" d="M636.89,555.12l9.6-1.25L644.36,558l1.28,6.38-5.29.92s-.73-.92.18-1.28,2.19-.91,2.19-.91-2.55-.37-3.65-.55-1.27-.55-1.27-1.09,1.09-.92,1.09-.92-2-.72-2.19-1.27-.54-1.28-.18-1.83S636.34,555.49,636.89,555.12Z"/><path class="cls-39" d="M682.07,508.05s16.13-1.65,16-8.6-8.1-9.19-4-15.07,10.69-10.68-2.23-13.36-5.83-15.46-14.92-15.23-10.14,6.17-18.61,7.1-19.59-4.84-23.63,6.25-2.67,21.19,2.65,21.53-.75,5.43-1.92,9.22,3.3,17.44,24.22,7.54S672.17,508.49,682.07,508.05Z"/><path class="cls-38" d="M673.36,503.82a50.8,50.8,0,0,0-.25,9.36c.44,4.28,6.34,3.86.15,8.05-7.87,5.34-15.71-1.12-15.71-1.12A15.7,15.7,0,0,0,661,511c0-5.31-4.17-8.95,2-8.23S673.72,500.24,673.36,503.82Z"/><path class="cls-34" d="M668.74,514.52c1-.19,4.62-10.7,4.62-10.7.36-3.58-4.12-.36-10.34-1.09s-2.06,2.92-2,8.23v.15C661.93,513.79,664.76,515.34,668.74,514.52Z"/><path class="cls-38" d="M678.5,471.7s5.43,18.75,1.3,24.95c-8.06,12.09-9.7,12.48-16.48,12s-13.08-9.21-14.59-18c-1.43-8.4,2.87-7.31,11.5-10,9.4-2.91,11-5.2,11-5.2s-.89,3.81-7,6.15C663.87,481.7,674.52,485.94,678.5,471.7Z"/><path class="cls-25" d="M661.58,499.56c-1.69-.18-3.36-.31-5-.39a6.55,6.55,0,0,0,12.85,1.57C666.88,500.25,664.27,499.85,661.58,499.56Z"/><path class="cls-40" d="M636.84,789.08,619.91,514.94c-3,.41-5.24,1.69-5.53,3.13l16.76,271.36Z"/><path class="cls-41" d="M617.61,790.26l13.53-.83L614.38,518.07h0l0,0v0c-.5-1.56-3.43-2.6-6.92-2.4s-6.23,1.62-6.56,3.23c0,0,0,0,0,0v0h0Z"/><path class="cls-40" d="M600.85,518.9c-.48-1.39-2.87-2.38-5.86-2.42l16.93,274.13,5.69-.35Z"/><path class="cls-16" d="M595,516.48c3,0,5.4,1,5.88,2.42h0v0s0,0,0,0c.33-1.61,3.09-3,6.56-3.23s6.42.84,6.92,2.4v0l0,0h0c.29-1.44,2.56-2.73,5.54-3.13L605.85,490Z"/><path class="cls-40" d="M602.58,498c1.17,0,2.34,0,3.55-.09s2.66-.23,4-.41L605.85,490Z"/><path class="cls-42" d="M598.55,588.41l6.47-3.53L613.7,582s.38,1.2-1.2,2.17-7,3.45-7,3.45l-3.07,2.08-.62.43S598.15,591.54,598.55,588.41Z"/><path class="cls-42" d="M602.27,588.79s-.89,1.82-.55,2.14,1.19-.06,2.37-.34,4.73-1.22,4.73-1.22l5.09-.58a8,8,0,0,1-1.87,2,31.7,31.7,0,0,1-3.53,1.28l-5.33,2.15s-4,1-4,.19.69-1.59.22-2.24S598.06,589.54,602.27,588.79Z"/><path class="cls-42" d="M605.38,594.76l3.54-1.06s3.88-.74,3.9-.29l0,.44s-1,.55-2.34,1.11c-.5.22-2.75,1.09-3.31,1.27a49.36,49.36,0,0,0-4.47,2.1C602.39,598.35,599.17,596.94,605.38,594.76Z"/><path class="cls-42" d="M596.8,588.16l2.36-5.34,6.09-4.52s.39,1.32-1.27,3.06-1.75,2-2.07,2.11-1,3.94-1,3.94S596.53,589.39,596.8,588.16Z"/><path class="cls-42" d="M600.91,589.13l-1.11-5.65s-1.4-.93-2.47,3.39-2.41,8.09-2.41,8.09,0,3.14,1.12,3.94,2.9,2.29,4.64,1.49,3.17-3.47,3.61-4.3c.52-1-.72-1.39-1-2.23-.4-1,0-2.44-.39-3A8.86,8.86,0,0,0,600.91,589.13Z"/><path class="cls-43" d="M785.05,481.16s15.7-3.77,19.85-7.67-5.09-5-2.57-11.78c3.67-9.89-7.51-24.76-11.45-13.86s1.63,14.79,1.29,9.63,2.36-19.08-12.29-17.07-19,11.76-6.49,15.47S758,444.07,759.25,453.7s9.86,7.91,12.82,7.58-12.36-6.44-10,3.65S773.49,478.81,785.05,481.16Z"/><path class="cls-38" d="M797.23,480.08s1.55,9,3.32,13.12c3.18,7.36,7.14,19.48-16.86,13.78-4-1,7.36-13,1.66-19S797.23,480.08,797.23,480.08Z"/><path class="cls-34" d="M799.22,480s-3.13,3.35,1,14.42c0,0-7.82,3.88-12.85-.59a6.75,6.75,0,0,0-2-5.75C779.65,482.09,799.22,480,799.22,480Z"/><path class="cls-38" d="M773,460.18s-2,7.57.62,19.08,8.74,14.17,18.24,11.27,9.4-14.61,8.83-17.42,8.75-1.78,5.86-8-6.52-3.23-6.64-.61-1.35,6.14-3.67,4.33.39-12.45-4-10.25S779.92,464,773,460.18Z"/><path class="cls-35" d="M798.24,601.36l.47,193.2H756.59s4.67-9.33,18.79-9.33c8.45,0-8.87-188.07-8.87-188.07Z"/><polygon class="cls-36" points="817.73 597.51 842.23 792.81 823.79 795.5 794.28 622.71 777.13 599.03 817.73 597.51"/><path class="cls-44" d="M823.8,795.5h19.59s-4.9-10.29-12.74-9.31S823.8,795.5,823.8,795.5Z"/><path class="cls-18" d="M783.19,500.8c-1-1-14.64,10.44-14.64,10.44s-4,58.39-3.32,73.56S767.09,600,767.09,600s25.44,5.14,37.1,4,13.77-3,13.77-3-1.17-44.34,2.1-51.34,12.37-31,10.27-33.83-25.9-16.33-25.9-16.33S792.29,509.43,783.19,500.8Z"/><path class="cls-17" d="M768.55,511.24s-1.92,48.47-1.92,52.85.87,11.37-11.38,18.37a238.39,238.39,0,0,0-23.62,15.75s-5.43-7.52-6.65-7.52S739.33,572,747.2,564.26,759.63,514.39,768.55,511.24Z"/><path class="cls-38" d="M729.18,588.76s-2.44-.3-4.72-.34c-1.59,0-3.11.09-3.68.52a74,74,0,0,0-6.48,6.82c-.35.53-.87,1.58,1.75.88s4.65-3.5,4-1.4c-1,3.32-6.54,10.32-7.88,11.9-1,1.19-2.8,4.37-1.75,4.72s3-3.32,5.25-5.42,4.73-5.6,1.93-.7-3.8,6.71-4.09,8.4c-.19,1.1,1.29.7,1.81.17s-.58.76,1.28.82c.7,0,3.8-5.09,4.85-6.77,2.68-4.31,3-2.62,3-2.62s-3.5,6.47-3.85,7-1.05,4.37,1.75,1,8.58-12.6,9.8-14S733.73,589.29,729.18,588.76Z"/><path class="cls-21" d="M785.51,579.31l-22.65-64.19H712.27L741,581.57S785.51,576.28,785.51,579.31Z"/><path class="cls-38" d="M773.45,544l-9.8,2.45a3,3,0,0,0,2.1,1.4c1.4.18-1.4,1.4-2.8,1.58s-1.05,1.57.53,2.1-.35.52-.35,1.22-2.1.53,1,.7,4,.88,4,.88l-4.55,1.92s-.52.53,2.63.7,6.65.53,6.65.53S774.5,545.19,773.45,544Z"/><path class="cls-34" d="M788,552.89s1.57,4.9.52,7-1.92,1.92-6.65.35-8.92-2.8-8.92-2.8-3.85-14.18.52-13.48S784.3,548.86,788,552.89Z"/><path class="cls-16" d="M824.26,557.26l-37.1-7s-2.57,7.7-1.4,12.14,18.67,12.6,29.17,14.7,17.5,2.33,21.7.23,11.2-9.33,5.83-25.2-10.5-35.7-12.13-36.4-11.2,25.43-11.2,25.43l5.13,14.24Z"/><g class="cls-45"><path class="cls-46" d="M482.18,388.72l-.74,1.45C481.68,389.68,481.93,389.2,482.18,388.72Z"/><path class="cls-47" d="M523.29,350.05l.85-.34Z"/><g class="cls-45"><g class="cls-48"><g class="cls-45"><path class="cls-49" d="M471.32,379.22l10.86,9.5c-.25.48-.5,1-.74,1.45l-10.86-9.5c.24-.49.49-1,.74-1.45"/></g></g></g><g class="cls-45"><g class="cls-50"><g class="cls-45"><path class="cls-49" d="M467.88,386.73l10.86,9.51c-.27.7-.53,1.41-.79,2.13l-10.86-9.5c.25-.72.52-1.43.79-2.14"/></g></g></g><path class="cls-47" d="M467.88,386.73c-.27.72-.53,1.43-.79,2.14C467.34,388.15,467.61,387.44,467.88,386.73Z"/><g class="cls-45"><g class="cls-51"><g class="cls-45"><path class="cls-52" d="M465.73,393.07l10.87,9.5c0,.05,0,.1-.05.15l-10.86-9.51a.74.74,0,0,0,0-.14"/></g></g></g><g class="cls-45"><g class="cls-53"><g class="cls-45"><path class="cls-54" d="M513.28,340.2l10.86,9.51-.85.34-10.86-9.5.85-.35"/></g></g></g><g class="cls-45"><g class="cls-55"><g class="cls-45"><path class="cls-56" d="M519.43,338.12l10.86,9.5-1.37.4-10.86-9.5c.46-.14.91-.28,1.37-.4"/></g></g></g><path class="cls-57" d="M545.46,345.81c.83,0,1.64.11,2.44.21C547.1,345.93,546.3,345.85,545.46,345.81Z"/><g class="cls-45"><g class="cls-58"><g class="cls-45"><path class="cls-59" d="M463.43,410.38l10.86,9.51c0,.28,0,.57,0,.85l-10.85-9.51,0-.85"/></g></g></g><path class="cls-60" d="M463.43,410.38l0,.85C463.44,411,463.43,410.67,463.43,410.38Z"/><g class="cls-45"><g class="cls-61"><g class="cls-45"><path class="cls-59" d="M463.51,412.15l10.86,9.5a39.36,39.36,0,0,0,1.83,9.4l-10.85-9.5a38.88,38.88,0,0,1-1.84-9.4"/></g></g></g><polygon class="cls-62" points="519.43 338.12 530.29 347.62 528.52 363.36 517.67 353.85 519.43 338.12"/><g class="cls-45"><g class="cls-63"><g class="cls-45"><path class="cls-64" d="M537,336.52,547.9,346c-.8-.1-1.61-.17-2.44-.21l-10.85-9.51c.82.05,1.63.12,2.43.22"/></g></g></g><g class="cls-45"><g class="cls-65"><g class="cls-45"><path class="cls-66" d="M528.15,352.6,539,362.1a32.15,32.15,0,0,0-10.49,1.26l-10.85-9.51a32.32,32.32,0,0,1,10.48-1.25"/></g></g></g><path class="cls-67" d="M518.06,338.52l1.37-.41a44.67,44.67,0,0,1,15.17-1.81l-6.45,16.3a32.32,32.32,0,0,0-10.48,1.25l1.76-15.73C519,338.24,518.52,338.38,518.06,338.52Z"/><polygon class="cls-68" points="534.6 336.3 545.45 345.8 539.01 362.1 528.15 352.6 534.6 336.3"/><g class="cls-45"><g class="cls-69"><path class="cls-2" d="M541.2,357.59l10.86,9.51a21.09,21.09,0,0,0-13-5l-10.86-9.5a21.14,21.14,0,0,1,13,5"/></g></g><path class="cls-70" d="M498.42,386.43a.56.56,0,0,1,.05-.08c.47-.71,1-1.41,1.47-2.1l.36-.49c.28-.37.56-.72.84-1.08.42-.53.85-1.07,1.28-1.59.27-.31.53-.62.8-.92q.66-.76,1.35-1.5l.79-.84c.56-.58,1.13-1.14,1.7-1.69.2-.18.39-.38.58-.56.78-.72,1.57-1.43,2.38-2.1.62-.52,1.25-1,1.89-1.52l.5-.38c.53-.4,1.06-.78,1.59-1.16l.51-.35c.67-.46,1.35-.91,2-1.34l.26-.15c.62-.39,1.25-.75,1.88-1.11l.41-.23c.69-.37,1.38-.72,2.06-1.06l.43-.2c.63-.3,1.26-.59,1.9-.85l.3-.13c.7-.29,1.4-.56,2.11-.81l.47-.16c.72-.24,1.44-.47,2.15-.67l-10.85-9.51c-.72.2-1.44.43-2.15.68l-.49.16c-.7.25-1.4.51-2.1.8l-.31.14c-.63.26-1.26.55-1.89.85l-.42.2c-.7.33-1.38.69-2.06,1.06l-.43.24c-.62.34-1.23.7-1.85,1.08l-.29.18-.13.07c-.64.4-1.27.82-1.9,1.25l-.51.37c-.54.37-1.06.75-1.59,1.15l-.5.37c-.61.48-1.22,1-1.81,1.45l-.09.08c-.8.68-1.59,1.37-2.37,2.1l-.58.56c-.58.55-1.15,1.11-1.7,1.68-.09.1-.19.19-.29.29s-.33.38-.5.56c-.46.49-.91,1-1.35,1.49l-.8.93c-.43.52-.86,1.05-1.27,1.59-.16.2-.33.39-.49.6l-.36.48-.35.48c-.51.7-1,1.4-1.49,2.11a.05.05,0,0,1,0,0c-.47.71-.92,1.43-1.36,2.15l-.3.49-.28.48c-.35.6-.69,1.21-1,1.82a54.64,54.64,0,0,0-2.57,5.55c-.35.89-.67,1.78-1,2.65,0,0,0,0,0,0-.25.75-.47,1.5-.68,2.24,0,.17-.09.34-.14.51-.2.75-.38,1.5-.53,2.24l0,.13c-.14.71-.26,1.4-.37,2.09,0,.17-.05.33-.07.49-.1.71-.18,1.42-.24,2.11,0,.1,0,.21,0,.31,0,.62-.07,1.24-.08,1.85,0,.14,0,.29,0,.43s0,.19,0,.29c0,.28,0,.55,0,.84s0,.83,0,1.24.07.69.1,1,.09.8.14,1.19.11.67.17,1,.14.75.22,1.12.17.65.25,1,.19.71.31,1.06l.09.34c.13.39.27.77.42,1.15a.36.36,0,0,1,0,.11c.22.55.47,1.08.72,1.61.07.13.14.26.2.39.24.45.48.88.74,1.31a2.53,2.53,0,0,1,.13.22l.06.09c.28.45.58.87.9,1.29l.22.29c.34.43.7.86,1.07,1.26l.15.15c.2.21.4.42.61.62s.43.4.64.59L497,430.14c-.44-.39-.86-.8-1.27-1.23l-.12-.13a16.44,16.44,0,0,1-1.08-1.27l-.22-.29c-.34-.44-.65-.9-.95-1.37a2.07,2.07,0,0,1-.15-.25c-.26-.41-.49-.84-.72-1.28l-.21-.41c-.26-.52-.5-1.05-.72-1.6a.56.56,0,0,1,0-.12c-.19-.48-.35-1-.52-1.47s-.2-.71-.3-1.07-.17-.64-.25-1-.15-.75-.22-1.14-.12-.65-.17-1-.1-.79-.14-1.19-.07-.68-.1-1,0-.82,0-1.23,0-.76,0-1.15c0-.13,0-.27,0-.41,0-.61.05-1.24.09-1.87,0-.09,0-.19,0-.29.06-.7.14-1.41.24-2.12,0-.16.05-.32.07-.48.1-.69.23-1.39.37-2.1l0-.13c.15-.73.34-1.48.53-2.24.05-.17.1-.34.14-.5.21-.76.44-1.52.69-2.29s.61-1.76,1-2.64a53.66,53.66,0,0,1,2.57-5.55c.41-.78.85-1.54,1.29-2.29l.32-.52C497.52,387.82,498,387.12,498.42,386.43Z"/><g class="cls-45"><g class="cls-71"><g class="cls-45"><path class="cls-59" d="M463.51,412.15l10.86,9.5a39.36,39.36,0,0,0,1.83,9.4l-10.85-9.5a38.88,38.88,0,0,1-1.84-9.4"/><path class="cls-72" d="M465.35,421.55l10.85,9.5a32.25,32.25,0,0,0,3.35,7.08l-10.86-9.5a32,32,0,0,1-3.34-7.08"/><path class="cls-73" d="M468.69,428.63l10.86,9.5a28.26,28.26,0,0,0,4.26,5.21L473,433.83a28.19,28.19,0,0,1-4.26-5.2"/><path class="cls-74" d="M473,433.83l10.86,9.51c.3.29.61.57.93.85l-10.86-9.5c-.32-.28-.63-.56-.93-.86"/></g></g></g><path class="cls-8" d="M471.84,378.22c9.07-17.05,24-30.9,40.59-37.67l.85-.35,1.51-.58,1.07-.37c.73-.26,1.46-.5,2.2-.73.46-.14.91-.28,1.37-.4l-1.76,15.73c-12.88,3.59-25.79,14.34-33,28a54.64,54.64,0,0,0-2.57,5.55c-8,20.18-.27,37.31,17.22,38.27,7,.39,14.4-1.88,21.36-6l3.1,13.66c-10.07,5.93-20.85,9.17-30.9,8.62-1.11-.06-2.19-.19-3.25-.34l-.82-.12c-.79-.13-1.57-.29-2.33-.46l-1.23-.32c-.39-.1-.78-.22-1.17-.34-12.15-3.9-19.49-14.43-20.52-28.22,0-.35,0-.63-.05-.92l0-.85a54.38,54.38,0,0,1,1.72-15.17c.19-.74.37-1.37.54-2,.12-.41.19-.66.27-.92s.24-.77.36-1.15c.18-.54.35-1.1.54-1.66.08-.2.16-.4.23-.61.26-.71.52-1.42.79-2.14.63-1.57,1.17-2.82,1.75-4.07.07-.17.16-.35.24-.53.22-.49.46-1,.71-1.46s.49-1,.74-1.45S471.67,378.55,471.84,378.22Z"/><polygon class="cls-75" points="563.02 360.11 573.88 369.61 558.64 378.59 547.78 369.08 563.02 360.11"/><g class="cls-45"><g class="cls-76"><g class="cls-45"><path class="cls-77" d="M562.32,357.46l10.86,9.5a40.63,40.63,0,0,1,1.73,11.83l-10.86-9.51a40.61,40.61,0,0,0-1.73-11.82"/></g></g></g><g class="cls-45"><g class="cls-76"><g class="cls-45"><path class="cls-78" d="M562.32,357.46l10.86,9.5a40.63,40.63,0,0,1,1.73,11.83l-10.86-9.51a40.61,40.61,0,0,0-1.73-11.82"/></g></g></g><g class="cls-45"><path class="cls-2" d="M553.68,343.4l10.86,9.5A29.37,29.37,0,0,1,573.18,367c.26.86.5,1.75.7,2.65L563,360.11c-.2-.91-.44-1.79-.7-2.65A29.33,29.33,0,0,0,553.68,343.4Z"/><g class="cls-79"><g class="cls-45"><path class="cls-80" d="M553.68,343.4l10.86,9.5c.3.27.59.53.87.81l-10.85-9.51c-.29-.27-.58-.54-.88-.8"/><path class="cls-2" d="M554.56,344.2l10.85,9.51a26.31,26.31,0,0,1,4,4.94l-10.86-9.5a27.06,27.06,0,0,0-4-4.95"/><path class="cls-2" d="M558.59,349.15l10.86,9.5a32.14,32.14,0,0,1,3.39,7.21L562,356.35a31.84,31.84,0,0,0-3.39-7.2"/><path class="cls-2" d="M562,356.35l10.86,9.51c.12.37.23.73.34,1.1.26.86.5,1.75.7,2.65L563,360.11c-.2-.91-.44-1.79-.7-2.65-.11-.37-.22-.74-.34-1.11"/></g></g></g><polygon class="cls-81" points="559.49 391.64 570.35 401.14 556.24 400.36 545.38 390.86 559.49 391.64"/><g class="cls-45"><g class="cls-82"><g class="cls-45"><path class="cls-83" d="M562.32,357.46l10.86,9.5a40.63,40.63,0,0,1,1.73,11.83l-10.86-9.51a40.61,40.61,0,0,0-1.73-11.82"/><path class="cls-84" d="M564.05,369.28l10.86,9.51a58,58,0,0,1-3.16,18.54l-10.86-9.5a58.09,58.09,0,0,0,3.16-18.55"/><path class="cls-83" d="M560.89,387.83l10.86,9.5c-.43,1.26-.89,2.53-1.39,3.81-.4,1-.82,2-1.25,3l-10.86-9.5c.44-1,.86-2,1.25-3,.51-1.27,1-2.54,1.39-3.8"/></g></g></g><path class="cls-3" d="M570.36,401.14c-.4,1-.82,2-1.25,3l-10.86-9.5c.44-1,.86-2,1.25-3,4.59-11.6,5.59-22.5,3.54-31.52l10.85,9.51C576,378.63,575,389.53,570.36,401.14Z"/><g class="cls-85"><g class="cls-45"><path class="cls-3" d="M562.32,357.46l10.86,9.5a40.63,40.63,0,0,1,1.73,11.83l-10.86-9.51a40.61,40.61,0,0,0-1.73-11.82"/><path class="cls-3" d="M564.05,369.28l10.86,9.51a58,58,0,0,1-3.16,18.54l-10.86-9.5a58.09,58.09,0,0,0,3.16-18.55"/><path class="cls-3" d="M560.89,387.83l10.86,9.5c-.43,1.26-.89,2.53-1.39,3.81-.4,1-.82,2-1.25,3l-10.86-9.5c.44-1,.86-2,1.25-3,.51-1.27,1-2.54,1.39-3.8"/></g></g><path class="cls-86" d="M547.78,369.08l15.24-9c-.2-.91-.44-1.79-.7-2.65,2.93,9.49,2.23,21.41-2.82,34.17-.39,1-.81,2-1.25,3l0-.12c.42-.94.81-1.88,1.19-2.84l-14.11-.78C548.55,382.84,549.2,375.32,547.78,369.08Z"/><path class="cls-87" d="M534.6,336.3c.84.05,1.64.13,2.44.22,12.88,1.45,21.64,8.7,25.28,20.94.26.86.5,1.74.7,2.65l-15.24,9c-2.15-9.44-9.09-15.91-19.62-16.48Z"/><path class="cls-88" d="M534.6,442.83c.95-.57,1.91-1.15,2.85-1.76C536.51,441.67,535.57,442.26,534.6,442.83Z"/><polygon class="cls-89" points="520.63 419.67 531.49 429.17 534.59 442.83 523.73 433.33 520.63 419.67"/><path class="cls-90" d="M492.83,442c-1.11-.06-2.19-.19-3.25-.34l-.82-.12c-.79-.13-1.57-.29-2.33-.46l-1.23-.32c-.39-.1-.78-.22-1.17-.34h0l-.59-.2a28.41,28.41,0,0,1-9.55-5.47l1.85,1.62-.66-.49-.37-.28c-.35-.27-.68-.55-1-.84l-.09-.07h0l10.86,9.5.1.09,1,.82.44.33.72.53.51.34.69.46.55.32.7.42c.2.1.4.2.59.31l.72.37.61.28.74.34.65.26.75.3.68.23.54.2.24.07.21.08,1.17.34,1.22.31c.77.17,1.55.33,2.34.46.27.05.54.09.82.12,1.06.15,2.14.28,3.25.34,10.05.55,20.83-2.69,30.9-8.62l-10.86-9.5C513.66,439.26,502.88,442.5,492.83,442Z"/><g class="cls-45"><g class="cls-91"><g class="cls-45"><path class="cls-59" d="M557.26,396.73l10.86,9.5c0,.12-.11.23-.16.35l-10.86-9.51.16-.34"/></g></g></g><g class="cls-45"><g class="cls-91"><g class="cls-45"><path class="cls-92" d="M557.26,396.73l10.86,9.5c0,.12-.11.23-.16.35l-10.86-9.51.16-.34"/></g></g></g><g class="cls-45"><g class="cls-93"><g class="cls-45"><path class="cls-5" d="M558.25,394.6l10.86,9.5c-.31.72-.65,1.43-1,2.13,0,.12-.11.23-.16.35-.51,1.06-1.05,2.12-1.6,3.16s-1,1.8-1.49,2.69L554,402.92c.51-.88,1-1.78,1.49-2.69s1.09-2.09,1.6-3.16l.16-.34c.34-.7.68-1.41,1-2.13"/><path class="cls-94" d="M554,402.92l10.86,9.51a82.33,82.33,0,0,1-5.87,8.78l-10.85-9.5a83.91,83.91,0,0,0,5.86-8.79"/><path class="cls-95" d="M548.15,411.71l10.85,9.5a84.06,84.06,0,0,1-6,7.05l-10.86-9.5a84.18,84.18,0,0,0,6-7.05"/><path class="cls-96" d="M542.13,418.76l10.86,9.5a85.72,85.72,0,0,1-7,6.51l-10.86-9.51a83.87,83.87,0,0,0,7-6.5"/><path class="cls-4" d="M535.18,425.26,546,434.77a85.37,85.37,0,0,1-8.59,6.3l-.85.54-10.86-9.5.85-.54a85.46,85.46,0,0,0,8.59-6.31"/><path class="cls-97" d="M525.74,432.11l10.86,9.5-2,1.22-10.86-9.5,2-1.22"/></g></g></g><g class="cls-45"><g class="cls-98"><g class="cls-45"><path class="cls-99" d="M526.59,431.57l10.86,9.5-.86.55-10.86-9.51c.29-.17.58-.36.86-.54"/><path class="cls-100" d="M525.73,432.11l10.86,9.51-2,1.21-10.86-9.5c.66-.4,1.33-.8,2-1.22"/></g></g></g><path class="cls-4" d="M534.93,442.63l-.33.2-10.86-9.5c1-.57,1.91-1.15,2.85-1.76l10.86,9.5C536.86,441.45,536.09,441.94,534.93,442.63Z"/><g class="cls-101"><g class="cls-45"><path class="cls-4" d="M526.59,431.57l10.86,9.5-.86.55-10.86-9.51c.29-.17.58-.36.86-.54"/><path class="cls-4" d="M525.73,432.11l10.86,9.51-2,1.21-10.86-9.5c.66-.4,1.33-.8,2-1.22"/></g></g><path class="cls-102" d="M520.63,419.67a60.42,60.42,0,0,0,22.18-23.27,51.27,51.27,0,0,0,2.56-5.53l14.12.76c-.38,1-.78,1.91-1.19,2.85l0,.12c-.31.72-.65,1.43-1,2.13l-.16.34c-.51,1.07-1,2.12-1.6,3.16a84.18,84.18,0,0,1-28.91,31.34c-.94.6-1.88,1.18-2.85,1.76Z"/><path class="cls-5" d="M559.49,391.63l10.86,9.51c-.38,1-.78,1.9-1.19,2.84l-10.86-9.5C558.71,393.54,559.11,392.6,559.49,391.63Z"/><g class="cls-103"><g class="cls-45"><path class="cls-5" d="M559.49,391.63l10.86,9.51c-.38,1-.78,1.9-1.19,2.84l-10.86-9.5c.41-.94.81-1.88,1.19-2.85"/></g></g><path class="cls-5" d="M559.49,391.64l10.86,9.5c-.38,1-.77,1.9-1.19,2.84l-10.86-9.5C558.72,393.54,559.11,392.6,559.49,391.64Z"/><g class="cls-104"><g class="cls-45"><path class="cls-5" d="M559.49,391.64l10.86,9.5c-.38,1-.77,1.9-1.19,2.84l-10.86-9.5c.42-.94.81-1.88,1.19-2.84"/></g></g><path class="cls-5" d="M566.17,409.57c.09-.18.2-.43.28-.61,0,0,1.21-2.62,1.31-2.8.22-.38.63-1.18,1.11-2.27l.24.21c-.31.72-.65,1.43-1,2.13,0,.12-.11.23-.16.35-.51,1.06-1.05,2.12-1.6,3.16a84.15,84.15,0,0,1-28.91,31.33c-.94.6-1.88,1.19-2.85,1.76.32-.2,1.19-.72,2.08-1.32,1-.7,5.38-3.73,5.41-3.74,1.37-1,3.1-2.45,4.41-3.53a101,101,0,0,0,7.9-7.72,76.46,76.46,0,0,0,6.57-8.34A79.38,79.38,0,0,0,566.17,409.57Z"/><g class="cls-105"><g class="cls-45"><path class="cls-5" d="M558.25,394.6l10.86,9.5c-.31.72-.65,1.43-1,2.13,0,.12-.11.23-.16.35-.51,1.06-1.05,2.12-1.6,3.16s-1,1.8-1.49,2.69L554,402.92c.51-.88,1-1.78,1.49-2.69s1.09-2.09,1.6-3.16l.16-.34c.34-.7.68-1.41,1-2.13"/><path class="cls-5" d="M554,402.92l10.86,9.51a82.33,82.33,0,0,1-5.87,8.78l-10.85-9.5a83.91,83.91,0,0,0,5.86-8.79"/><path class="cls-5" d="M548.15,411.71l10.85,9.5a84.06,84.06,0,0,1-6,7.05l-10.86-9.5a84.18,84.18,0,0,0,6-7.05"/><path class="cls-5" d="M542.13,418.76l10.86,9.5a85.72,85.72,0,0,1-7,6.51l-10.86-9.51a83.87,83.87,0,0,0,7-6.5"/><path class="cls-5" d="M535.18,425.26,546,434.77a85.37,85.37,0,0,1-8.59,6.3l-.85.54-10.86-9.5.85-.54a85.46,85.46,0,0,0,8.59-6.31"/><path class="cls-5" d="M525.74,432.11l10.86,9.5-2,1.22-10.86-9.5,2-1.22"/></g></g></g></svg>