<svg id="Camada_1" data-name="Camada 1" xmlns="http://www.w3.org/2000/svg" xmlns:xlink="http://www.w3.org/1999/xlink" viewBox="0 0 728.96 841.89"><defs><style>.cls-1,.cls-120,.cls-122,.cls-55{fill:none;}.cls-2{fill:#96a2bd;}.cls-3{fill:#35a3bf;}.cls-4{fill:#3a48c8;}.cls-5{fill:#3845bf;}.cls-6{fill:#3b48ca;}.cls-7{fill:#37b4aa;}.cls-8{fill:#eaf4fe;}.cls-9{fill:#212957;}.cls-10{fill:#ec9568;}.cls-11{fill:#dd000b;}.cls-12{fill:#fd2227;}.cls-13{fill:#d0dee6;}.cls-14{fill:#b6c2c9;}.cls-15{fill:#d7dfe2;}.cls-16{fill:#387bff;}.cls-17{fill:#7eb3ff;}.cls-18{fill:#f7b68b;}.cls-19{fill:#c5e1f9;}.cls-20{fill:#fff;}.cls-21{fill:#b0bfde;}.cls-22{fill:#484f59;}.cls-23{fill:#ff876c;}.cls-24{isolation:isolate;}.cls-25{fill:#85a6be;}.cls-26{fill:#93b4cd;}.cls-27{fill:#b0d0eb;}.cls-28{clip-path:url(#clip-path);}.cls-29{fill:#88a8c0;}.cls-30{fill:#8cadc5;}.cls-31{fill:#91b1ca;}.cls-32{fill:#95b6cf;}.cls-33{fill:#9abbd4;}.cls-34{fill:#9ebfd9;}.cls-35{fill:#a3c3de;}.cls-36{fill:#a7c8e2;}.cls-37{fill:#adcde7;}.cls-38{fill:#b5d5f0;}.cls-39{fill:#b8d8f3;}.cls-40{fill:#89a9c2;}.cls-41{clip-path:url(#clip-path-2);}.cls-42{clip-path:url(#clip-path-3);}.cls-43{fill:#b5d6f0;}.cls-44{fill:#98b9d2;}.cls-45{clip-path:url(#clip-path-4);}.cls-46{clip-path:url(#clip-path-5);}.cls-47{fill:#b3d3ee;}.cls-48{fill:#9cbcd7;}.cls-49{fill:#b6d7f1;}.cls-50{fill:#8dadc6;}.cls-51{fill:#e4efff;}.cls-52{fill:#fec12f;}.cls-53{fill:#ffab01;}.cls-54{fill:#0450cf;}.cls-55{stroke:#f4da80;stroke-width:2.95px;}.cls-122,.cls-55{stroke-miterlimit:10;}.cls-56{fill:#0561fc;}.cls-57{fill:#7dc2f5;}.cls-58{fill:#d1ecfb;}.cls-59{fill:#8dcfff;}.cls-60{fill:#9ac7f7;}.cls-61{fill:#ffbf0d;}.cls-62{fill:#b2d2ea;}.cls-63{fill:#ced6d9;}.cls-64{fill:#94999b;}.cls-65{clip-path:url(#clip-path-6);}.cls-66{fill:#a9b0b2;}.cls-67{clip-path:url(#clip-path-7);}.cls-68{clip-path:url(#clip-path-8);}.cls-69{fill:#adb4b6;}.cls-70{clip-path:url(#clip-path-9);}.cls-71{fill:#979d9f;}.cls-72{clip-path:url(#clip-path-10);}.cls-73{fill:#393ca6;}.cls-74{fill:#9969f3;}.cls-75{clip-path:url(#clip-path-11);}.cls-76{fill:#c8a756;}.cls-77{fill:#f3cc68;}.cls-78{clip-path:url(#clip-path-12);}.cls-79{fill:#c5c7a0;}.cls-80{clip-path:url(#clip-path-13);}.cls-81{fill:#734fb8;}.cls-82{clip-path:url(#clip-path-14);}.cls-83{fill:#f4901e;}.cls-84{fill:#3fb94a;}.cls-85{clip-path:url(#clip-path-15);}.cls-86{fill:#bfd8f1;}.cls-87{clip-path:url(#clip-path-16);}.cls-88{fill:#c5a555;}.cls-89{fill:#c2a354;}.cls-90{fill:#bfa153;}.cls-91{fill:#2dbc42;}.cls-92{clip-path:url(#clip-path-17);}.cls-93{fill:#613dcd;}.cls-94{fill:#c9c4bb;}.cls-95{clip-path:url(#clip-path-19);}.cls-96{fill:#1f70be;}.cls-97{fill:#bb8f37;}.cls-98{clip-path:url(#clip-path-20);}.cls-99{fill:#3bcaab;}.cls-100{clip-path:url(#clip-path-21);}.cls-101{fill:#c9c9c9;}.cls-102{fill:#ccc;}.cls-103{clip-path:url(#clip-path-22);}.cls-104{fill:#3bb6d5;}.cls-105{fill:#535c68;}.cls-106{clip-path:url(#clip-path-23);}.cls-107{fill:#92a4b7;}.cls-108{fill:#b1c8df;}.cls-109{clip-path:url(#clip-path-24);}.cls-110{clip-path:url(#clip-path-26);}.cls-111{fill:#3947c5;}.cls-112{fill:#3845c2;}.cls-113{fill:#36bc9f;}.cls-114{clip-path:url(#clip-path-27);}.cls-115{fill:#57606b;}.cls-116{fill:#545d69;}.cls-117{clip-path:url(#clip-path-28);}.cls-118{clip-path:url(#clip-path-29);}.cls-119{fill:#f7f8fc;}.cls-120{stroke:#fff;stroke-width:1.69px;}.cls-121{fill:#f84e6b;}.cls-122{stroke:#9ac7f7;stroke-width:1.75px;}</style><clipPath id="clip-path"><path class="cls-1" d="M681.74,696.41l-11.41,13.37c2.18-2.54-.63-8.75-6.8-14.59a36.78,36.78,0,0,0-10.32-7c-3.27-1.41-6.13-1.77-7.77-.74a2.71,2.71,0,0,0-.68.57l11.41-13.37a2.94,2.94,0,0,1,.68-.58c1.65-1,4.49-.66,7.77.75a36.32,36.32,0,0,1,10.31,7C681.1,687.65,683.91,693.86,681.74,696.41Z"/></clipPath><clipPath id="clip-path-2"><path class="cls-1" d="M635.93,666.22l-11.41,13.37a9.86,9.86,0,0,1,1.07-6.66L637,659.56A9.86,9.86,0,0,0,635.93,666.22Z"/></clipPath><clipPath id="clip-path-3"><path class="cls-1" d="M694.4,715,683,728.39a24.26,24.26,0,0,1-9.11-1.11l11.41-13.37A24.23,24.23,0,0,0,694.4,715Z"/></clipPath><clipPath id="clip-path-4"><path class="cls-1" d="M647.7,687.72,636.29,701.1a70.17,70.17,0,0,1-7.6-10.52L640.1,677.2A68.49,68.49,0,0,0,647.7,687.72Z"/></clipPath><clipPath id="clip-path-5"><path class="cls-1" d="M671.92,707.94l-11.4,13.37a90.41,90.41,0,0,1-11.81-8.22l11.4-13.36A94.11,94.11,0,0,0,671.92,707.94Z"/></clipPath><clipPath id="clip-path-6"><path class="cls-1" d="M354.67,379.33l-1.1,1.07-6.78-11.72c.37-.35.73-.71,1.11-1.06C349.93,371.13,352.63,375.82,354.67,379.33Z"/></clipPath><clipPath id="clip-path-7"><path class="cls-1" d="M342.58,373.26,349.35,385c-.46.55-.91,1.09-1.35,1.65l-6.77-11.71Q341.89,374.07,342.58,373.26Z"/></clipPath><clipPath id="clip-path-8"><path class="cls-1" d="M338.75,378.23l6.77,11.71a.83.83,0,0,1-.08.12l-6.77-11.72A1,1,0,0,0,338.75,378.23Z"/></clipPath><clipPath id="clip-path-9"><path class="cls-1" d="M403.68,357.37l-.85.05-6.78-11.72.86-.05Z"/></clipPath><clipPath id="clip-path-10"><path class="cls-1" d="M409.77,357.37l-1.33-.06-6.77-11.71c.44,0,.89,0,1.33.06Z"/></clipPath><clipPath id="clip-path-11"><path class="cls-1" d="M338.25,404.62c-.08.25-.16.51-.23.76l-6.77-11.71c.07-.26.15-.51.23-.76Z"/></clipPath><clipPath id="clip-path-12"><path class="cls-1" d="M331,394.49l6.77,11.72c-.55-.93-1.09-1.86-1.63-2.79L331,394.63S331,394.54,331,394.49Z"/></clipPath><clipPath id="clip-path-13"><path class="cls-1" d="M419.11,349.55l6.78,11.71c-.68-.32-1.38-.63-2.1-.92L417,348.63C417.74,348.91,418.44,349.23,419.11,349.55Z"/></clipPath><clipPath id="clip-path-14"><path class="cls-1" d="M406.37,361.14l6.77,11.72a30,30,0,0,0-9.69-2.05l-6.76-11.72A30.53,30.53,0,0,1,406.37,361.14Z"/></clipPath><clipPath id="clip-path-15"><path class="cls-1" d="M416.45,369.52l6.77,11.71a19.82,19.82,0,0,0-10.07-8.37l-6.77-11.71A19.77,19.77,0,0,1,416.45,369.52Z"/></clipPath><clipPath id="clip-path-16"><path class="cls-1" d="M337.79,406.21c-2.21,8.53-1.37,16.6,2.4,23.14l-6.77-11.72c-3.75-6.5-4.6-14.52-2.44-23l2.52,4.28.88,1.51c.14.23.32.53.45.76.59,1,1.17,2,1.75,3l.41.7C337.24,405.26,337.72,405.74,337.79,406.21Z"/></clipPath><clipPath id="clip-path-17"><path class="cls-1" d="M442,387.49c0,.85-.08,1.7-.17,2.57q-3.39-5.87-6.77-11.72c.09-.86.14-1.72.17-2.56C437.27,379.29,441,383.55,442,387.49Z"/></clipPath><clipPath id="clip-path-19"><path class="cls-2" d="M431.81,360.69l6.77,11.71A27.55,27.55,0,0,1,442,387.49c0,.84-.09,1.7-.18,2.56l-6.77-11.71c.09-.87.15-1.72.18-2.56A27.53,27.53,0,0,0,431.81,360.69Z"/></clipPath><clipPath id="clip-path-20"><path class="cls-1" d="M422.41,405.26,429.18,417c-.63.74-1.27,1.45-1.92,2.16l-6.77-11.71Q421.47,406.35,422.41,405.26Z"/></clipPath><clipPath id="clip-path-21"><path class="cls-1" d="M429.19,417c-.66.77-1.33,1.52-2,2.26l-6.77-11.72q1-1.1,2-2.25c7.57-8.92,11.75-18.3,12.65-26.92q3.38,5.87,6.77,11.72C440.94,398.68,436.77,408.06,429.19,417Z"/></clipPath><clipPath id="clip-path-22"><path class="cls-3" d="M429.45,416.76c-.65.76-1.31,1.5-2,2.23l-6.78-11.69c.67-.73,1.33-1.48,2-2.24,7.47-8.83,11.56-18.14,12.41-26.72q3.39,5.85,6.79,11.7C441,398.62,436.92,407.93,429.45,416.76Z"/></clipPath><clipPath id="clip-path-23"><path class="cls-4" d="M422.93,423.19l.43-.46s1.86-2,2-2.09A19.82,19.82,0,0,0,427,419l.15.27c-.49.54-1,1.06-1.52,1.59l-.25.25c-.77.79-1.56,1.57-2.37,2.33a78.84,78.84,0,0,1-35.12,19.08c-1,.25-2,.49-3.06.7.35-.07,1.28-.27,2.25-.54,1.13-.3,5.9-1.68,5.93-1.69,1.51-.47,3.49-1.24,5-1.8a92.08,92.08,0,0,0,9.35-4.47,71.4,71.4,0,0,0,8.35-5.42A76,76,0,0,0,422.93,423.19Z"/></clipPath><clipPath id="clip-path-24"><path class="cls-1" d="M418.89,409.1l6.77,11.72-.25.25-6.76-11.71Z"/></clipPath><clipPath id="clip-path-26"><path class="cls-1" d="M423.21,423a75.68,75.68,0,0,1-7.27,6.12,73.29,73.29,0,0,1-8.41,5.46,95.72,95.72,0,0,1-9.42,4.52c-1.5.56-3.49,1.34-5,1.81,0,0-4.83,1.4-6,1.71-1,.27-1.91.47-2.26.55l-6.8-11.78c1-.22,2.06-.45,3.09-.7a79.72,79.72,0,0,0,35.38-19.26c.81-.76,1.6-1.54,2.39-2.34l.25-.26c.51-.52,1-1.05,1.52-1.6l6.66,11.51c-.76.83-1.37,1.42-1.68,1.7-.15.12-2,2.08-2,2.1Z"/></clipPath><clipPath id="clip-path-27"><path class="cls-1" d="M387.92,442.48c-1,.26-2,.49-3.06.7l-6.77-11.71c1-.22,2-.44,3.06-.7Z"/></clipPath><clipPath id="clip-path-28"><path class="cls-5" d="M385.22,443.11l-.36.07-6.77-11.71c1-.22,2-.44,3.06-.7l6.77,11.71C387.28,442.64,386.46,442.84,385.22,443.11Z"/></clipPath><clipPath id="clip-path-29"><path class="cls-6" d="M422.4,405.26l6.77,11.79c-.65.75-1.3,1.49-2,2.21l-6.76-11.79C421.11,406.74,421.76,406,422.4,405.26Z"/></clipPath></defs><rect class="cls-7" x="-2.42" y="-2.79" width="732.13" height="610.17"/><path class="cls-8" d="M497.73,745.4c46.73-22.73,62-75.06,17.27-114.57-17.56-15.51-8.45-141.77-105.74-141.36-85.41.36-154.89,73.06-189.18,105.56s-43.39,75.13-47.74,94.42c-2,8.71,1.68,35,17.5,55.95Z"/><path class="cls-9" d="M370.6,638.67s-20.93-22.37-.59-53.19c11.28-17.09,10.46-66.53-22.29-54.07s-22.58-5.76-41.06,1.15-27.45,19-26.28,33-2.68,40.4-14,44.54-66.12,28-35.57,66.89S386.14,700.22,370.6,638.67Z"/><path class="cls-10" d="M467.33,713.39l24.83-4.89,4.57-.9s2,11.87-3.24,16.84-25.38.88-28.2-1S467.33,713.39,467.33,713.39Z"/><polygon class="cls-10" points="506.78 715.13 499.37 727.67 490.1 726.58 496.73 707.6 506.78 715.13"/><path class="cls-10" d="M366,675.48c-1.16,10.46,27.82,40.08,30.81,41.27,14.53,5.81,73.24,9.3,76.73,8.14,3.79-1.27.09-10.89-4.07-11.63-9.88-1.74-33.29-8.93-56.39-16.27-12.78-4.07-21.63-30.07-34.87-33.14C369.62,661.87,366.86,667.8,366,675.48Z"/><path class="cls-11" d="M343.34,613.86a20.62,20.62,0,0,1,14,3.49c6.4,4.65,36,51.15,37.2,53.48s-24.41,22.09-24.41,22.09S328.81,655.13,343.34,613.86Z"/><path class="cls-12" d="M274.75,629.56s9.88-11.63,12.21-12.79,56.38-2.91,56.38-2.91,28.48,46.51,30.23,55.22-5.23,15.12-8.14,18-4.65,49.41-4.65,49.41H293.93S271.84,656.88,274.75,629.56Z"/><path class="cls-13" d="M361.76,727.53s-.05-.09-.07-.14l.07-4.31H540.27v4.31s0,.1,0,.14l-.45.81c-2.3,3.73-6.41,4.41-11.13,4.41H373.34c-4.71,0-8.82-.68-11.12-4.41Z"/><path class="cls-14" d="M404.78,728.26s0,.08,0,.12l-.44.65a7.21,7.21,0,0,1-2.61,2.19H374.58c-4.53,0-8.49-.54-10.7-3.56l-.42-.66a.48.48,0,0,1-.09-.11l.05-2.12h41.36Z"/><rect class="cls-14" x="428.88" y="724.08" width="89.2" height="3.05"/><path class="cls-15" d="M405.77,722.93l23.14-87.72a5.84,5.84,0,0,1,5.3-4.19H559.45a3.11,3.11,0,0,1,3.08,4.19l-23.14,87.72Z"/><path class="cls-14" d="M476.59,677c-1.18,4.47,1.5,8.1,6,8.1a11.27,11.27,0,0,0,10.25-8.1c1.18-4.49-1.48-8.12-6-8.12S477.78,672.49,476.59,677Z"/><rect class="cls-16" x="154.57" y="732.63" width="220.29" height="17.06"/><rect class="cls-17" x="364.67" y="732.63" width="250.13" height="17.06"/><path class="cls-18" d="M257.89,691.75l-13.95,22.09,97.85,7.95s3.29,8.33-2.52,10.07-119.74,0-119.74,0-17.44-5.23-8.14-20.34,28.48-45.92,28.48-45.92Z"/><path class="cls-10" d="M257.89,691.75,241,676.06s-8.45,8.45-16.95,18.51c8.56,3.8,17.81,7.46,27.3,7.49Z"/><path class="cls-11" d="M292.19,619.09c-4.14-3-10.67-.79-18.09,4.21-22.26,15-52.5,55.23-49.92,57.41,9.13,7.73,19.4,15.58,32,16.28,10.46.58,27-20.65,33.13-36C293.68,650,301.49,625.78,292.19,619.09Z"/><path class="cls-18" d="M340.86,721.64l24.21-7.38,4.46-1.35S372.74,724.52,368,730s-25.16,3.43-28.16,1.86S340.86,721.64,340.86,721.64Z"/><polygon class="cls-10" points="380.29 719.38 374.17 732.61 364.84 732.47 369.53 712.91 380.29 719.38"/><path class="cls-18" d="M307.48,583.21s5.33,26.67,1.77,36.15,24.3,2.37,24.3,2.37-1.18-21.93-1.78-26.67S307.48,583.21,307.48,583.21Z"/><path class="cls-10" d="M331.77,595.06c-.59-4.74-24.29-11.85-24.29-11.85s17.23,25,23.11,25.48a10.63,10.63,0,0,0,2.2,0C332.44,603,332.05,597.24,331.77,595.06Z"/><path class="cls-18" d="M346.59,556.54s1.78,24.3-1.18,31.41-4.15,12.44-11.27,11.85-18.37-11.26-24.89-15.41-11.26-8.89-8.89-14.81,5.34-1.19,5.34.59,18.37,4.74,32.59-4.15C341.85,563.8,347.18,560.09,346.59,556.54Z"/><path class="cls-19" d="M256.34,443.36a53.67,53.67,0,1,1-53.67-53.67A53.67,53.67,0,0,1,256.34,443.36Z"/><path class="cls-20" d="M250.38,443.36a47.71,47.71,0,1,1-47.71-47.71A47.71,47.71,0,0,1,250.38,443.36Z"/><rect class="cls-21" x="201.87" y="399.18" width="1.67" height="1.66"/><rect class="cls-21" x="201.87" y="399.31" width="1.67" height="10.1"/><polygon class="cls-21" points="186.43 413.45 184.98 414.28 179.94 405.54 181.38 404.71 186.43 413.45"/><polygon class="cls-21" points="173.64 425.61 172.81 427.05 164.06 422 164.91 420.55 173.64 425.61"/><rect class="cls-21" x="158.48" y="442.48" width="10.09" height="1.67" transform="translate(-0.7 0.26) rotate(-0.09)"/><polygon class="cls-21" points="172.78 459.65 173.62 461.09 164.87 466.13 164.04 464.7 172.78 459.65"/><polygon class="cls-21" points="184.94 472.42 186.37 473.25 181.33 482 179.9 481.17 184.94 472.42"/><rect class="cls-21" x="201.79" y="477.44" width="1.66" height="10.09"/><polygon class="cls-21" points="218.98 473.29 220.42 472.45 225.47 481.2 224.03 482.02 218.98 473.29"/><polygon class="cls-21" points="231.7 461.07 232.53 459.63 241.29 464.68 240.45 466.12 231.7 461.07"/><polygon class="cls-21" points="236.73 444.2 236.73 442.53 246.82 442.53 246.81 444.2 236.73 444.2"/><polygon class="cls-21" points="232.62 427.09 231.78 425.64 240.53 420.6 241.36 422.04 232.62 427.09"/><rect class="cls-21" x="217.17" y="408.69" width="10.09" height="1.67" transform="translate(-243.55 397.19) rotate(-60)"/><rect class="cls-21" x="197.34" y="399.41" width="1.67" height="1.66" transform="translate(-40.35 22.65) rotate(-5.94)"/><polygon class="cls-21" points="194.68 401.59 193.06 401.94 192.71 400.31 194.33 399.96 194.68 401.59"/><rect class="cls-21" x="188.48" y="401.29" width="1.66" height="1.67" transform="translate(-115.48 78.64) rotate(-18.09)"/><polygon class="cls-21" points="186.17 404.17 184.65 404.85 183.98 403.32 185.5 402.65 186.17 404.17"/><polygon class="cls-21" points="182.17 406.11 180.73 406.94 179.9 405.49 181.34 404.66 182.17 406.11"/><polygon class="cls-21" points="178.39 408.46 177.05 409.43 176.06 408.09 177.42 407.1 178.39 408.46"/><rect class="cls-21" x="172.87" y="410.29" width="1.67" height="1.66" transform="translate(-230.34 221.53) rotate(-41.96)"/><rect class="cls-21" x="169.66" y="413.5" width="1.66" height="1.67" transform="translate(-251.54 263.92) rotate(-48.02)"/><rect class="cls-21" x="166.8" y="417.02" width="1.66" height="1.66" transform="translate(-268.41 305.72) rotate(-53.72)"/><polygon class="cls-21" points="166.3 421.35 165.47 422.8 164.03 421.96 164.86 420.52 166.3 421.35"/><rect class="cls-21" x="162.27" y="424.87" width="1.67" height="1.66" transform="translate(-292.09 400.85) rotate(-65.91)"/><rect class="cls-21" x="160.65" y="429.1" width="1.66" height="1.66" transform="translate(-297.32 450.35) rotate(-71.96)"/><polygon class="cls-21" points="161.29 433.67 160.94 435.3 159.31 434.95 159.66 433.32 161.29 433.67"/><polygon class="cls-21" points="160.51 438.05 160.33 439.71 158.67 439.53 158.85 437.88 160.51 438.05"/><rect class="cls-21" x="158.51" y="442.49" width="1.66" height="1.66"/><polygon class="cls-21" points="160.33 446.94 160.5 448.59 158.85 448.76 158.66 447.11 160.33 446.94"/><polygon class="cls-21" points="160.94 451.34 161.28 452.98 159.65 453.32 159.3 451.69 160.94 451.34"/><polygon class="cls-21" points="162 455.66 162.51 457.25 160.93 457.76 160.42 456.18 162 455.66"/><polygon class="cls-21" points="163.51 459.85 164.19 461.37 162.67 462.04 161.99 460.53 163.51 459.85"/><polygon class="cls-21" points="165.44 463.85 166.28 465.3 164.84 466.12 164.01 464.69 165.44 463.85"/><rect class="cls-21" x="166.78" y="467.97" width="1.67" height="1.66" transform="translate(-242.62 186.72) rotate(-35.81)"/><polygon class="cls-21" points="170.53 471.14 171.63 472.38 170.4 473.5 169.28 472.26 170.53 471.14"/><rect class="cls-21" x="172.84" y="474.7" width="1.67" height="1.66" transform="translate(-295.22 284.66) rotate(-47.79)"/><rect class="cls-21" x="176.36" y="477.56" width="1.66" height="1.67" transform="matrix(0.59, -0.81, 0.81, 0.59, -314.17, 341.24)"/><polygon class="cls-21" points="180.7 479.72 182.14 480.55 181.3 481.99 179.86 481.17 180.7 479.72"/><polygon class="cls-21" points="184.62 481.81 186.14 482.5 185.46 484.01 183.93 483.35 184.62 481.81"/><polygon class="cls-21" points="188.74 483.5 190.33 484.01 189.8 485.6 188.23 485.08 188.74 483.5"/><polygon class="cls-21" points="193 484.73 194.64 485.08 194.28 486.71 192.67 486.37 193 484.73"/><polygon class="cls-21" points="197.39 485.51 199.05 485.69 198.87 487.35 197.22 487.18 197.39 485.51"/><polygon class="cls-21" points="201.83 485.83 203.5 485.84 203.5 487.51 201.83 487.51 201.83 485.83"/><rect class="cls-21" x="206.37" y="485.61" width="1.66" height="1.67" transform="matrix(0.99, -0.1, 0.1, 0.99, -48.47, 23.63)"/><polygon class="cls-21" points="210.68 485.08 212.31 484.74 212.66 486.37 211.03 486.72 210.68 485.08"/><polygon class="cls-21" points="215.01 484.03 216.59 483.51 217.09 485.1 215.52 485.61 215.01 484.03"/><polygon class="cls-21" points="219.2 482.51 220.71 481.84 221.38 483.36 219.87 484.04 219.2 482.51"/><polygon class="cls-21" points="223.19 480.57 224.64 479.75 225.47 481.18 224.03 482.02 223.19 480.57"/><polygon class="cls-21" points="226.97 478.22 228.32 477.25 229.29 478.6 227.96 479.57 226.97 478.22"/><polygon class="cls-21" points="230.48 475.49 231.73 474.38 232.83 475.62 231.6 476.74 230.48 475.49"/><polygon class="cls-21" points="233.69 472.41 234.81 471.18 236.04 472.29 234.94 473.53 233.69 472.41"/><rect class="cls-21" x="236.89" y="467.99" width="1.66" height="1.67" transform="translate(-281.19 384.9) rotate(-53.92)"/><polygon class="cls-21" points="239.05 465.33 239.89 463.89 241.34 464.72 240.51 466.16 239.05 465.33"/><polygon class="cls-21" points="241.15 461.41 241.84 459.89 243.35 460.57 242.69 462.08 241.15 461.41"/><polygon class="cls-21" points="242.83 457.28 243.35 455.7 244.93 456.22 244.44 457.8 242.83 457.28"/><polygon class="cls-21" points="244.07 453.01 244.42 451.38 246.05 451.74 245.71 453.35 244.07 453.01"/><polygon class="cls-21" points="244.86 448.63 245.04 446.98 246.69 447.15 246.52 448.8 244.86 448.63"/><polygon class="cls-21" points="245.18 444.2 245.18 442.53 246.85 442.53 246.86 444.2 245.18 444.2"/><polygon class="cls-21" points="245.04 439.74 244.86 438.09 246.52 437.93 246.7 439.57 245.04 439.74"/><polygon class="cls-21" points="244.43 435.34 244.09 433.7 245.71 433.37 246.07 434.99 244.43 435.34"/><polygon class="cls-21" points="243.37 431.02 242.85 429.44 244.44 428.92 244.96 430.5 243.37 431.02"/><polygon class="cls-21" points="241.85 426.83 241.17 425.31 242.7 424.64 243.38 426.15 241.85 426.83"/><polygon class="cls-21" points="239.91 422.83 239.08 421.39 240.53 420.56 241.36 421.99 239.91 422.83"/><polygon class="cls-21" points="237.56 419.06 236.58 417.71 237.94 416.73 238.93 418.07 237.56 419.06"/><polygon class="cls-21" points="234.84 415.54 233.72 414.31 234.97 413.19 236.09 414.42 234.84 415.54"/><polygon class="cls-21" points="231.75 412.33 230.51 411.22 231.63 409.98 232.87 411.09 231.75 412.33"/><polygon class="cls-21" points="228.35 409.47 227 408.49 228 407.14 229.34 408.1 228.35 409.47"/><rect class="cls-21" x="223.53" y="404.99" width="1.67" height="1.66" transform="matrix(0.5, -0.87, 0.87, 0.5, -239.26, 396.74)"/><polygon class="cls-21" points="220.74 404.87 219.23 404.19 219.91 402.67 221.43 403.34 220.74 404.87"/><polygon class="cls-21" points="216.62 403.19 215.04 402.68 215.56 401.09 217.14 401.6 216.62 403.19"/><polygon class="cls-21" points="212.35 401.95 210.73 401.61 211.08 399.97 212.7 400.31 212.35 401.95"/><polygon class="cls-21" points="207.97 401.17 206.32 401 206.5 399.33 208.15 399.5 207.97 401.17"/><polygon class="cls-22" points="198.29 439.93 197.46 441.37 182.32 432.64 183.16 431.19 198.29 439.93"/><polygon class="cls-22" points="201.29 442.76 197.82 440.76 198.04 440.38 201.51 442.39 201.29 442.76"/><polygon class="cls-22" points="210.88 438.27 209.91 436.91 234.29 419.53 235.25 420.89 210.88 438.27"/><polygon class="cls-22" points="203.91 442.36 203.66 442.01 210.73 436.97 210.97 437.32 203.91 442.36"/><path class="cls-22" d="M202.63,444.5a1.56,1.56,0,1,1,1.55-1.55A1.55,1.55,0,0,1,202.63,444.5Zm0-2.68a1.13,1.13,0,1,0,1.12,1.13A1.14,1.14,0,0,0,202.63,441.82Z"/><path class="cls-23" d="M202.63,444a1.06,1.06,0,1,1,0-2.12,1.06,1.06,0,0,1,0,2.12Zm0-1.69a.63.63,0,0,0-.63.63.63.63,0,0,0,1.25,0A.63.63,0,0,0,202.63,442.32Z"/><rect class="cls-23" x="202.51" y="443.87" width="0.31" height="36.17"/><rect class="cls-23" x="202.51" y="437.14" width="0.31" height="4.98"/><g class="cls-24"><polygon class="cls-25" points="694.32 679.45 682.91 692.82 678.8 696.68 690.2 683.3 694.32 679.45"/><polygon class="cls-26" points="652.61 657.12 641.19 670.49 638.58 662.26 649.99 648.89 652.61 657.12"/><polygon class="cls-27" points="712.26 708.63 700.85 722 690.58 718.19 701.98 704.82 712.26 708.63"/><g class="cls-24"><g class="cls-28"><g class="cls-24"><path class="cls-29" d="M681.74,696.41l-11.41,13.37c.78-.91.91-2.3.48-4l11.41-13.37c.44,1.67.3,3.06-.48,4"/><path class="cls-30" d="M682.22,692.44l-11.41,13.37a9.5,9.5,0,0,0-.55-1.6l11.42-13.38a10.88,10.88,0,0,1,.54,1.61"/><path class="cls-31" d="M681.68,690.83l-11.42,13.38c-.19-.47-.42-.94-.68-1.44L681,689.41c.26.49.49,1,.69,1.42"/><path class="cls-32" d="M681,689.41l-11.41,13.36c-.23-.44-.5-.89-.8-1.36l11.41-13.36c.3.46.56.92.8,1.36"/><path class="cls-33" d="M680.19,688.05l-11.41,13.36c-.28-.44-.6-.9-.93-1.35l11.41-13.38c.34.46.65.92.93,1.37"/><path class="cls-34" d="M679.26,686.68l-11.41,13.38c-.34-.48-.71-.95-1.1-1.43l11.4-13.38c.4.49.77,1,1.11,1.43"/><path class="cls-35" d="M678.15,685.25l-11.4,13.38c-.43-.53-.9-1-1.38-1.58l11.42-13.36c.48.53.93,1,1.36,1.56"/><path class="cls-36" d="M676.79,683.69l-11.42,13.36c-.58-.62-1.19-1.24-1.84-1.86l-.13-.12,11.41-13.38.12.13c.66.62,1.28,1.24,1.86,1.87"/><path class="cls-37" d="M674.81,681.69,663.4,695.07a39.91,39.91,0,0,0-7.71-5.7L667.1,676a39.35,39.35,0,0,1,7.71,5.68"/><path class="cls-36" d="M667.1,676l-11.41,13.36c-.75-.41-1.5-.78-2.22-1.1l11.41-13.36a24,24,0,0,1,2.22,1.1"/><path class="cls-35" d="M664.88,674.91l-11.41,13.36-.26-.11c-.48-.21-1-.39-1.41-.55l11.42-13.38,1.4.56.26.12"/><path class="cls-34" d="M663.22,674.23,651.8,687.61c-.48-.17-.95-.31-1.41-.43l11.41-13.37c.45.12.92.26,1.42.42"/><path class="cls-33" d="M661.8,673.81l-11.41,13.37c-.44-.11-.86-.2-1.26-.26l11.41-13.37c.4.07.82.15,1.26.26"/><path class="cls-32" d="M660.54,673.55l-11.41,13.37a9.81,9.81,0,0,0-1.17-.09l11.41-13.37a8.09,8.09,0,0,1,1.17.09"/><path class="cls-31" d="M659.37,673.46,648,686.83a5.84,5.84,0,0,0-1.13.08l11.41-13.37a6.83,6.83,0,0,1,1.13-.08"/><path class="cls-30" d="M658.24,673.54l-11.41,13.37a4,4,0,0,0-1.13.36l11.41-13.37a3.84,3.84,0,0,1,1.13-.36"/><path class="cls-29" d="M657.11,673.9,645.7,687.27a1.35,1.35,0,0,0-.26.15,2.71,2.71,0,0,0-.68.57l11.41-13.37a2.94,2.94,0,0,1,.68-.58l.26-.14"/></g></g></g><polygon class="cls-38" points="637 659.56 625.59 672.93 616.27 663.48 627.68 650.11 637 659.56"/><polygon class="cls-39" points="704.82 724.25 693.41 737.61 683 728.38 694.4 715.02 704.82 724.25"/><polygon class="cls-40" points="710.23 720.92 698.82 734.29 693.41 737.61 704.82 724.25 710.23 720.92"/><g class="cls-24"><g class="cls-41"><g class="cls-24"><path class="cls-29" d="M635.93,666.22l-11.41,13.37a9.86,9.86,0,0,1,1.07-6.66L637,659.56a9.86,9.86,0,0,0-1.07,6.66"/></g></g></g><g class="cls-24"><g class="cls-42"><g class="cls-24"><path class="cls-31" d="M694.4,715,683,728.39a17.72,17.72,0,0,1-2,.08l11.41-13.36q1,0,1.95-.09"/><path class="cls-32" d="M692.45,715.11,681,728.47a22.13,22.13,0,0,1-2.83-.23l11.42-13.37a23.86,23.86,0,0,0,2.82.24"/><path class="cls-33" d="M689.63,714.87l-11.42,13.37c-1-.15-2-.35-3.09-.62l11.41-13.37c1.07.27,2.11.47,3.1.62"/><path class="cls-34" d="M686.53,714.25l-11.41,13.37c-.4-.11-.81-.21-1.23-.34l11.41-13.37c.42.12.83.24,1.23.34"/></g></g></g><polygon class="cls-43" points="640.1 677.2 628.7 690.58 618.15 685.45 629.56 672.08 640.1 677.2"/><polygon class="cls-44" points="629.56 672.08 618.15 685.45 614.25 675.78 625.66 662.4 629.56 672.08"/><g class="cls-24"><g class="cls-45"><g class="cls-24"><path class="cls-35" d="M647.7,687.72,636.29,701.1c-.46-.54-.91-1.07-1.34-1.6l11.41-13.38c.43.54.88,1.07,1.34,1.6"/><path class="cls-34" d="M646.36,686.12,635,699.5c-1-1.18-1.88-2.35-2.71-3.51l11.4-13.36c.84,1.15,1.75,2.32,2.72,3.49"/><path class="cls-33" d="M643.64,682.63,632.24,696c-.83-1.12-1.58-2.22-2.28-3.33l11.41-13.36c.7,1.09,1.46,2.21,2.27,3.33"/><path class="cls-32" d="M641.37,679.3,630,692.66c-.44-.7-.87-1.4-1.27-2.08L640.1,677.2c.41.69.83,1.39,1.27,2.1"/></g></g></g><g class="cls-24"><g class="cls-46"><g class="cls-24"><path class="cls-37" d="M671.92,707.94l-11.4,13.37a90.41,90.41,0,0,1-11.81-8.22l11.4-13.36a94.11,94.11,0,0,0,11.81,8.21"/></g></g></g><polygon class="cls-47" points="687.91 722.14 676.51 735.51 664.96 730.55 676.38 717.18 687.91 722.14"/><polygon class="cls-48" points="676.38 717.18 664.96 730.55 660.52 721.31 671.92 707.94 676.38 717.18"/><polygon class="cls-49" points="654.51 701.92 643.1 715.29 632.18 704.94 643.59 691.58 654.51 701.92"/><polygon class="cls-50" points="660.11 699.73 648.71 713.09 643.1 715.29 654.51 701.92 660.11 699.73"/><path class="cls-51" d="M712.26,708.63,702,704.82a9.89,9.89,0,0,1-1.07,6.65l9.32,9.45-5.41,3.32L694.4,715a24.23,24.23,0,0,1-9.1-1.11l2.61,8.23-11.54-5-4.45-9.24a94.11,94.11,0,0,1-11.81-8.21l-5.6,2.19-10.92-10.34,4.11-3.86a68.49,68.49,0,0,1-7.6-10.52l-10.54-5.12-3.9-9.68,10.27,3.82a9.86,9.86,0,0,1,1.07-6.66l-9.31-9.45,5.38-3.33L643.51,656a24.39,24.39,0,0,1,9.09,1.11L650,648.89l11.54,5,4.46,9.24a95,95,0,0,1,11.81,8.22l5.6-2.19,10.92,10.33-4.12,3.85a68.59,68.59,0,0,1,7.6,10.52L708.34,699ZM681.07,697c3.3-2,.56-8.83-6.14-15.17a36.32,36.32,0,0,0-10.31-7c-3.28-1.41-6.12-1.77-7.77-.75-3.31,2.05-.57,8.84,6.12,15.17a36.64,36.64,0,0,0,10.32,7c3.26,1.41,6.12,1.77,7.78.75"/></g><path class="cls-52" d="M80.36,661.86c-.35-20.87-13.19-37.59-36-37.22S9.32,642.15,9.67,663c.27,16.28,11.78,21.75,21.69,35.09,2,2.64.21,13.16.21,13.16L60,710.81s-2.09-10.46-.21-13.16C69.3,684,80.62,678.14,80.36,661.86Z"/><path class="cls-53" d="M43.35,704.12c-13.7-18.45-29.6-26-30-48.5a66,66,0,0,1,1.22-14A42.69,42.69,0,0,0,9.67,663c.27,16.28,11.78,21.75,21.69,35.09,2,2.64.21,13.16.21,13.16l13.06-.21C44.63,708.13,44.32,705.42,43.35,704.12Z"/><path class="cls-54" d="M31.08,711.28l.07,3.93a11.77,11.77,0,0,0,12,11.58L49,726.7a11.78,11.78,0,0,0,11.59-12l-.06-3.92Z"/><polyline class="cls-55" points="29.39 661.47 33.8 655.5 38.41 661.32 42.82 655.36 47.44 661.17 51.86 655.21 56.47 661.02 60.9 655.06 65.53 660.88"/><polyline class="cls-55" points="34.68 666.54 41.53 685.9 41.94 710.61"/><polyline class="cls-55" points="56.77 666.17 50.57 685.75 50.97 710.46"/><rect class="cls-56" x="39.16" y="713.03" width="18.41" height="3.06" transform="translate(-11.66 0.89) rotate(-0.94)"/><rect class="cls-56" x="39.25" y="718.59" width="13.25" height="3.06" transform="translate(-11.75 0.85) rotate(-0.94)"/><polygon class="cls-17" points="132.67 576.75 77.48 557.31 96.92 502.11 132.67 576.75"/><path class="cls-17" d="M39.06,533.13a43.38,43.38,0,1,1,43.37,43.38A43.38,43.38,0,0,1,39.06,533.13Z"/><path class="cls-20" d="M91,551.89a27.25,27.25,0,0,1-27.21-27.22v-6.8a3.41,3.41,0,0,1,3.4-3.41H74a1.58,1.58,0,0,1,1.22.41c.46.47.49,1.27.48,2.54v7.7c0,1.28,0,2.09-.49,2.56a1.45,1.45,0,0,1-1.14.4l-1.88,0,.23,1.87a15.28,15.28,0,0,0,13.28,13.27l1.87.24,0-1.88a1.49,1.49,0,0,1,.4-1.15c.41-.41,1.08-.49,2.11-.49h8.58a2.93,2.93,0,0,1,2.11.49,1.57,1.57,0,0,1,.4,1.22v6.81a3.4,3.4,0,0,1-3.4,3.4Z"/><path class="cls-8" d="M505.74,395.17a44.34,44.34,0,1,0,44.34,44.34A44.39,44.39,0,0,0,505.74,395.17Z"/><path class="cls-19" d="M507.69,395.22a44.33,44.33,0,0,1-19.12,84.33c-.66,0-1.31,0-2-.05a44.33,44.33,0,1,0,21.08-84.28Z"/><path class="cls-57" d="M548.16,451.56c-.58,0-1.34.29-1.35.49s-.82.56-1.09.67a3.49,3.49,0,0,0-.89,1.2c-.11.27-.77.19-1,.3s-.74.51-.74.75-.14.22-.3-.06l-.32.34-.38.42a3.58,3.58,0,0,1-1.19,1.62c-.24.06-.29,1.26-.29,1.74a2.23,2.23,0,0,0,.42,1.32l0,.39.08.76a1.4,1.4,0,0,0,.44,1.22,6.3,6.3,0,0,0,1.65-.3,3.12,3.12,0,0,0,.6-.24,44.56,44.56,0,0,0,4.57-10.59A.72.72,0,0,0,548.16,451.56Z"/><path class="cls-57" d="M474.94,452.69c-.06.13.73.94,1.05,1.22a7.93,7.93,0,0,1,1.08,2,3.26,3.26,0,0,1,0,1.32c0,.17.15.54.18.69a10.11,10.11,0,0,0-.16,2c.11.52-.62,2.16-.6,3s.39,1.88.54,1.8.19.73-.06.83-.53.75-.39.78,0,.67,0,.93.25,1.94.3,2.36a11.09,11.09,0,0,0,.77,1.79c.13.36.26,1,.31,1.11a1.51,1.51,0,0,0,.11.21,4.28,4.28,0,0,1,.64.29,3.71,3.71,0,0,0,1.4,0c.31-.06,0-.34-.12-.49s-.26-.91-.42-1-.23-1-.09-1.24.71-.54.77-.72.08-1-.07-1.13,0-1.12-.07-1.62.87-.95.93-1.35,1.12-.82,1.36-1a2.53,2.53,0,0,0,.34-1.58c-.12-.24.39-.44.62-.44a3,3,0,0,0,.57-.16c.09,0,.36-.51.5-.62s.45-1.32.71-1.52a2,2,0,0,0,.49-1.14,3.61,3.61,0,0,1,.53-1,6.32,6.32,0,0,1,1.32-.73A8.19,8.19,0,0,0,488,455a14.61,14.61,0,0,1,.39-1.53c0-.19.34-.35.39-.41s.3-.79.46-1a5.23,5.23,0,0,0,.72-1,5.88,5.88,0,0,1,.17-.88v-1c-.17-.49-.71-1.09-.84-.95s-.76-.43-1.07-.55a5.8,5.8,0,0,0-1.3-.21c-.2,0-.88-.57-1.19-.66s-1.09-.25-1.23-.34-.34-1.26-1-1.64a6.92,6.92,0,0,1-1.86-1.59c-.12-.33-1.33-1-1.71-1.22a1.46,1.46,0,0,0-1-.18c-.07.07-.54-.63-.78-.84s-1-.36-1-.18-.51.09-.63-.06-.48.06-.66.11-.78,1-1.05,1.2-.61-.2-.79-.28A2,2,0,0,0,473,442c-.19.13-.63-1-.53-1.49S472,439,471.6,439s-.57-1.09-.48-1.49-.78-.64-1-.66-.76.53-.85.79-2.06-.36-1.83-1.54a5.46,5.46,0,0,1,1.4-2.54,3.52,3.52,0,0,1,1.77-.05.46.46,0,0,0,.58-.07,3.3,3.3,0,0,1,1.38.14c.3.12.75,1.31,1.06,1.45s.44-.77.49-1a2.29,2.29,0,0,0-.23-.95,3.27,3.27,0,0,1,1-1.84,2.26,2.26,0,0,0,.95-1.19c0-.14.38-.25.5-.31s0-1.22.17-1.48a5.3,5.3,0,0,1,1.38-.9,1.13,1.13,0,0,0,.4-1c-.11-.13.74-.85,1.17-1s.81.26.71.31c.08,0,.69-.35.95-.52s0-.74-.2-.91-.07-.79.16-.84.43-.61.38-.73,1,.1,1.35-.19.11.69-.18,1.09a.44.44,0,0,0,.4.69c.18-.07.37.22.41.32s.44-.11.69,0,.41-.35.43-.56-.62-.67-.71-.92a17.2,17.2,0,0,1-.16-2.07c0-.31-.43-.81-.56-.72s-.4-.8-.62-1a1.14,1.14,0,0,1-.25-.76c0-.15-.73-.92-.91-1.27s-.42-.28-.43-.13-.53.19-.75.17-.38-.83-.38-1.14-1-.35-1.11-.6-.77-.14-.87-.3a1,1,0,0,0-.75-.27c-.12.06-.07,2.27-.16,2.86s-.61,1.12-.8,1.1-.08.43,0,.39-.36.65-.42,1.1-.52,0-.6-.43-.52-1-.6-.82-.4-.17-.53-.08-1-.49-1.33-.68-.53-1.23-.73-1.33,0-.22,0-.38.66-.76.86-1a13.34,13.34,0,0,1,1.23-1.41,1.31,1.31,0,0,0,.47-.85,7.39,7.39,0,0,1,1.59-.63c.35-.12.66-1.09.7-1.38a1.17,1.17,0,0,0-.38-.88c-.16-.07.49-.09.71,0s.88-.2,1.15-.06.79.45,1.18.7l-.09.72-.16,1.21c-1,.43-1.31,1.16-.95,1.14a8.64,8.64,0,0,1,2.45,1c.46.33.6-.48.74-.75a2,2,0,0,0,0-1.2c-.11-.15.53-.1.71.08s.39-.18.54-.25.2-.73.28-.86-.31-.28-.31-.44-.75-.49-1-.6-.3-.62-.17-.71-.09-.73-.21-.94-.88-.39-1.13-.39-.52-.6-.67-.68a4,4,0,0,0-1.37-.12c-.24.07-.69-.69-1.1-.46s-.83-.27-1-.38-1.15.94-1.14,1.66a2,2,0,0,0,.52,1.44c.15,0,0,.68-.2.87s-.57-.2-.42-.37-.41-.92-.61-1.23a2.4,2.4,0,0,0-1-.55c-.2.21-.39.43-.58.65a1.64,1.64,0,0,1,.08.87c-.15.44-.51.5-.54.32s-.19-.16-.41-.18a44.12,44.12,0,0,0-10,23.17,3.16,3.16,0,0,1,.52.74c.12.39.8.65.92.73s.17-.75.08-1,.17-.34.16-.19a6.18,6.18,0,0,0,.85,1.15c.21.26.43,1.95.63,2.31a7.92,7.92,0,0,0,2.79,1.25,3.4,3.4,0,0,1,1.54,1c.12.2,1,.31,1.13.39s.61.65.79.76a1,1,0,0,1,.32.55c0,.09,1.1.5,1.37.8a.6.6,0,0,0,.79.09c.08-.12.3.59.42.83a1.55,1.55,0,0,1,.05.94,12.09,12.09,0,0,1-.43,1.43,5.74,5.74,0,0,0-.5,2.15,2.56,2.56,0,0,0,.83,1.08c.23.09.13.44-.05.46s-.09,1.56.33,1.79S475,452.58,474.94,452.69Z"/><path class="cls-57" d="M480.16,425.69h0Z"/><path class="cls-57" d="M477.13,407c.54-.09,1.42-.24,1.48-.39a.92.92,0,0,0-.05-.61h.26c.2,0,.53-1.11.75-1.36a10.81,10.81,0,0,1,1.71-.82,10.63,10.63,0,0,1,1.17-.85c.24-.08.6-.65.54-.76s.82-.64,1.15-.78.51-.53.38-.56-1.93,1-3.62,1.93a44.38,44.38,0,0,0-5.46,4.38C476,407.14,476.79,407,477.13,407Z"/><path class="cls-57" d="M509.2,462.18a16.72,16.72,0,0,0,1.85-2.06,4.75,4.75,0,0,0,.62-1.62,1.55,1.55,0,0,1,.72-.67c.18-.05.75-2.44,1.26-3a8.83,8.83,0,0,0,1-4,12.18,12.18,0,0,1,.44-3.06,4,4,0,0,1,1-1.3,26.94,26.94,0,0,0,1.81-2.61,5.66,5.66,0,0,0,.68-2.4c-.07-.34-.92-.56-1.07-.4a3,3,0,0,1-1.21.3c-.27,0-.85-1.37-1.21-1.65s-.69-1.85-.9-2.14a14,14,0,0,0-1-1.22c-.18-.18-.21-1-.26-1.24s.36.15.43.48a16.3,16.3,0,0,0,1.29,2.12c.29.45,1.06,1.88,1.25,2.33s1.9.22,2.46,0a3.73,3.73,0,0,0,1.27-.86c0-.15.9-.56,1.15-.75s.46-1.23.62-1.39-.13-1.14-.31-1.43a1.56,1.56,0,0,0-1.25-.42c-.18.12-.56-.64-.7-.93s-.8-.63-.88-.83.18-.5.29-.56a5.59,5.59,0,0,1,1.72,1.24,10.46,10.46,0,0,1,.83,1.37,1.75,1.75,0,0,0,1.27.05.35.35,0,0,1,.56.09l.31-.05,1.08-.17a2.2,2.2,0,0,1,.65,1.15,1.06,1.06,0,0,0,.51.6c.21.05.37.75.43.93a18.14,18.14,0,0,1,.81,1.68,11,11,0,0,0,.77,1.54,3.61,3.61,0,0,1,.23,1.1.81.81,0,0,0,.64.53c.25,0,.74-1.57.86-2.15a1.71,1.71,0,0,1,.62-1.05c.12,0,.21-.32.21-.44s.62-.11.68-.27.24-1.18.46-1.33a9.94,9.94,0,0,1,1.3-.78c.27-.09,1,.52,1.14.81a2.44,2.44,0,0,1,.24,1.13c-.06.12.38.74.76.74s.5.48.5.65.52.68.62.91a1.9,1.9,0,0,1,0,1,3.49,3.49,0,0,0,0,1.19,11.3,11.3,0,0,0,1.67,1.76c.44.35.65-.73.42-1.07s-1-1.12-1.16-1.36a2.82,2.82,0,0,1-.14-1.44c.06-.27.66.15.91.34a1.73,1.73,0,0,1,.58.75c0,.15,1.57-.73,1.62-1.68a10,10,0,0,1,.63-2.26c0-.26-.15-.6-.29-.6s.23-.73.67-.72,1.49-1.16,1.74-1.62a3.74,3.74,0,0,1,.81-.91,7.93,7.93,0,0,0,.47-1.61,5.19,5.19,0,0,0-.29-1.4,5.12,5.12,0,0,0-.52-1,2.05,2.05,0,0,1-.13-.92c.06-.12.45-.25.5-.35s.49-.58.46-.8.28.27.49.45.42,1.31.68,1.43,1.29-1.2,1.16-2a2.69,2.69,0,0,1,.55-2.05,5.15,5.15,0,0,0,1-1.25,44.36,44.36,0,0,0-10.91-17.22h-.17l-.38-.08c-.64-.14-1-.82-.9-1a.49.49,0,0,0,0-.3l-1.09-.94h-.8a3.35,3.35,0,0,1-1.36-.43c-.15-.15-.64.13-.67.41s-.9.4-1,.61a.47.47,0,0,1-.62.1c-.09-.11-.9.29-1.3.35a6.76,6.76,0,0,0-1.33.46,2.11,2.11,0,0,0-.67.66c-.06.18-.57.47-.74.53s-.13.81.08.92-.39-.09-.66-.23-.57.32-.66.48-.33-.1-.32-.32-.66-.4-.75-.22-.56-.06-.75-.16-1,.76-1.33,1.07a3.61,3.61,0,0,1-2.07.44c-.28-.12-.55.66-.31.71s-.6,0-1.06,0a7.29,7.29,0,0,0-2.12.81.35.35,0,0,1-.58-.24c0-.18-.5-.34-.66-.4s-.44,1-.7,1.2-.59-.81-1.22-1-1.59-.78-1.87-.85a3.61,3.61,0,0,1-1-.82,2.81,2.81,0,0,0-1.21-.31,3.9,3.9,0,0,0-1.3.66c-.23.19-.56.15-.67.22s-1.05,1-1.41,1.27a12.06,12.06,0,0,0-1.2,1.81.88.88,0,0,1-.62.36c-.12,0-.23.33-.23.45s-1.07.68-1.18,1.17a11.66,11.66,0,0,0,.11,2c0,.39.39,1.17.69,1.19s.14.67.07.85.18.39.17.55-.75.37-1,.47a1.71,1.71,0,0,0-.65.79c0,.17-.76.29-1,.52a5.19,5.19,0,0,1,.19-.52.87.87,0,0,0-.16-.81c-.11-.09-.16-1.38-.34-1.66a5.42,5.42,0,0,0-.75-.83c-.11-.09.08-.43.14-.58s-.6-.22-.78-.11-.28,1.37-.36,1.73a1.21,1.21,0,0,0,.44.91c.12,0,.08.65-.15.67s-.45.95-.33,1.15-.16.62-.31.72.91,0,1.38,0,.83.2.79.24-.91.17-1.06.37-.73.59-.84.75.19.5.43.48.53.86.72,1,.12.61,0,.74-1.24-.09-1.68,0-1,1-1,1.38a8.69,8.69,0,0,0,.13,1.65c.05.27,1,.44,1.15.58s1.07,0,1.26.09.77-.89.89-1.35,1.05-1.28,1.25-1.59,1.2-.27,1.45-.44.11.77.23,1.28,1.08.44.94,0,.1-.69.13-.51,1,.55,1.15.82.13.84-.07.82-.22.63,0,.7.51-.71.74-.83.43-.6.31-.63.2-.48.34-.34a5.54,5.54,0,0,0-.9-1.34c-.39-.4-.12-.22.63.39l.5.71a6.9,6.9,0,0,1,.32.67l.12.21a4.86,4.86,0,0,1,.19,1.12.81.81,0,0,0,.64.53c.24,0,.43.12.38.13s.16.48.4.49.35-.61.1-.63-.2-.91-.23-1.3.17-.72.26-.72,0,.81,0,1a3.1,3.1,0,0,0,.22.81l.25.19.56.43c.81-.24,1.88-.06,1.84.1s.6.21.63-.05.07,0,.07.19-.52.89-.61,1.22-1.94.11-2.74.05a3.31,3.31,0,0,0-2.07.45c-.08.24-1.33-.55-1.9-.79s-1-1.11-1.14-1.22.11-.4,0-.57a3.14,3.14,0,0,0-1.74-.07c-.38.14-2.33.35-2.79.55a2.47,2.47,0,0,1-1.38-.05c-.22,0-.73.6-1,.72s-.6,1-.74,2l-.36.69-.23.44a10.16,10.16,0,0,0-1.56,2.46,15.47,15.47,0,0,0-.39,3.47,11.22,11.22,0,0,0,.89,2.94,7.35,7.35,0,0,0,1.79,1.73,6.15,6.15,0,0,0,2.13.27,1.31,1.31,0,0,0,1.08-.89l.62.06.29,0c0,.35.94.63,1.16.75a1.91,1.91,0,0,0,1,0c.18-.06.39,1.57.25,2a9,9,0,0,0,.46,2.62c.13.5.7,1.86.75,2.35a22.65,22.65,0,0,1-.39,2.67,10.43,10.43,0,0,0,.91,2.71,9.18,9.18,0,0,1,.36,2c0,.28.85,1.92,1,2.6S508.63,462.51,509.2,462.18Z"/><path class="cls-57" d="M545.76,442.05c.06.12.58-.31.9-.35s.52-.91.27-1-.56-.72-.74-.8-.54.28-.52.54-.58.37-.69.58-.11.38,0,.36S545.7,441.93,545.76,442.05Z"/><path class="cls-57" d="M545.11,446.7c.15-.05,0-.9-.36-1s-1.25,1.11-1.07,1.79.36.64.46.5.64.09.8.15.17-.12,0-.37S544.94,446.76,545.11,446.7Z"/><path class="cls-57" d="M543.29,445.88c0-.31.1-1.26.15-1.44s-.52-.73-.8-.83-1.17,1.85-1.81,2.19a1.82,1.82,0,0,0-.71,1.8c.18.27,1.51.41,1.74.62s.5,0,.64-.07.1-.12,0-.16.47-.58.55-.94S543.25,446.18,543.29,445.88Z"/><path class="cls-57" d="M539.65,449.11c-.51-.2-1.1.1-1.14.3s1.93.51,2.59.68,1.07.24.92.13S540.15,449.29,539.65,449.11Z"/><path class="cls-57" d="M543.67,436.2c.16-.22-.22-1.25-.41-1s-.06.84,0,1.05S543.51,436.43,543.67,436.2Z"/><path class="cls-57" d="M544.87,438.43c.11-.26-.15-.57-.58-.65s-.36,1.2-.17,1.36S544.75,438.7,544.87,438.43Z"/><path class="cls-57" d="M547.1,446.43c.51.35,1.66.19,1.69-.51C548.29,445.6,547.05,445.65,547.1,446.43Z"/><path class="cls-57" d="M546.82,430.6a.75.75,0,0,0-.26.69h-.09c-.17,0-.19.68,0,.8s.6-.53.83-.69a1.27,1.27,0,0,1,.75-.19,2,2,0,0,0,.89-.27.81.81,0,0,0,.25-.3c-.1-.49-.22-1-.34-1.46-.21.15-.45.32-.57.42S547.1,430.41,546.82,430.6Z"/><path class="cls-57" d="M535.1,444.22h0C535,444.16,535,444.15,535.1,444.22Z"/><path class="cls-57" d="M538.3,447.19a5.45,5.45,0,0,0-1.37-1.58l-.21-.35-.23-.39c-.22-.42-.85-.75-.91-.88s-.25.37-.47.23l.68.48c.6.43,1.75,3.32,2,3.52S538.48,447.61,538.3,447.19Z"/><path class="cls-57" d="M529.14,442.53c-.16.32.85,1,.93.86a1.86,1.86,0,0,0-.31-1.14C529.58,442.08,529.3,442.2,529.14,442.53Z"/><path class="cls-57" d="M515.74,458c0,.35.74.62.94.56a3.78,3.78,0,0,0,.85-1.39,6.62,6.62,0,0,0,.14-1.09,1,1,0,0,1,.17-.54,2,2,0,0,0,.29-.79,24.22,24.22,0,0,0-.44-2.53c0-.32-.37.16-.46.49s-1,1-1.21,1.26a2.7,2.7,0,0,0-.34,1.36,2.19,2.19,0,0,1-.17,1A10.05,10.05,0,0,0,515.74,458Z"/><path class="cls-57" d="M483.05,470.56h.62C483.77,469.9,483,470,483.05,470.56Z"/><path class="cls-57" d="M499.31,402a2.14,2.14,0,0,1-1-.22,2.49,2.49,0,0,0-1.39-.11c-.28.12-.09-.7.31-.79s.06-.65-.36-.65-1.47-.16-1.72-.11-.72-.16-.9-.19a19.1,19.1,0,0,1-2,.35,13.87,13.87,0,0,0-2.37.12c-.33.08-.55.7-.5.92s-1.42.22-1.87.22a15.44,15.44,0,0,0-3.55.88c-.64.35-1.13,1.24-.92,1.27s-.36.52-.7.64-1.16.17-1.36.36.21.33.29.46.3-.12.52,0a9.73,9.73,0,0,0,1.11.25c.2.08-.6.23-1,.25s-.28.76,0,.86,1.09.21,1.17.09.93.14,1.32.18.67,1,.78,1.21a3,3,0,0,1,.12,1.15c0,.21.68.6.81.46s.08.34-.2.31-.1.79.25.91.11.61-.09.77-.09.62-.3.79.73,1.79.72,2.63.52,1.51.72,1.51.88.16,1,.34.42-.12.55-.26a7.06,7.06,0,0,0,.62-.89,20.34,20.34,0,0,0,.74-2.2c.07-.18.85-.06,1-.15s.69-.5.83-.62,1.26-.59,1.57-.81.81-1.17,1.05-1.37-.13-.14-.42-.34a.31.31,0,0,1-.08-.52c.09-.1,1,.15,1.3.27s.9-.31.67-.48-.1-.16,0-.08.23-.55.11-.67.91-.87.73-1.58.29-1.44.56-1.44.19-.81-.14-.88,0-.15.11-.26a1.71,1.71,0,0,0,.21-1c-.08-.13.5-.29.6-.45a2.77,2.77,0,0,1,1-.53C499.43,402.54,499.56,401.92,499.31,402Z"/><path class="cls-57" d="M505.08,402.53c-.32-.11-1,.24-.87.44s-.53-.26-.95,0-.54,1-.34,1.06.33.68.34.8.81,0,1-.14.17.59,0,.8.08.62.3.66.53.56.77.56.63-.9.72-1.24.86-.07,1.22,0,.48-1.24.1-1.44-.86-.1-1-.25a1.2,1.2,0,0,0-.62-.32C505.56,403.43,505.39,402.63,505.08,402.53Z"/><path class="cls-57" d="M508.18,403.17a2.22,2.22,0,0,0,1.48-.57c.15-.14-1.74-.53-2.45-.55s-1.3.07-1.29.21A6.65,6.65,0,0,0,508.18,403.17Z"/><path class="cls-57" d="M496.76,420.09c-.16-.07-.25.55-.21.78s.61.22.85.17a.46.46,0,0,0,.43-.44c0-.2-.36-1.12-.5-1.12S496.93,420.16,496.76,420.09Z"/><path class="cls-57" d="M498.62,412.9c-.13-.23-1.12-.21-1.35-.22a2.89,2.89,0,0,1-1.12-.41c-.13-.16-.23.6-.46.7s.11.24.2.16,0,.39-.11.55.65.28.74.53a.62.62,0,0,0,.69.35c.3,0,.89-.35,1.1-.37S498.74,413.13,498.62,412.9Z"/><path class="cls-57" d="M519.22,407.28c.34-.34,1.73-.8,1.88-1.15a.43.43,0,0,0-.23-.63.57.57,0,0,0-.35.23s-1.62.43-2.11.66a5.72,5.72,0,0,0-1.27.81,18.71,18.71,0,0,0-.65,2c-.12.18.52.83.82,1a1,1,0,0,0,.78,0c.12,0-.14-1.13-.29-1.52S518.89,407.61,519.22,407.28Z"/><path class="cls-57" d="M517.52,403.16c.53.52.81-.23,1.39-.15C518.9,402,517.47,402.31,517.52,403.16Z"/><path class="cls-57" d="M527.7,403.36c0,.19,1.46.35,1.88.28s-.08-.75-.71-.71S527.72,403.16,527.7,403.36Z"/><path class="cls-57" d="M474.66,414.23c-.16.14,0,.86.27.88s.76-1.08,1.12-.87.6.31.54.19a10.55,10.55,0,0,0-1.21-.64C475.26,413.71,474.81,414.09,474.66,414.23Z"/><path class="cls-57" d="M478.4,438.56c0,.11.64.1.74-.1s.06-.35-.12-.35S478.4,438.43,478.4,438.56Z"/><path class="cls-57" d="M475.56,437.5c.31-.05.16.44.23.62s.81.32,1,.44.52-.23.82-.19-.1-1-.6-1-.88-.44-1-.5a7.14,7.14,0,0,1-.85-.53,7,7,0,0,0-1.84-.24,1.39,1.39,0,0,0-1,.57c-.07.15.68.24.89.13a2.11,2.11,0,0,1,1.4.37A1.13,1.13,0,0,0,475.56,437.5Z"/><path class="cls-57" d="M474.22,438.56c0,.11.65,0,.8.05s.15-.11,0-.24S474.22,438.43,474.22,438.56Z"/><path class="cls-57" d="M474.67,435.23c-.16-.06-.3.2-.3.33a.22.22,0,0,0,.21.22C474.69,435.78,474.85,435.3,474.67,435.23Z"/><path class="cls-57" d="M476,435.34a.62.62,0,0,0-.42-.23c-.08,0-.14.22-.12.47S476.09,435.46,476,435.34Z"/><path class="cls-57" d="M477,436.84c.26-.13.29-.44.14-.42s-.44-.45-.61-.52-.3.28-.3.43.09.26.21.23S476.74,437,477,436.84Z"/><path class="cls-57" d="M549,447c-.13.08-.78.15-.88,0s-.21.26-.35.32-.06.41.15.3.76.27,1.26.59q.15-.75.27-1.5C549.31,446.79,549.12,446.92,549,447Z"/><path class="cls-58" d="M478.61,406.08c-.05,0-.23.09-.15.18S478.68,406.18,478.61,406.08Z"/><path class="cls-58" d="M483.52,420.72c0-.05-.22.09-.16.17S483.6,420.81,483.52,420.72Z"/><path class="cls-59" d="M489.28,452.06a5.23,5.23,0,0,0,.72-1,5.88,5.88,0,0,1,.17-.88v-1c-.17-.49-.71-1.09-.84-.95s-.76-.43-1.07-.55a5.8,5.8,0,0,0-1.3-.21c-.2,0-.88-.57-1.19-.66s-1.09-.25-1.23-.34-.34-1.26-1-1.64a6.92,6.92,0,0,1-1.86-1.59c-.12-.33-1.33-1-1.71-1.22a1.46,1.46,0,0,0-1-.18c-.07.07-.54-.63-.78-.84s-1-.36-1-.18-.51.09-.63-.06-.48.06-.66.11-.78,1-1.05,1.2-.61-.2-.79-.28A2,2,0,0,0,473,442c-.19.13-.63-1-.53-1.49S472,439,471.6,439s-.57-1.09-.48-1.49-.78-.64-1-.66-.76.53-.85.79-2.06-.36-1.83-1.54a5.46,5.46,0,0,1,1.4-2.54,3.52,3.52,0,0,1,1.77-.05.46.46,0,0,0,.58-.07,3.3,3.3,0,0,1,1.38.14c.3.12.75,1.31,1.06,1.45s.44-.77.49-1a2.29,2.29,0,0,0-.23-.95,3.27,3.27,0,0,1,1-1.84,2.26,2.26,0,0,0,.95-1.19c0-.14.38-.25.5-.31s0-1.22.17-1.48a5.3,5.3,0,0,1,1.38-.9,1.13,1.13,0,0,0,.4-1c-.11-.13.74-.85,1.17-1s.81.26.71.31c.08,0,.69-.35.95-.52s0-.74-.2-.91-.07-.79.16-.84.43-.61.38-.73,1,.1,1.35-.19.11.69-.18,1.09a.44.44,0,0,0,.4.69c.18-.07.37.22.41.32s.44-.11.69,0,.41-.35.43-.56-.62-.67-.71-.92a17.2,17.2,0,0,1-.16-2.07c0-.31-.43-.81-.56-.72s-.4-.8-.62-1a1.14,1.14,0,0,1-.25-.76c0-.15-.73-.92-.91-1.27s-.42-.28-.43-.13-.53.19-.75.17-.38-.83-.38-1.14-1-.35-1.11-.6-.77-.14-.87-.3a1,1,0,0,0-.75-.27c-.12.06-.07,2.27-.16,2.86s-.61,1.12-.8,1.1-.08.43,0,.39-.36.65-.42,1.1-.52,0-.6-.43-.52-1-.6-.82-.4-.17-.53-.08-1-.49-1.33-.68-.53-1.23-.73-1.33,0-.22,0-.38.66-.76.86-1a13.34,13.34,0,0,1,1.23-1.41,1.31,1.31,0,0,0,.47-.85,7.39,7.39,0,0,1,1.59-.63c.35-.12.66-1.09.7-1.38a1.17,1.17,0,0,0-.38-.88c-.16-.07.49-.09.71,0s.88-.2,1.15-.06.79.45,1.18.7l-.09.72-.16,1.21c-1,.43-1.31,1.16-.95,1.14a8.64,8.64,0,0,1,2.45,1c.46.33.6-.48.74-.75a2,2,0,0,0,0-1.2c-.11-.15.53-.1.71.08s.39-.18.54-.25.2-.73.28-.86-.31-.28-.31-.44-.75-.49-1-.6-.3-.62-.17-.71-.09-.73-.21-.94-.88-.39-1.13-.39-.52-.6-.67-.68a4,4,0,0,0-1.37-.12c-.24.07-.69-.69-1.1-.46s-.83-.27-1-.38-1.15.94-1.14,1.66a2,2,0,0,0,.52,1.44c.15,0,0,.68-.2.87s-.57-.2-.42-.37-.41-.92-.61-1.23a2.4,2.4,0,0,0-1-.55c-.2.21-.39.43-.58.65a1.64,1.64,0,0,1,.08.87c-.15.44-.51.5-.54.32s-.19-.16-.41-.18a44.12,44.12,0,0,0-10,23.17,3.16,3.16,0,0,1,.52.74c.12.39.8.65.92.73s.17-.75.08-1,.17-.34.16-.19a6.18,6.18,0,0,0,.85,1.15c.21.26.43,1.95.63,2.31a7.92,7.92,0,0,0,2.79,1.25,3.4,3.4,0,0,1,1.54,1c.12.2,1,.31,1.13.39s.61.65.79.76a1,1,0,0,1,.32.55c0,.09,1.1.5,1.37.8a.6.6,0,0,0,.79.09c.08-.12.3.59.42.83a1.55,1.55,0,0,1,.05.94,12.09,12.09,0,0,1-.43,1.43,5.74,5.74,0,0,0-.5,2.15,2.56,2.56,0,0,0,.83,1.08c.23.09.13.44-.05.46s-.09,1.56.33,1.79.76.91.69,1,.73.94,1.05,1.22a7.93,7.93,0,0,1,1.08,2,3.26,3.26,0,0,1,0,1.32c0,.17.15.54.18.69a10.11,10.11,0,0,0-.16,2c.11.52-.62,2.16-.6,3s.39,1.88.54,1.8.19.73-.06.83-.53.75-.39.78,0,.67,0,.93.25,1.94.3,2.36a11.09,11.09,0,0,0,.77,1.79c.13.36.26,1,.31,1.11a1.51,1.51,0,0,0,.11.21,4.28,4.28,0,0,1,.64.29,3.71,3.71,0,0,0,1.4,0c.31-.06,0-.34-.12-.49s-.26-.91-.42-1-.23-1-.09-1.24.71-.54.77-.72.08-1-.07-1.13,0-1.12-.07-1.62.87-.95.93-1.35,1.12-.82,1.36-1a2.53,2.53,0,0,0,.34-1.58c-.12-.24.39-.44.62-.44a3,3,0,0,0,.57-.16c.09,0,.36-.51.5-.62s.45-1.32.71-1.52a2,2,0,0,0,.49-1.14,3.61,3.61,0,0,1,.53-1,6.32,6.32,0,0,1,1.32-.73A8.19,8.19,0,0,0,488,455a14.61,14.61,0,0,1,.39-1.53c0-.19.34-.35.39-.41S489.12,452.23,489.28,452.06Z"/><line class="cls-59" x1="480.17" y1="425.68" x2="480.16" y2="425.69"/><path class="cls-59" d="M479.57,404.64a10.81,10.81,0,0,1,1.71-.82,10.63,10.63,0,0,1,1.17-.85c.24-.08.6-.65.54-.76s.82-.64,1.15-.78.51-.53.38-.56-1.93,1-3.62,1.93a44.38,44.38,0,0,0-5.46,4.38c.53,0,1.35-.14,1.69-.19.54-.09,1.42-.24,1.48-.39a.92.92,0,0,0-.05-.61h.26C479,406,479.35,404.89,479.57,404.64Z"/><path class="cls-59" d="M524.52,409.31a.43.43,0,0,1,0,.07c-.08.15-.33-.1-.32-.32s-.66-.4-.75-.22-.56-.06-.75-.16-1,.76-1.33,1.07a3.61,3.61,0,0,1-2.07.44c-.28-.12-.55.66-.31.71s-.6,0-1.06,0a7.29,7.29,0,0,0-2.12.81.35.35,0,0,1-.58-.24c0-.18-.5-.34-.66-.4s-.44,1-.7,1.2-.59-.81-1.22-1-1.59-.78-1.87-.85a3.61,3.61,0,0,1-1-.82,2.81,2.81,0,0,0-1.21-.31,3.9,3.9,0,0,0-1.3.66c-.23.19-.56.15-.67.22s-1.05,1-1.41,1.27a12.06,12.06,0,0,0-1.2,1.81.88.88,0,0,1-.62.36c-.12,0-.23.33-.23.45s-1.07.68-1.18,1.17a11.66,11.66,0,0,0,.11,2c0,.39.39,1.17.69,1.19s.14.67.07.85.18.39.17.55-.75.37-1,.47a1.71,1.71,0,0,0-.65.79c0,.17-.76.29-1,.52a5.19,5.19,0,0,1,.19-.52.87.87,0,0,0-.16-.81c-.11-.09-.16-1.38-.34-1.66a5.42,5.42,0,0,0-.75-.83c-.11-.09.08-.43.14-.58s-.6-.22-.78-.11-.28,1.37-.36,1.73a1.21,1.21,0,0,0,.44.91c.12,0,.08.65-.15.67s-.45.95-.33,1.15-.16.62-.31.72.91,0,1.38,0,.83.2.79.24-.91.17-1.06.37-.73.59-.84.75.19.5.43.48.53.86.72,1,.12.61,0,.74-1.24-.09-1.68,0-1,1-1,1.38a8.69,8.69,0,0,0,.13,1.65c.05.27,1,.44,1.15.58s1.07,0,1.26.09.77-.89.89-1.35,1.05-1.28,1.25-1.59,1.2-.27,1.45-.44.11.77.23,1.28,1.08.44.94,0,.1-.69.13-.51,1,.55,1.15.82.13.84-.07.82-.22.63,0,.7.51-.71.74-.83.43-.6.31-.63.2-.48.34-.34a5.54,5.54,0,0,0-.9-1.34c-.39-.4-.12-.22.63.39l.5.71a6.9,6.9,0,0,1,.32.67l.12.21a4.86,4.86,0,0,1,.19,1.12.81.81,0,0,0,.64.53c.24,0,.43.12.38.13s.16.48.4.49.35-.61.1-.63-.2-.91-.23-1.3.17-.72.26-.72,0,.81,0,1a3.1,3.1,0,0,0,.22.81l.25.19.56.43c.81-.24,1.88-.06,1.84.1s.6.21.63-.05.07,0,.07.19-.52.89-.61,1.22-1.94.11-2.74.05a3.31,3.31,0,0,0-2.07.45c-.08.24-1.33-.55-1.9-.79s-1-1.11-1.14-1.22.11-.4,0-.57a3.14,3.14,0,0,0-1.74-.07c-.38.14-2.33.35-2.79.55a2.47,2.47,0,0,1-1.38-.05c-.22,0-.73.6-1,.72s-.6,1-.74,2l-.36.69-.23.44a10.16,10.16,0,0,0-1.56,2.46,15.47,15.47,0,0,0-.39,3.47,11.22,11.22,0,0,0,.89,2.94,7.35,7.35,0,0,0,1.79,1.73,6.15,6.15,0,0,0,2.13.27,1.31,1.31,0,0,0,1.08-.89l.62.06.29,0c0,.35.94.63,1.16.75a1.91,1.91,0,0,0,1,0c.18-.06.39,1.57.25,2a9,9,0,0,0,.46,2.62c.13.5.7,1.86.75,2.35a22.65,22.65,0,0,1-.39,2.67,10.43,10.43,0,0,0,.91,2.71,9.18,9.18,0,0,1,.36,2c0,.28.85,1.92,1,2.6s2.31.84,2.88.51a16.72,16.72,0,0,0,1.85-2.06,4.75,4.75,0,0,0,.62-1.62,1.55,1.55,0,0,1,.72-.67c.18-.05.75-2.44,1.26-3a8.83,8.83,0,0,0,1-4,12.18,12.18,0,0,1,.44-3.06,4,4,0,0,1,1-1.3,26.94,26.94,0,0,0,1.81-2.61,5.66,5.66,0,0,0,.68-2.4c-.07-.34-.92-.56-1.07-.4a3,3,0,0,1-1.21.3c-.27,0-.85-1.37-1.21-1.65s-.69-1.85-.9-2.14a14,14,0,0,0-1-1.22c-.18-.18-.21-1-.26-1.24s.36.15.43.48a16.3,16.3,0,0,0,1.29,2.12c.29.45,1.06,1.88,1.25,2.33s1.9.22,2.46,0a3.73,3.73,0,0,0,1.27-.86c0-.15.9-.56,1.15-.75s.46-1.23.62-1.39-.13-1.14-.31-1.43a1.56,1.56,0,0,0-1.25-.42c-.18.12-.56-.64-.7-.93s-.8-.63-.88-.83.18-.5.29-.56a5.59,5.59,0,0,1,1.72,1.24,10.46,10.46,0,0,1,.83,1.37,1.75,1.75,0,0,0,1.27.05.35.35,0,0,1,.56.09l.31-.05,1.08-.17a2.2,2.2,0,0,1,.65,1.15,1.06,1.06,0,0,0,.51.6c.21.05.37.75.43.93a18.14,18.14,0,0,1,.81,1.68,11,11,0,0,0,.77,1.54,3.61,3.61,0,0,1,.23,1.1.81.81,0,0,0,.64.53c.25,0,.74-1.57.86-2.15a1.71,1.71,0,0,1,.62-1.05c.12,0,.21-.32.21-.44s.62-.11.68-.27.24-1.18.46-1.33a9.94,9.94,0,0,1,1.3-.78.51.51,0,0,1,.36.1c0-.61,0-1.22,0-1.84A44.08,44.08,0,0,0,524.52,409.31Z"/><path class="cls-59" d="M530.07,443.39a1.86,1.86,0,0,0-.31-1.14c-.18-.17-.46-.05-.62.28S530,443.54,530.07,443.39Z"/><path class="cls-59" d="M515.74,458c0,.35.74.62.94.56a3.78,3.78,0,0,0,.85-1.39,6.62,6.62,0,0,0,.14-1.09,1,1,0,0,1,.17-.54,2,2,0,0,0,.29-.79,24.22,24.22,0,0,0-.44-2.53c0-.32-.37.16-.46.49s-1,1-1.21,1.26a2.7,2.7,0,0,0-.34,1.36,2.19,2.19,0,0,1-.17,1A10.05,10.05,0,0,0,515.74,458Z"/><path class="cls-59" d="M483.05,470.56h.62C483.77,469.9,483,470,483.05,470.56Z"/><path class="cls-59" d="M487.45,401.49a15.44,15.44,0,0,0-3.55.88c-.64.35-1.13,1.24-.92,1.27s-.36.52-.7.64-1.16.17-1.36.36.21.33.29.46.3-.12.52,0a9.73,9.73,0,0,0,1.11.25c.2.08-.6.23-1,.25s-.28.76,0,.86,1.09.21,1.17.09.93.14,1.32.18.67,1,.78,1.21a3,3,0,0,1,.12,1.15c0,.21.68.6.81.46s.08.34-.2.31-.1.79.25.91.11.61-.09.77-.09.62-.3.79.73,1.79.72,2.63.52,1.51.72,1.51.88.16,1,.34.42-.12.55-.26a7.06,7.06,0,0,0,.62-.89,20.34,20.34,0,0,0,.74-2.2c.07-.18.85-.06,1-.15s.69-.5.83-.62,1.26-.59,1.57-.81.81-1.17,1.05-1.37-.13-.14-.42-.34a.31.31,0,0,1-.08-.52c.09-.1,1,.15,1.3.27s.9-.31.67-.48-.1-.16,0-.08.23-.55.11-.67.91-.87.73-1.58.29-1.44.56-1.44.19-.81-.14-.88,0-.15.11-.26a1.71,1.71,0,0,0,.21-1c-.08-.13.5-.29.6-.45a2.77,2.77,0,0,1,1-.53c.23-.06.36-.68.11-.65a2.14,2.14,0,0,1-1-.22,2.49,2.49,0,0,0-1.39-.11c-.28.12-.09-.7.31-.79s.06-.65-.36-.65-1.47-.16-1.72-.11-.72-.16-.9-.19a19.1,19.1,0,0,1-2,.35,13.87,13.87,0,0,0-2.37.12c-.33.08-.55.7-.5.92S487.9,401.49,487.45,401.49Z"/><path class="cls-59" d="M504.56,406.11c.23,0,.53.56.77.56s.63-.9.72-1.24.86-.07,1.22,0,.48-1.24.1-1.44-.86-.1-1-.25a1.2,1.2,0,0,0-.62-.32c-.17,0-.34-.83-.65-.93s-1,.24-.87.44-.53-.26-.95,0-.54,1-.34,1.06.33.68.34.8.81,0,1-.14.17.59,0,.8S504.34,406.07,504.56,406.11Z"/><path class="cls-59" d="M509.66,402.6c.15-.14-1.74-.53-2.45-.55s-1.3.07-1.29.21a6.65,6.65,0,0,0,2.26.91A2.22,2.22,0,0,0,509.66,402.6Z"/><path class="cls-59" d="M496.76,420.09c-.16-.07-.25.55-.21.78s.61.22.85.17a.46.46,0,0,0,.43-.44c0-.2-.36-1.12-.5-1.12S496.93,420.16,496.76,420.09Z"/><path class="cls-59" d="M498.62,412.9c-.13-.23-1.12-.21-1.35-.22a2.89,2.89,0,0,1-1.12-.41c-.13-.16-.23.6-.46.7s.11.24.2.16,0,.39-.11.55.65.28.74.53a.62.62,0,0,0,.69.35c.3,0,.89-.35,1.1-.37S498.74,413.13,498.62,412.9Z"/><path class="cls-59" d="M517.14,407.2a18.71,18.71,0,0,0-.65,2c-.12.18.52.83.82,1a1,1,0,0,0,.78,0c.12,0-.14-1.13-.29-1.52s1.09-1.08,1.42-1.41,1.73-.8,1.88-1.15a.43.43,0,0,0-.23-.63.57.57,0,0,0-.35.23s-1.62.43-2.11.66A5.72,5.72,0,0,0,517.14,407.2Z"/><path class="cls-59" d="M517.52,403.16c.53.52.81-.23,1.39-.15a.43.43,0,0,0,0-.11l-.57-.53A.79.79,0,0,0,517.52,403.16Z"/><path class="cls-59" d="M474.66,414.23c-.16.14,0,.86.27.88s.76-1.08,1.12-.87.6.31.54.19a10.55,10.55,0,0,0-1.21-.64C475.26,413.71,474.81,414.09,474.66,414.23Z"/><path class="cls-59" d="M478.4,438.56c0,.11.64.1.74-.1s.06-.35-.12-.35S478.4,438.43,478.4,438.56Z"/><path class="cls-59" d="M475.56,437.5c.31-.05.16.44.23.62s.81.32,1,.44.52-.23.82-.19-.1-1-.6-1-.88-.44-1-.5a7.14,7.14,0,0,1-.85-.53,7,7,0,0,0-1.84-.24,1.39,1.39,0,0,0-1,.57c-.07.15.68.24.89.13a2.11,2.11,0,0,1,1.4.37A1.13,1.13,0,0,0,475.56,437.5Z"/><path class="cls-59" d="M474.22,438.56c0,.11.65,0,.8.05s.15-.11,0-.24S474.22,438.43,474.22,438.56Z"/><path class="cls-59" d="M474.67,435.23c-.16-.06-.3.2-.3.33a.22.22,0,0,0,.21.22C474.69,435.78,474.85,435.3,474.67,435.23Z"/><path class="cls-59" d="M476,435.34a.62.62,0,0,0-.42-.23c-.08,0-.14.22-.12.47S476.09,435.46,476,435.34Z"/><path class="cls-59" d="M477,436.84c.26-.13.29-.44.14-.42s-.44-.45-.61-.52-.3.28-.3.43.09.26.21.23S476.74,437,477,436.84Z"/><path class="cls-60" d="M637.75,493.7l-48.12,33.48v3.71a6.56,6.56,0,0,0,6.56,6.56h83.12a6.56,6.56,0,0,0,6.56-6.56v-3.71Z"/><path class="cls-61" d="M596.19,598.2a6.56,6.56,0,0,1-6.56-6.55V534.77a6.56,6.56,0,0,1,6.56-6.56h83.12a6.56,6.56,0,0,1,6.56,6.56v56.87a6.55,6.55,0,0,1-6.55,6.56Z"/><path class="cls-61" d="M596.19,598.2a6.56,6.56,0,0,1-6.56-6.55V534.77a6.56,6.56,0,0,1,6.56-6.56h83.12a6.56,6.56,0,0,1,6.56,6.56v56.87a6.55,6.55,0,0,1-6.55,6.56Z"/><path class="cls-60" d="M679.31,528.21H596.19a6.56,6.56,0,0,0-6.56,6.56v3.44l76.36,60h13.33a6.55,6.55,0,0,0,6.55-6.56V534.77A6.56,6.56,0,0,0,679.31,528.21Z"/><path class="cls-8" d="M672.81,570.81a6.56,6.56,0,0,1-6.56,6.55H609.37a6.56,6.56,0,0,1-6.56-6.56V487.68a6.56,6.56,0,0,1,6.56-6.56h39.38l24.06,24.06Z"/><polygon class="cls-19" points="650.94 502.99 672.81 524.58 672.81 505.18 670.62 502.99 650.94 502.99"/><path class="cls-56" d="M648.75,481.12v17.5a6.56,6.56,0,0,0,6.56,6.56h17.5Z"/><rect class="cls-60" x="615.94" y="533.62" width="43.75" height="4.37"/><rect class="cls-60" x="615.94" y="542.37" width="43.75" height="4.38"/><rect class="cls-60" x="615.94" y="551.12" width="43.75" height="4.38"/><rect class="cls-60" x="615.94" y="524.87" width="32.81" height="4.37"/><path class="cls-19" d="M589.63,538.21v53.44a6.56,6.56,0,0,0,6.56,6.55H666Z"/><path class="cls-62" d="M685.87,538.21v53.44a6.55,6.55,0,0,1-6.56,6.55H609.52Z"/><g class="cls-24"><path class="cls-63" d="M354.67,379.33l-1.1,1.07Z"/><path class="cls-64" d="M402.83,357.42l.85-.05Z"/><g class="cls-24"><g class="cls-65"><g class="cls-24"><path class="cls-66" d="M347.9,367.62l6.77,11.71-1.1,1.07-6.78-11.72c.37-.35.73-.71,1.11-1.06"/></g></g></g><g class="cls-24"><g class="cls-67"><g class="cls-24"><path class="cls-66" d="M342.58,373.26,349.35,385c-.46.55-.91,1.09-1.35,1.65l-6.77-11.71q.66-.84,1.35-1.65"/></g></g></g><path class="cls-64" d="M342.58,373.26c-.47.55-.91,1.1-1.35,1.65Q341.89,374.07,342.58,373.26Z"/><g class="cls-24"><g class="cls-68"><g class="cls-24"><path class="cls-69" d="M338.75,378.23l6.77,11.71a.83.83,0,0,1-.08.12l-6.77-11.72a1,1,0,0,0,.08-.11"/></g></g></g><g class="cls-24"><g class="cls-70"><g class="cls-24"><path class="cls-71" d="M396.91,345.65l6.77,11.72-.85.05-6.78-11.72.86-.05"/></g></g></g><g class="cls-24"><g class="cls-72"><g class="cls-24"><path class="cls-73" d="M403,345.66l6.77,11.71-1.33-.06-6.77-11.71c.44,0,.89,0,1.33.06"/></g></g></g><path class="cls-74" d="M423.79,360.34c.72.29,1.42.6,2.1.92C425.2,360.94,424.51,360.63,423.79,360.34Z"/><g class="cls-24"><g class="cls-75"><g class="cls-24"><path class="cls-76" d="M331.48,392.91l6.77,11.71c-.08.25-.16.51-.23.76l-6.77-11.71c.07-.26.15-.51.23-.76"/></g></g></g><path class="cls-77" d="M331.48,392.91c-.08.25-.16.5-.23.76C331.32,393.41,331.39,393.16,331.48,392.91Z"/><g class="cls-24"><g class="cls-78"><g class="cls-24"><path class="cls-76" d="M331,394.49l6.77,11.72a36.38,36.38,0,0,0-1.21,8.89l-6.77-11.71a36.46,36.46,0,0,1,1.21-8.9"/></g></g></g><polygon class="cls-79" points="403 345.66 409.77 357.37 403.45 370.81 396.69 359.09 403 345.66"/><g class="cls-24"><g class="cls-80"><g class="cls-24"><path class="cls-81" d="M419.11,349.55l6.78,11.71c-.68-.32-1.38-.63-2.1-.92L417,348.63c.72.28,1.42.6,2.09.92"/></g></g></g><g class="cls-24"><g class="cls-82"><g class="cls-24"><path class="cls-83" d="M406.37,361.14l6.77,11.72a30,30,0,0,0-9.69-2.05l-6.76-11.72a30.53,30.53,0,0,1,9.68,2.05"/></g></g></g><path class="cls-52" d="M401.67,345.6l1.34,0a42,42,0,0,1,14,3l-10.64,12.52a30.53,30.53,0,0,0-9.68-2.05L403,345.66C402.56,345.63,402.11,345.61,401.67,345.6Z"/><polygon class="cls-84" points="417.01 348.62 423.78 360.34 413.14 372.86 406.37 361.14 417.01 348.62"/><g class="cls-24"><g class="cls-85"><path class="cls-2" d="M416.45,369.52l6.77,11.71a19.82,19.82,0,0,0-10.07-8.37l-6.77-11.71a19.77,19.77,0,0,1,10.07,8.37"/></g></g><path class="cls-86" d="M369.77,382.2l.07-.06c.63-.49,1.28-.95,1.94-1.41l.47-.33,1.07-.71c.53-.34,1.07-.69,1.62-1l1-.58,1.65-.92,1-.51c.66-.34,1.34-.67,2-1l.68-.33c.91-.41,1.82-.79,2.74-1.14.71-.28,1.43-.54,2.14-.78l.56-.19,1.76-.54.55-.16c.75-.21,1.49-.4,2.23-.58l.27-.06c.67-.15,1.34-.28,2-.4l.43-.09c.72-.12,1.44-.23,2.15-.32l.43,0c.66-.07,1.3-.14,1.95-.18l.31,0c.7,0,1.41-.07,2.11-.07h.47c.71,0,1.42,0,2.11.05l-6.76-11.72c-.7,0-1.41,0-2.12,0h-.48c-.69,0-1.4,0-2.1.08l-.32,0c-.64,0-1.28.1-1.93.18l-.44.05c-.71.09-1.43.2-2.15.32l-.44.08c-.66.12-1.32.25-2,.41l-.31.06-.13,0c-.69.16-1.38.35-2.07.54l-.57.17c-.58.16-1.16.35-1.75.54l-.56.18c-.68.24-1.37.48-2,.75l-.1,0c-.91.36-1.82.74-2.73,1.15l-.69.33c-.68.31-1.35.64-2,1l-.35.16-.61.35c-.56.29-1.11.6-1.65.92l-1,.58c-.54.33-1.08.67-1.61,1-.2.14-.41.26-.61.39l-.46.32L365,369c-.66.46-1.31.94-1.95,1.43l0,0c-.64.49-1.25,1-1.87,1.5l-.4.35-.4.33c-.49.43-1,.87-1.45,1.32a49.93,49.93,0,0,0-4,4.15c-.59.68-1.14,1.37-1.66,2.06l0,0c-.44.59-.86,1.19-1.27,1.78l-.28.42c-.4.6-.79,1.21-1.15,1.82l-.06.11c-.34.58-.66,1.16-1,1.75l-.21.4c-.3.61-.59,1.21-.85,1.81,0,.08-.07.18-.11.26q-.35.81-.63,1.62c0,.13-.09.25-.14.38l-.09.25c-.09.26-.15.51-.23.76s-.23.74-.33,1.11-.15.64-.22.95-.17.73-.24,1.1-.1.62-.15.94-.1.71-.14,1.06,0,.63-.07.94-.05.69-.05,1c0,.11,0,.22,0,.33q0,.57,0,1.14v.12c0,.55.09,1.1.16,1.64,0,.14,0,.27.05.41.08.47.16.93.26,1.38,0,.08,0,.16.05.24a.36.36,0,0,1,0,.1q.18.72.42,1.41c0,.11.07.22.1.32.18.49.36,1,.58,1.45a1.42,1.42,0,0,0,.08.18l.35.74c.13.24.26.48.4.71l6.77,11.71a15.7,15.7,0,0,1-.76-1.47l-.07-.15c-.21-.47-.4-1-.58-1.45,0-.11-.07-.22-.1-.33a15.16,15.16,0,0,1-.43-1.5l-.06-.26c-.1-.45-.19-.9-.25-1.36,0-.14,0-.28-.07-.42-.07-.54-.12-1.09-.15-1.64v-.12c0-.49,0-1,0-1.46s0-.7.05-1.05,0-.61.07-.92.09-.72.15-1.08.08-.62.14-.93.16-.73.24-1.1.14-.63.22-.94.22-.74.33-1.11.2-.68.32-1c.05-.12.09-.24.13-.36.2-.54.41-1.09.65-1.63,0-.08.06-.17.1-.26.26-.6.55-1.2.85-1.8l.21-.41c.3-.58.62-1.17,1-1.75l.06-.1c.36-.61.75-1.23,1.16-1.83l.27-.41c.42-.61.84-1.22,1.31-1.82s1.07-1.38,1.64-2.06a53.5,53.5,0,0,1,4-4.15c.6-.56,1.21-1.1,1.84-1.64l.43-.36C368.55,383.16,369.15,382.67,369.77,382.2Z"/><g class="cls-24"><g class="cls-87"><g class="cls-24"><path class="cls-76" d="M331,394.49l6.77,11.72a36.38,36.38,0,0,0-1.21,8.89l-6.77-11.71a36.46,36.46,0,0,1,1.21-8.9"/><path class="cls-88" d="M329.81,403.39l6.77,11.71a30.66,30.66,0,0,0,.83,7.3l-6.77-11.71a30.15,30.15,0,0,1-.83-7.3"/><path class="cls-89" d="M330.64,410.69l6.77,11.71a26.61,26.61,0,0,0,2.22,5.91l-6.78-11.72a26.82,26.82,0,0,1-2.21-5.9"/><path class="cls-90" d="M332.85,416.59l6.78,11.72c.18.35.37.69.56,1l-6.77-11.71c-.19-.34-.39-.69-.57-1"/></g></g></g><path class="cls-51" d="M348.66,366.9c13.19-12.4,30.6-20.2,47.39-21.2l.86-.05,1.52-.06h1.06c.73,0,1.45,0,2.18,0,.44,0,.89,0,1.33.06l-6.31,13.43c-12.52-.7-27.22,4.94-37.78,14.87a49.93,49.93,0,0,0-4,4.15c-13.18,15.5-11.51,33,3.73,39.16,6.06,2.45,13.35,2.68,20.76,1.14l-1.37,13.06c-10.73,2.22-21.27,1.85-30-1.68-1-.39-1.89-.82-2.78-1.28-.24-.11-.46-.23-.69-.35-.67-.35-1.31-.73-1.93-1.11l-1-.65c-.32-.21-.63-.43-.94-.66-9.61-7.13-13-18.69-9.7-31.25.08-.32.15-.57.23-.82s.15-.51.23-.76a50.9,50.9,0,0,1,6.11-13c.39-.59.73-1.1,1.08-1.61l.52-.74c.21-.3.45-.6.67-.9s.64-.87,1-1.31l.39-.48c.44-.55.88-1.1,1.35-1.65,1-1.21,1.88-2.16,2.77-3.1l.37-.39c.35-.37.71-.73,1.07-1.09l1.11-1.06C348.15,367.37,348.4,367.14,348.66,366.9Z"/><polygon class="cls-91" points="435.06 378.34 441.83 390.05 425.59 393.42 418.82 381.7 435.06 378.34"/><g class="cls-24"><g class="cls-92"><g class="cls-24"><path class="cls-93" d="M435.24,375.78,442,387.49a38.15,38.15,0,0,1-2,11l-6.77-11.71a38.21,38.21,0,0,0,2-11"/></g></g></g><g class="cls-24"><g class="cls-92"><g class="cls-24"><path class="cls-94" d="M435.24,375.78,442,387.49a38.15,38.15,0,0,1-2,11l-6.77-11.71a38.21,38.21,0,0,0,2-11"/></g></g></g><g class="cls-24"><path class="cls-2" d="M431.81,360.69l6.77,11.71A27.55,27.55,0,0,1,442,387.49c0,.84-.09,1.7-.18,2.56l-6.77-11.71c.09-.87.15-1.72.18-2.56A27.53,27.53,0,0,0,431.81,360.69Z"/><g class="cls-95"><g class="cls-24"><path class="cls-96" d="M431.81,360.69l6.77,11.71c.19.32.36.65.53,1l-6.77-11.72c-.17-.33-.35-.65-.53-1"/><path class="cls-2" d="M432.34,361.66l6.77,11.72a25.24,25.24,0,0,1,2.1,5.6l-6.77-11.71a25.14,25.14,0,0,0-2.1-5.61"/><path class="cls-2" d="M434.44,367.27,441.21,379a30.58,30.58,0,0,1,.82,7.42l-6.77-11.71a30.58,30.58,0,0,0-.82-7.42"/><path class="cls-2" d="M435.26,374.69,442,386.4c0,.36,0,.72,0,1.09,0,.84-.09,1.7-.18,2.56l-6.77-11.71c.09-.87.15-1.72.18-2.56,0-.37,0-.73,0-1.09"/></g></g></g><polygon class="cls-97" points="422.4 405.26 429.18 416.97 416.88 412.02 410.12 400.3 422.4 405.26"/><g class="cls-24"><g class="cls-98"><g class="cls-24"><path class="cls-99" d="M422.41,405.26,429.18,417c-.63.74-1.27,1.45-1.92,2.16l-6.77-11.71q1-1.07,1.92-2.16"/></g></g></g><g class="cls-24"><g class="cls-100"><g class="cls-24"><path class="cls-101" d="M435.24,375.78,442,387.49a38.15,38.15,0,0,1-2,11l-6.77-11.71a38.21,38.21,0,0,0,2-11"/><path class="cls-102" d="M433.2,386.79,440,398.5a54.49,54.49,0,0,1-8.4,15.51l-6.78-11.71a54,54,0,0,0,8.41-15.51"/></g></g></g><path class="cls-3" d="M429.45,416.76c-.65.76-1.31,1.5-2,2.23l-6.78-11.69c.67-.73,1.33-1.48,2-2.24,7.47-8.83,11.56-18.14,12.41-26.72q3.39,5.85,6.79,11.7C441,398.62,436.92,407.93,429.45,416.76Z"/><g class="cls-103"><g class="cls-24"><path class="cls-3" d="M435.22,375.79l6.79,11.7a37.91,37.91,0,0,1-2,10.95l-6.79-11.7a37.85,37.85,0,0,0,2-10.95"/><path class="cls-3" d="M433.26,386.74l6.79,11.7a53.57,53.57,0,0,1-8.26,15.39L425,402.13a53.2,53.2,0,0,0,8.26-15.39"/></g></g><path class="cls-104" d="M418.82,381.7l16.24-3.36c.09-.87.15-1.72.18-2.56-.27,9.3-4.49,19.67-12.82,29.48q-1,1.15-2,2.25l.08-.09c.66-.71,1.29-1.43,1.91-2.16l-12.28-5C415.35,394.14,418.2,387.67,418.82,381.7Z"/><path class="cls-21" d="M417,348.62c.73.3,1.42.61,2.1.93,11,5.18,16.59,14.26,16.13,26.23,0,.84-.09,1.69-.18,2.56l-16.24,3.36c.95-9-3.27-16.87-12.44-20.55Z"/><path class="cls-105" d="M384.86,443.18c1-.21,2-.44,3.06-.7C386.91,442.73,385.89,443,384.86,443.18Z"/><path class="cls-4" d="M422.93,423.19l.43-.46s1.86-2,2-2.09A19.82,19.82,0,0,0,427,419l.15.27c-.49.54-1,1.06-1.52,1.59l-.25.25c-.77.79-1.56,1.57-2.37,2.33a78.84,78.84,0,0,1-35.12,19.08c-1,.25-2,.49-3.06.7.35-.07,1.28-.27,2.25-.54,1.13-.3,5.9-1.68,5.93-1.69,1.51-.47,3.49-1.24,5-1.8a92.08,92.08,0,0,0,9.35-4.47,71.4,71.4,0,0,0,8.35-5.42A76,76,0,0,0,422.93,423.19Z"/><g class="cls-106"><g class="cls-24"><path class="cls-4" d="M420.41,407.51l6.77,11.72c-.49.54-1,1.06-1.52,1.59l-.25.25c-.77.79-1.56,1.57-2.37,2.33s-1.41,1.3-2.14,1.94l-6.77-11.72c.72-.63,1.44-1.28,2.14-1.94s1.6-1.53,2.38-2.32l.24-.26c.51-.52,1-1.05,1.52-1.59"/><path class="cls-4" d="M414.13,413.62l6.77,11.72a78.87,78.87,0,0,1-7.85,6l-6.77-11.71a77.49,77.49,0,0,0,7.85-6"/><path class="cls-4" d="M406.28,419.65l6.77,11.71a76.91,76.91,0,0,1-7.47,4.44l-6.77-11.71a80.26,80.26,0,0,0,7.47-4.44"/><path class="cls-4" d="M398.81,424.09l6.77,11.71a78.31,78.31,0,0,1-8.13,3.68l-6.77-11.72a78.24,78.24,0,0,0,8.13-3.67"/><path class="cls-4" d="M390.68,427.76l6.77,11.72a78.73,78.73,0,0,1-9.53,3l-.91.22L380.24,431l.91-.22a78.77,78.77,0,0,0,9.53-3"/><path class="cls-4" d="M380.24,431,387,442.7c-.71.17-1.43.33-2.15.48l-6.77-11.71c.72-.15,1.44-.31,2.15-.48"/></g></g><polygon class="cls-107" points="379.45 418.41 386.22 430.12 384.85 443.18 378.08 431.47 379.45 418.41"/><path class="cls-108" d="M348.05,429.79c-1-.39-1.89-.82-2.78-1.28-.24-.11-.46-.23-.69-.35-.67-.35-1.31-.73-1.93-1.11l-1-.65c-.32-.21-.63-.43-.94-.66h0l-.47-.36a26.63,26.63,0,0,1-6.81-7.73l1.15,2c-.16-.21-.3-.42-.44-.63s-.17-.24-.25-.37c-.23-.34-.44-.69-.64-1l-.06-.1h0L340,429.21l.07.11c.2.34.41.69.63,1l.29.42c.16.23.31.46.47.68l.35.46.48.62.39.45.5.58.43.45c.17.18.34.37.52.55l.46.44.56.52.49.42c.19.17.38.34.58.49s.35.28.53.42l.42.34.19.13.17.14.93.65,1,.65c.63.38,1.27.76,1.94,1.11.23.12.45.24.69.35.89.46,1.81.9,2.78,1.29,8.76,3.52,19.31,3.9,30,1.67l-6.77-11.71C367.35,433.69,356.81,433.32,348.05,429.79Z"/><g class="cls-24"><g class="cls-109"><g class="cls-24"><path class="cls-76" d="M418.89,409.1l6.77,11.72-.25.25-6.76-11.71.24-.26"/></g></g></g><g class="cls-24"><g class="cls-109"><path class="cls-6" d="M418.89,409.1l6.77,11.72-.25.25-6.76-11.71.24-.26"/></g></g><g class="cls-24"><g class="cls-110"><g class="cls-24"><path class="cls-6" d="M420.69,407.27l6.8,11.78c-.49.54-1,1.07-1.53,1.6l-.24.26c-.79.8-1.58,1.58-2.4,2.34s-1.42,1.31-2.15,1.95l-6.8-11.77c.73-.64,1.45-1.29,2.16-2s1.6-1.54,2.39-2.34l.25-.26c.51-.52,1-1.05,1.52-1.6"/><path class="cls-4" d="M414.37,413.43l6.8,11.77a78.74,78.74,0,0,1-7.92,6.07l-6.8-11.77a78.74,78.74,0,0,0,7.92-6.07"/><path class="cls-111" d="M406.45,419.5l6.8,11.77a76,76,0,0,1-7.52,4.48L398.93,424a78,78,0,0,0,7.52-4.48"/><path class="cls-112" d="M398.93,424l6.8,11.77a77.41,77.41,0,0,1-8.19,3.71l-6.8-11.77a81.67,81.67,0,0,0,8.19-3.71"/><path class="cls-5" d="M390.74,427.69l6.8,11.77a80.38,80.38,0,0,1-9.59,3l-.93.22L380.22,431l.93-.22a81.64,81.64,0,0,0,9.59-3"/><path class="cls-113" d="M380.22,431l6.8,11.77-2.16.49-6.8-11.78q1.1-.23,2.16-.48"/></g></g></g><g class="cls-24"><g class="cls-114"><g class="cls-24"><path class="cls-115" d="M381.15,430.77l6.77,11.71-.93.23L380.23,431l.92-.23"/><path class="cls-116" d="M380.23,431,387,442.71c-.71.17-1.42.33-2.13.47l-6.77-11.71,2.14-.47"/></g></g></g><path class="cls-5" d="M385.22,443.11l-.36.07-6.77-11.71c1-.22,2-.44,3.06-.7l6.77,11.71C387.28,442.64,386.46,442.84,385.22,443.11Z"/><g class="cls-117"><g class="cls-24"><path class="cls-5" d="M381.15,430.77l6.77,11.71-.93.23L380.23,431l.92-.23"/><path class="cls-5" d="M380.23,431,387,442.71c-.71.17-1.42.33-2.13.47l-6.77-11.71,2.14-.47"/></g></g><path class="cls-56" d="M379.45,418.41a56.57,56.57,0,0,0,26.71-14,48.22,48.22,0,0,0,3.95-4.14l12.3,4.95q-.95,1.1-1.92,2.16l-.08.09c-.49.54-1,1.07-1.52,1.59l-.24.26c-.78.79-1.57,1.57-2.38,2.32a78.81,78.81,0,0,1-35.12,19.09c-1,.25-2,.48-3.06.7Z"/><path class="cls-6" d="M422.4,405.26l6.77,11.79c-.65.75-1.3,1.49-2,2.21l-6.76-11.79C421.11,406.74,421.76,406,422.4,405.26Z"/><g class="cls-118"><g class="cls-24"><path class="cls-6" d="M422.4,405.26l6.77,11.79c-.65.75-1.3,1.49-2,2.21l-6.76-11.79c.67-.73,1.32-1.46,2-2.21"/></g></g></g><rect class="cls-119" x="281.25" y="324.88" width="95.17" height="84.67" rx="3.23"/><path class="cls-56" d="M281.25,336.55v-8.44a3.23,3.23,0,0,1,3.22-3.23h88.72a3.23,3.23,0,0,1,3.22,3.23v8.44"/><line class="cls-120" x1="316.73" y1="331.34" x2="345.77" y2="331.34"/><line class="cls-120" x1="287.7" y1="331.34" x2="290.92" y2="331.34"/><line class="cls-120" x1="366.74" y1="331.34" x2="369.96" y2="331.34"/><rect class="cls-60" x="293.71" y="345.9" width="3.87" height="3.87"/><rect class="cls-60" x="304.69" y="345.9" width="3.87" height="3.87"/><rect class="cls-60" x="315.66" y="345.9" width="3.87" height="3.87"/><rect class="cls-60" x="326.63" y="345.9" width="3.87" height="3.87"/><rect class="cls-60" x="337.6" y="345.9" width="3.87" height="3.87"/><rect class="cls-19" x="348.57" y="345.9" width="3.87" height="3.87"/><rect class="cls-19" x="359.55" y="345.9" width="3.87" height="3.87"/><rect class="cls-121" x="293.71" y="355.59" width="3.87" height="3.87"/><rect class="cls-121" x="304.69" y="355.59" width="3.87" height="3.87"/><rect class="cls-121" x="315.66" y="355.59" width="3.87" height="3.87"/><rect class="cls-60" x="326.63" y="355.59" width="3.87" height="3.87"/><rect class="cls-60" x="337.6" y="355.59" width="3.87" height="3.87"/><rect class="cls-19" x="348.57" y="355.59" width="3.87" height="3.87"/><rect class="cls-19" x="359.55" y="355.59" width="3.87" height="3.87"/><rect class="cls-60" x="293.71" y="365.27" width="3.87" height="3.87"/><rect class="cls-60" x="304.69" y="365.27" width="3.87" height="3.87"/><rect class="cls-60" x="315.66" y="365.27" width="3.87" height="3.87"/><rect class="cls-53" x="326.63" y="365.27" width="3.87" height="3.87"/><rect class="cls-53" x="337.6" y="365.27" width="3.87" height="3.87"/><rect class="cls-19" x="348.57" y="365.27" width="3.87" height="3.87"/><rect class="cls-19" x="359.55" y="365.27" width="3.87" height="3.87"/><rect class="cls-60" x="293.71" y="374.95" width="3.87" height="3.87"/><rect class="cls-56" x="304.69" y="374.95" width="3.87" height="3.87"/><rect class="cls-56" x="315.66" y="374.95" width="3.87" height="3.87"/><rect class="cls-56" x="326.63" y="374.95" width="3.87" height="3.87"/><rect class="cls-60" x="337.6" y="374.95" width="3.87" height="3.87"/><rect class="cls-19" x="348.57" y="374.95" width="3.87" height="3.87"/><rect class="cls-19" x="359.55" y="374.95" width="3.87" height="3.87"/><rect class="cls-60" x="293.71" y="384.63" width="3.87" height="3.87"/><rect class="cls-60" x="304.69" y="384.63" width="3.87" height="3.87"/><rect class="cls-60" x="315.66" y="384.63" width="3.87" height="3.87"/><rect class="cls-60" x="326.63" y="384.63" width="3.87" height="3.87"/><rect class="cls-60" x="337.6" y="384.63" width="3.87" height="3.87"/><rect class="cls-19" x="348.57" y="384.63" width="3.87" height="3.87"/><rect class="cls-19" x="359.55" y="384.63" width="3.87" height="3.87"/><rect class="cls-60" x="293.71" y="394.31" width="3.87" height="3.87"/><rect class="cls-60" x="304.69" y="394.31" width="3.87" height="3.87"/><rect class="cls-60" x="315.66" y="394.31" width="3.87" height="3.87"/><rect class="cls-60" x="326.63" y="394.31" width="3.87" height="3.87"/><rect class="cls-60" x="337.6" y="394.31" width="3.87" height="3.87"/><rect class="cls-19" x="348.57" y="394.31" width="3.87" height="3.87"/><rect class="cls-19" x="359.55" y="394.31" width="3.87" height="3.87"/><line class="cls-122" x1="248.2" y1="490.21" x2="280" y2="545.29"/><line class="cls-122" x1="154.58" y1="575.31" x2="231.43" y2="619.68"/><line class="cls-122" x1="116.06" y1="695.82" x2="198.99" y2="695.82"/><line class="cls-122" x1="604.34" y1="719.08" x2="553.18" y2="719.08"/><line class="cls-122" x1="577.44" y1="595.45" x2="525.9" y2="625.2"/><line class="cls-122" x1="492.33" y1="501.83" x2="434.21" y2="602.51"/><line class="cls-122" x1="371.82" y1="463.31" x2="371.82" y2="523.38"/></svg>