<svg id="Camada_1" data-name="Camada 1" xmlns="http://www.w3.org/2000/svg" xmlns:xlink="http://www.w3.org/1999/xlink" viewBox="0 0 1190.55 841.89"><defs><style>.cls-1,.cls-120,.cls-122,.cls-55{fill:none;}.cls-2{fill:#96a2bd;}.cls-3{fill:#35a3bf;}.cls-4{fill:#3a48c8;}.cls-5{fill:#3845bf;}.cls-6{fill:#3b48ca;}.cls-7{fill:#37b4aa;}.cls-8{fill:#eaf4fe;}.cls-9{fill:#212957;}.cls-10{fill:#ec9568;}.cls-11{fill:#dd000b;}.cls-12{fill:#fd2227;}.cls-13{fill:#d0dee6;}.cls-14{fill:#b6c2c9;}.cls-15{fill:#d7dfe2;}.cls-16{fill:#387bff;}.cls-17{fill:#7eb3ff;}.cls-18{fill:#f7b68b;}.cls-19{fill:#c5e1f9;}.cls-20{fill:#fff;}.cls-21{fill:#b0bfde;}.cls-22{fill:#484f59;}.cls-23{fill:#ff876c;}.cls-24{isolation:isolate;}.cls-25{fill:#85a6be;}.cls-26{fill:#93b4cd;}.cls-27{fill:#b0d0eb;}.cls-28{clip-path:url(#clip-path);}.cls-29{fill:#88a8c0;}.cls-30{fill:#8cadc5;}.cls-31{fill:#91b1ca;}.cls-32{fill:#95b6cf;}.cls-33{fill:#9abbd4;}.cls-34{fill:#9ebfd9;}.cls-35{fill:#a3c3de;}.cls-36{fill:#a7c8e2;}.cls-37{fill:#adcde7;}.cls-38{fill:#b5d5f0;}.cls-39{fill:#b8d8f3;}.cls-40{fill:#89a9c2;}.cls-41{clip-path:url(#clip-path-2);}.cls-42{clip-path:url(#clip-path-3);}.cls-43{fill:#b5d6f0;}.cls-44{fill:#98b9d2;}.cls-45{clip-path:url(#clip-path-4);}.cls-46{clip-path:url(#clip-path-5);}.cls-47{fill:#b3d3ee;}.cls-48{fill:#9cbcd7;}.cls-49{fill:#b6d7f1;}.cls-50{fill:#8dadc6;}.cls-51{fill:#e4efff;}.cls-52{fill:#fec12f;}.cls-53{fill:#ffab01;}.cls-54{fill:#0450cf;}.cls-55{stroke:#f4da80;stroke-width:2.95px;}.cls-122,.cls-55{stroke-miterlimit:10;}.cls-56{fill:#0561fc;}.cls-57{fill:#7dc2f5;}.cls-58{fill:#d1ecfb;}.cls-59{fill:#8dcfff;}.cls-60{fill:#9ac7f7;}.cls-61{fill:#ffbf0d;}.cls-62{fill:#b2d2ea;}.cls-63{fill:#ced6d9;}.cls-64{fill:#94999b;}.cls-65{clip-path:url(#clip-path-6);}.cls-66{fill:#a9b0b2;}.cls-67{clip-path:url(#clip-path-7);}.cls-68{clip-path:url(#clip-path-8);}.cls-69{fill:#adb4b6;}.cls-70{clip-path:url(#clip-path-9);}.cls-71{fill:#979d9f;}.cls-72{clip-path:url(#clip-path-10);}.cls-73{fill:#393ca6;}.cls-74{fill:#9969f3;}.cls-75{clip-path:url(#clip-path-11);}.cls-76{fill:#c8a756;}.cls-77{fill:#f3cc68;}.cls-78{clip-path:url(#clip-path-12);}.cls-79{fill:#c5c7a0;}.cls-80{clip-path:url(#clip-path-13);}.cls-81{fill:#734fb8;}.cls-82{clip-path:url(#clip-path-14);}.cls-83{fill:#f4901e;}.cls-84{fill:#3fb94a;}.cls-85{clip-path:url(#clip-path-15);}.cls-86{fill:#bfd8f1;}.cls-87{clip-path:url(#clip-path-16);}.cls-88{fill:#c5a555;}.cls-89{fill:#c2a354;}.cls-90{fill:#bfa153;}.cls-91{fill:#2dbc42;}.cls-92{clip-path:url(#clip-path-17);}.cls-93{fill:#613dcd;}.cls-94{fill:#c9c4bb;}.cls-95{clip-path:url(#clip-path-19);}.cls-96{fill:#1f70be;}.cls-97{fill:#bb8f37;}.cls-98{clip-path:url(#clip-path-20);}.cls-99{fill:#3bcaab;}.cls-100{clip-path:url(#clip-path-21);}.cls-101{fill:#c9c9c9;}.cls-102{fill:#ccc;}.cls-103{clip-path:url(#clip-path-22);}.cls-104{fill:#3bb6d5;}.cls-105{fill:#535c68;}.cls-106{clip-path:url(#clip-path-23);}.cls-107{fill:#92a4b7;}.cls-108{fill:#b1c8df;}.cls-109{clip-path:url(#clip-path-24);}.cls-110{clip-path:url(#clip-path-26);}.cls-111{fill:#3947c5;}.cls-112{fill:#3845c2;}.cls-113{fill:#36bc9f;}.cls-114{clip-path:url(#clip-path-27);}.cls-115{fill:#57606b;}.cls-116{fill:#545d69;}.cls-117{clip-path:url(#clip-path-28);}.cls-118{clip-path:url(#clip-path-29);}.cls-119{fill:#f7f8fc;}.cls-120{stroke:#fff;stroke-width:1.69px;}.cls-121{fill:#f84e6b;}.cls-122{stroke:#9ac7f7;stroke-width:1.75px;}</style><clipPath id="clip-path"><path class="cls-1" d="M916.63,751l-11.4,13.37c2.17-2.55-.64-8.76-6.81-14.6a36.83,36.83,0,0,0-10.31-7c-3.27-1.42-6.13-1.77-7.78-.75a2.36,2.36,0,0,0-.67.58l11.4-13.37a2.72,2.72,0,0,1,.68-.58c1.65-1,4.5-.66,7.77.75a36.66,36.66,0,0,1,10.32,7C916,742.28,918.8,748.49,916.63,751Z"/></clipPath><clipPath id="clip-path-2"><path class="cls-1" d="M870.83,720.84l-11.42,13.38a9.89,9.89,0,0,1,1.07-6.66l11.42-13.37A9.72,9.72,0,0,0,870.83,720.84Z"/></clipPath><clipPath id="clip-path-3"><path class="cls-1" d="M929.3,769.64,917.89,783a24.48,24.48,0,0,1-9.11-1.1l11.42-13.37A24.21,24.21,0,0,0,929.3,769.64Z"/></clipPath><clipPath id="clip-path-4"><path class="cls-1" d="M882.6,742.35l-11.41,13.38a70.17,70.17,0,0,1-7.6-10.52L875,731.83A67.82,67.82,0,0,0,882.6,742.35Z"/></clipPath><clipPath id="clip-path-5"><path class="cls-1" d="M906.82,762.57l-11.41,13.37a92.79,92.79,0,0,1-11.81-8.22L895,754.36A95.18,95.18,0,0,0,906.82,762.57Z"/></clipPath><clipPath id="clip-path-6"><path class="cls-1" d="M589.56,434l-1.1,1.06-6.77-11.71c.36-.36.73-.71,1.1-1.06Z"/></clipPath><clipPath id="clip-path-7"><path class="cls-1" d="M577.47,427.88l6.77,11.71c-.46.55-.91,1.1-1.35,1.66l-6.77-11.72Q576.78,428.71,577.47,427.88Z"/></clipPath><clipPath id="clip-path-8"><path class="cls-1" d="M573.65,432.86l6.77,11.71a.76.76,0,0,0-.08.11L573.57,433A.44.44,0,0,1,573.65,432.86Z"/></clipPath><clipPath id="clip-path-9"><path class="cls-1" d="M638.58,412l-.86.06L631,400.33l.86-.05Z"/></clipPath><clipPath id="clip-path-10"><path class="cls-1" d="M644.67,412l-1.34-.06-6.77-11.71,1.34.06Z"/></clipPath><clipPath id="clip-path-11"><path class="cls-1" d="M573.14,459.25c-.07.25-.15.5-.22.76l-6.78-11.72c.08-.25.16-.5.23-.76C568.41,451.05,571.11,455.73,573.14,459.25Z"/></clipPath><clipPath id="clip-path-12"><path class="cls-1" d="M565.91,449.12l6.77,11.71-1.63-2.78q-2.59-4.4-5.17-8.79Z"/></clipPath><clipPath id="clip-path-13"><path class="cls-1" d="M654,404.18l6.77,11.71c-.68-.32-1.38-.63-2.1-.92l-6.77-11.71C652.63,403.54,653.33,403.85,654,404.18Z"/></clipPath><clipPath id="clip-path-14"><path class="cls-1" d="M641.27,415.77,648,427.48a30.59,30.59,0,0,0-9.69-2.05l-6.77-11.71A30.38,30.38,0,0,1,641.27,415.77Z"/></clipPath><clipPath id="clip-path-15"><path class="cls-1" d="M651.35,424.14l6.76,11.72A19.73,19.73,0,0,0,648,427.49l-6.77-11.72A19.84,19.84,0,0,1,651.35,424.14Z"/></clipPath><clipPath id="clip-path-16"><path class="cls-1" d="M572.68,460.83c-2.21,8.54-1.37,16.61,2.41,23.14l-6.78-11.71c-3.75-6.5-4.6-14.52-2.43-23l2.51,4.27.89,1.52c.13.23.31.53.45.76l1.74,3,.42.71C572.13,459.89,572.62,460.37,572.68,460.83Z"/></clipPath><clipPath id="clip-path-17"><path class="cls-1" d="M676.9,442.12c0,.84-.08,1.7-.17,2.56L670,433c.09-.86.15-1.72.17-2.57C672.16,433.92,675.91,438.18,676.9,442.12Z"/></clipPath><clipPath id="clip-path-19"><path class="cls-2" d="M666.7,415.31,673.47,427a27.55,27.55,0,0,1,3.43,15.09q0,1.26-.18,2.55L670,433c.09-.86.15-1.72.18-2.56A27.58,27.58,0,0,0,666.7,415.31Z"/></clipPath><clipPath id="clip-path-20"><path class="cls-1" d="M657.31,459.88l6.76,11.71c-.62.74-1.26,1.46-1.91,2.17l-6.77-11.71C656,461.34,656.68,460.62,657.31,459.88Z"/></clipPath><clipPath id="clip-path-21"><path class="cls-1" d="M664.08,471.6q-1,1.15-2,2.25l-6.77-11.71c.68-.73,1.36-1.49,2-2.26C664.89,451,669.06,441.59,670,433l6.77,11.71C675.83,453.31,671.66,462.68,664.08,471.6Z"/></clipPath><clipPath id="clip-path-22"><path class="cls-3" d="M664.34,471.38c-.64.77-1.31,1.51-2,2.24l-6.79-11.7c.67-.72,1.34-1.47,2-2.23C665,450.86,669.12,441.55,670,433l6.79,11.7C675.91,453.24,671.82,462.56,664.34,471.38Z"/></clipPath><clipPath id="clip-path-23"><path class="cls-4" d="M657.82,477.82l.43-.46s1.86-2,2-2.09c.31-.27.91-.86,1.67-1.68l.14.26c-.49.54-1,1.07-1.51,1.59l-.25.26c-.78.79-1.57,1.57-2.37,2.32a79,79,0,0,1-35.12,19.09c-1,.25-2,.48-3.07.7.35-.08,1.28-.28,2.25-.54,1.13-.31,5.91-1.69,5.93-1.69,1.52-.47,3.49-1.24,5-1.8a95.35,95.35,0,0,0,9.35-4.47,73.59,73.59,0,0,0,8.35-5.42A75.9,75.9,0,0,0,657.82,477.82Z"/></clipPath><clipPath id="clip-path-24"><path class="cls-1" d="M653.79,463.73l6.77,11.71-.25.26L653.54,464Z"/></clipPath><clipPath id="clip-path-26"><path class="cls-1" d="M658.1,477.67a77.16,77.16,0,0,1-7.27,6.12,74.66,74.66,0,0,1-8.41,5.46,93.52,93.52,0,0,1-9.42,4.51c-1.49.57-3.48,1.34-5,1.82,0,0-4.83,1.4-6,1.71-1,.27-1.91.47-2.27.54L613,486.06c1-.22,2.07-.45,3.09-.71a79.74,79.74,0,0,0,35.38-19.25c.81-.76,1.61-1.54,2.39-2.34l.25-.26c.52-.53,1-1.06,1.53-1.6,2,3.45,4.65,8.06,6.65,11.51a21.76,21.76,0,0,1-1.68,1.69c-.14.13-2,2.09-2,2.11S658.24,477.54,658.1,477.67Z"/></clipPath><clipPath id="clip-path-27"><path class="cls-1" d="M622.82,497.11c-1,.26-2.05.49-3.07.7L613,486.09c1-.21,2-.43,3.07-.69Z"/></clipPath><clipPath id="clip-path-28"><path class="cls-5" d="M620.11,497.73l-.36.08L613,486.09c1-.21,2-.43,3.07-.69l6.77,11.71C622.18,497.27,621.35,497.47,620.11,497.73Z"/></clipPath><clipPath id="clip-path-29"><path class="cls-6" d="M657.3,459.89l6.76,11.79c-.64.75-1.3,1.48-2,2.21l-6.76-11.8C656,461.37,656.66,460.64,657.3,459.89Z"/></clipPath></defs><rect class="cls-7" x="232.47" y="51.83" width="732.13" height="610.17"/><path class="cls-8" d="M732.62,800c46.74-22.73,62-75.06,17.27-114.58C732.33,670,741.44,543.69,644.15,544.1c-85.4.36-154.89,73.06-189.17,105.55s-43.4,75.14-47.75,94.43c-2,8.7,1.68,35,17.51,55.95Z"/><path class="cls-9" d="M605.49,693.3s-20.92-22.37-.58-53.19C616.18,623,615.37,573.57,582.62,586s-22.59-5.75-41.07,1.16-27.45,18.94-26.27,33-2.69,40.4-14,44.53-66.11,28-35.56,66.89S621,754.84,605.49,693.3Z"/><path class="cls-10" d="M702.23,768l24.83-4.9,4.56-.9s2,11.88-3.23,16.84-25.38.88-28.21-1S702.23,768,702.23,768Z"/><polygon class="cls-10" points="741.68 769.75 734.26 782.29 724.99 781.21 731.62 762.22 741.68 769.75"/><path class="cls-10" d="M600.9,730.11c-1.16,10.46,27.83,40.07,30.81,41.27,14.53,5.81,73.24,9.3,76.73,8.13,3.79-1.26.09-10.89-4.07-11.62-9.88-1.74-33.29-8.93-56.38-16.28-12.79-4.07-21.63-30.07-34.88-33.13C604.52,716.49,601.76,722.43,600.9,730.11Z"/><path class="cls-11" d="M578.24,668.49a20.63,20.63,0,0,1,14,3.49c6.39,4.65,36,51.15,37.2,53.48S605,747.54,605,747.54,563.7,709.76,578.24,668.49Z"/><path class="cls-12" d="M509.64,684.18s9.88-11.62,12.21-12.78,56.38-2.91,56.38-2.91,28.49,46.5,30.23,55.22-5.23,15.12-8.14,18-4.65,49.41-4.65,49.41H528.83S506.74,711.5,509.64,684.18Z"/><path class="cls-13" d="M596.65,782.16l-.07-.14.07-4.31H775.17V782a.32.32,0,0,1,0,.14l-.46.8c-2.29,3.74-6.41,4.41-11.12,4.41H608.24c-4.72,0-8.83-.67-11.13-4.41Z"/><path class="cls-14" d="M639.68,782.89a.22.22,0,0,1,0,.12l-.45.65a7.23,7.23,0,0,1-2.61,2.19H609.48c-4.54,0-8.5-.54-10.7-3.56l-.43-.66a.44.44,0,0,1-.08-.11l.05-2.12h41.36Z"/><rect class="cls-14" x="663.77" y="778.71" width="89.2" height="3.05"/><path class="cls-15" d="M640.67,777.55l23.14-87.71a5.83,5.83,0,0,1,5.29-4.2H794.35a3.12,3.12,0,0,1,3.08,4.2l-23.15,87.71Z"/><path class="cls-14" d="M711.49,731.6c-1.18,4.47,1.5,8.11,6,8.11s9.06-3.64,10.25-8.11-1.49-8.12-6-8.12S712.67,727.12,711.49,731.6Z"/><rect class="cls-16" x="389.46" y="787.26" width="220.29" height="17.06"/><rect class="cls-17" x="599.56" y="787.26" width="250.13" height="17.06"/><path class="cls-18" d="M492.79,746.38l-14,22.09,97.85,7.94s3.3,8.34-2.51,10.08-119.75,0-119.75,0-17.44-5.23-8.14-20.34,28.49-45.93,28.49-45.93Z"/><path class="cls-10" d="M492.79,746.38l-16.86-15.69s-8.45,8.45-16.95,18.51c8.56,3.8,17.8,7.45,27.3,7.49Z"/><path class="cls-11" d="M527.08,673.72c-4.13-3-10.67-.79-18.09,4.2-22.26,15-52.49,55.24-49.92,57.42,9.13,7.73,19.4,15.58,32,16.27,10.47.58,27-20.64,33.14-36C528.58,704.59,536.39,680.41,527.08,673.72Z"/><path class="cls-18" d="M575.76,776.26,600,768.89l4.45-1.35s3.21,11.6-1.52,17.08-25.16,3.43-28.16,1.86S575.76,776.26,575.76,776.26Z"/><polygon class="cls-10" points="615.18 774.01 609.07 787.24 599.74 787.09 604.42 767.54 615.18 774.01"/><path class="cls-18" d="M542.37,637.83s5.33,26.67,1.78,36.16,24.3,2.37,24.3,2.37-1.19-21.93-1.78-26.67S542.37,637.83,542.37,637.83Z"/><path class="cls-10" d="M566.67,649.69c-.59-4.74-24.3-11.86-24.3-11.86s17.24,25,23.11,25.49a10.73,10.73,0,0,0,2.21,0C567.34,657.65,566.94,651.86,566.67,649.69Z"/><path class="cls-18" d="M581.49,611.16s1.77,24.3-1.19,31.41S576.15,655,569,654.43,550.67,643.17,544.15,639s-11.26-8.89-8.89-14.82,5.33-1.18,5.33.59,18.37,4.75,32.6-4.14C576.74,618.43,582.08,614.72,581.49,611.16Z"/><path class="cls-19" d="M491.24,498a53.67,53.67,0,1,1-53.68-53.67A53.67,53.67,0,0,1,491.24,498Z"/><path class="cls-20" d="M485.27,498a47.71,47.71,0,1,1-47.71-47.7A47.71,47.71,0,0,1,485.27,498Z"/><rect class="cls-21" x="436.76" y="453.8" width="1.67" height="1.66"/><rect class="cls-21" x="436.76" y="453.93" width="1.67" height="10.1"/><polygon class="cls-21" points="421.32 468.08 419.88 468.91 414.83 460.17 416.27 459.33 421.32 468.08"/><polygon class="cls-21" points="408.54 480.24 407.71 481.67 398.96 476.62 399.8 475.18 408.54 480.24"/><rect class="cls-21" x="393.38" y="497.11" width="10.09" height="1.67" transform="translate(-0.79 0.63) rotate(-0.09)"/><polygon class="cls-21" points="407.68 514.27 408.51 515.71 399.77 520.76 398.93 519.32 407.68 514.27"/><polygon class="cls-21" points="419.84 527.04 421.27 527.88 416.23 536.63 414.79 535.79 419.84 527.04"/><rect class="cls-21" x="436.69" y="532.07" width="1.66" height="10.09"/><polygon class="cls-21" points="453.87 527.91 455.32 527.08 460.37 535.82 458.92 536.65 453.87 527.91"/><polygon class="cls-21" points="466.59 515.7 467.43 514.26 476.18 519.31 475.35 520.75 466.59 515.7"/><polygon class="cls-21" points="471.62 498.83 471.62 497.16 481.71 497.16 481.71 498.83 471.62 498.83"/><polygon class="cls-21" points="467.52 481.72 466.68 480.27 475.43 475.22 476.26 476.67 467.52 481.72"/><rect class="cls-21" x="452.06" y="463.31" width="10.09" height="1.67" transform="translate(-173.41 627.93) rotate(-60)"/><rect class="cls-21" x="432.24" y="454.04" width="1.67" height="1.66" transform="translate(-44.74 47.25) rotate(-5.94)"/><polygon class="cls-21" points="429.57 456.21 427.95 456.56 427.6 454.94 429.23 454.59 429.57 456.21"/><rect class="cls-21" x="423.38" y="455.92" width="1.66" height="1.67" transform="translate(-120.83 154.25) rotate(-18.09)"/><polygon class="cls-21" points="421.07 458.8 419.55 459.48 418.88 457.95 420.39 457.28 421.07 458.8"/><polygon class="cls-21" points="417.06 460.73 415.63 461.57 414.8 460.12 416.24 459.29 417.06 460.73"/><polygon class="cls-21" points="413.28 463.08 411.94 464.06 410.96 462.71 412.31 461.73 413.28 463.08"/><rect class="cls-21" x="407.76" y="464.92" width="1.67" height="1.66" transform="translate(-206.64 392.59) rotate(-41.96)"/><rect class="cls-21" x="404.55" y="468.12" width="1.66" height="1.67" transform="translate(-214.38 456.61) rotate(-48.02)"/><rect class="cls-21" x="401.7" y="471.65" width="1.66" height="1.66" transform="translate(-216.55 517.38) rotate(-53.72)"/><polygon class="cls-21" points="401.19 475.98 400.36 477.42 398.92 476.58 399.76 475.14 401.19 475.98"/><rect class="cls-21" x="397.16" y="479.49" width="1.67" height="1.66" transform="translate(-202.94 647.62) rotate(-65.91)"/><rect class="cls-21" x="395.54" y="483.72" width="1.66" height="1.66" transform="translate(-187.1 711.41) rotate(-71.96)"/><polygon class="cls-21" points="396.18 488.3 395.84 489.92 394.2 489.57 394.56 487.95 396.18 488.3"/><polygon class="cls-21" points="395.4 492.68 395.22 494.34 393.56 494.15 393.74 492.5 395.4 492.68"/><rect class="cls-21" x="393.41" y="497.12" width="1.66" height="1.66"/><polygon class="cls-21" points="395.22 501.56 395.39 503.22 393.74 503.39 393.56 501.74 395.22 501.56"/><polygon class="cls-21" points="395.84 505.97 396.18 507.6 394.55 507.94 394.19 506.32 395.84 505.97"/><polygon class="cls-21" points="396.89 510.29 397.4 511.87 395.83 512.39 395.31 510.81 396.89 510.29"/><polygon class="cls-21" points="398.41 514.48 399.08 516 397.56 516.67 396.88 515.15 398.41 514.48"/><polygon class="cls-21" points="400.34 518.48 401.17 519.92 399.73 520.75 398.9 519.31 400.34 518.48"/><rect class="cls-21" x="401.68" y="522.59" width="1.67" height="1.66" transform="translate(-230.18 334.49) rotate(-35.81)"/><polygon class="cls-21" points="405.43 525.77 406.53 527.01 405.29 528.13 404.18 526.88 405.43 525.77"/><rect class="cls-21" x="407.73" y="529.33" width="1.67" height="1.66" transform="translate(-258.61 476.56) rotate(-47.79)"/><rect class="cls-21" x="411.26" y="532.18" width="1.66" height="1.67" transform="translate(-261.32 554.04) rotate(-54.08)"/><polygon class="cls-21" points="415.6 534.34 417.03 535.18 416.19 536.62 414.75 535.79 415.6 534.34"/><polygon class="cls-21" points="419.52 536.44 421.04 537.12 420.36 538.64 418.83 537.97 419.52 536.44"/><polygon class="cls-21" points="423.64 538.12 425.22 538.64 424.7 540.22 423.12 539.71 423.64 538.12"/><polygon class="cls-21" points="427.9 539.36 429.54 539.71 429.18 541.34 427.56 540.99 427.9 539.36"/><polygon class="cls-21" points="432.29 540.14 433.94 540.32 433.76 541.98 432.12 541.81 432.29 540.14"/><polygon class="cls-21" points="436.73 540.46 438.39 540.47 438.39 542.13 436.73 542.14 436.73 540.46"/><rect class="cls-21" x="441.26" y="540.23" width="1.66" height="1.67" transform="translate(-52.81 47.84) rotate(-5.85)"/><polygon class="cls-21" points="445.58 539.71 447.2 539.37 447.55 541 445.93 541.35 445.58 539.71"/><polygon class="cls-21" points="449.9 538.65 451.48 538.14 451.99 539.72 450.42 540.24 449.9 538.65"/><polygon class="cls-21" points="454.09 537.14 455.61 536.47 456.28 537.99 454.77 538.67 454.09 537.14"/><polygon class="cls-21" points="458.09 535.19 459.53 534.37 460.36 535.81 458.92 536.65 458.09 535.19"/><polygon class="cls-21" points="461.86 532.85 463.22 531.88 464.19 533.22 462.85 534.2 461.86 532.85"/><polygon class="cls-21" points="465.37 530.12 466.62 529.01 467.73 530.25 466.5 531.36 465.37 530.12"/><polygon class="cls-21" points="468.59 527.04 469.7 525.8 470.94 526.92 469.83 528.15 468.59 527.04"/><rect class="cls-21" x="471.79" y="522.62" width="1.66" height="1.67" transform="translate(-228.76 597.21) rotate(-53.92)"/><polygon class="cls-21" points="473.95 519.96 474.79 518.51 476.23 519.35 475.41 520.79 473.95 519.96"/><polygon class="cls-21" points="476.05 516.03 476.74 514.51 478.25 515.2 477.58 516.71 476.05 516.03"/><polygon class="cls-21" points="477.73 511.91 478.25 510.33 479.82 510.85 479.33 512.42 477.73 511.91"/><polygon class="cls-21" points="478.97 507.64 479.32 506.01 480.94 506.36 480.6 507.98 478.97 507.64"/><polygon class="cls-21" points="479.75 503.26 479.93 501.61 481.58 501.78 481.42 503.43 479.75 503.26"/><polygon class="cls-21" points="480.08 498.82 480.08 497.16 481.74 497.16 481.75 498.82 480.08 498.82"/><polygon class="cls-21" points="479.94 494.37 479.75 492.72 481.41 492.55 481.59 494.19 479.94 494.37"/><polygon class="cls-21" points="479.32 489.97 478.98 488.33 480.6 487.99 480.97 489.61 479.32 489.97"/><polygon class="cls-21" points="478.26 485.64 477.74 484.06 479.33 483.55 479.86 485.12 478.26 485.64"/><polygon class="cls-21" points="476.74 481.46 476.06 479.94 477.59 479.27 478.28 480.78 476.74 481.46"/><polygon class="cls-21" points="474.8 477.46 473.97 476.02 475.42 475.19 476.26 476.62 474.8 477.46"/><polygon class="cls-21" points="472.46 473.68 471.48 472.33 472.84 471.36 473.82 472.69 472.46 473.68"/><polygon class="cls-21" points="469.73 470.17 468.61 468.93 469.87 467.81 470.98 469.04 469.73 470.17"/><polygon class="cls-21" points="466.65 466.96 465.4 465.85 466.53 464.61 467.77 465.71 466.65 466.96"/><polygon class="cls-21" points="463.25 464.09 461.9 463.11 462.89 461.76 464.23 462.73 463.25 464.09"/><rect class="cls-21" x="458.42" y="459.62" width="1.67" height="1.66" transform="translate(-169.31 627.3) rotate(-59.94)"/><polygon class="cls-21" points="455.64 459.49 454.12 458.82 454.81 457.3 456.32 457.96 455.64 459.49"/><polygon class="cls-21" points="451.52 457.81 449.93 457.31 450.46 455.72 452.04 456.22 451.52 457.81"/><polygon class="cls-21" points="447.24 456.57 445.62 456.23 445.98 454.6 447.6 454.94 447.24 456.57"/><polygon class="cls-21" points="442.86 455.8 441.22 455.63 441.39 453.96 443.04 454.13 442.86 455.8"/><polygon class="cls-22" points="433.19 494.56 432.35 496 417.22 487.27 418.06 485.82 433.19 494.56"/><polygon class="cls-22" points="436.19 497.39 432.71 495.39 432.93 495 436.41 497.02 436.19 497.39"/><polygon class="cls-22" points="445.77 492.9 444.81 491.54 469.19 474.16 470.14 475.52 445.77 492.9"/><polygon class="cls-22" points="438.8 496.99 438.55 496.64 445.62 491.6 445.87 491.95 438.8 496.99"/><path class="cls-22" d="M437.52,499.13a1.56,1.56,0,1,1,1.56-1.55A1.55,1.55,0,0,1,437.52,499.13Zm0-2.69a1.14,1.14,0,0,0-1.13,1.14,1.13,1.13,0,0,0,2.26,0A1.14,1.14,0,0,0,437.52,496.44Z"/><path class="cls-23" d="M437.52,498.64a1.06,1.06,0,1,1,1.06-1.06A1.07,1.07,0,0,1,437.52,498.64Zm0-1.69a.63.63,0,0,0-.63.63.63.63,0,0,0,1.25,0A.63.63,0,0,0,437.52,497Z"/><rect class="cls-23" x="437.41" y="498.5" width="0.31" height="36.17"/><rect class="cls-23" x="437.41" y="491.76" width="0.31" height="4.98"/><g class="cls-24"><polygon class="cls-25" points="929.22 734.08 917.8 747.45 913.69 751.3 925.1 737.93 929.22 734.08"/><polygon class="cls-26" points="887.5 711.75 876.09 725.12 873.48 716.88 884.88 703.52 887.5 711.75"/><polygon class="cls-27" points="947.15 763.25 935.74 776.62 925.47 772.82 936.87 759.45 947.15 763.25"/><g class="cls-24"><g class="cls-28"><g class="cls-24"><path class="cls-29" d="M916.63,751l-11.4,13.37c.78-.92.91-2.3.48-4l11.41-13.38c.43,1.68.29,3.06-.49,4"/><path class="cls-30" d="M917.12,747.06l-11.41,13.38a10.13,10.13,0,0,0-.55-1.6l11.42-13.38a10.77,10.77,0,0,1,.54,1.6"/><path class="cls-31" d="M916.58,745.46l-11.42,13.38a14.36,14.36,0,0,0-.69-1.44L915.89,744c.26.49.48,1,.69,1.43"/><path class="cls-32" d="M915.89,744,904.47,757.4a15.44,15.44,0,0,0-.8-1.36l11.42-13.37c.29.46.56.92.8,1.36"/><path class="cls-33" d="M915.09,742.67,903.67,756c-.28-.45-.59-.9-.92-1.36l11.41-13.37c.33.46.64.91.93,1.36"/><path class="cls-34" d="M914.16,741.31l-11.41,13.37c-.34-.47-.71-.95-1.11-1.42l11.41-13.38c.39.48.76,1,1.11,1.43"/><path class="cls-35" d="M913.05,739.88l-11.41,13.38c-.43-.53-.89-1-1.38-1.58l11.42-13.37c.48.53.94,1.05,1.37,1.57"/><path class="cls-36" d="M911.68,738.31l-11.42,13.37c-.57-.62-1.19-1.25-1.84-1.87l-.13-.12,11.41-13.37.13.12c.66.63,1.27,1.25,1.85,1.87"/><path class="cls-37" d="M909.7,736.32l-11.41,13.37a39.9,39.9,0,0,0-7.7-5.69L902,730.64a38.62,38.62,0,0,1,7.7,5.68"/><path class="cls-36" d="M902,730.64,890.59,744c-.76-.41-1.51-.79-2.22-1.11l11.4-13.36c.73.32,1.47.69,2.23,1.11"/><path class="cls-35" d="M899.77,729.53l-11.4,13.36-.26-.1c-.48-.21-1-.4-1.41-.55l11.41-13.38c.46.16.92.35,1.4.56l.26.11"/><path class="cls-34" d="M898.11,728.86,886.7,742.24c-.49-.17-1-.32-1.41-.43l11.41-13.38c.45.12.92.27,1.41.43"/><path class="cls-33" d="M896.7,728.43l-11.41,13.38a11.33,11.33,0,0,0-1.26-.26l11.4-13.37c.4.06.83.15,1.27.25"/><path class="cls-32" d="M895.43,728.18,884,741.55a10.07,10.07,0,0,0-1.18-.1l11.41-13.36a8,8,0,0,1,1.17.09"/><path class="cls-31" d="M894.26,728.09l-11.41,13.36a5.71,5.71,0,0,0-1.12.09l11.4-13.38a6.86,6.86,0,0,1,1.13-.07"/><path class="cls-30" d="M893.13,728.16l-11.4,13.38a3.79,3.79,0,0,0-1.14.35L892,728.53a4.05,4.05,0,0,1,1.13-.37"/><path class="cls-29" d="M892,728.53l-11.41,13.36-.26.15a2.36,2.36,0,0,0-.67.58l11.4-13.37a2.72,2.72,0,0,1,.68-.58l.26-.14"/></g></g></g><polygon class="cls-38" points="871.9 714.19 860.48 727.56 851.17 718.11 862.58 704.74 871.9 714.19"/><polygon class="cls-39" points="939.72 778.87 928.3 792.24 917.89 783.01 929.3 769.64 939.72 778.87"/><polygon class="cls-40" points="945.12 775.54 933.71 788.91 928.3 792.24 939.72 778.87 945.12 775.54"/><g class="cls-24"><g class="cls-41"><g class="cls-24"><path class="cls-29" d="M870.83,720.84l-11.42,13.38a9.89,9.89,0,0,1,1.07-6.66l11.42-13.37a9.72,9.72,0,0,0-1.07,6.65"/></g></g></g><g class="cls-24"><g class="cls-42"><g class="cls-24"><path class="cls-31" d="M929.3,769.64,917.89,783a15.46,15.46,0,0,1-1.95.09l11.41-13.36a17.42,17.42,0,0,0,1.95-.1"/><path class="cls-32" d="M927.35,769.74,915.94,783.1a22,22,0,0,1-2.83-.23l11.41-13.38a22,22,0,0,0,2.83.25"/><path class="cls-33" d="M924.52,769.49l-11.41,13.38q-1.49-.23-3.09-.63l11.41-13.36c1.06.26,2.1.47,3.09.61"/><path class="cls-34" d="M921.43,768.88,910,782.24l-1.24-.33,11.42-13.37,1.23.34"/></g></g></g><polygon class="cls-43" points="875 731.83 863.59 745.21 853.05 740.07 864.45 726.71 875 731.83"/><polygon class="cls-44" points="864.45 726.71 853.05 740.07 849.14 730.4 860.55 717.03 864.45 726.71"/><g class="cls-24"><g class="cls-45"><g class="cls-24"><path class="cls-35" d="M882.6,742.35l-11.41,13.38c-.46-.54-.92-1.07-1.35-1.6l11.41-13.38c.44.53.89,1.07,1.35,1.6"/><path class="cls-34" d="M881.25,740.75l-11.41,13.38c-1-1.19-1.87-2.35-2.71-3.51l11.41-13.36c.84,1.15,1.75,2.32,2.71,3.49"/><path class="cls-33" d="M878.54,737.26l-11.41,13.36c-.82-1.12-1.57-2.22-2.28-3.33l11.42-13.37c.7,1.1,1.45,2.21,2.27,3.34"/><path class="cls-32" d="M876.27,733.92l-11.42,13.37c-.44-.7-.87-1.4-1.26-2.08L875,731.83c.4.69.82,1.39,1.27,2.09"/></g></g></g><g class="cls-24"><g class="cls-46"><g class="cls-24"><path class="cls-37" d="M906.82,762.57l-11.41,13.37a92.79,92.79,0,0,1-11.81-8.22L895,754.36a95.18,95.18,0,0,0,11.81,8.21"/></g></g></g><polygon class="cls-47" points="922.81 776.77 911.4 790.14 899.86 785.18 911.27 771.8 922.81 776.77"/><polygon class="cls-48" points="911.27 771.8 899.86 785.18 895.41 775.94 906.82 762.57 911.27 771.8"/><polygon class="cls-49" points="889.41 756.55 878 769.92 867.08 759.57 878.48 746.21 889.41 756.55"/><polygon class="cls-50" points="895.01 754.36 883.6 767.72 878 769.92 889.41 756.55 895.01 754.36"/><path class="cls-51" d="M947.15,763.25l-10.28-3.8a9.85,9.85,0,0,1-1.07,6.64l9.32,9.45-5.4,3.33-10.42-9.23a24.21,24.21,0,0,1-9.1-1.1l2.61,8.23-11.54-5-4.45-9.23A95.18,95.18,0,0,1,895,754.36l-5.6,2.19-10.93-10.34,4.12-3.86a67.82,67.82,0,0,1-7.6-10.52l-10.55-5.12-3.9-9.68,10.28,3.81a9.72,9.72,0,0,1,1.07-6.65l-9.32-9.45,5.39-3.33,10.43,9.23a24.42,24.42,0,0,1,9.1,1.11l-2.62-8.23,11.54,5,4.46,9.25a94.71,94.71,0,0,1,11.82,8.22l5.6-2.19,10.92,10.33-4.12,3.85a69.27,69.27,0,0,1,7.6,10.52l10.54,5.12ZM916,751.61c3.3-2,.57-8.83-6.13-15.17a36.66,36.66,0,0,0-10.32-7c-3.27-1.41-6.12-1.77-7.77-.75-3.3,2.05-.56,8.84,6.13,15.17a37,37,0,0,0,10.31,7c3.27,1.41,6.13,1.76,7.78.74"/></g><path class="cls-52" d="M315.25,716.48c-.34-20.87-13.19-37.58-36-37.21s-35.07,17.5-34.73,38.38c.27,16.28,11.78,21.74,21.69,35.09,2,2.64.22,13.16.22,13.16l28.47-.47s-2.09-10.46-.22-13.16C304.19,738.6,315.52,732.77,315.25,716.48Z"/><path class="cls-53" d="M278.24,758.74c-13.69-18.44-29.6-26-30-48.49a66.77,66.77,0,0,1,1.22-14,42.86,42.86,0,0,0-4.93,21.4c.27,16.28,11.78,21.74,21.69,35.09,2,2.64.22,13.16.22,13.16l13.06-.21C279.52,762.75,279.21,760.05,278.24,758.74Z"/><path class="cls-54" d="M266,765.91l.06,3.92a11.78,11.78,0,0,0,12,11.59l5.89-.09a11.78,11.78,0,0,0,11.58-12l-.06-3.92Z"/><polyline class="cls-55" points="264.29 716.1 268.69 710.13 273.31 715.95 277.72 709.98 282.33 715.8 286.75 709.84 291.37 715.65 295.79 709.69 300.42 715.5"/><polyline class="cls-55" points="269.58 721.16 276.42 740.52 276.83 765.24"/><polyline class="cls-55" points="291.67 720.8 285.46 740.38 285.87 765.09"/><rect class="cls-56" x="274.05" y="767.65" width="18.41" height="3.06" transform="translate(-12.52 4.73) rotate(-0.94)"/><rect class="cls-56" x="274.14" y="773.22" width="13.25" height="3.06" transform="translate(-12.61 4.69) rotate(-0.94)"/><polygon class="cls-17" points="367.57 631.38 312.37 611.93 331.81 556.74 367.57 631.38"/><path class="cls-17" d="M274,587.75a43.38,43.38,0,1,1,43.38,43.39A43.38,43.38,0,0,1,274,587.75Z"/><path class="cls-20" d="M325.94,606.51a27.24,27.24,0,0,1-27.22-27.21v-6.81a3.41,3.41,0,0,1,3.4-3.4h6.81a1.5,1.5,0,0,1,1.22.41c.46.47.5,1.27.48,2.54v7.7c0,1.28,0,2.09-.48,2.56a1.47,1.47,0,0,1-1.14.39l-1.89,0,.24,1.86a15.28,15.28,0,0,0,13.27,13.28l1.87.23,0-1.88a1.54,1.54,0,0,1,.4-1.14,2.93,2.93,0,0,1,2.11-.49h8.58a3,3,0,0,1,2.12.49,1.56,1.56,0,0,1,.39,1.22v6.8a3.4,3.4,0,0,1-3.39,3.4Z"/><path class="cls-8" d="M740.64,449.79A44.34,44.34,0,1,0,785,494.13,44.4,44.4,0,0,0,740.64,449.79Z"/><path class="cls-19" d="M742.58,449.84a44.34,44.34,0,0,1-19.12,84.34c-.65,0-1.3,0-2,0a44.34,44.34,0,1,0,21.07-84.29Z"/><path class="cls-57" d="M783.06,506.19c-.59,0-1.35.29-1.36.48s-.81.57-1.09.67a3.56,3.56,0,0,0-.89,1.21c-.11.27-.77.19-1,.29s-.74.52-.75.76-.13.21-.3-.06l-.32.33-.38.43a3.41,3.41,0,0,1-1.19,1.61c-.24.07-.29,1.27-.29,1.74a2.26,2.26,0,0,0,.42,1.33l.05.38.09.76a1.36,1.36,0,0,0,.44,1.22,6,6,0,0,0,1.65-.3,2.53,2.53,0,0,0,.59-.24,44,44,0,0,0,4.57-10.59A.62.62,0,0,0,783.06,506.19Z"/><path class="cls-57" d="M709.84,507.32c-.06.13.73.94,1,1.21a8,8,0,0,1,1.09,2.05,3.41,3.41,0,0,1,0,1.32c0,.16.15.54.18.69a11,11,0,0,0-.15,2c.11.53-.62,2.16-.6,3s.38,1.88.53,1.8.2.74-.05.84-.54.75-.4.78,0,.67,0,.92.26,2,.3,2.37a13.78,13.78,0,0,0,.77,1.79c.13.35.26,1,.31,1.11a1.79,1.79,0,0,0,.12.21,3.42,3.42,0,0,1,.63.29,3.93,3.93,0,0,0,1.4,0c.31-.06,0-.35-.11-.5s-.26-.9-.43-1-.22-1-.08-1.24.7-.54.77-.72.08-1-.07-1.13,0-1.12-.08-1.62.87-1,.93-1.36,1.12-.82,1.37-1a2.6,2.6,0,0,0,.34-1.58c-.12-.24.38-.44.62-.44s.47-.17.56-.17.36-.5.51-.62.44-1.32.71-1.51a2.06,2.06,0,0,0,.48-1.14,3.45,3.45,0,0,1,.54-1,6.2,6.2,0,0,1,1.31-.72,8.62,8.62,0,0,0,.52-2.24,13.88,13.88,0,0,1,.38-1.53c0-.19.34-.35.4-.41a10.69,10.69,0,0,1,.45-1,4.9,4.9,0,0,0,.72-1,6.2,6.2,0,0,1,.18-.88v-1c-.18-.48-.71-1.08-.85-.95s-.75-.43-1.07-.54a5.71,5.71,0,0,0-1.29-.22c-.2,0-.89-.56-1.2-.65s-1.08-.25-1.23-.34-.33-1.26-1-1.64a7,7,0,0,1-1.87-1.6c-.11-.32-1.33-1-1.7-1.22a1.5,1.5,0,0,0-1-.17c-.07.07-.55-.64-.78-.84s-1-.36-1-.18-.52.08-.63-.07-.49.06-.66.12-.78,1-1.06,1.2-.61-.21-.79-.29a2,2,0,0,0-1.07.28c-.19.13-.62-1-.52-1.49s-.46-1.52-.89-1.55-.57-1.09-.48-1.49-.78-.64-1-.66-.76.52-.85.79-2-.36-1.82-1.54a5.45,5.45,0,0,1,1.39-2.54,3.41,3.41,0,0,1,1.77-.05.47.47,0,0,0,.58-.08,3.65,3.65,0,0,1,1.38.14c.31.13.75,1.31,1.06,1.46s.44-.77.5-1a2.65,2.65,0,0,0-.23-.95,3.18,3.18,0,0,1,1-1.84,2.23,2.23,0,0,0,.94-1.19c0-.14.39-.25.5-.32s0-1.21.17-1.47a5.79,5.79,0,0,1,1.38-.91,1.11,1.11,0,0,0,.4-1c-.1-.13.74-.85,1.17-1s.82.25.71.31c.09,0,.69-.36,1-.53s0-.74-.19-.9-.07-.79.16-.85.43-.6.37-.72,1,.09,1.35-.2.12.7-.17,1.1.21.76.39.69.38.21.42.32.43-.11.68,0,.42-.35.44-.57-.62-.66-.72-.92a15.39,15.39,0,0,1-.15-2.07c0-.31-.43-.81-.57-.71s-.4-.8-.61-1a1.14,1.14,0,0,1-.26-.76c0-.14-.73-.91-.9-1.27s-.43-.28-.44-.12-.53.19-.74.17-.38-.84-.38-1.14-1-.36-1.11-.61-.78-.13-.88-.3a1,1,0,0,0-.75-.26c-.11.06-.06,2.26-.16,2.86s-.61,1.12-.8,1.1-.07.43.06.39-.36.65-.42,1.1-.53,0-.6-.43-.52-1-.61-.83-.39-.16-.53-.07-1-.5-1.32-.69-.54-1.23-.73-1.32,0-.22,0-.38.66-.77.86-1a12.23,12.23,0,0,1,1.22-1.4,1.24,1.24,0,0,0,.47-.85,7.3,7.3,0,0,1,1.6-.63c.35-.12.65-1.1.7-1.38a1.15,1.15,0,0,0-.38-.88c-.17-.07.48-.09.7,0s.89-.21,1.15-.06.8.45,1.18.7l-.08.71-.16,1.22c-1,.42-1.31,1.16-1,1.14a8.36,8.36,0,0,1,2.45,1c.46.33.61-.48.74-.75a2,2,0,0,0,0-1.2c-.12-.16.53-.1.7.07s.4-.18.54-.24.21-.73.29-.87-.32-.27-.32-.43-.75-.49-1-.6-.3-.62-.18-.71-.08-.73-.2-.95-.88-.38-1.14-.38-.52-.6-.66-.68a4,4,0,0,0-1.37-.12c-.25.07-.69-.7-1.1-.47s-.84-.27-1-.37-1.15.93-1.14,1.65a2,2,0,0,0,.53,1.45c.15,0,0,.68-.2.86s-.57-.19-.42-.36-.42-.92-.61-1.23a2.69,2.69,0,0,0-1-.56l-.58.66a1.59,1.59,0,0,1,.07.86c-.14.45-.51.51-.54.32s-.19-.15-.41-.18a44.23,44.23,0,0,0-10,23.18,2.52,2.52,0,0,1,.52.74c.13.39.8.64.93.73s.17-.75.08-1,.16-.35.16-.19a5.65,5.65,0,0,0,.84,1.15c.21.26.43,1.95.64,2.31a7.87,7.87,0,0,0,2.78,1.25,3.36,3.36,0,0,1,1.55,1c.12.2.95.3,1.13.38s.61.65.79.77a1,1,0,0,1,.31.55c0,.08,1.1.5,1.38.8a.58.58,0,0,0,.79.08c.08-.12.3.59.41.83a1.6,1.6,0,0,1,.06.95,13.63,13.63,0,0,1-.44,1.43A5.73,5.73,0,0,0,708,503a2.55,2.55,0,0,0,.82,1.08c.23.09.13.43,0,.46s-.09,1.56.32,1.79A1.56,1.56,0,0,1,709.84,507.32Z"/><path class="cls-57" d="M715.06,480.32h0S715,480.33,715.06,480.32Z"/><path class="cls-57" d="M712,461.61c.53-.09,1.41-.23,1.47-.38a.89.89,0,0,0,0-.62h.26c.2,0,.54-1.1.75-1.36a10.34,10.34,0,0,1,1.71-.81,10.81,10.81,0,0,1,1.17-.86c.24-.07.6-.64.54-.75s.82-.65,1.16-.78.5-.54.38-.56-1.93,1-3.63,1.93a43.47,43.47,0,0,0-5.45,4.37C710.86,461.77,711.68,461.67,712,461.61Z"/><path class="cls-57" d="M744.1,516.8a16.69,16.69,0,0,0,1.85-2,5.06,5.06,0,0,0,.61-1.63,1.55,1.55,0,0,1,.73-.66c.18-.06.75-2.44,1.25-3a8.7,8.7,0,0,0,1-4,12.65,12.65,0,0,1,.44-3,4,4,0,0,1,1-1.31,30.22,30.22,0,0,0,1.8-2.6,5.85,5.85,0,0,0,.69-2.4c-.08-.34-.93-.57-1.08-.41a2.81,2.81,0,0,1-1.21.3c-.26,0-.85-1.36-1.21-1.64s-.69-1.85-.9-2.15-.8-1-1-1.22-.22-1-.26-1.23.35.15.42.48a16,16,0,0,0,1.3,2.12c.29.45,1.06,1.88,1.25,2.33s1.9.22,2.45,0a3.65,3.65,0,0,0,1.27-.86c0-.16.91-.56,1.15-.76s.47-1.22.62-1.38-.12-1.15-.31-1.44a1.56,1.56,0,0,0-1.24-.41c-.18.12-.56-.65-.7-.93s-.81-.64-.88-.83.18-.5.29-.57a5.84,5.84,0,0,1,1.71,1.25,10.61,10.61,0,0,1,.84,1.37,1.8,1.8,0,0,0,1.27.05.34.34,0,0,1,.55.09l.31-.05,1.08-.17a2.18,2.18,0,0,1,.65,1.14,1,1,0,0,0,.52.6c.21.06.36.76.42.94a15,15,0,0,1,.81,1.68,11.49,11.49,0,0,0,.78,1.54,3.61,3.61,0,0,1,.23,1.09.79.79,0,0,0,.64.53c.24,0,.74-1.57.86-2.14a1.62,1.62,0,0,1,.62-1.05c.11,0,.2-.32.2-.45s.63-.1.68-.27.24-1.17.47-1.33a10.22,10.22,0,0,1,1.29-.77c.28-.1,1,.52,1.15.8a2.48,2.48,0,0,1,.24,1.13c-.06.13.37.75.75.74s.5.48.51.66.51.68.61.91a1.91,1.91,0,0,1,0,1,3.45,3.45,0,0,0,.06,1.18,10.87,10.87,0,0,0,1.67,1.76c.43.36.64-.73.41-1.07s-1-1.12-1.15-1.35a2.83,2.83,0,0,1-.15-1.44c.07-.27.67.14.91.33a1.93,1.93,0,0,1,.59.76c0,.14,1.57-.73,1.62-1.68a10.1,10.1,0,0,1,.62-2.27c.06-.25-.15-.59-.28-.6s.23-.72.67-.71,1.49-1.16,1.74-1.62a3.58,3.58,0,0,1,.8-.91,7.33,7.33,0,0,0,.47-1.61,4.46,4.46,0,0,0-.29-1.4,4.78,4.78,0,0,0-.51-.95,2,2,0,0,1-.13-.93c.06-.11.45-.24.5-.34s.49-.59.45-.81.28.28.49.46.43,1.3.68,1.42,1.29-1.19,1.17-2a2.64,2.64,0,0,1,.55-2.05,5.51,5.51,0,0,0,1-1.26,44.34,44.34,0,0,0-10.92-17.21h-.17l-.38-.08c-.63-.13-1-.82-.89-1a.51.51,0,0,0,0-.3c-.35-.32-.72-.63-1.08-.94h-.81a3.46,3.46,0,0,1-1.35-.44c-.15-.14-.65.14-.68.41s-.9.4-1,.61a.46.46,0,0,1-.62.11c-.09-.12-.89.28-1.29.34a7,7,0,0,0-1.33.46,2.14,2.14,0,0,0-.67.67,2,2,0,0,1-.75.53c-.16.06-.13.81.08.92s-.39-.09-.66-.23-.57.32-.65.47-.33-.09-.32-.32-.67-.4-.75-.22-.56-.06-.75-.15-1,.76-1.34,1.07a3.67,3.67,0,0,1-2.07.44c-.27-.12-.55.66-.31.71s-.6,0-1.06,0a7.59,7.59,0,0,0-2.12.81.34.34,0,0,1-.57-.23c0-.18-.51-.35-.66-.4s-.45,1-.71,1.2-.59-.82-1.21-1-1.6-.77-1.88-.84a4,4,0,0,1-1-.82,2.74,2.74,0,0,0-1.21-.31,3.9,3.9,0,0,0-1.3.66c-.22.18-.56.15-.67.22s-1,1-1.4,1.26a11.18,11.18,0,0,0-1.2,1.82.86.86,0,0,1-.63.35c-.12,0-.22.34-.22.46s-1.07.68-1.18,1.16a10.76,10.76,0,0,0,.1,2c0,.4.39,1.18.69,1.19s.15.68.07.86.19.39.17.55-.75.37-1,.46a1.8,1.8,0,0,0-.65.8c0,.17-.75.29-1,.52.06-.17.14-.4.2-.52a.86.86,0,0,0-.16-.81c-.11-.09-.17-1.38-.35-1.66a5.48,5.48,0,0,0-.74-.83c-.11-.09.07-.43.14-.58s-.6-.23-.78-.11-.29,1.37-.36,1.72a1.12,1.12,0,0,0,.44.91c.11,0,.08.66-.15.68s-.46.94-.34,1.15-.16.62-.3.72.9,0,1.37,0,.84.2.79.24-.91.16-1.06.37-.73.59-.84.75.19.5.44.48.52.85.72,1,.11.61,0,.73-1.25-.09-1.69,0-1,1-1,1.38a7.77,7.77,0,0,0,.14,1.64c0,.28,1,.45,1.15.59s1.07,0,1.25.09.77-.9.9-1.35,1.05-1.29,1.24-1.6,1.21-.27,1.45-.43.12.77.23,1.27,1.09.45.95,0,.09-.68.13-.51,1,.55,1.15.82.12.84-.08.83-.22.63,0,.7.51-.71.74-.83.43-.6.31-.64.21-.47.34-.33a5.65,5.65,0,0,0-.89-1.35c-.4-.39-.12-.22.62.4l.51.71c.1.13.23.52.32.66l.12.21a5,5,0,0,1,.19,1.12.82.82,0,0,0,.64.54c.24,0,.42.11.38.12s.16.49.4.49.34-.61.1-.62-.21-.91-.24-1.3.18-.72.26-.72,0,.8,0,1a2.41,2.41,0,0,0,.22.81l.25.19.56.43c.8-.24,1.88,0,1.84.11s.59.21.63-.06.06,0,.06.19-.52.9-.6,1.23-2,.11-2.75.05-2,.2-2.06.45-1.33-.55-1.91-.79-1-1.11-1.13-1.23.1-.39,0-.56-1.36-.21-1.73-.07-2.34.34-2.8.55a2.43,2.43,0,0,1-1.37,0c-.22,0-.74.6-1,.71a3.52,3.52,0,0,0-.74,2l-.35.7-.23.44a10.08,10.08,0,0,0-1.57,2.45,15.63,15.63,0,0,0-.38,3.48,10.86,10.86,0,0,0,.89,2.94,7,7,0,0,0,1.79,1.73,6.37,6.37,0,0,0,2.12.27,1.3,1.3,0,0,0,1.08-.9l.63.07.28,0c0,.34.94.63,1.17.75a1.92,1.92,0,0,0,1,0c.18-.05.38,1.58.25,2.05a9.42,9.42,0,0,0,.45,2.62c.14.49.7,1.85.76,2.34a22.9,22.9,0,0,1-.4,2.68,10.46,10.46,0,0,0,.92,2.71,9.08,9.08,0,0,1,.36,2c0,.28.84,1.91,1,2.59S743.53,517.14,744.1,516.8Z"/><path class="cls-57" d="M780.65,496.67c.06.12.59-.3.91-.35s.52-.91.27-1-.56-.73-.75-.81-.53.29-.51.55-.58.37-.7.58-.1.38,0,.35S780.6,496.55,780.65,496.67Z"/><path class="cls-57" d="M780,501.33c.16-.06,0-.91-.35-1s-1.25,1.12-1.08,1.8.37.64.47.49.64.1.8.15.16-.11,0-.36A1.25,1.25,0,0,1,780,501.33Z"/><path class="cls-57" d="M778.18,500.5c0-.3.1-1.25.15-1.43s-.51-.74-.79-.83-1.17,1.84-1.82,2.18a1.82,1.82,0,0,0-.7,1.8c.17.28,1.51.42,1.74.63s.49,0,.64-.07.09-.12,0-.16.47-.59.54-.94S778.15,500.8,778.18,500.5Z"/><path class="cls-57" d="M774.54,503.73a1,1,0,0,0-1.14.3c0,.2,1.94.51,2.6.69s1.07.24.91.12S775,503.92,774.54,503.73Z"/><path class="cls-57" d="M778.56,490.83c.16-.22-.22-1.26-.41-1s0,.84,0,1.05S778.41,491.05,778.56,490.83Z"/><path class="cls-57" d="M779.77,493.06c.11-.27-.15-.57-.58-.65s-.36,1.2-.18,1.36S779.65,493.33,779.77,493.06Z"/><path class="cls-57" d="M782,501.06c.51.35,1.65.19,1.69-.51C783.18,500.23,782,500.28,782,501.06Z"/><path class="cls-57" d="M781.72,485.23a.7.7,0,0,0-.26.68h-.09c-.17,0-.19.68,0,.79s.61-.52.84-.68a1.28,1.28,0,0,1,.75-.2,2,2,0,0,0,.88-.26.8.8,0,0,0,.25-.3c-.1-.5-.22-1-.33-1.47a6.36,6.36,0,0,0-.57.43C783,484.42,782,485,781.72,485.23Z"/><path class="cls-57" d="M770,498.84Z"/><path class="cls-57" d="M773.19,501.82a5.4,5.4,0,0,0-1.36-1.58l-.22-.35-.23-.39c-.21-.43-.84-.75-.9-.88s-.26.37-.48.23l.69.48c.6.43,1.74,3.31,2,3.52S773.37,502.24,773.19,501.82Z"/><path class="cls-57" d="M764,497.15c-.16.33.84,1,.93.87a1.91,1.91,0,0,0-.32-1.14C764.48,496.7,764.2,496.83,764,497.15Z"/><path class="cls-57" d="M750.64,512.58c0,.34.74.62.94.56a4,4,0,0,0,.84-1.39,6.85,6.85,0,0,0,.14-1.1,1,1,0,0,1,.18-.54,1.94,1.94,0,0,0,.28-.78,21.51,21.51,0,0,0-.43-2.53c0-.32-.38.16-.47.48s-1,1-1.2,1.26a2.78,2.78,0,0,0-.35,1.37,2,2,0,0,1-.17,1A10.29,10.29,0,0,0,750.64,512.58Z"/><path class="cls-57" d="M718,525.18h.61C718.67,524.52,717.92,524.64,718,525.18Z"/><path class="cls-57" d="M734.2,456.57a2,2,0,0,1-1-.22,2.71,2.71,0,0,0-1.39-.11c-.29.13-.09-.69.31-.78s0-.65-.36-.65-1.48-.16-1.72-.11-.73-.17-.91-.19a19.62,19.62,0,0,1-2,.34,16.13,16.13,0,0,0-2.36.12c-.33.09-.56.71-.51.93s-1.41.21-1.87.22a15.49,15.49,0,0,0-3.54.88c-.64.34-1.14,1.24-.93,1.26s-.35.53-.7.64-1.16.18-1.35.37.21.32.28.45.31-.11.52,0,.93.17,1.12.25-.61.22-1,.25-.29.76,0,.86,1.09.21,1.17.08.93.14,1.32.19.67,1,.79,1.21a3.23,3.23,0,0,1,.12,1.15c0,.21.67.6.8.46s.09.33-.19.31-.11.79.25.9.11.62-.1.77-.08.63-.29.8.72,1.79.72,2.62.52,1.51.72,1.51.88.17,1,.35.43-.13.56-.26a8.52,8.52,0,0,0,.61-.89,23.1,23.1,0,0,0,.75-2.2c.06-.18.85-.07,1-.16a7.4,7.4,0,0,0,.83-.61c.16-.12,1.26-.6,1.58-.82s.81-1.16,1-1.36-.12-.15-.42-.34a.32.32,0,0,1-.08-.52,3.36,3.36,0,0,1,1.3.26c.31.12.9-.3.68-.47s-.11-.16,0-.09.22-.55.1-.66.92-.87.73-1.58.29-1.44.56-1.45.2-.8-.13-.88,0-.14.1-.25a1.67,1.67,0,0,0,.21-1c-.07-.14.51-.3.61-.45a2.46,2.46,0,0,1,1-.53C734.32,457.17,734.45,456.55,734.2,456.57Z"/><path class="cls-57" d="M740,457.16c-.31-.11-1,.24-.87.44s-.52-.26-.94,0-.54,1-.35,1.06.33.68.34.79.82,0,1-.14.18.6,0,.81.08.62.3.65.54.57.77.57.63-.91.72-1.24.87-.07,1.23,0,.48-1.24.09-1.44-.86-.11-1-.25a1.31,1.31,0,0,0-.61-.33C740.46,458.05,740.29,457.26,740,457.16Z"/><path class="cls-57" d="M743.07,457.8a2.25,2.25,0,0,0,1.48-.57c.16-.15-1.73-.53-2.45-.56s-1.3.08-1.29.22A7,7,0,0,0,743.07,457.8Z"/><path class="cls-57" d="M731.66,474.72c-.16-.07-.26.55-.22.78s.61.22.86.17a.45.45,0,0,0,.42-.44c0-.2-.35-1.12-.49-1.12S731.82,474.79,731.66,474.72Z"/><path class="cls-57" d="M733.51,467.52c-.13-.22-1.11-.2-1.35-.22a2.56,2.56,0,0,1-1.11-.41c-.14-.15-.24.61-.47.71s.11.24.2.16,0,.39-.1.55.65.28.73.52a.63.63,0,0,0,.69.36c.3-.05.9-.36,1.11-.38S733.64,467.75,733.51,467.52Z"/><path class="cls-57" d="M754.12,461.9c.33-.34,1.72-.79,1.88-1.14a.45.45,0,0,0-.24-.64c-.14,0-.31.18-.34.23s-1.63.44-2.12.67a5.5,5.5,0,0,0-1.26.81c-.2.21-.54,1.78-.66,2s.53.82.82,1a1.11,1.11,0,0,0,.79,0,4.19,4.19,0,0,0-.3-1.52C752.54,462.94,753.78,462.24,754.12,461.9Z"/><path class="cls-57" d="M752.41,457.79c.53.52.81-.23,1.39-.16C753.79,456.57,752.36,456.94,752.41,457.79Z"/><path class="cls-57" d="M762.6,458c0,.19,1.45.35,1.88.27s-.09-.74-.72-.7S762.62,457.79,762.6,458Z"/><path class="cls-57" d="M709.55,468.85c-.15.15,0,.87.27.88s.77-1.07,1.12-.86.6.31.55.19a11.45,11.45,0,0,0-1.21-.64C710.15,468.34,709.7,468.71,709.55,468.85Z"/><path class="cls-57" d="M713.3,493.18c0,.12.63.1.74-.09s.05-.36-.13-.36S713.3,493.06,713.3,493.18Z"/><path class="cls-57" d="M710.46,492.13c.3-.06.15.44.23.61s.8.32.95.44.52-.22.82-.19-.1-1-.59-1-.88-.44-1-.5A8,8,0,0,1,710,491a6.91,6.91,0,0,0-1.84-.24,1.37,1.37,0,0,0-.95.57c-.07.15.67.24.89.13a2.17,2.17,0,0,1,1.4.36A1.09,1.09,0,0,0,710.46,492.13Z"/><path class="cls-57" d="M709.11,493.18c0,.12.65,0,.8.05s.16-.1,0-.24S709.11,493.06,709.11,493.18Z"/><path class="cls-57" d="M709.57,489.86c-.17-.07-.3.2-.3.32a.22.22,0,0,0,.2.23C709.59,490.41,709.74,489.93,709.57,489.86Z"/><path class="cls-57" d="M710.92,490c0-.13-.33-.23-.41-.23s-.14.22-.13.47S711,490.09,710.92,490Z"/><path class="cls-57" d="M711.9,491.47c.25-.13.29-.45.13-.43s-.44-.44-.6-.51-.31.28-.31.43.1.25.21.22S711.63,491.59,711.9,491.47Z"/><path class="cls-57" d="M783.93,501.59c-.13.07-.78.15-.87,0s-.21.27-.35.33-.06.41.15.3.76.27,1.26.58c.09-.5.18-1,.26-1.5C784.2,501.42,784,501.55,783.93,501.59Z"/><path class="cls-58" d="M713.5,460.71s-.23.09-.15.17S713.58,460.81,713.5,460.71Z"/><path class="cls-58" d="M718.42,475.35c0-.05-.23.09-.16.17S718.49,475.44,718.42,475.35Z"/><path class="cls-59" d="M724.17,506.68a4.9,4.9,0,0,0,.72-1,6.2,6.2,0,0,1,.18-.88v-1c-.18-.48-.71-1.08-.85-.95s-.75-.43-1.07-.54a5.71,5.71,0,0,0-1.29-.22c-.2,0-.89-.56-1.2-.65s-1.08-.25-1.23-.34-.33-1.26-1-1.64a7,7,0,0,1-1.87-1.6c-.11-.32-1.33-1-1.7-1.22a1.5,1.5,0,0,0-1-.17c-.07.07-.55-.64-.78-.84s-1-.36-1-.18-.52.08-.63-.07-.49.06-.66.12-.78,1-1.06,1.2-.61-.21-.79-.29a2,2,0,0,0-1.07.28c-.19.13-.62-1-.52-1.49s-.46-1.52-.89-1.55-.57-1.09-.48-1.49-.78-.64-1-.66-.76.52-.85.79-2-.36-1.82-1.54a5.45,5.45,0,0,1,1.39-2.54,3.41,3.41,0,0,1,1.77-.05.47.47,0,0,0,.58-.08,3.65,3.65,0,0,1,1.38.14c.31.13.75,1.31,1.06,1.46s.44-.77.5-1a2.65,2.65,0,0,0-.23-.95,3.18,3.18,0,0,1,1-1.84,2.23,2.23,0,0,0,.94-1.19c0-.14.39-.25.5-.32s0-1.21.17-1.47a5.79,5.79,0,0,1,1.38-.91,1.11,1.11,0,0,0,.4-1c-.1-.13.74-.85,1.17-1s.82.25.71.31c.09,0,.69-.36,1-.53s0-.74-.19-.9-.07-.79.16-.85.43-.6.37-.72,1,.09,1.35-.2.12.7-.17,1.1.21.76.39.69.38.21.42.32.43-.11.68,0,.42-.35.44-.57-.62-.66-.72-.92a15.39,15.39,0,0,1-.15-2.07c0-.31-.43-.81-.57-.71s-.4-.8-.61-1a1.14,1.14,0,0,1-.26-.76c0-.14-.73-.91-.9-1.27s-.43-.28-.44-.12-.53.19-.74.17-.38-.84-.38-1.14-1-.36-1.11-.61-.78-.13-.88-.3a1,1,0,0,0-.75-.26c-.11.06-.06,2.26-.16,2.86s-.61,1.12-.8,1.1-.07.43.06.39-.36.65-.42,1.1-.53,0-.6-.43-.52-1-.61-.83-.39-.16-.53-.07-1-.5-1.32-.69-.54-1.23-.73-1.32,0-.22,0-.38.66-.77.86-1a12.23,12.23,0,0,1,1.22-1.4,1.24,1.24,0,0,0,.47-.85,7.3,7.3,0,0,1,1.6-.63c.35-.12.65-1.1.7-1.38a1.15,1.15,0,0,0-.38-.88c-.17-.07.48-.09.7,0s.89-.21,1.15-.06.8.45,1.18.7l-.08.71-.16,1.22c-1,.42-1.31,1.16-1,1.14a8.36,8.36,0,0,1,2.45,1c.46.33.61-.48.74-.75a2,2,0,0,0,0-1.2c-.12-.16.53-.1.7.07s.4-.18.54-.24.21-.73.29-.87-.32-.27-.32-.43-.75-.49-1-.6-.3-.62-.18-.71-.08-.73-.2-.95-.88-.38-1.14-.38-.52-.6-.66-.68a4,4,0,0,0-1.37-.12c-.25.07-.69-.7-1.1-.47s-.84-.27-1-.37-1.15.93-1.14,1.65a2,2,0,0,0,.53,1.45c.15,0,0,.68-.2.86s-.57-.19-.42-.36-.42-.92-.61-1.23a2.69,2.69,0,0,0-1-.56l-.58.66a1.59,1.59,0,0,1,.07.86c-.14.45-.51.51-.54.32s-.19-.15-.41-.18a44.23,44.23,0,0,0-10,23.18,2.52,2.52,0,0,1,.52.74c.13.39.8.64.93.73s.17-.75.08-1,.16-.35.16-.19a5.65,5.65,0,0,0,.84,1.15c.21.26.43,1.95.64,2.31a7.87,7.87,0,0,0,2.78,1.25,3.36,3.36,0,0,1,1.55,1c.12.2.95.3,1.13.38s.61.65.79.77a1,1,0,0,1,.31.55c0,.08,1.1.5,1.38.8a.58.58,0,0,0,.79.08c.08-.12.3.59.41.83a1.6,1.6,0,0,1,.06.95,13.63,13.63,0,0,1-.44,1.43A5.73,5.73,0,0,0,708,503a2.55,2.55,0,0,0,.82,1.08c.23.09.13.43,0,.46s-.09,1.56.32,1.79a1.56,1.56,0,0,1,.7,1c-.06.13.73.94,1,1.21a8,8,0,0,1,1.09,2.05,3.41,3.41,0,0,1,0,1.32c0,.16.15.54.18.69a11,11,0,0,0-.15,2c.11.53-.62,2.16-.6,3s.38,1.88.53,1.8.2.74-.05.84-.54.75-.4.78,0,.67,0,.92.26,2,.3,2.37a13.78,13.78,0,0,0,.77,1.79c.13.35.26,1,.31,1.11a1.79,1.79,0,0,0,.12.21,3.42,3.42,0,0,1,.63.29,3.93,3.93,0,0,0,1.4,0c.31-.06,0-.35-.11-.5s-.26-.9-.43-1-.22-1-.08-1.24.7-.54.77-.72.08-1-.07-1.13,0-1.12-.08-1.62.87-1,.93-1.36,1.12-.82,1.37-1a2.6,2.6,0,0,0,.34-1.58c-.12-.24.38-.44.62-.44s.47-.17.56-.17.36-.5.51-.62.44-1.32.71-1.51a2.06,2.06,0,0,0,.48-1.14,3.45,3.45,0,0,1,.54-1,6.2,6.2,0,0,1,1.31-.72,8.62,8.62,0,0,0,.52-2.24,13.88,13.88,0,0,1,.38-1.53c0-.19.34-.35.4-.41A10.69,10.69,0,0,1,724.17,506.68Z"/><line class="cls-59" x1="715.06" y1="480.31" x2="715.06" y2="480.32"/><path class="cls-59" d="M714.46,459.26a10.34,10.34,0,0,1,1.71-.81,10.81,10.81,0,0,1,1.17-.86c.24-.07.6-.64.54-.75s.82-.65,1.16-.78.5-.54.38-.56-1.93,1-3.63,1.93a43.47,43.47,0,0,0-5.45,4.37c.52,0,1.34-.13,1.69-.19.53-.09,1.41-.23,1.47-.38a.89.89,0,0,0,0-.62h.26C713.91,460.62,714.25,459.52,714.46,459.26Z"/><path class="cls-59" d="M759.41,463.94a.16.16,0,0,1,0,.06c-.09.16-.33-.09-.32-.32s-.67-.4-.75-.22-.56-.06-.75-.15-1,.76-1.34,1.07a3.67,3.67,0,0,1-2.07.44c-.27-.12-.55.66-.31.71s-.6,0-1.06,0a7.59,7.59,0,0,0-2.12.81.34.34,0,0,1-.57-.23c0-.18-.51-.35-.66-.4s-.45,1-.71,1.2-.59-.82-1.21-1-1.6-.77-1.88-.84a4,4,0,0,1-1-.82,2.74,2.74,0,0,0-1.21-.31,3.9,3.9,0,0,0-1.3.66c-.22.18-.56.15-.67.22s-1,1-1.4,1.26a11.18,11.18,0,0,0-1.2,1.82.86.86,0,0,1-.63.35c-.12,0-.22.34-.22.46s-1.07.68-1.18,1.16a10.76,10.76,0,0,0,.1,2c0,.4.39,1.18.69,1.19s.15.68.07.86.19.39.17.55-.75.37-1,.46a1.8,1.8,0,0,0-.65.8c0,.17-.75.29-1,.52.06-.17.14-.4.2-.52a.86.86,0,0,0-.16-.81c-.11-.09-.17-1.38-.35-1.66a5.48,5.48,0,0,0-.74-.83c-.11-.09.07-.43.14-.58s-.6-.23-.78-.11-.29,1.37-.36,1.72a1.12,1.12,0,0,0,.44.91c.11,0,.08.66-.15.68s-.46.94-.34,1.15-.16.62-.3.72.9,0,1.37,0,.84.2.79.24-.91.16-1.06.37-.73.59-.84.75.19.5.44.48.52.85.72,1,.11.61,0,.73-1.25-.09-1.69,0-1,1-1,1.38a7.77,7.77,0,0,0,.14,1.64c0,.28,1,.45,1.15.59s1.07,0,1.25.09.77-.9.9-1.35,1.05-1.29,1.24-1.6,1.21-.27,1.45-.43.12.77.23,1.27,1.09.45.95,0,.09-.68.13-.51,1,.55,1.15.82.12.84-.08.83-.22.63,0,.7.51-.71.74-.83.43-.6.31-.64.21-.47.34-.33a5.65,5.65,0,0,0-.89-1.35c-.4-.39-.12-.22.62.4l.51.71c.1.13.23.52.32.66l.12.21a5,5,0,0,1,.19,1.12.82.82,0,0,0,.64.54c.24,0,.42.11.38.12s.16.49.4.49.34-.61.1-.62-.21-.91-.24-1.3.18-.72.26-.72,0,.8,0,1a2.41,2.41,0,0,0,.22.81l.25.19.56.43c.8-.24,1.88,0,1.84.11s.59.21.63-.06.06,0,.06.19-.52.9-.6,1.23-2,.11-2.75.05-2,.2-2.06.45-1.33-.55-1.91-.79-1-1.11-1.13-1.23.1-.39,0-.56-1.36-.21-1.73-.07-2.34.34-2.8.55a2.43,2.43,0,0,1-1.37,0c-.22,0-.74.6-1,.71a3.52,3.52,0,0,0-.74,2l-.35.7-.23.44a10.08,10.08,0,0,0-1.57,2.45,15.63,15.63,0,0,0-.38,3.48,10.86,10.86,0,0,0,.89,2.94,7,7,0,0,0,1.79,1.73,6.37,6.37,0,0,0,2.12.27,1.3,1.3,0,0,0,1.08-.9l.63.07.28,0c0,.34.94.63,1.17.75a1.92,1.92,0,0,0,1,0c.18-.05.38,1.58.25,2.05a9.42,9.42,0,0,0,.45,2.62c.14.49.7,1.85.76,2.34a22.9,22.9,0,0,1-.4,2.68,10.46,10.46,0,0,0,.92,2.71,9.08,9.08,0,0,1,.36,2c0,.28.84,1.91,1,2.59s2.32.85,2.89.51a16.69,16.69,0,0,0,1.85-2,5.06,5.06,0,0,0,.61-1.63,1.55,1.55,0,0,1,.73-.66c.18-.06.75-2.44,1.25-3a8.7,8.7,0,0,0,1-4,12.65,12.65,0,0,1,.44-3,4,4,0,0,1,1-1.31,30.22,30.22,0,0,0,1.8-2.6,5.85,5.85,0,0,0,.69-2.4c-.08-.34-.93-.57-1.08-.41a2.81,2.81,0,0,1-1.21.3c-.26,0-.85-1.36-1.21-1.64s-.69-1.85-.9-2.15-.8-1-1-1.22-.22-1-.26-1.23.35.15.42.48a16,16,0,0,0,1.3,2.12c.29.45,1.06,1.88,1.25,2.33s1.9.22,2.45,0a3.65,3.65,0,0,0,1.27-.86c0-.16.91-.56,1.15-.76s.47-1.22.62-1.38-.12-1.15-.31-1.44a1.56,1.56,0,0,0-1.24-.41c-.18.12-.56-.65-.7-.93s-.81-.64-.88-.83.18-.5.29-.57a5.84,5.84,0,0,1,1.71,1.25,10.61,10.61,0,0,1,.84,1.37,1.8,1.8,0,0,0,1.27.05.34.34,0,0,1,.55.09l.31-.05,1.08-.17a2.18,2.18,0,0,1,.65,1.14,1,1,0,0,0,.52.6c.21.06.36.76.42.94a15,15,0,0,1,.81,1.68,11.49,11.49,0,0,0,.78,1.54,3.61,3.61,0,0,1,.23,1.09.79.79,0,0,0,.64.53c.24,0,.74-1.57.86-2.14a1.62,1.62,0,0,1,.62-1.05c.11,0,.2-.32.2-.45s.63-.1.68-.27.24-1.17.47-1.33a10.22,10.22,0,0,1,1.29-.77.58.58,0,0,1,.37.09c0-.61,0-1.21,0-1.83A44.08,44.08,0,0,0,759.41,463.94Z"/><path class="cls-59" d="M765,498a1.91,1.91,0,0,0-.32-1.14c-.17-.18-.45-.05-.61.27S764.88,498.17,765,498Z"/><path class="cls-59" d="M750.64,512.58c0,.34.74.62.94.56a4,4,0,0,0,.84-1.39,6.85,6.85,0,0,0,.14-1.1,1,1,0,0,1,.18-.54,1.94,1.94,0,0,0,.28-.78,21.51,21.51,0,0,0-.43-2.53c0-.32-.38.16-.47.48s-1,1-1.2,1.26a2.78,2.78,0,0,0-.35,1.37,2,2,0,0,1-.17,1A10.29,10.29,0,0,0,750.64,512.58Z"/><path class="cls-59" d="M718,525.18h.61C718.67,524.52,717.92,524.64,718,525.18Z"/><path class="cls-59" d="M722.34,456.12a15.49,15.49,0,0,0-3.54.88c-.64.34-1.14,1.24-.93,1.26s-.35.53-.7.64-1.16.18-1.35.37.21.32.28.45.31-.11.52,0,.93.17,1.12.25-.61.22-1,.25-.29.76,0,.86,1.09.21,1.17.08.93.14,1.32.19.67,1,.79,1.21a3.23,3.23,0,0,1,.12,1.15c0,.21.67.6.8.46s.09.33-.19.31-.11.79.25.9.11.62-.1.77-.08.63-.29.8.72,1.79.72,2.62.52,1.51.72,1.51.88.17,1,.35.43-.13.56-.26a8.52,8.52,0,0,0,.61-.89,23.1,23.1,0,0,0,.75-2.2c.06-.18.85-.07,1-.16a7.4,7.4,0,0,0,.83-.61c.16-.12,1.26-.6,1.58-.82s.81-1.16,1-1.36-.12-.15-.42-.34a.32.32,0,0,1-.08-.52,3.36,3.36,0,0,1,1.3.26c.31.12.9-.3.68-.47s-.11-.16,0-.09.22-.55.1-.66.92-.87.73-1.58.29-1.44.56-1.45.2-.8-.13-.88,0-.14.1-.25a1.67,1.67,0,0,0,.21-1c-.07-.14.51-.3.61-.45a2.46,2.46,0,0,1,1-.53c.23-.06.36-.68.11-.66a2,2,0,0,1-1-.22,2.71,2.71,0,0,0-1.39-.11c-.29.13-.09-.69.31-.78s0-.65-.36-.65-1.48-.16-1.72-.11-.73-.17-.91-.19a19.62,19.62,0,0,1-2,.34,16.13,16.13,0,0,0-2.36.12c-.33.09-.56.71-.51.93S722.8,456.11,722.34,456.12Z"/><path class="cls-59" d="M739.45,460.73c.23,0,.54.57.77.57s.63-.91.72-1.24.87-.07,1.23,0,.48-1.24.09-1.44-.86-.11-1-.25a1.31,1.31,0,0,0-.61-.33c-.17,0-.34-.82-.66-.92s-1,.24-.87.44-.52-.26-.94,0-.54,1-.35,1.06.33.68.34.79.82,0,1-.14.18.6,0,.81S739.23,460.7,739.45,460.73Z"/><path class="cls-59" d="M744.55,457.23c.16-.15-1.73-.53-2.45-.56s-1.3.08-1.29.22a7,7,0,0,0,2.26.91A2.25,2.25,0,0,0,744.55,457.23Z"/><path class="cls-59" d="M731.66,474.72c-.16-.07-.26.55-.22.78s.61.22.86.17a.45.45,0,0,0,.42-.44c0-.2-.35-1.12-.49-1.12S731.82,474.79,731.66,474.72Z"/><path class="cls-59" d="M733.51,467.52c-.13-.22-1.11-.2-1.35-.22a2.56,2.56,0,0,1-1.11-.41c-.14-.15-.24.61-.47.71s.11.24.2.16,0,.39-.1.55.65.28.73.52a.63.63,0,0,0,.69.36c.3-.05.9-.36,1.11-.38S733.64,467.75,733.51,467.52Z"/><path class="cls-59" d="M752,461.83c-.2.21-.54,1.78-.66,2s.53.82.82,1a1.11,1.11,0,0,0,.79,0,4.19,4.19,0,0,0-.3-1.52c-.15-.38,1.09-1.08,1.43-1.42s1.72-.79,1.88-1.14a.45.45,0,0,0-.24-.64c-.14,0-.31.18-.34.23s-1.63.44-2.12.67A5.5,5.5,0,0,0,752,461.83Z"/><path class="cls-59" d="M752.41,457.79c.53.52.81-.23,1.39-.16a.36.36,0,0,0,0-.1l-.57-.53A.78.78,0,0,0,752.41,457.79Z"/><path class="cls-59" d="M709.55,468.85c-.15.15,0,.87.27.88s.77-1.07,1.12-.86.6.31.55.19a11.45,11.45,0,0,0-1.21-.64C710.15,468.34,709.7,468.71,709.55,468.85Z"/><path class="cls-59" d="M713.3,493.18c0,.12.63.1.74-.09s.05-.36-.13-.36S713.3,493.06,713.3,493.18Z"/><path class="cls-59" d="M710.46,492.13c.3-.06.15.44.23.61s.8.32.95.44.52-.22.82-.19-.1-1-.59-1-.88-.44-1-.5A8,8,0,0,1,710,491a6.91,6.91,0,0,0-1.84-.24,1.37,1.37,0,0,0-.95.57c-.07.15.67.24.89.13a2.17,2.17,0,0,1,1.4.36A1.09,1.09,0,0,0,710.46,492.13Z"/><path class="cls-59" d="M709.11,493.18c0,.12.65,0,.8.05s.16-.1,0-.24S709.11,493.06,709.11,493.18Z"/><path class="cls-59" d="M709.57,489.86c-.17-.07-.3.2-.3.32a.22.22,0,0,0,.2.23C709.59,490.41,709.74,489.93,709.57,489.86Z"/><path class="cls-59" d="M710.92,490c0-.13-.33-.23-.41-.23s-.14.22-.13.47S711,490.09,710.92,490Z"/><path class="cls-59" d="M711.9,491.47c.25-.13.29-.45.13-.43s-.44-.44-.6-.51-.31.28-.31.43.1.25.21.22S711.63,491.59,711.9,491.47Z"/><path class="cls-60" d="M872.65,548.33,824.52,581.8v3.71a6.57,6.57,0,0,0,6.56,6.57H914.2a6.57,6.57,0,0,0,6.57-6.57V581.8Z"/><path class="cls-61" d="M831.09,652.83a6.57,6.57,0,0,1-6.57-6.56V589.4a6.56,6.56,0,0,1,6.56-6.56h83.13a6.56,6.56,0,0,1,6.56,6.56v56.87a6.56,6.56,0,0,1-6.56,6.56Z"/><path class="cls-61" d="M831.09,652.83a6.57,6.57,0,0,1-6.57-6.56V589.4a6.56,6.56,0,0,1,6.56-6.56h83.13a6.56,6.56,0,0,1,6.56,6.56v56.87a6.56,6.56,0,0,1-6.56,6.56Z"/><path class="cls-60" d="M914.21,582.84H831.08a6.56,6.56,0,0,0-6.56,6.56v3.44l76.37,60h13.32a6.56,6.56,0,0,0,6.56-6.56V589.4A6.56,6.56,0,0,0,914.21,582.84Z"/><path class="cls-8" d="M907.7,625.43a6.56,6.56,0,0,1-6.56,6.56H844.27a6.56,6.56,0,0,1-6.56-6.56V542.31a6.56,6.56,0,0,1,6.56-6.56h39.37l24.06,24.06Z"/><polygon class="cls-19" points="885.83 557.62 907.71 579.21 907.71 559.81 905.52 557.62 885.83 557.62"/><path class="cls-56" d="M883.64,535.75v17.5a6.57,6.57,0,0,0,6.57,6.56H907.7Z"/><rect class="cls-60" x="850.83" y="588.24" width="43.75" height="4.37"/><rect class="cls-60" x="850.83" y="596.99" width="43.75" height="4.38"/><rect class="cls-60" x="850.83" y="605.74" width="43.75" height="4.38"/><rect class="cls-60" x="850.83" y="579.49" width="32.81" height="4.37"/><path class="cls-19" d="M824.52,592.84v53.43a6.57,6.57,0,0,0,6.57,6.56h69.79Z"/><path class="cls-62" d="M920.77,592.84v53.43a6.57,6.57,0,0,1-6.57,6.56H844.41Z"/><g class="cls-24"><path class="cls-63" d="M589.56,434l-1.1,1.06Z"/><path class="cls-64" d="M637.72,412.05l.86-.06Z"/><g class="cls-24"><g class="cls-65"><g class="cls-24"><path class="cls-66" d="M582.79,422.25,589.56,434l-1.1,1.06-6.77-11.71c.36-.36.73-.71,1.1-1.06"/></g></g></g><g class="cls-24"><g class="cls-67"><g class="cls-24"><path class="cls-66" d="M577.47,427.88l6.77,11.71c-.46.55-.91,1.1-1.35,1.66l-6.77-11.72q.66-.82,1.35-1.65"/></g></g></g><path class="cls-64" d="M577.47,427.88c-.46.55-.91,1.11-1.35,1.65Q576.78,428.71,577.47,427.88Z"/><g class="cls-24"><g class="cls-68"><g class="cls-24"><path class="cls-69" d="M573.65,432.86l6.77,11.71a.76.76,0,0,0-.08.11L573.57,433a.44.44,0,0,1,.08-.11"/></g></g></g><g class="cls-24"><g class="cls-70"><g class="cls-24"><path class="cls-71" d="M631.81,400.28,638.58,412l-.86.06L631,400.33l.86-.05"/></g></g></g><g class="cls-24"><g class="cls-72"><g class="cls-24"><path class="cls-73" d="M637.9,400.29,644.67,412l-1.34-.06-6.77-11.71,1.34.06"/></g></g></g><path class="cls-74" d="M658.68,415c.72.29,1.42.6,2.1.92C660.09,415.57,659.41,415.26,658.68,415Z"/><g class="cls-24"><g class="cls-75"><g class="cls-24"><path class="cls-76" d="M566.37,447.53l6.77,11.72c-.07.25-.15.5-.22.76l-6.78-11.72c.08-.25.16-.5.23-.76"/></g></g></g><path class="cls-77" d="M566.37,447.53c-.07.26-.15.51-.23.76C566.21,448,566.29,447.79,566.37,447.53Z"/><g class="cls-24"><g class="cls-78"><g class="cls-24"><path class="cls-76" d="M565.91,449.12l6.77,11.71a36.92,36.92,0,0,0-1.2,8.9L564.71,458a36.86,36.86,0,0,1,1.2-8.9"/></g></g></g><polygon class="cls-79" points="637.9 400.29 644.67 412 638.35 425.43 631.58 413.72 637.9 400.29"/><g class="cls-24"><g class="cls-80"><g class="cls-24"><path class="cls-81" d="M654,404.18l6.77,11.71c-.68-.32-1.38-.63-2.1-.92l-6.77-11.71c.72.28,1.42.59,2.1.92"/></g></g></g><g class="cls-24"><g class="cls-82"><g class="cls-24"><path class="cls-83" d="M641.27,415.77,648,427.48a30.59,30.59,0,0,0-9.69-2.05l-6.77-11.71a30.38,30.38,0,0,1,9.69,2"/></g></g></g><path class="cls-52" d="M636.56,400.23l1.34,0a42,42,0,0,1,14,3l-10.63,12.52a30.38,30.38,0,0,0-9.69-2l6.32-13.43Z"/><polygon class="cls-84" points="651.9 403.25 658.67 414.96 648.04 427.48 641.27 415.77 651.9 403.25"/><g class="cls-24"><g class="cls-85"><path class="cls-2" d="M651.35,424.14l6.76,11.72A19.73,19.73,0,0,0,648,427.49l-6.77-11.72a19.84,19.84,0,0,1,10.08,8.37"/></g></g><path class="cls-86" d="M604.66,436.83l.07-.06c.64-.49,1.29-1,1.94-1.42l.48-.32c.34-.24.71-.47,1.06-.71.54-.35,1.07-.69,1.62-1l1-.58c.55-.32,1.1-.62,1.65-.92l1-.51c.67-.35,1.34-.67,2-1,.23-.11.45-.23.69-.33.9-.41,1.82-.79,2.74-1.15.71-.27,1.42-.53,2.14-.78l.56-.18c.58-.19,1.17-.38,1.76-.55l.55-.16q1.11-.32,2.22-.57l.27-.06c.67-.15,1.34-.29,2-.41l.43-.08c.72-.12,1.44-.23,2.15-.32l.44-.05q1-.12,2-.18l.3,0c.71,0,1.41-.07,2.12-.08h.47c.71,0,1.41,0,2.11.05l-6.77-11.71c-.7,0-1.4-.05-2.11-.05H629c-.7,0-1.4,0-2.1.07l-.32,0-1.94.18-.44.06c-.71.08-1.42.19-2.14.32l-.45.08c-.66.12-1.31.25-2,.4l-.31.07-.14,0c-.69.16-1.37.34-2.06.54l-.57.17c-.58.16-1.17.34-1.75.54l-.56.18c-.69.24-1.37.48-2,.74l-.1,0c-.92.36-1.83.74-2.73,1.15-.24.1-.47.22-.7.33-.67.31-1.34.63-2,1l-.34.17c-.21.11-.41.24-.62.34L604,421l-1,.59c-.55.33-1.08.67-1.61,1-.21.13-.42.25-.62.39s-.31.21-.46.32l-.46.32c-.66.46-1.32.93-2,1.42l0,0q-.95.74-1.86,1.5l-.41.34-.39.34c-.49.43-1,.87-1.46,1.32a50,50,0,0,0-3.95,4.15c-.58.68-1.13,1.37-1.65,2.06l0,0c-.45.59-.87,1.18-1.27,1.78l-.28.41c-.4.61-.8,1.22-1.15,1.83a.39.39,0,0,0-.06.11q-.51.87-1,1.74a4,4,0,0,0-.21.41c-.31.6-.59,1.21-.85,1.81a2,2,0,0,0-.11.26c-.23.54-.44,1.08-.64,1.62l-.13.37c0,.09-.07.18-.1.26-.08.25-.14.5-.22.76s-.24.74-.33,1.11-.16.63-.23.95-.17.73-.23,1.09-.11.63-.15.94-.11.72-.15,1.07-.05.62-.07.93,0,.7,0,1c0,.1,0,.22,0,.32,0,.39,0,.77,0,1.15v.11c0,.56.09,1.11.16,1.65l.06.41c.07.46.16.93.26,1.38a2,2,0,0,0,0,.24.44.44,0,0,0,0,.1c.12.48.26.94.41,1.41,0,.11.07.21.11.32.17.49.36,1,.57,1.45l.09.18c.11.25.22.49.35.73l.39.72,6.78,11.71c-.28-.47-.53-1-.77-1.47l-.06-.15c-.22-.48-.41-1-.58-1.46,0-.11-.08-.21-.11-.32-.16-.49-.31-1-.43-1.5l-.06-.27c-.1-.44-.18-.9-.25-1.35l-.06-.43c-.07-.54-.13-1.08-.15-1.63a.53.53,0,0,1,0-.12c0-.49,0-1,0-1.47,0-.34,0-.69,0-1s0-.62.07-.93.09-.71.15-1.07.09-.62.15-.93.15-.74.24-1.1.13-.63.22-.94.21-.75.33-1.11.2-.69.32-1l.13-.36c.2-.54.41-1.09.64-1.63,0-.09.07-.17.11-.26.25-.6.54-1.2.85-1.81a3.84,3.84,0,0,1,.21-.4c.3-.59.61-1.17,1-1.75l.06-.11c.36-.61.75-1.22,1.15-1.82l.28-.42c.41-.6.84-1.21,1.3-1.81s1.07-1.38,1.65-2.06a50.05,50.05,0,0,1,4-4.15c.59-.57,1.21-1.11,1.83-1.64l.44-.37C603.44,437.79,604,437.3,604.66,436.83Z"/><g class="cls-24"><g class="cls-87"><g class="cls-24"><path class="cls-76" d="M565.91,449.12l6.77,11.71a36.92,36.92,0,0,0-1.2,8.9L564.71,458a36.86,36.86,0,0,1,1.2-8.9"/><path class="cls-88" d="M564.71,458l6.77,11.71a29.66,29.66,0,0,0,.83,7.3l-6.77-11.71a29.72,29.72,0,0,1-.83-7.3"/><path class="cls-89" d="M565.54,465.32,572.31,477a26.82,26.82,0,0,0,2.21,5.9l-6.77-11.71a26.51,26.51,0,0,1-2.21-5.9"/><path class="cls-90" d="M567.75,471.22l6.77,11.71c.18.35.37.7.57,1l-6.78-11.71c-.19-.34-.38-.69-.56-1"/></g></g></g><path class="cls-51" d="M583.55,421.52c13.2-12.4,30.61-20.19,47.4-21.19l.86-.05,1.51-.06h1.07c.72,0,1.45,0,2.17,0l1.34.06-6.32,13.43c-12.51-.7-27.21,4.94-37.78,14.87a50,50,0,0,0-3.95,4.15c-13.18,15.5-11.5,33,3.73,39.16,6.06,2.44,13.35,2.67,20.77,1.14L613,486.1c-10.72,2.22-21.26,1.84-30-1.68-1-.39-1.88-.82-2.78-1.28l-.68-.35c-.68-.36-1.32-.73-1.94-1.12l-1-.64-.93-.66c-9.62-7.13-13-18.7-9.71-31.25l.23-.83c.08-.25.16-.5.23-.76a51.19,51.19,0,0,1,6.11-12.95c.39-.6.74-1.1,1.09-1.61l.51-.74c.21-.31.45-.61.67-.91s.64-.87,1-1.31c.13-.15.27-.31.39-.48.44-.54.89-1.1,1.35-1.65,1-1.2,1.89-2.15,2.78-3.09.11-.13.24-.26.37-.4.35-.36.7-.72,1.07-1.08s.73-.71,1.1-1.06Z"/><polygon class="cls-91" points="669.95 432.96 676.72 444.67 660.49 448.04 653.72 436.33 669.95 432.96"/><g class="cls-24"><g class="cls-92"><g class="cls-24"><path class="cls-93" d="M670.13,430.4l6.77,11.72a38.19,38.19,0,0,1-2,11l-6.78-11.72a37.76,37.76,0,0,0,2-11"/></g></g></g><g class="cls-24"><g class="cls-92"><g class="cls-24"><path class="cls-94" d="M670.13,430.4l6.77,11.72a38.19,38.19,0,0,1-2,11l-6.78-11.72a37.76,37.76,0,0,0,2-11"/></g></g></g><g class="cls-24"><path class="cls-2" d="M666.7,415.31,673.47,427a27.55,27.55,0,0,1,3.43,15.09q0,1.26-.18,2.55L670,433c.09-.86.15-1.72.18-2.56A27.58,27.58,0,0,0,666.7,415.31Z"/><g class="cls-95"><g class="cls-24"><path class="cls-96" d="M666.7,415.31,673.47,427c.19.32.37.64.54,1l-6.77-11.72c-.17-.32-.35-.65-.54-1"/><path class="cls-2" d="M667.24,416.28,674,428a25.61,25.61,0,0,1,2.09,5.61l-6.77-11.71a25.89,25.89,0,0,0-2.09-5.62"/><path class="cls-2" d="M669.33,421.9l6.77,11.71a30.09,30.09,0,0,1,.83,7.42l-6.77-11.71a30,30,0,0,0-.83-7.42"/><path class="cls-2" d="M670.16,429.32,676.93,441c0,.36,0,.72,0,1.09q0,1.26-.18,2.55L670,433c.09-.86.15-1.72.18-2.56,0-.36,0-.72,0-1.08"/></g></g></g><polygon class="cls-97" points="657.3 459.89 664.07 471.6 651.78 466.64 645.01 454.93 657.3 459.89"/><g class="cls-24"><g class="cls-98"><g class="cls-24"><path class="cls-99" d="M657.31,459.88l6.76,11.71c-.62.74-1.26,1.46-1.91,2.17l-6.77-11.71c.65-.71,1.29-1.43,1.92-2.17"/></g></g></g><g class="cls-24"><g class="cls-100"><g class="cls-24"><path class="cls-101" d="M670.13,430.4l6.77,11.72a38.19,38.19,0,0,1-2,11l-6.78-11.72a37.76,37.76,0,0,0,2-11"/><path class="cls-102" d="M668.09,441.41l6.78,11.72a54.66,54.66,0,0,1-8.41,15.51l-6.77-11.72a54.11,54.11,0,0,0,8.4-15.51"/></g></g></g><path class="cls-3" d="M664.34,471.38c-.64.77-1.31,1.51-2,2.24l-6.79-11.7c.67-.72,1.34-1.47,2-2.23C665,450.86,669.12,441.55,670,433l6.79,11.7C675.91,453.24,671.82,462.56,664.34,471.38Z"/><g class="cls-103"><g class="cls-24"><path class="cls-3" d="M670.12,430.41l6.79,11.7a38,38,0,0,1-2,11l-6.79-11.71a37.85,37.85,0,0,0,2-10.95"/><path class="cls-3" d="M668.16,441.36,675,453.07a53.64,53.64,0,0,1-8.26,15.38l-6.79-11.69a53.6,53.6,0,0,0,8.26-15.4"/></g></g><path class="cls-104" d="M653.72,436.33,670,433c.09-.86.15-1.72.18-2.56-.26,9.31-4.48,19.68-12.82,29.48-.65.77-1.33,1.53-2,2.26l.09-.09c.65-.71,1.29-1.43,1.91-2.16l-12.29-5C650.24,448.77,653.09,442.29,653.72,436.33Z"/><path class="cls-21" d="M651.9,403.25c.74.3,1.43.61,2.11.93,11,5.18,16.58,14.25,16.12,26.22,0,.84-.09,1.7-.18,2.56l-16.23,3.37c.94-9-3.27-16.87-12.45-20.56Z"/><path class="cls-105" d="M619.75,497.81c1-.21,2-.44,3.07-.7C621.8,497.36,620.79,497.59,619.75,497.81Z"/><path class="cls-4" d="M657.82,477.82l.43-.46s1.86-2,2-2.09c.31-.27.91-.86,1.67-1.68l.14.26c-.49.54-1,1.07-1.51,1.59l-.25.26c-.78.79-1.57,1.57-2.37,2.32a79,79,0,0,1-35.12,19.09c-1,.25-2,.48-3.07.7.35-.08,1.28-.28,2.25-.54,1.13-.31,5.91-1.69,5.93-1.69,1.52-.47,3.49-1.24,5-1.8a95.35,95.35,0,0,0,9.35-4.47,73.59,73.59,0,0,0,8.35-5.42A75.9,75.9,0,0,0,657.82,477.82Z"/><g class="cls-106"><g class="cls-24"><path class="cls-4" d="M655.3,462.14l6.77,11.71c-.49.54-1,1.07-1.51,1.59l-.25.26c-.78.79-1.57,1.57-2.37,2.32s-1.42,1.31-2.14,1.94L649,468.25c.72-.63,1.43-1.28,2.14-1.94s1.59-1.53,2.37-2.32l.25-.26c.51-.52,1-1.05,1.51-1.59"/><path class="cls-4" d="M649,468.25,655.8,480a77.61,77.61,0,0,1-7.86,6l-6.77-11.72a78.65,78.65,0,0,0,7.86-6"/><path class="cls-4" d="M641.17,474.27,647.94,486a78.82,78.82,0,0,1-7.46,4.44l-6.77-11.72a76.76,76.76,0,0,0,7.46-4.44"/><path class="cls-4" d="M633.71,478.71l6.77,11.72a78.4,78.4,0,0,1-8.14,3.67l-6.76-11.71a78.11,78.11,0,0,0,8.13-3.68"/><path class="cls-4" d="M625.58,482.39l6.76,11.71a79.18,79.18,0,0,1-9.52,3l-.92.22-6.77-11.71.92-.22a79.91,79.91,0,0,0,9.53-3"/><path class="cls-4" d="M615.13,485.62l6.77,11.71c-.71.17-1.42.33-2.15.48L613,486.09c.72-.14,1.44-.3,2.15-.47"/></g></g><polygon class="cls-107" points="614.35 473.04 621.12 484.75 619.74 497.81 612.97 486.1 614.35 473.04"/><path class="cls-108" d="M582.94,484.42c-1-.39-1.88-.82-2.78-1.28l-.68-.35c-.68-.36-1.32-.73-1.94-1.12l-1-.64-.93-.66h0l-.47-.36a26.72,26.72,0,0,1-6.82-7.74l1.15,2-.44-.64c-.08-.12-.17-.23-.25-.36-.22-.34-.43-.69-.64-1.05l-.06-.09h0l6.77,11.71.07.11c.2.35.42.69.63,1l.29.43.48.68.35.46c.16.2.31.41.48.61s.26.31.39.46l.49.58.43.45.53.55.46.43.55.52.5.43.57.49.53.42.43.33.19.14a1.09,1.09,0,0,0,.17.13c.3.23.62.44.93.66l1,.65c.62.38,1.27.76,1.94,1.11l.68.35c.9.46,1.82.89,2.79,1.28,8.75,3.53,19.3,3.9,30,1.68L613,486.1C602.25,488.32,591.71,487.94,582.94,484.42Z"/><g class="cls-24"><g class="cls-109"><g class="cls-24"><path class="cls-76" d="M653.79,463.73l6.77,11.71-.25.26L653.54,464l.25-.26"/></g></g></g><g class="cls-24"><g class="cls-109"><path class="cls-6" d="M653.79,463.73l6.77,11.71-.25.26L653.54,464l.25-.26"/></g></g><g class="cls-24"><g class="cls-110"><g class="cls-24"><path class="cls-6" d="M655.59,461.9l6.8,11.78c-.5.54-1,1.07-1.53,1.6l-.25.26c-.78.79-1.58,1.57-2.39,2.34s-1.42,1.31-2.16,1.95l-6.8-11.78q1.1-.94,2.16-1.95c.81-.76,1.61-1.54,2.39-2.34l.25-.26c.52-.53,1-1.06,1.53-1.6"/><path class="cls-4" d="M649.26,468.05l6.8,11.78a78.62,78.62,0,0,1-7.91,6.07l-6.8-11.77a78.71,78.71,0,0,0,7.91-6.08"/><path class="cls-111" d="M641.35,474.13l6.8,11.77a78,78,0,0,1-7.52,4.48l-6.8-11.78a79.18,79.18,0,0,0,7.52-4.47"/><path class="cls-112" d="M633.83,478.6l6.8,11.78a79.65,79.65,0,0,1-8.2,3.71l-6.79-11.78a79.28,79.28,0,0,0,8.19-3.71"/><path class="cls-5" d="M625.64,482.31l6.79,11.78a79.81,79.81,0,0,1-9.59,3l-.92.22-6.8-11.78.92-.22a80.54,80.54,0,0,0,9.6-3"/><path class="cls-113" d="M615.12,485.57l6.8,11.78c-.72.17-1.44.33-2.17.48L613,486.06c.73-.15,1.45-.31,2.17-.49"/></g></g></g><g class="cls-24"><g class="cls-114"><g class="cls-24"><path class="cls-115" d="M616.05,485.4l6.77,11.71-.93.23-6.77-11.72.93-.22"/><path class="cls-116" d="M615.12,485.62l6.77,11.72-2.14.47L613,486.09c.71-.14,1.42-.3,2.14-.47"/></g></g></g><path class="cls-5" d="M620.11,497.73l-.36.08L613,486.09c1-.21,2-.43,3.07-.69l6.77,11.71C622.18,497.27,621.35,497.47,620.11,497.73Z"/><g class="cls-117"><g class="cls-24"><path class="cls-5" d="M616.05,485.4l6.77,11.71-.93.23-6.77-11.72.93-.22"/><path class="cls-5" d="M615.12,485.62l6.77,11.72-2.14.47L613,486.09c.71-.14,1.42-.3,2.14-.47"/></g></g><path class="cls-56" d="M614.35,473a56.7,56.7,0,0,0,26.71-14,51.3,51.3,0,0,0,3.94-4.14l12.31,4.94c-.63.74-1.27,1.46-1.92,2.17l-.09.09c-.49.54-1,1.07-1.51,1.59l-.25.26c-.78.79-1.57,1.56-2.37,2.32a79,79,0,0,1-35.12,19.09c-1,.25-2,.48-3.07.69Z"/><path class="cls-6" d="M657.3,459.89l6.76,11.79c-.64.75-1.3,1.48-2,2.21l-6.76-11.8C656,461.37,656.66,460.64,657.3,459.89Z"/><g class="cls-118"><g class="cls-24"><path class="cls-6" d="M657.3,459.89l6.76,11.79c-.64.75-1.3,1.48-2,2.21l-6.76-11.8c.67-.72,1.33-1.45,2-2.2"/></g></g></g><rect class="cls-119" x="516.14" y="379.51" width="95.17" height="84.67" rx="3.23"/><path class="cls-56" d="M516.14,391.18v-8.44a3.23,3.23,0,0,1,3.23-3.23h88.71a3.23,3.23,0,0,1,3.23,3.23v8.44"/><line class="cls-120" x1="551.63" y1="385.96" x2="580.66" y2="385.96"/><line class="cls-120" x1="522.59" y1="385.96" x2="525.82" y2="385.96"/><line class="cls-120" x1="601.63" y1="385.96" x2="604.86" y2="385.96"/><rect class="cls-60" x="528.61" y="400.53" width="3.87" height="3.87"/><rect class="cls-60" x="539.58" y="400.53" width="3.87" height="3.87"/><rect class="cls-60" x="550.55" y="400.53" width="3.87" height="3.87"/><rect class="cls-60" x="561.52" y="400.53" width="3.87" height="3.87"/><rect class="cls-60" x="572.5" y="400.53" width="3.87" height="3.87"/><rect class="cls-19" x="583.47" y="400.53" width="3.87" height="3.87"/><rect class="cls-19" x="594.44" y="400.53" width="3.87" height="3.87"/><rect class="cls-121" x="528.61" y="410.21" width="3.87" height="3.87"/><rect class="cls-121" x="539.58" y="410.21" width="3.87" height="3.87"/><rect class="cls-121" x="550.55" y="410.21" width="3.87" height="3.87"/><rect class="cls-60" x="561.52" y="410.21" width="3.87" height="3.87"/><rect class="cls-60" x="572.5" y="410.21" width="3.87" height="3.87"/><rect class="cls-19" x="583.47" y="410.21" width="3.87" height="3.87"/><rect class="cls-19" x="594.44" y="410.21" width="3.87" height="3.87"/><rect class="cls-60" x="528.61" y="419.89" width="3.87" height="3.87"/><rect class="cls-60" x="539.58" y="419.89" width="3.87" height="3.87"/><rect class="cls-60" x="550.55" y="419.89" width="3.87" height="3.87"/><rect class="cls-53" x="561.52" y="419.89" width="3.87" height="3.87"/><rect class="cls-53" x="572.5" y="419.89" width="3.87" height="3.87"/><rect class="cls-19" x="583.47" y="419.89" width="3.87" height="3.87"/><rect class="cls-19" x="594.44" y="419.89" width="3.87" height="3.87"/><rect class="cls-60" x="528.61" y="429.58" width="3.87" height="3.87"/><rect class="cls-56" x="539.58" y="429.58" width="3.87" height="3.87"/><rect class="cls-56" x="550.55" y="429.58" width="3.87" height="3.87"/><rect class="cls-56" x="561.52" y="429.58" width="3.87" height="3.87"/><rect class="cls-60" x="572.5" y="429.58" width="3.87" height="3.87"/><rect class="cls-19" x="583.47" y="429.58" width="3.87" height="3.87"/><rect class="cls-19" x="594.44" y="429.58" width="3.87" height="3.87"/><rect class="cls-60" x="528.61" y="439.26" width="3.87" height="3.87"/><rect class="cls-60" x="539.58" y="439.26" width="3.87" height="3.87"/><rect class="cls-60" x="550.55" y="439.26" width="3.87" height="3.87"/><rect class="cls-60" x="561.52" y="439.26" width="3.87" height="3.87"/><rect class="cls-60" x="572.5" y="439.26" width="3.87" height="3.87"/><rect class="cls-19" x="583.47" y="439.26" width="3.87" height="3.87"/><rect class="cls-19" x="594.44" y="439.26" width="3.87" height="3.87"/><rect class="cls-60" x="528.61" y="448.94" width="3.87" height="3.87"/><rect class="cls-60" x="539.58" y="448.94" width="3.87" height="3.87"/><rect class="cls-60" x="550.55" y="448.94" width="3.87" height="3.87"/><rect class="cls-60" x="561.52" y="448.94" width="3.87" height="3.87"/><rect class="cls-60" x="572.5" y="448.94" width="3.87" height="3.87"/><rect class="cls-19" x="583.47" y="448.94" width="3.87" height="3.87"/><rect class="cls-19" x="594.44" y="448.94" width="3.87" height="3.87"/><line class="cls-122" x1="483.09" y1="544.83" x2="514.89" y2="599.92"/><line class="cls-122" x1="389.47" y1="629.94" x2="466.32" y2="674.31"/><line class="cls-122" x1="350.95" y1="750.45" x2="433.88" y2="750.45"/><line class="cls-122" x1="839.23" y1="773.7" x2="788.08" y2="773.7"/><line class="cls-122" x1="812.34" y1="650.07" x2="760.8" y2="679.83"/><line class="cls-122" x1="727.23" y1="556.46" x2="669.1" y2="657.14"/><line class="cls-122" x1="606.72" y1="517.94" x2="606.72" y2="578"/></svg>