<svg id="Camada_1" data-name="Camada 1" xmlns="http://www.w3.org/2000/svg" xmlns:xlink="http://www.w3.org/1999/xlink" viewBox="0 0 715.3 841.89"><defs><style>.cls-1,.cls-12,.cls-13,.cls-37{fill:none;}.cls-2{fill:#96a2bd;}.cls-3{fill:#35a3bf;}.cls-4{fill:#38bfa1;}.cls-5{fill:#3bcaab;}.cls-6{fill:#052453;}.cls-7{fill:#e9f6ff;}.cls-8{fill:#d4edff;}.cls-9{fill:#074fdf;}.cls-10{fill:#8dcfff;}.cls-11{fill:#acd4f8;}.cls-12,.cls-13{stroke:#7eb3ff;}.cls-12,.cls-13,.cls-37{stroke-miterlimit:10;}.cls-12{stroke-width:0.17px;}.cls-13{stroke-width:0.17px;}.cls-14{fill:#7eb3ff;}.cls-15,.cls-25{fill:#fff;}.cls-15{opacity:0.34;}.cls-16{fill:#c5e1f9;}.cls-17{fill:#9ac7f7;}.cls-18{fill:#eaf4fe;}.cls-19{fill:#e0edff;}.cls-20{fill:#cee2ff;}.cls-21{fill:#0561fc;}.cls-22{fill:#161711;}.cls-23{fill:#0253a2;}.cls-24{fill:#e9d6b8;}.cls-26{fill:#42210b;}.cls-27{fill:#754c24;}.cls-28{fill:#e7f5fe;}.cls-29{fill:#0071bc;}.cls-30{fill:#d1dbea;}.cls-31{fill:#603813;}.cls-32{fill:#387bff;}.cls-33{fill:#333;}.cls-34{fill:#ec9568;}.cls-35{fill:#212957;}.cls-36{fill:#3b47bc;}.cls-37{stroke:#9ac7f7;stroke-width:1.28px;}.cls-38{fill:#f7b68b;}.cls-39{fill:#202954;}.cls-40{fill:#dd000b;}.cls-41{fill:#fd2227;}.cls-42{fill:#f0bf97;}.cls-43{fill:#212a54;}.cls-44{fill:#281617;}.cls-45{isolation:isolate;}.cls-46{fill:#ced6d9;}.cls-47{fill:#94999b;}.cls-48{clip-path:url(#clip-path);}.cls-49{fill:#a9b0b2;}.cls-50{clip-path:url(#clip-path-2);}.cls-51{clip-path:url(#clip-path-3);}.cls-52{fill:#adb4b6;}.cls-53{clip-path:url(#clip-path-4);}.cls-54{fill:#979d9f;}.cls-55{clip-path:url(#clip-path-5);}.cls-56{fill:#393ca6;}.cls-57{fill:#9969f3;}.cls-58{clip-path:url(#clip-path-6);}.cls-59{fill:#c8a756;}.cls-60{fill:#f3cc68;}.cls-61{clip-path:url(#clip-path-7);}.cls-62{fill:#c5c7a0;}.cls-63{clip-path:url(#clip-path-8);}.cls-64{fill:#734fb8;}.cls-65{clip-path:url(#clip-path-9);}.cls-66{fill:#f4901e;}.cls-67{fill:#fec12f;}.cls-68{fill:#3fb94a;}.cls-69{clip-path:url(#clip-path-10);}.cls-70{fill:#bfd8f1;}.cls-71{clip-path:url(#clip-path-11);}.cls-72{fill:#c5a555;}.cls-73{fill:#c2a354;}.cls-74{fill:#bfa153;}.cls-75{fill:#2dbc42;}.cls-76{clip-path:url(#clip-path-12);}.cls-77{fill:#613dcd;}.cls-78{fill:#c9c4bb;}.cls-79{clip-path:url(#clip-path-14);}.cls-80{fill:#1f70be;}.cls-81{fill:#bb8f37;}.cls-82{clip-path:url(#clip-path-15);}.cls-83{fill:#c9c9c9;}.cls-84{fill:#ccc;}.cls-85{clip-path:url(#clip-path-16);}.cls-86{fill:#3bb6d5;}.cls-87{fill:#b0bfde;}.cls-88{fill:#535c68;}.cls-89{fill:#92a4b7;}.cls-90{fill:#b1c8df;}.cls-91{clip-path:url(#clip-path-17);}.cls-92{fill:#bbc5c9;}.cls-93{clip-path:url(#clip-path-19);}.cls-94{fill:#3ac8a7;}.cls-95{fill:#39c5a5;}.cls-96{fill:#38c2a3;}.cls-97{fill:#36bc9f;}.cls-98{clip-path:url(#clip-path-20);}.cls-99{fill:#57606b;}.cls-100{fill:#545d69;}.cls-101{clip-path:url(#clip-path-21);}.cls-102{fill:#48f7d0;}.cls-103{clip-path:url(#clip-path-22);}.cls-104{clip-path:url(#clip-path-23);}.cls-105{clip-path:url(#clip-path-24);}</style><clipPath id="clip-path"><path class="cls-1" d="M274.6,335.45l-.75,1.46L263,327.41l.75-1.46Z"/></clipPath><clipPath id="clip-path-2"><path class="cls-1" d="M260.3,333.47l10.86,9.5c-.27.71-.54,1.42-.79,2.14l-10.86-9.51C259.76,334.89,260,334.18,260.3,333.47Z"/></clipPath><clipPath id="clip-path-3"><path class="cls-1" d="M258.15,339.81l10.86,9.5c0,.05,0,.1,0,.14L258.11,340A1,1,0,0,0,258.15,339.81Z"/></clipPath><clipPath id="clip-path-4"><path class="cls-1" d="M316.56,296.45l-.85.34-10.86-9.5.85-.35Z"/></clipPath><clipPath id="clip-path-5"><path class="cls-1" d="M322.71,294.36l-1.37.4-10.86-9.5c.46-.14.91-.28,1.37-.4Z"/></clipPath><clipPath id="clip-path-6"><path class="cls-1" d="M266.71,366.63c0,.28,0,.57,0,.85L255.87,358l0-.85Z"/></clipPath><clipPath id="clip-path-7"><path class="cls-1" d="M255.93,358.89l10.86,9.5-2.61-2.25-8.24-7.1C255.94,359,255.93,358.94,255.93,358.89Z"/></clipPath><clipPath id="clip-path-8"><path class="cls-1" d="M329.46,283.25l10.85,9.51q-1.19-.15-2.43-.21L327,283C327.85,283.08,328.66,283.16,329.46,283.25Z"/></clipPath><clipPath id="clip-path-9"><path class="cls-1" d="M320.57,299.34l10.86,9.5a32.38,32.38,0,0,0-10.49,1.25l-10.86-9.5A32.14,32.14,0,0,1,320.57,299.34Z"/></clipPath><clipPath id="clip-path-10"><path class="cls-1" d="M333.62,304.33l10.86,9.5a21.14,21.14,0,0,0-13-5l-10.86-9.5A21.14,21.14,0,0,1,333.62,304.33Z"/></clipPath><clipPath id="clip-path-11"><path class="cls-1" d="M266.79,368.39c.69,9.37,4.31,17.24,10.37,22.54l-10.86-9.5c-6-5.28-9.63-13.08-10.36-22.39l4,3.45,1.42,1.23.71.61,2.79,2.4.66.57C265.9,367.62,266.56,367.94,266.79,368.39Z"/></clipPath><clipPath id="clip-path-12"><path class="cls-1" d="M365.6,313.7c.27.87.51,1.75.71,2.65l-10.86-9.5c-.2-.9-.44-1.79-.71-2.65C358,307.05,363.25,310.07,365.6,313.7Z"/></clipPath><clipPath id="clip-path-14"><path class="cls-2" d="M346.1,290.14l10.86,9.5a29.37,29.37,0,0,1,8.64,14.06c.26.86.5,1.75.7,2.65l-10.86-9.5c-.2-.91-.44-1.79-.7-2.65A29.33,29.33,0,0,0,346.1,290.14Z"/></clipPath><clipPath id="clip-path-15"><path class="cls-1" d="M362.78,347.88c-.4,1-.82,2-1.25,3l-10.86-9.5c.43-1,.86-2,1.25-3,4.59-11.6,5.59-22.5,3.53-31.52l10.86,9.5C368.37,325.37,367.37,336.27,362.78,347.88Z"/></clipPath><clipPath id="clip-path-16"><path class="cls-3" d="M362.78,347.88c-.4,1-.82,2-1.25,3l-10.86-9.5c.43-1,.86-2,1.25-3,4.59-11.6,5.59-22.5,3.53-31.52l10.86,9.5C368.37,325.37,367.37,336.27,362.78,347.88Z"/></clipPath><clipPath id="clip-path-17"><path class="cls-1" d="M349.68,343.47l10.86,9.5c-.05.12-.11.23-.16.35l-10.86-9.51Z"/></clipPath><clipPath id="clip-path-19"><path class="cls-1" d="M358.59,356.31a79.88,79.88,0,0,1-5.2,8.6,76.83,76.83,0,0,1-6.57,8.35,101,101,0,0,1-7.9,7.72c-1.31,1.08-3,2.53-4.41,3.53,0,0-4.38,3-5.41,3.74s-1.76,1.12-2.09,1.32l-10.85-9.51c1-.57,1.91-1.15,2.85-1.75A84.18,84.18,0,0,0,347.92,347c.56-1,1.09-2.09,1.6-3.16l.16-.34c.34-.71.68-1.41,1-2.13l10.61,9.29a23.84,23.84,0,0,1-1.1,2.27c-.1.17-1.3,2.77-1.31,2.8C358.78,355.88,358.68,356.13,358.59,356.31Z"/></clipPath><clipPath id="clip-path-20"><path class="cls-1" d="M329.87,387.81c-.94.61-1.9,1.19-2.86,1.76l-10.85-9.51c.95-.56,1.91-1.14,2.85-1.75Z"/></clipPath><clipPath id="clip-path-21"><path class="cls-4" d="M327.35,389.37l-.34.2-10.85-9.51c.95-.56,1.91-1.14,2.85-1.75l10.86,9.5C329.27,388.19,328.51,388.68,327.35,389.37Z"/></clipPath><clipPath id="clip-path-22"><path class="cls-5" d="M351.91,338.37l10.86,9.51c-.38,1-.78,1.9-1.19,2.84l-10.86-9.5C351.13,340.28,351.53,339.34,351.91,338.37Z"/></clipPath><clipPath id="clip-path-23"><path class="cls-5" d="M351.91,338.38l10.86,9.5c-.38,1-.78,1.9-1.19,2.84l-10.86-9.5C351.14,340.28,351.53,339.34,351.91,338.38Z"/></clipPath><clipPath id="clip-path-24"><path class="cls-5" d="M358.59,356.31c.09-.18.19-.43.28-.61,0,0,1.21-2.62,1.31-2.8a23.84,23.84,0,0,0,1.1-2.27l.25.21c-.31.72-.65,1.43-1,2.13-.05.12-.11.23-.16.35-.51,1.06-1.05,2.12-1.6,3.16a84.15,84.15,0,0,1-28.91,31.33c-.94.6-1.89,1.18-2.86,1.76.33-.2,1.2-.72,2.09-1.32s5.38-3.73,5.41-3.74c1.37-1,3.1-2.45,4.41-3.53a101,101,0,0,0,7.9-7.72,76.83,76.83,0,0,0,6.57-8.35A79.88,79.88,0,0,0,358.59,356.31Z"/></clipPath></defs><rect class="cls-6" x="-2.18" y="-2.53" width="719.88" height="599.96"/><rect class="cls-7" x="198.46" y="344.75" width="242.24" height="189.98"/><rect class="cls-8" x="198.46" y="322.71" width="242.24" height="22.8"/><path class="cls-9" d="M215.18,333.06a4.56,4.56,0,1,1-4.56-4.55A4.57,4.57,0,0,1,215.18,333.06Z"/><path class="cls-10" d="M229.62,333.06a4.56,4.56,0,1,1-4.56-4.55A4.57,4.57,0,0,1,229.62,333.06Z"/><path class="cls-11" d="M244.06,333.06a4.56,4.56,0,1,1-4.56-4.55A4.57,4.57,0,0,1,244.06,333.06Z"/><rect class="cls-12" x="258.15" y="356.92" width="143.66" height="162.86"/><line class="cls-13" x1="258.15" y1="496.52" x2="401.81" y2="496.52"/><line class="cls-13" x1="258.15" y1="473.25" x2="401.81" y2="473.25"/><line class="cls-13" x1="258.15" y1="449.98" x2="401.81" y2="449.98"/><line class="cls-13" x1="258.15" y1="426.72" x2="401.81" y2="426.72"/><line class="cls-13" x1="258.15" y1="403.45" x2="401.81" y2="403.45"/><line class="cls-13" x1="258.15" y1="380.19" x2="401.81" y2="380.19"/><line class="cls-13" x1="353.93" y1="356.92" x2="353.93" y2="519.78"/><line class="cls-13" x1="306.04" y1="356.92" x2="306.04" y2="519.78"/><line class="cls-13" x1="258.15" y1="356.92" x2="250.72" y2="364.35"/><line class="cls-13" x1="258.15" y1="380.19" x2="250.72" y2="387.62"/><line class="cls-13" x1="258.15" y1="403.45" x2="250.72" y2="410.88"/><line class="cls-13" x1="258.15" y1="426.72" x2="250.72" y2="434.15"/><line class="cls-13" x1="258.15" y1="449.98" x2="250.72" y2="457.42"/><line class="cls-13" x1="258.15" y1="473.25" x2="250.72" y2="480.68"/><line class="cls-13" x1="258.15" y1="496.52" x2="250.72" y2="503.94"/><path class="cls-14" d="M244.27,508.29h-.59v-3.92l-1.18.44v-.53l1.68-.64h.09Z"/><path class="cls-14" d="M248.89,506.32a2.66,2.66,0,0,1-.36,1.53,1.46,1.46,0,0,1-2.19,0,2.55,2.55,0,0,1-.37-1.46v-.79a2.65,2.65,0,0,1,.35-1.51,1.49,1.49,0,0,1,2.21,0,2.6,2.6,0,0,1,.36,1.47Zm-.59-.81a2.12,2.12,0,0,0-.21-1.08.71.71,0,0,0-.66-.34.73.73,0,0,0-.66.33,2.07,2.07,0,0,0-.21,1.05v.94a2.11,2.11,0,0,0,.22,1.1.78.78,0,0,0,1.3,0,2,2,0,0,0,.22-1.06Z"/><path class="cls-14" d="M245.37,485.19h-3v-.43l1.6-1.77a3.63,3.63,0,0,0,.49-.66,1.1,1.1,0,0,0,.14-.52.84.84,0,0,0-.22-.59.75.75,0,0,0-.59-.23.89.89,0,0,0-.68.25.93.93,0,0,0-.24.69h-.59a1.36,1.36,0,0,1,.41-1,1.52,1.52,0,0,1,1.1-.4,1.49,1.49,0,0,1,1,.34,1.17,1.17,0,0,1,.38.9,2.6,2.6,0,0,1-.87,1.62l-1.24,1.35h2.32Z"/><path class="cls-14" d="M248.89,483.22a2.66,2.66,0,0,1-.36,1.53,1.46,1.46,0,0,1-2.19,0,2.55,2.55,0,0,1-.37-1.46v-.79a2.65,2.65,0,0,1,.35-1.51,1.49,1.49,0,0,1,2.21,0,2.6,2.6,0,0,1,.36,1.47Zm-.59-.81a2.12,2.12,0,0,0-.21-1.08.81.81,0,0,0-1.32,0,2,2,0,0,0-.21,1v.94a2.11,2.11,0,0,0,.22,1.1.78.78,0,0,0,1.3,0,2,2,0,0,0,.22-1.06Z"/><path class="cls-14" d="M243.2,459.49h.43a1,1,0,0,0,.66-.22.73.73,0,0,0,.24-.58.72.72,0,0,0-.81-.81.82.82,0,0,0-.61.22.77.77,0,0,0-.23.58h-.58a1.18,1.18,0,0,1,.4-.92,1.66,1.66,0,0,1,2,0,1.28,1.28,0,0,1,.38,1,1,1,0,0,1-.2.58,1.16,1.16,0,0,1-.53.42,1.2,1.2,0,0,1,.59.4,1.1,1.1,0,0,1,.2.68,1.25,1.25,0,0,1-.4,1,1.72,1.72,0,0,1-2.12,0,1.16,1.16,0,0,1-.4-.93h.59a.79.79,0,0,0,.23.59.94.94,0,0,0,.64.22.87.87,0,0,0,.65-.23.84.84,0,0,0,.23-.63.76.76,0,0,0-.25-.62,1,1,0,0,0-.72-.22h-.43Z"/><path class="cls-14" d="M248.89,460.11a2.62,2.62,0,0,1-.36,1.53,1.24,1.24,0,0,1-1.1.51,1.28,1.28,0,0,1-1.09-.49,2.56,2.56,0,0,1-.37-1.47v-.78a2.69,2.69,0,0,1,.35-1.52,1.5,1.5,0,0,1,2.21,0,2.58,2.58,0,0,1,.36,1.47Zm-.59-.8a2.16,2.16,0,0,0-.21-1.09.81.81,0,0,0-1.32,0,2,2,0,0,0-.21,1v.94a2.15,2.15,0,0,0,.22,1.11.7.7,0,0,0,.65.36.73.73,0,0,0,.65-.34,2,2,0,0,0,.22-1.06Z"/><path class="cls-14" d="M244.82,437.43h.64v.48h-.64V439h-.59v-1.08h-2.1v-.34l2.06-3.2h.63Zm-2,0h1.44v-2.26l-.07.13Z"/><path class="cls-14" d="M248.89,437a2.66,2.66,0,0,1-.36,1.53,1.46,1.46,0,0,1-2.19,0,2.55,2.55,0,0,1-.37-1.46v-.79a2.65,2.65,0,0,1,.35-1.51,1.49,1.49,0,0,1,2.21,0,2.6,2.6,0,0,1,.36,1.47Zm-.59-.81a2.12,2.12,0,0,0-.21-1.08.71.71,0,0,0-.66-.34.73.73,0,0,0-.66.33,2.07,2.07,0,0,0-.21,1.05v.94a2.11,2.11,0,0,0,.22,1.1.78.78,0,0,0,1.3,0,2,2,0,0,0,.22-1.06Z"/><path class="cls-14" d="M242.61,413.57l.24-2.3h2.36v.54h-1.86l-.14,1.26a1.5,1.5,0,0,1,.77-.2,1.27,1.27,0,0,1,1,.42,1.64,1.64,0,0,1,.37,1.12,1.57,1.57,0,0,1-.39,1.13,1.39,1.39,0,0,1-1.07.41,1.44,1.44,0,0,1-1-.34,1.33,1.33,0,0,1-.44-.94H243a1,1,0,0,0,.28.6.93.93,0,0,0,.61.2.77.77,0,0,0,.64-.28,1.18,1.18,0,0,0,.23-.77,1,1,0,0,0-.25-.74.85.85,0,0,0-.67-.28,1,1,0,0,0-.6.16l-.16.13Z"/><path class="cls-14" d="M248.89,413.92a2.66,2.66,0,0,1-.36,1.53,1.46,1.46,0,0,1-2.19,0A2.55,2.55,0,0,1,246,414v-.79a2.65,2.65,0,0,1,.35-1.51,1.49,1.49,0,0,1,2.21,0,2.6,2.6,0,0,1,.36,1.47Zm-.59-.81a2.12,2.12,0,0,0-.21-1.08.81.81,0,0,0-1.32,0,2,2,0,0,0-.21,1V414a2.11,2.11,0,0,0,.22,1.1.78.78,0,0,0,1.3,0,2,2,0,0,0,.22-1.06Z"/><path class="cls-14" d="M244.65,388.16v.5h-.11a1.51,1.51,0,0,0-1.09.41,1.62,1.62,0,0,0-.47,1.1,1.23,1.23,0,0,1,1-.42,1.19,1.19,0,0,1,1,.43,1.69,1.69,0,0,1,.36,1.1,1.64,1.64,0,0,1-.39,1.14,1.37,1.37,0,0,1-1,.43,1.32,1.32,0,0,1-1.07-.51,2,2,0,0,1-.41-1.31v-.23a3.06,3.06,0,0,1,.54-1.95,2,2,0,0,1,1.62-.69Zm-.78,2.08a.93.93,0,0,0-.55.18.88.88,0,0,0-.35.46v.21a1.52,1.52,0,0,0,.25.92.77.77,0,0,0,.64.35.76.76,0,0,0,.63-.29,1.2,1.2,0,0,0,.22-.76,1.16,1.16,0,0,0-.23-.77A.72.72,0,0,0,243.87,390.24Z"/><path class="cls-14" d="M248.89,390.81a2.67,2.67,0,0,1-.36,1.54,1.25,1.25,0,0,1-1.1.5,1.28,1.28,0,0,1-1.09-.49,2.56,2.56,0,0,1-.37-1.47v-.78a2.65,2.65,0,0,1,.35-1.51,1.49,1.49,0,0,1,2.21,0,2.6,2.6,0,0,1,.36,1.47Zm-.59-.8a2.16,2.16,0,0,0-.21-1.09.81.81,0,0,0-1.32,0,2.07,2.07,0,0,0-.21,1.05v.94a2.11,2.11,0,0,0,.22,1.1.78.78,0,0,0,1.3,0,2,2,0,0,0,.22-1.06Z"/><path class="cls-14" d="M245.32,365.4l-1.91,4.28h-.62l1.91-4.13h-2.5v-.48h3.12Z"/><path class="cls-14" d="M248.89,367.71a2.67,2.67,0,0,1-.36,1.54,1.25,1.25,0,0,1-1.1.5,1.28,1.28,0,0,1-1.09-.49,2.56,2.56,0,0,1-.37-1.47V367a2.65,2.65,0,0,1,.35-1.51,1.49,1.49,0,0,1,2.21,0,2.6,2.6,0,0,1,.36,1.47Zm-.59-.8a2.16,2.16,0,0,0-.21-1.09.81.81,0,0,0-1.32,0,2.07,2.07,0,0,0-.21,1.05v.94a2.11,2.11,0,0,0,.22,1.1.78.78,0,0,0,1.3,0,2,2,0,0,0,.22-1.06Z"/><path class="cls-14" d="M275.13,528.38h-3V528l1.6-1.78a3.63,3.63,0,0,0,.49-.66,1.1,1.1,0,0,0,.14-.52.8.8,0,0,0-.22-.59.75.75,0,0,0-.58-.23.91.91,0,0,0-.69.25.93.93,0,0,0-.24.69H272a1.33,1.33,0,0,1,.41-1,1.53,1.53,0,0,1,1.1-.4,1.51,1.51,0,0,1,1,.34,1.2,1.2,0,0,1,.37.9,2.64,2.64,0,0,1-.87,1.63l-1.24,1.34h2.32Z"/><path class="cls-14" d="M278.65,526.41a2.75,2.75,0,0,1-.35,1.53,1.47,1.47,0,0,1-2.2,0,2.61,2.61,0,0,1-.37-1.46v-.79a2.57,2.57,0,0,1,.36-1.51,1.48,1.48,0,0,1,2.2,0,2.54,2.54,0,0,1,.36,1.48Zm-.59-.81a2.12,2.12,0,0,0-.21-1.08.69.69,0,0,0-.66-.34.71.71,0,0,0-.66.34,2.22,2.22,0,0,0-.21,1v.94a2.08,2.08,0,0,0,.22,1.1.79.79,0,0,0,1.3,0,2.09,2.09,0,0,0,.22-1.07Z"/><path class="cls-14" d="M282.43,528.38h-3V528l1.6-1.78a4.18,4.18,0,0,0,.49-.66,1.08,1.08,0,0,0,.13-.52.84.84,0,0,0-.21-.59.77.77,0,0,0-.59-.23.89.89,0,0,0-.68.25.93.93,0,0,0-.24.69h-.59a1.36,1.36,0,0,1,.41-1,1.55,1.55,0,0,1,1.1-.4,1.49,1.49,0,0,1,1,.34,1.16,1.16,0,0,1,.37.9,2.59,2.59,0,0,1-.87,1.63l-1.23,1.34h2.32Z"/><path class="cls-14" d="M285.94,526.41a2.66,2.66,0,0,1-.35,1.53,1.46,1.46,0,0,1-2.19,0,2.53,2.53,0,0,1-.37-1.46v-.79a2.65,2.65,0,0,1,.35-1.51,1.28,1.28,0,0,1,1.11-.5,1.26,1.26,0,0,1,1.09.48,2.46,2.46,0,0,1,.36,1.48Zm-.58-.81a2.12,2.12,0,0,0-.21-1.08.81.81,0,0,0-1.32,0,2,2,0,0,0-.21,1v.94a2.08,2.08,0,0,0,.22,1.1.7.7,0,0,0,.65.36.72.72,0,0,0,.65-.33,2.19,2.19,0,0,0,.22-1.07Z"/><path class="cls-14" d="M324,528.38h-3V528l1.6-1.78a3.63,3.63,0,0,0,.49-.66,1.1,1.1,0,0,0,.14-.52.8.8,0,0,0-.22-.59.75.75,0,0,0-.58-.23.91.91,0,0,0-.69.25.93.93,0,0,0-.24.69h-.58a1.33,1.33,0,0,1,.41-1,1.71,1.71,0,0,1,2.12-.06,1.2,1.2,0,0,1,.37.9,2.64,2.64,0,0,1-.87,1.63l-1.24,1.34H324Z"/><path class="cls-14" d="M327.5,526.41a2.75,2.75,0,0,1-.35,1.53,1.47,1.47,0,0,1-2.2,0,2.53,2.53,0,0,1-.37-1.46v-.79a2.57,2.57,0,0,1,.36-1.51,1.48,1.48,0,0,1,2.2,0,2.61,2.61,0,0,1,.36,1.48Zm-.59-.81a2.12,2.12,0,0,0-.21-1.08.69.69,0,0,0-.66-.34.71.71,0,0,0-.66.34,2.22,2.22,0,0,0-.21,1v.94a2.08,2.08,0,0,0,.22,1.1.79.79,0,0,0,1.3,0,2.09,2.09,0,0,0,.22-1.07Z"/><path class="cls-14" d="M331.28,528.38h-3V528l1.6-1.78a4.18,4.18,0,0,0,.49-.66,1.08,1.08,0,0,0,.13-.52.84.84,0,0,0-.21-.59.77.77,0,0,0-.59-.23.89.89,0,0,0-.68.25.93.93,0,0,0-.24.69h-.59a1.36,1.36,0,0,1,.41-1,1.55,1.55,0,0,1,1.1-.4,1.49,1.49,0,0,1,1,.34,1.16,1.16,0,0,1,.37.9,2.59,2.59,0,0,1-.87,1.63L329,527.9h2.32Z"/><path class="cls-14" d="M333.83,528.38h-.59v-3.92l-1.19.44v-.53l1.69-.63h.09Z"/><path class="cls-14" d="M372.83,528.38h-3V528l1.6-1.78a3.63,3.63,0,0,0,.49-.66A1.1,1.1,0,0,0,372,525a.8.8,0,0,0-.22-.59.75.75,0,0,0-.59-.23.91.91,0,0,0-.68.25.93.93,0,0,0-.24.69h-.58a1.33,1.33,0,0,1,.41-1,1.52,1.52,0,0,1,1.09-.4,1.54,1.54,0,0,1,1,.34,1.2,1.2,0,0,1,.37.9,2.64,2.64,0,0,1-.87,1.63l-1.24,1.34h2.32Z"/><path class="cls-14" d="M376.35,526.41a2.75,2.75,0,0,1-.35,1.53,1.47,1.47,0,0,1-2.2,0,2.53,2.53,0,0,1-.37-1.46v-.79a2.57,2.57,0,0,1,.36-1.51,1.25,1.25,0,0,1,1.1-.5,1.28,1.28,0,0,1,1.1.48,2.61,2.61,0,0,1,.36,1.48Zm-.59-.81a2.12,2.12,0,0,0-.21-1.08.7.7,0,0,0-.66-.34.71.71,0,0,0-.66.34,2.1,2.1,0,0,0-.21,1v.94a2.08,2.08,0,0,0,.22,1.1.79.79,0,0,0,1.3,0,2.09,2.09,0,0,0,.22-1.07Z"/><path class="cls-14" d="M380.13,528.38h-3V528l1.6-1.78a4.18,4.18,0,0,0,.49-.66,1.08,1.08,0,0,0,.13-.52.84.84,0,0,0-.21-.59.77.77,0,0,0-.59-.23.89.89,0,0,0-.68.25.93.93,0,0,0-.24.69H377a1.36,1.36,0,0,1,.41-1,1.55,1.55,0,0,1,1.1-.4,1.49,1.49,0,0,1,1,.34,1.16,1.16,0,0,1,.37.9,2.64,2.64,0,0,1-.87,1.63l-1.23,1.34h2.32Z"/><path class="cls-14" d="M383.77,528.38h-3V528l1.6-1.78a4.18,4.18,0,0,0,.49-.66A1.08,1.08,0,0,0,383,525a.8.8,0,0,0-.22-.59.73.73,0,0,0-.58-.23.89.89,0,0,0-.68.25.93.93,0,0,0-.24.69h-.59a1.36,1.36,0,0,1,.41-1,1.53,1.53,0,0,1,1.1-.4,1.49,1.49,0,0,1,1,.34,1.16,1.16,0,0,1,.37.9,2.64,2.64,0,0,1-.87,1.63l-1.23,1.34h2.31Z"/><rect class="cls-15" x="258.15" y="380.19" width="143.66" height="23.26"/><rect class="cls-15" x="258.15" y="426.72" width="143.66" height="23.26"/><rect class="cls-15" x="258.15" y="473.25" width="143.66" height="23.26"/><rect class="cls-16" x="258.15" y="380.19" width="64.56" height="3.71"/><rect class="cls-17" x="258.15" y="389.96" width="110.89" height="3.72"/><rect class="cls-18" x="258.15" y="399.74" width="39.52" height="3.71"/><rect class="cls-16" x="258.15" y="426.72" width="116.53" height="3.71"/><rect class="cls-17" x="258.15" y="436.5" width="47.88" height="3.72"/><rect class="cls-18" x="258.15" y="446.27" width="95.77" height="3.71"/><rect class="cls-16" x="258.15" y="473.55" width="47.88" height="3.72"/><rect class="cls-17" x="258.15" y="483.33" width="95.77" height="3.72"/><rect class="cls-18" x="258.15" y="493.1" width="79.05" height="3.71"/><path class="cls-19" d="M530,407.73a6.21,6.21,0,0,1-6.22,6.22H469.82a6.21,6.21,0,0,1-6.22-6.22v-78.8a6.22,6.22,0,0,1,6.22-6.22h37.32L530,345.52Z"/><polygon class="cls-20" points="509.21 343.45 529.95 363.92 529.95 345.52 527.88 343.45 509.21 343.45"/><path class="cls-21" d="M507.14,322.71V339.3a6.22,6.22,0,0,0,6.22,6.22H530Z"/><rect class="cls-16" x="476.04" y="380.78" width="41.47" height="4.15"/><rect class="cls-16" x="484.33" y="364.19" width="20.74" height="4.15"/><rect class="cls-16" x="476.04" y="372.48" width="41.47" height="4.15"/><polygon class="cls-16" points="517.51 360.04 495.05 360.04 476.04 360.04 476.04 355.89 517.51 355.89 517.51 360.04"/><rect class="cls-16" x="476.04" y="389.07" width="41.47" height="4.15"/><rect class="cls-16" x="476.04" y="397.36" width="41.47" height="4.15"/><rect class="cls-16" x="476.04" y="360.04" width="4.15" height="41.47"/><rect class="cls-16" x="500.92" y="374.55" width="4.15" height="26.96"/><rect class="cls-16" x="513.36" y="360.04" width="4.15" height="41.47"/><path class="cls-22" d="M82.2,711.91l-.77,9-1.66,7.49-3,2-2.29.69-.65,1.27-7.88,5.21a13.7,13.7,0,0,1-8.76.53c-1.24-.29.49-3.67.92-4.18a62.38,62.38,0,0,1,6.28-6.12l6.15-7.57,6.94-9.47Z"/><path class="cls-22" d="M152.41,702.11l-2,3.61-1.07,4.08.15,6.49,3.49.51,2.66-.55,1.72,1.22s9.93,2,13.65,2.12c6.19.21,9.58-.41,10.79-1.61.68-.67-2.19-2-3.14-2.13-5.49-.85-11.26-4.38-11.26-4.38l-4.52-5.13-.86-3.62Z"/><polygon class="cls-23" points="124.72 505.68 67.82 719.88 82.27 720.8 109.89 652.66 116.57 632.11 149.4 551.48 155.72 507.14 124.72 505.68"/><polygon class="cls-23" points="149.68 702.76 153.76 620.41 150.17 582.67 145.81 530.89 152.41 496.21 175.01 499.83 177.56 555.68 176.16 608.65 175.04 628.61 166.51 707.2 149.68 702.76"/><path class="cls-24" d="M204.15,433s13.23,2.26,35.18-10.13c7.41-4.18,2.42,1.5-1.33,8.84s-22.26,14.36-39.47,12.73S204.15,433,204.15,433Z"/><path class="cls-24" d="M236.32,427.19s.66-9.12,2.69-10.7,9.77-6.84,9.77-6.84l2.09-1.16s2.38,1.67-2.87,5.14-1.88,3.22-1.88,3.22l5.81-1.3,7.2-1,3.16-.88s1.76-.64,2.29-.42c1.51.64.43,1.65.43,1.65L253,419.4l12.05-1s1.55.14,1.74,1-.32.86-.32.86l-13.53,4.52,6.23.22s1.52.18,1.74,1,.34,1.11.34,1.11l-24.3,2.68Z"/><rect class="cls-25" x="228.79" y="425.41" width="9.06" height="11.25" transform="translate(-196.45 195.38) rotate(-32.84)"/><path class="cls-24" d="M253.77,421.58l8.5-.19a6.47,6.47,0,0,1,2.83.2,1.17,1.17,0,0,1,.62,1.54l-12.83,1.61Z"/><path class="cls-26" d="M148.4,394.77s-3.76,5.94,9.88,40.76c7.62,19.46,11.93,31.79,21.12,32.66,15.74,1.48,57.54-25.13,57.54-25.13l-6.79-19.26S199.11,439,190,434.75c-2.14-1-16-38.79-23.34-43.66C163.24,388.83,150.65,393.6,148.4,394.77Z"/><path class="cls-27" d="M183.91,550.75l-8.39,8.69-6.81-22.83L162,563l-53.46-7.21s7.92-46.54,13-68.11l-17.16-54.15s.7-38.78,15.35-40.87A276,276,0,0,1,165,390.19S198.44,480.87,183.91,550.75Z"/><polygon class="cls-7" points="149.38 392.31 153.32 443.15 126.92 402.66 126.46 392.16 149.38 392.31"/><polyline class="cls-24" points="115.68 530.39 107.57 526.44 106.58 525.52 107.58 523.71 109.32 523.83 108.73 518.72 116.89 516.8 121.01 514.59 117.87 528.7"/><path class="cls-24" d="M90.44,480.91,120.82,514s-.75,5.1-3.19,2.55c-.29-.3,1-1.4-.75-2.25-7.21-3.43-23.95-8.4-30.36-13.94a101.3,101.3,0,0,1-14.61-16.06Z"/><rect class="cls-28" x="101.68" y="499.71" width="10.21" height="11.25" transform="translate(-331.5 232.06) rotate(-46.12)"/><path class="cls-29" d="M144.08,400.52s16.78,38.22,6.41,77.28c-.82,3.07-4.79,4.89-4.79,4.89l-4.62-5S146.53,432.74,144.08,400.52Z"/><polygon class="cls-30" points="142.23 398.91 141.22 405.49 126.52 395.41 126.41 392.16 142.23 398.91"/><polygon class="cls-30" points="144.75 391.82 148.12 404.66 144.77 400.26 144.75 391.82"/><path class="cls-26" d="M106.49,432.25,93.34,478.14,112,502.28s-7.36,10.93-10.42,9.65c-21.16-8.85-37.9-39.21-37.9-39.21L87,408s5-10.36,24.29-13.56C125.23,392.16,107.4,428.44,106.49,432.25Z"/><path class="cls-24" d="M124.19,383.88a49.82,49.82,0,0,0,2.89,8.4c1.75,3.4,15.48,7.14,17.58,7.52s-1.1-10.43-1.24-12.92c-.1-1.9-1.29-1.24,0-4.06Z"/><polygon class="cls-31" points="144.38 390.9 148.46 402.26 153.68 445.81 161.18 411.58 155.01 405.66 158.35 400.15 150.97 391.17 144.38 390.9"/><path class="cls-26" d="M168.53,510.74l.63,24-4.71-21.66-44.31,28.51s-3.66-32.36,1.41-53.93l-17.16-54.15s-18.55-30.56,1.79-37.9c3.16-1.14,14.23-2.6,17.64-2.84,4.83-.33,13.83,13.51,16,17.48,2.32,4.26,17.39,42.88,17.39,42.88Z"/><polygon class="cls-26" points="125.44 391.85 117.54 393.61 123.89 405.46 132.96 410.86 132.9 421.12 156.47 454.74 141.08 410.41 125.44 391.85"/><polygon class="cls-31" points="125.44 391.22 117.54 392.98 123.86 404.88 132.91 410.01 132.83 419.83 156.31 451.93 141.03 409.56 125.44 391.22"/><polygon class="cls-32" points="144.66 399.8 142.23 399.54 142.48 405.51 145.4 407.59 147.08 405.07 144.66 399.8"/><path class="cls-24" d="M146.92,378.76a3.91,3.91,0,0,1-3,4.66l-17.24,3.75a3.92,3.92,0,0,1-4.67-3l-5.55-25.53a3.92,3.92,0,0,1,3-4.67l17.24-3.74a3.9,3.9,0,0,1,4.66,3Z"/><path d="M142.54,358.48s1.78-3,1.87-4.59a5.84,5.84,0,0,0-3.49-4.25c-2.16-.7-3.3,1.72-3.3,1.72s3.43,1,3.73,1.64S142.54,358.48,142.54,358.48Z"/><path class="cls-33" d="M117.21,370.51s-4.73-9.25-4.89-12.22-.25-5.05,3.18-6.13c5.16-1.62,5.47-.52,7.67-2.67s6-7,7.46-7.72c2.5-1.22,6.81-1.24,8,3.68a5.63,5.63,0,0,0,3.38,4.17c-.11.49-1,1.12-2.46,2.32-4.27,3.44-7,4.54-10.92,4.38s-11.17-.75-11.37,2.14,1.91,11.12,1.74,11.82S118,370.86,117.21,370.51Z"/><path class="cls-24" d="M124.31,377a1.32,1.32,0,0,1-1,1.56l-3.72.81a1.32,1.32,0,0,1-1.56-1l-1.48-6.81a1.32,1.32,0,0,1,1-1.56l3.72-.8a1.29,1.29,0,0,1,1.55,1Z"/><path class="cls-24" d="M146.52,372.16a1.31,1.31,0,0,1-1,1.55l-3.72.82a1.32,1.32,0,0,1-1.56-1l-1.48-6.81a1.32,1.32,0,0,1,1-1.55l3.73-.81a1.31,1.31,0,0,1,1.55,1Z"/><path class="cls-33" d="M119.35,372.39l2.92,13.4c.66,3,3.31,9.42,20.43,5.69,10.14-2.2,8.15-9.56,7.61-12-.4-1.86-3.72-7-5-7.82,0,0,.91,4.15.91,4.15a8.31,8.31,0,0,0-7.81-2.54c-7.77,1.69-8.55,6.62-12,7.29C123.74,381.06,120.83,377.2,119.35,372.39Z"/><path class="cls-24" d="M136.62,380.55l5.32-1.15a1.32,1.32,0,0,0,1-1.56l-.16-.75-7.88,1.72.17.75A1.3,1.3,0,0,0,136.62,380.55Z"/><rect class="cls-31" x="112.37" y="430.17" width="18.66" height="5.66" transform="translate(-61.68 22.3) rotate(-8.36)"/><path class="cls-34" d="M428.39,503.76,392.2,542.68s.69,7.77,6.07,4.38,35.19-24.85,35.19-24.85S447.82,497.07,428.39,503.76Z"/><path class="cls-16" d="M495,724.69s.49,4.74.49,6.2-3.16,5.59-3.41,6.81l-.24,1.21h23.83s.48-2.43-3.41-5.59-5.1-5.35-5.59-9.36S495,724.69,495,724.69Z"/><path class="cls-16" d="M454.35,725.3l2.43,13.13h-37.2a5.38,5.38,0,0,1,4.13-5.35c4.38-1.22,16.29-4.86,19.45-8.75S454.35,725.3,454.35,725.3Z"/><path class="cls-17" d="M438.24,470.14c2.79-2.1,8-5.84,15.14-5.48s-4.2,11.86-9.67,15.5-8,2.37-8,2.37S434.59,472.87,438.24,470.14Z"/><path class="cls-35" d="M432.22,534.44s-10.57,34.53,1.83,98c2.63,13.5,1.79,15.5,3.28,27,4.61,35.68,4.74,63.82,5.83,64.92,2.49,2.49,6.85.88,9.49,0,1.09-.37,5.47-52.88,4.37-62-1.59-13.23-3.92-15.91-4-25.17-.12-13.25,9.36-31.63,6.93-46.55C457.39,574.92,435.13,526.84,432.22,534.44Z"/><path class="cls-36" d="M477.44,535.05s10.22,22.25,11.31,32.46c1.05,9.79,1.82,68.2,1.82,68.2s8.39,19.69,10.94,29.17S506.62,724,506.62,724l-11.67.73L457.75,588.3l-25.53-51.67Z"/><path class="cls-37" d="M455.56,538s4,14.95,24.07,12"/><path class="cls-37" d="M479.63,558.39l6.93,79.14s17.14,39.75,17.87,79.87"/><path class="cls-16" d="M475.44,465.21s8.57,8.39,7.48,16.41-5.23,11.49-6.69,21.7-4.13,27.11,1,31.12S430,536.39,430,536.39,437.94,510,433,498.46c-1.89-4.36-1.27-14.28,4.56-17.93s14.41-16,14.41-16S470.15,462.48,475.44,465.21Z"/><path class="cls-17" d="M475.44,465.21s8.57.73,11.67,7.48,10.58,36.83,10.58,44.31-.92,10.76-.92,10.76l-19.51-10.4S472.89,465.94,475.44,465.21Z"/><path class="cls-38" d="M496.77,527.76s-.36,4.19-.36,5.1-4,2-8.21,2S453,517,450.09,515.72a66.12,66.12,0,0,0-11.3-3.28c-1.64-.18-2.92-4.74-2-7.66.6-1.93,1.21-3.62,2.13-4.17a1.51,1.51,0,0,1,1.7.16c2,1.28,10,8.2,10,8.2s18.78,3.47,26.26,6.75S493.13,523,496.77,527.76Z"/><path class="cls-34" d="M429.31,501.86l9.6-1.25-2.13,4.17,1.28,6.38-5.29.91s-.73-.91.18-1.27l2.19-.91s-2.55-.37-3.65-.55-1.27-.55-1.27-1.09,1.09-.92,1.09-.92-2-.73-2.19-1.27-.54-1.28-.18-1.83S428.76,502.23,429.31,501.86Z"/><path class="cls-39" d="M474.49,454.79s16.13-1.65,16-8.6-8.1-9.19-4-15.07,10.69-10.68-2.23-13.36-5.83-15.46-14.92-15.23-10.14,6.17-18.61,7.1-19.59-4.85-23.63,6.25-2.68,21.19,2.65,21.53-.75,5.43-1.92,9.22,3.3,17.44,24.22,7.54S464.59,455.23,474.49,454.79Z"/><path class="cls-38" d="M465.77,450.56a51.22,51.22,0,0,0-.24,9.36c.44,4.28,6.34,3.86.15,8.05-7.87,5.34-15.71-1.12-15.71-1.12a15.7,15.7,0,0,0,3.42-9.15c0-5.31-4.17-9,2.05-8.23S466.14,447,465.77,450.56Z"/><path class="cls-34" d="M461.16,461.26c.95-.19,4.61-10.7,4.61-10.7.37-3.58-4.11-.36-10.33-1.09s-2.06,2.92-2.05,8.23v.15C454.35,460.53,457.18,462.08,461.16,461.26Z"/><path class="cls-38" d="M470.92,418.44s5.43,18.75,1.3,24.95c-8.06,12.08-9.7,12.48-16.48,11.95s-13.08-9.21-14.59-18c-1.43-8.4,2.87-7.31,11.5-10,9.4-2.9,11-5.19,11-5.19s-.89,3.81-7,6.15C456.29,428.44,466.94,432.68,470.92,418.44Z"/><path class="cls-25" d="M454,446.3c-1.69-.18-3.36-.31-5-.39a6.55,6.55,0,0,0,12.85,1.57C459.3,447,456.69,446.59,454,446.3Z"/><path class="cls-40" d="M429.25,735.81,412.33,461.68c-3,.41-5.24,1.69-5.53,3.13l16.76,271.36Z"/><path class="cls-41" d="M410,737l13.53-.83L406.8,464.81h0l0,0v0c-.5-1.56-3.43-2.61-6.92-2.41s-6.23,1.63-6.56,3.24c0,0,0,0,0,0v0h0Z"/><path class="cls-40" d="M393.27,465.64c-.48-1.39-2.87-2.38-5.86-2.42l16.93,274.13L410,737Z"/><path class="cls-16" d="M387.39,463.22c3,0,5.4,1,5.88,2.42h0v0s0,0,0,0c.33-1.61,3.09-3,6.56-3.24s6.42.85,6.92,2.41v0l0,0h0c.29-1.44,2.56-2.73,5.54-3.13l-14.08-24.93Z"/><path class="cls-40" d="M395,444.73c1.18,0,2.35,0,3.56-.09s2.66-.23,3.95-.41l-4.24-7.48Z"/><path class="cls-42" d="M391,535.15l6.47-3.54,8.68-2.85s.38,1.2-1.21,2.17-7,3.44-7,3.44l-3.07,2.09-.62.42S390.57,538.28,391,535.15Z"/><path class="cls-42" d="M394.69,535.53s-.9,1.82-.56,2.14,1.2-.06,2.38-.34,4.73-1.22,4.73-1.22l5.09-.58a8.15,8.15,0,0,1-1.87,2,34,34,0,0,1-3.53,1.28l-5.34,2.15s-4,1-4,.18.68-1.59.22-2.23S390.48,536.28,394.69,535.53Z"/><path class="cls-42" d="M397.8,541.5l3.54-1.06s3.88-.74,3.9-.29l0,.44s-1,.55-2.34,1.11c-.5.22-2.75,1.09-3.31,1.27a49.36,49.36,0,0,0-4.47,2.1C394.81,545.09,391.59,543.68,397.8,541.5Z"/><path class="cls-42" d="M389.22,534.9l2.36-5.34,6.09-4.52s.39,1.32-1.27,3.06-1.75,2-2.07,2.1-1,3.95-1,3.95S389,536.13,389.22,534.9Z"/><path class="cls-42" d="M393.33,535.86l-1.12-5.64s-1.39-.93-2.46,3.39-2.41,8.09-2.41,8.09,0,3.14,1.11,3.94,2.91,2.29,4.65,1.49,3.17-3.47,3.61-4.3c.52-1-.72-1.39-1-2.23-.4-1,0-2.44-.4-3A9,9,0,0,0,393.33,535.86Z"/><path class="cls-43" d="M577.47,427.9s15.7-3.77,19.85-7.67-5.09-5-2.57-11.78c3.66-9.89-7.51-24.76-11.45-13.87s1.63,14.8,1.29,9.64,2.36-19.08-12.29-17.07-19,11.76-6.49,15.47-15.43-11.81-14.14-2.18,9.86,7.9,12.82,7.58-12.36-6.44-10,3.64S565.91,425.55,577.47,427.9Z"/><path class="cls-38" d="M589.65,426.82s1.55,9,3.32,13.12c3.18,7.36,7.14,19.48-16.86,13.78-4-1,7.36-13,1.66-19S589.65,426.82,589.65,426.82Z"/><path class="cls-34" d="M591.64,426.69s-3.13,3.35,1,14.42c0,0-7.82,3.88-12.85-.59a6.78,6.78,0,0,0-2-5.75C572.07,428.83,591.64,426.69,591.64,426.69Z"/><path class="cls-38" d="M565.39,406.92s-2,7.57.62,19.08,8.74,14.17,18.24,11.27,9.4-14.61,8.83-17.42,8.75-1.78,5.86-8-6.52-3.23-6.64-.61-1.36,6.14-3.68,4.33.4-12.45-4-10.25S572.34,410.71,565.39,406.92Z"/><path class="cls-35" d="M590.66,548.1l.47,193.2H549S553.68,732,567.8,732c8.45,0-8.87-188.07-8.87-188.07Z"/><polygon class="cls-36" points="610.14 544.25 634.65 739.55 616.21 742.24 586.7 569.45 569.54 545.77 610.14 544.25"/><path class="cls-44" d="M616.21,742.24h19.6s-4.9-10.29-12.74-9.31S616.21,742.24,616.21,742.24Z"/><path class="cls-18" d="M575.61,447.54c-1-1-14.64,10.44-14.64,10.44s-4,58.39-3.32,73.56,1.86,15.16,1.86,15.16,25.44,5.14,37.1,4,13.77-3,13.77-3-1.17-44.34,2.1-51.34,12.37-31,10.27-33.83-25.9-16.33-25.9-16.33S584.71,456.17,575.61,447.54Z"/><path class="cls-17" d="M561,458s-1.92,48.47-1.92,52.85.87,11.37-11.38,18.37A238.39,238.39,0,0,0,524.05,545s-5.43-7.52-6.65-7.52S531.75,518.7,539.62,511,552.05,461.13,561,458Z"/><path class="cls-38" d="M521.6,535.5s-2.44-.3-4.72-.34c-1.59,0-3.11.09-3.69.52a73.7,73.7,0,0,0-6.47,6.82c-.35.53-.88,1.58,1.75.88s4.65-3.5,4-1.4c-1,3.32-6.54,10.32-7.88,11.9-1,1.19-2.8,4.37-1.75,4.72s3-3.32,5.25-5.42,4.72-5.6,1.92-.7-3.79,6.71-4.08,8.4c-.19,1.1,1.29.7,1.81.17s-.58.76,1.28.82c.7,0,3.8-5.09,4.84-6.77,2.69-4.31,3-2.62,3-2.62s-3.5,6.47-3.85,7-1,4.37,1.75,1,8.57-12.6,9.8-14S526.14,536,521.6,535.5Z"/><path class="cls-21" d="M577.93,526l-22.65-64.18H504.69l28.69,66.45S577.93,523,577.93,526Z"/><path class="cls-38" d="M565.87,490.7l-9.8,2.45a3,3,0,0,0,2.1,1.4c1.4.18-1.4,1.4-2.8,1.58s-1,1.57.53,2.1-.35.52-.35,1.22-2.1.53,1.05.7,4,.88,4,.88L556.07,503s-.52.53,2.63.7,6.65.53,6.65.53S566.92,491.93,565.87,490.7Z"/><path class="cls-34" d="M580.4,499.63s1.57,4.9.52,7-1.92,1.92-6.65.35-8.92-2.8-8.92-2.8-3.85-14.18.52-13.48S576.72,495.6,580.4,499.63Z"/><path class="cls-16" d="M616.68,504l-37.1-7s-2.57,7.7-1.4,12.14,18.67,12.6,29.17,14.7,17.5,2.33,21.7.23,11.2-9.33,5.83-25.2-10.5-35.7-12.13-36.4-11.2,25.43-11.2,25.43l5.13,14.24Z"/><g class="cls-45"><path class="cls-46" d="M274.6,335.45l-.75,1.46Z"/><path class="cls-47" d="M315.71,296.79l.85-.34Z"/><g class="cls-45"><g class="cls-48"><g class="cls-45"><path class="cls-49" d="M263.74,326l10.86,9.5-.75,1.46L263,327.41l.75-1.46"/></g></g></g><g class="cls-45"><g class="cls-50"><g class="cls-45"><path class="cls-49" d="M260.3,333.47l10.86,9.5c-.27.71-.54,1.42-.79,2.14l-10.86-9.51c.25-.71.52-1.42.79-2.13"/></g></g></g><path class="cls-47" d="M260.3,333.47c-.27.72-.54,1.43-.79,2.13C259.76,334.89,260,334.18,260.3,333.47Z"/><g class="cls-45"><g class="cls-51"><g class="cls-45"><path class="cls-52" d="M258.15,339.81l10.86,9.5c0,.05,0,.1,0,.14L258.11,340a1,1,0,0,0,0-.14"/></g></g></g><g class="cls-45"><g class="cls-53"><g class="cls-45"><path class="cls-54" d="M305.7,286.94l10.86,9.51-.85.34-10.86-9.5.85-.35"/></g></g></g><g class="cls-45"><g class="cls-55"><g class="cls-45"><path class="cls-56" d="M311.85,284.86l10.86,9.5-1.37.4-10.86-9.5c.46-.14.91-.28,1.37-.4"/></g></g></g><path class="cls-57" d="M337.88,292.55q1.25.06,2.43.21C339.52,292.67,338.71,292.59,337.88,292.55Z"/><g class="cls-45"><g class="cls-58"><g class="cls-45"><path class="cls-59" d="M255.84,357.12l10.87,9.51c0,.28,0,.57,0,.85L255.87,358l0-.85"/></g></g></g><path class="cls-60" d="M255.84,357.12l0,.85Z"/><g class="cls-45"><g class="cls-61"><g class="cls-45"><path class="cls-59" d="M255.93,358.89l10.86,9.5a39.36,39.36,0,0,0,1.83,9.4l-10.86-9.5a39.36,39.36,0,0,1-1.83-9.4"/></g></g></g><polygon class="cls-62" points="311.85 284.86 322.71 294.36 320.94 310.1 310.08 300.59 311.85 284.86"/><g class="cls-45"><g class="cls-63"><g class="cls-45"><path class="cls-64" d="M329.46,283.25l10.85,9.51q-1.19-.15-2.43-.21L327,283c.82,0,1.63.12,2.43.21"/></g></g></g><g class="cls-45"><g class="cls-65"><g class="cls-45"><path class="cls-66" d="M320.57,299.34l10.86,9.5a32.38,32.38,0,0,0-10.49,1.25l-10.86-9.5a32.14,32.14,0,0,1,10.49-1.25"/></g></g></g><path class="cls-67" d="M310.48,285.26l1.37-.41A44.64,44.64,0,0,1,327,283l-6.44,16.3a32.14,32.14,0,0,0-10.49,1.25l1.77-15.73C311.39,285,310.94,285.12,310.48,285.26Z"/><polygon class="cls-68" points="327.01 283.04 337.87 292.54 331.43 308.84 320.57 299.33 327.01 283.04"/><g class="cls-45"><g class="cls-69"><path class="cls-2" d="M333.62,304.33l10.86,9.5a21.14,21.14,0,0,0-13-5l-10.86-9.5a21.14,21.14,0,0,1,13,5"/></g></g><path class="cls-70" d="M290.84,333.17a.22.22,0,0,1,.05-.08c.47-.71,1-1.41,1.47-2.1l.36-.49c.28-.37.56-.72.84-1.08.42-.54.85-1.07,1.28-1.59.26-.31.53-.62.8-.92q.66-.77,1.35-1.5c.26-.28.52-.57.79-.85.56-.57,1.13-1.13,1.7-1.68.19-.19.38-.38.58-.56.78-.72,1.57-1.43,2.38-2.1.62-.52,1.25-1,1.89-1.52l.5-.38c.53-.4,1.06-.78,1.59-1.16l.51-.35c.67-.47,1.35-.91,2-1.34l.25-.15q.94-.58,1.89-1.11l.41-.23c.68-.37,1.37-.72,2.06-1.06l.42-.2c.64-.3,1.27-.59,1.91-.85l.3-.13c.7-.29,1.4-.56,2.11-.81l.47-.16c.72-.24,1.44-.48,2.15-.68l-10.86-9.5c-.71.2-1.43.43-2.15.67l-.48.17c-.7.25-1.4.51-2.1.8l-.31.13c-.63.27-1.26.55-1.89.85l-.43.21c-.69.33-1.37.69-2.05,1.06l-.43.24c-.62.34-1.24.7-1.85,1.08l-.29.17-.13.08c-.64.4-1.27.82-1.9,1.25l-.51.36c-.54.38-1.07.76-1.59,1.15l-.5.38c-.61.48-1.22.95-1.81,1.45l-.09.08c-.8.67-1.59,1.37-2.37,2.09l-.58.57c-.58.55-1.15,1.11-1.7,1.68l-.29.29c-.17.18-.33.37-.5.56-.46.49-.91,1-1.35,1.49l-.8.93c-.44.52-.86,1.05-1.27,1.58-.17.21-.34.4-.49.61l-.36.48-.35.48c-.51.69-1,1.4-1.49,2.11l0,0c-.48.71-.92,1.43-1.36,2.15l-.3.49-.28.47q-.53.92-1,1.83a54.64,54.64,0,0,0-2.57,5.55c-.35.89-.67,1.78-1,2.65v0c-.25.75-.47,1.5-.68,2.24,0,.17-.09.34-.14.51-.2.75-.38,1.5-.54,2.24a.59.59,0,0,1,0,.13c-.14.7-.26,1.4-.37,2.09,0,.16-.05.33-.07.49-.1.71-.18,1.42-.24,2.11,0,.1,0,.2,0,.31,0,.62-.07,1.24-.08,1.85,0,.14,0,.29,0,.42s0,.2,0,.3c0,.28,0,.55,0,.84s0,.83,0,1.24.07.69.1,1,.08.8.14,1.18.11.67.17,1,.14.75.22,1.12.17.65.25,1,.19.71.31,1.06c0,.11.05.23.09.34.13.39.27.77.42,1.15,0,0,0,.07,0,.11.22.55.46,1.08.72,1.6l.2.4c.24.45.48.88.74,1.31l.13.22.06.09c.28.45.58.87.9,1.29.07.09.14.19.22.28.34.44.7.87,1.07,1.27l.15.15c.2.21.4.42.61.62l.64.59,10.86,9.51c-.44-.39-.86-.81-1.27-1.23l-.12-.13c-.38-.41-.74-.83-1.08-1.27l-.23-.29c-.33-.44-.65-.9-.95-1.37l-.14-.25a14.51,14.51,0,0,1-.72-1.28l-.21-.41c-.26-.52-.5-1-.72-1.6a.56.56,0,0,1,0-.12c-.19-.48-.36-1-.52-1.47-.11-.35-.21-.71-.3-1.07s-.17-.64-.25-1-.15-.76-.22-1.14-.13-.65-.17-1-.1-.79-.14-1.19-.07-.68-.1-1,0-.82-.05-1.23,0-.76,0-1.15v-.41c0-.62,0-1.24.09-1.87,0-.1,0-.19,0-.29.06-.7.14-1.41.24-2.12,0-.16,0-.32.07-.48.1-.7.23-1.4.37-2.1a.59.59,0,0,0,0-.13c.16-.73.34-1.49.54-2.24,0-.17.09-.34.14-.51.21-.75.43-1.51.69-2.28s.61-1.76,1-2.64a54.8,54.8,0,0,1,2.57-5.56c.41-.77.85-1.53,1.29-2.28l.32-.52C289.94,334.56,290.38,333.86,290.84,333.17Z"/><g class="cls-45"><g class="cls-71"><g class="cls-45"><path class="cls-59" d="M255.93,358.89l10.86,9.5a39.36,39.36,0,0,0,1.83,9.4l-10.86-9.5a39.36,39.36,0,0,1-1.83-9.4"/><path class="cls-72" d="M257.76,368.29l10.86,9.5a31.8,31.8,0,0,0,3.35,7.08l-10.86-9.5a32,32,0,0,1-3.35-7.08"/><path class="cls-73" d="M261.11,375.37l10.86,9.5a27.86,27.86,0,0,0,4.26,5.21l-10.86-9.51a28.12,28.12,0,0,1-4.26-5.2"/><path class="cls-74" d="M265.37,380.57l10.86,9.51c.3.29.61.57.93.85l-10.86-9.5c-.32-.28-.63-.57-.93-.86"/></g></g></g><path class="cls-8" d="M264.26,325c9.07-17,24-30.9,40.59-37.67l.85-.35,1.51-.58,1.07-.37c.73-.26,1.46-.5,2.2-.73.46-.14.91-.28,1.37-.4l-1.77,15.73c-12.87,3.59-25.78,14.33-33,28a54.64,54.64,0,0,0-2.57,5.55c-8,20.18-.27,37.31,17.22,38.27,7,.39,14.4-1.88,21.36-6l3.1,13.66c-10.07,5.93-20.85,9.17-30.9,8.62-1.12-.07-2.19-.19-3.26-.34l-.81-.12c-.8-.13-1.58-.29-2.34-.46l-1.22-.32c-.39-.1-.78-.22-1.17-.34-12.15-3.9-19.49-14.43-20.52-28.22,0-.36,0-.63-.06-.92l0-.85A54.78,54.78,0,0,1,257.57,342c.19-.74.37-1.37.54-2,.12-.41.19-.66.26-.93s.25-.76.37-1.14c.18-.55.35-1.1.54-1.66.08-.2.16-.41.23-.62.25-.7.52-1.41.79-2.13.63-1.57,1.17-2.82,1.75-4.07.07-.17.16-.35.24-.53.22-.49.46-1,.7-1.46l.75-1.46Z"/><polygon class="cls-75" points="355.44 306.85 366.3 316.35 351.06 325.32 340.2 315.82 355.44 306.85"/><g class="cls-45"><g class="cls-76"><g class="cls-45"><path class="cls-77" d="M354.74,304.2l10.86,9.5a40.61,40.61,0,0,1,1.73,11.82L356.47,316a40.61,40.61,0,0,0-1.73-11.82"/></g></g></g><g class="cls-45"><g class="cls-76"><g class="cls-45"><path class="cls-78" d="M354.74,304.2l10.86,9.5a40.61,40.61,0,0,1,1.73,11.82L356.47,316a40.61,40.61,0,0,0-1.73-11.82"/></g></g></g><g class="cls-45"><path class="cls-2" d="M346.1,290.14l10.86,9.5a29.37,29.37,0,0,1,8.64,14.06c.26.86.5,1.75.7,2.65l-10.86-9.5c-.2-.91-.44-1.79-.7-2.65A29.33,29.33,0,0,0,346.1,290.14Z"/><g class="cls-79"><g class="cls-45"><path class="cls-80" d="M346.1,290.14l10.86,9.5c.3.26.59.53.87.8L347,290.94c-.28-.27-.58-.54-.87-.8"/><path class="cls-2" d="M347,290.94l10.86,9.5a26.7,26.7,0,0,1,4,4.95L351,295.89a26.7,26.7,0,0,0-4-4.95"/><path class="cls-2" d="M351,295.89l10.86,9.5a32.14,32.14,0,0,1,3.39,7.21l-10.86-9.51a31.63,31.63,0,0,0-3.39-7.2"/><path class="cls-2" d="M354.4,303.09l10.86,9.51c.11.36.23.73.34,1.1.26.86.5,1.75.7,2.65l-10.86-9.5c-.2-.91-.44-1.79-.7-2.65-.11-.37-.22-.74-.34-1.11"/></g></g></g><polygon class="cls-81" points="351.91 338.38 362.77 347.88 348.65 347.1 337.8 337.6 351.91 338.38"/><g class="cls-45"><g class="cls-82"><g class="cls-45"><path class="cls-83" d="M354.74,304.2l10.86,9.5a40.61,40.61,0,0,1,1.73,11.82L356.47,316a40.61,40.61,0,0,0-1.73-11.82"/><path class="cls-84" d="M356.47,316l10.86,9.5a57.8,57.8,0,0,1-3.17,18.55l-10.86-9.5A57.85,57.85,0,0,0,356.47,316"/><path class="cls-83" d="M353.3,334.57l10.86,9.5q-.63,1.89-1.38,3.81c-.4,1-.82,2-1.25,3l-10.86-9.5c.43-1,.86-2,1.25-3,.51-1.27,1-2.54,1.38-3.8"/></g></g></g><path class="cls-3" d="M362.78,347.88c-.4,1-.82,2-1.25,3l-10.86-9.5c.43-1,.86-2,1.25-3,4.59-11.6,5.59-22.5,3.53-31.52l10.86,9.5C368.37,325.37,367.37,336.27,362.78,347.88Z"/><g class="cls-85"><g class="cls-45"><path class="cls-3" d="M354.74,304.2l10.86,9.5a40.61,40.61,0,0,1,1.73,11.82L356.47,316a40.61,40.61,0,0,0-1.73-11.82"/><path class="cls-3" d="M356.47,316l10.86,9.5a57.8,57.8,0,0,1-3.17,18.55l-10.86-9.5A57.85,57.85,0,0,0,356.47,316"/><path class="cls-3" d="M353.3,334.57l10.86,9.5q-.63,1.89-1.38,3.81c-.4,1-.82,2-1.25,3l-10.86-9.5c.43-1,.86-2,1.25-3,.51-1.27,1-2.54,1.38-3.8"/></g></g><path class="cls-86" d="M340.2,315.82l15.24-9c-.2-.91-.44-1.79-.7-2.65,2.93,9.49,2.23,21.41-2.82,34.17-.39,1-.82,2-1.25,3l.05-.12c.42-.94.81-1.88,1.19-2.84l-14.12-.78C341,329.58,341.62,322.06,340.2,315.82Z"/><path class="cls-87" d="M327,283c.85,0,1.65.13,2.45.21,12.88,1.46,21.64,8.71,25.28,20.95.26.86.5,1.74.7,2.65l-15.24,9c-2.15-9.44-9.09-15.91-19.62-16.48Z"/><path class="cls-88" d="M327,389.57c1-.57,1.92-1.15,2.86-1.76C328.93,388.41,328,389,327,389.57Z"/><polygon class="cls-89" points="313.05 366.41 323.91 375.91 327 389.57 316.14 380.07 313.05 366.41"/><path class="cls-90" d="M285.25,388.69c-1.12-.07-2.19-.19-3.26-.34l-.81-.12c-.8-.13-1.58-.29-2.34-.46l-1.22-.32c-.39-.1-.78-.22-1.17-.34h0l-.59-.2a28.41,28.41,0,0,1-9.55-5.47l1.85,1.62-.66-.49-.37-.28c-.35-.27-.68-.55-1-.84l-.1-.07h0l10.86,9.5.11.09c.33.28.65.55,1,.82l.44.33.72.53.51.34c.23.15.45.31.69.46l.55.32.7.42.59.31.72.37.61.28.74.34.64.26.76.29c.22.09.45.16.68.24s.36.14.54.19l.24.08.21.07c.39.13.78.24,1.17.35l1.22.31c.76.17,1.55.33,2.34.46.27,0,.54.09.82.12,1.06.15,2.14.28,3.25.34,10.05.55,20.83-2.69,30.89-8.62l-10.85-9.5C306.08,386,295.3,389.24,285.25,388.69Z"/><g class="cls-45"><g class="cls-91"><g class="cls-45"><path class="cls-59" d="M349.68,343.47l10.86,9.5c-.05.12-.11.23-.16.35l-10.86-9.51.16-.34"/></g></g></g><g class="cls-45"><g class="cls-91"><g class="cls-45"><path class="cls-92" d="M349.68,343.47l10.86,9.5c-.05.12-.11.23-.16.35l-10.86-9.51.16-.34"/></g></g></g><g class="cls-45"><g class="cls-93"><g class="cls-45"><path class="cls-5" d="M350.67,341.34l10.86,9.5c-.31.72-.65,1.43-1,2.13-.05.12-.11.23-.16.35-.51,1.06-1.05,2.12-1.6,3.16s-1,1.8-1.5,2.69l-10.85-9.51c.51-.88,1-1.78,1.49-2.69s1.09-2.09,1.6-3.16l.16-.34c.34-.71.68-1.41,1-2.13"/><path class="cls-94" d="M346.43,349.66l10.85,9.51a83.26,83.26,0,0,1-5.86,8.78l-10.85-9.5a85.52,85.52,0,0,0,5.86-8.79"/><path class="cls-95" d="M340.57,358.45l10.85,9.5a84.06,84.06,0,0,1-6,7.05l-10.86-9.5a85.81,85.81,0,0,0,6-7.05"/><path class="cls-96" d="M334.55,365.5l10.86,9.5a85.49,85.49,0,0,1-7,6.5L327.6,372a83.87,83.87,0,0,0,6.95-6.5"/><path class="cls-4" d="M327.6,372l10.86,9.5a85.46,85.46,0,0,1-8.59,6.31l-.85.54-10.86-9.51c.29-.17.57-.35.85-.53A85.46,85.46,0,0,0,327.6,372"/><path class="cls-97" d="M318.16,378.84,329,388.35c-.66.41-1.33.82-2,1.22l-10.85-9.51c.67-.4,1.34-.8,2-1.22"/></g></g></g><g class="cls-45"><g class="cls-98"><g class="cls-45"><path class="cls-99" d="M319,378.31l10.86,9.5-.86.55-10.86-9.51.86-.54"/><path class="cls-100" d="M318.15,378.85,329,388.36c-.66.41-1.33.81-2,1.21l-10.85-9.51c.66-.39,1.33-.79,2-1.21"/></g></g></g><path class="cls-4" d="M327.35,389.37l-.34.2-10.85-9.51c.95-.56,1.91-1.14,2.85-1.75l10.86,9.5C329.27,388.19,328.51,388.68,327.35,389.37Z"/><g class="cls-101"><g class="cls-45"><path class="cls-4" d="M319,378.31l10.86,9.5-.86.55-10.86-9.51.86-.54"/><path class="cls-4" d="M318.15,378.85,329,388.36c-.66.41-1.33.81-2,1.21l-10.85-9.51c.66-.39,1.33-.79,2-1.21"/></g></g><path class="cls-102" d="M313.05,366.41a60.42,60.42,0,0,0,22.18-23.27,55.26,55.26,0,0,0,2.56-5.53l14.12.76c-.38,1-.78,1.91-1.19,2.85l-.05.12c-.31.72-.65,1.42-1,2.13l-.16.34c-.51,1.07-1,2.12-1.6,3.16A84.18,84.18,0,0,1,319,378.31c-.94.6-1.88,1.18-2.85,1.75Z"/><path class="cls-5" d="M351.91,338.37l10.86,9.51c-.38,1-.78,1.9-1.19,2.84l-10.86-9.5C351.13,340.28,351.53,339.34,351.91,338.37Z"/><g class="cls-103"><g class="cls-45"><path class="cls-5" d="M351.91,338.37l10.86,9.51c-.38,1-.78,1.9-1.19,2.84l-10.86-9.5c.41-.94.81-1.88,1.19-2.85"/></g></g><path class="cls-5" d="M351.91,338.38l10.86,9.5c-.38,1-.78,1.9-1.19,2.84l-10.86-9.5C351.14,340.28,351.53,339.34,351.91,338.38Z"/><g class="cls-104"><g class="cls-45"><path class="cls-5" d="M351.91,338.38l10.86,9.5c-.38,1-.78,1.9-1.19,2.84l-10.86-9.5c.42-.94.81-1.88,1.19-2.84"/></g></g><path class="cls-5" d="M358.59,356.31c.09-.18.19-.43.28-.61,0,0,1.21-2.62,1.31-2.8a23.84,23.84,0,0,0,1.1-2.27l.25.21c-.31.72-.65,1.43-1,2.13-.05.12-.11.23-.16.35-.51,1.06-1.05,2.12-1.6,3.16a84.15,84.15,0,0,1-28.91,31.33c-.94.6-1.89,1.18-2.86,1.76.33-.2,1.2-.72,2.09-1.32s5.38-3.73,5.41-3.74c1.37-1,3.1-2.45,4.41-3.53a101,101,0,0,0,7.9-7.72,76.83,76.83,0,0,0,6.57-8.35A79.88,79.88,0,0,0,358.59,356.31Z"/><g class="cls-105"><g class="cls-45"><path class="cls-5" d="M350.67,341.34l10.86,9.5c-.31.72-.65,1.43-1,2.13-.05.12-.11.23-.16.35-.51,1.06-1.05,2.12-1.6,3.16s-1,1.8-1.5,2.69l-10.85-9.51c.51-.88,1-1.78,1.49-2.69s1.09-2.09,1.6-3.16l.16-.34c.34-.71.68-1.41,1-2.13"/><path class="cls-5" d="M346.43,349.66l10.85,9.51a83.26,83.26,0,0,1-5.86,8.78l-10.85-9.5a85.52,85.52,0,0,0,5.86-8.79"/><path class="cls-5" d="M340.57,358.45l10.85,9.5a84.06,84.06,0,0,1-6,7.05l-10.86-9.5a85.81,85.81,0,0,0,6-7.05"/><path class="cls-5" d="M334.55,365.5l10.86,9.5a85.49,85.49,0,0,1-7,6.5L327.6,372a83.87,83.87,0,0,0,6.95-6.5"/><path class="cls-5" d="M327.6,372l10.86,9.5a85.46,85.46,0,0,1-8.59,6.31l-.85.54-10.86-9.51c.29-.17.57-.35.85-.53A85.46,85.46,0,0,0,327.6,372"/><path class="cls-5" d="M318.16,378.84,329,388.35c-.66.41-1.33.82-2,1.22l-10.85-9.51c.67-.4,1.34-.8,2-1.22"/></g></g></g></svg>