<svg id="Camada_1" data-name="Camada 1" xmlns="http://www.w3.org/2000/svg" viewBox="0 0 1190.55 841.89"><defs><style>.cls-1{fill:#c5e1f9;}.cls-2{fill:#9ac7f7;}.cls-3{fill:#fff;}.cls-4{fill:#2b83fd;}.cls-5{fill:#f7b68b;}.cls-6{fill:none;stroke:#0561fc;stroke-miterlimit:10;stroke-width:2.78px;}.cls-7{fill:#7eb3ff;}.cls-8{fill:#0561fc;}.cls-9{fill:#fbd260;}.cls-10{fill:#eaf4fe;}.cls-11{fill:#212a54;}.cls-12{fill:#ec9568;}.cls-13{fill:#387bff;}.cls-14{fill:#0063cb;}.cls-15{fill:#06497d;}</style></defs><path class="cls-1" d="M1072.62,355.65c32.07-25.35,50.37-60.4,52.93-101.28.15-2.52.27-5.06.32-7.63h0v0a135.8,135.8,0,0,0-6.33-44c-.14-.4-.29-.78-.4-1.17.11.39.26.76.38,1.15l-41.86,13a98,98,0,0,1,4.38,30.42h0A98.15,98.15,0,0,1,1040.4,325l25.27,35.83C1068,359.17,1070.38,357.43,1072.62,355.65Z"/><path class="cls-2" d="M903.45,301.34a98.28,98.28,0,1,1,174.21-85.67l41.86-13c-.12-.39-.27-.76-.38-1.15-.57-1.77-1.15-3.5-1.77-5.23-.17-.48-.36-1-.55-1.47-19.9-53.72-67.82-89.05-125.24-92.06-1.36-.07-2.7-.1-4-.13l-1.79-.07-.34,0c-1.9,0-3.78,0-5.68,0-.57,0-1.13,0-1.7,0-1.48,0-2.95.17-4.43.27-1,.07-2.05.13-3.08.23-.82.08-1.64.18-2.45.27-1.69.2-3.4.39-5.08.62l-.29.06A141.29,141.29,0,0,0,928,114c-1.34.58-2.69,1.14-4,1.76l-.12.06a142.15,142.15,0,0,0-81.25,112.05c0,.29-.07.57-.09.85-.2,1.67-.34,3.36-.47,5.05l-.18,2.58c-.07,1.14-.09,2.29-.14,3.43s-.09,2-.11,2.95a141.41,141.41,0,0,0,26,83.9Z"/><path class="cls-3" d="M1065.67,360.85,1040.4,325a97.85,97.85,0,0,1-58,18h0a98.1,98.1,0,0,1-78.92-41.64L867.62,326.6l0,0q2.4,3.4,4.94,6.61c23.92,30.42,56.52,48.51,94.53,52.64l.79.07c1.94.2,3.89.4,5.87.52l.32,0c.57,0,1.16,0,1.74.07,2,.12,3.93.24,5.92.26a141.35,141.35,0,0,0,82.45-24.93C1067.1,359.91,1068,359.17,1065.67,360.85Z"/><path class="cls-4" d="M986.61,242.83l154.52,50.22A162.46,162.46,0,0,0,1036.82,88.32a154.57,154.57,0,0,0-50.21-7.95Z"/><path class="cls-5" d="M924.87,355.39s-16-24.73-13.84-32.71,7.19-16.53,7.19-16.53,5.34-6.73,10.49-3.17a6.12,6.12,0,0,1,2.57,3.37l11.13-11.13s27.47-28.39,29.24-28.85c5.15-1.3,4.75,4.95,4.75,4.95l-23.91,31.79s17.73,20.61,17,27.62c-1.25,12.81-38.27,30-38.27,30Z"/><path class="cls-6" d="M952.49,303.11s17.73,20.61,17,27.62"/><path class="cls-6" d="M931.28,306.35l11.13-11.13s27.47-28.39,29.24-28.85c5.15-1.3,4.75,4.95,4.75,4.95"/><polygon class="cls-5" points="884.38 349.09 917.49 321.85 931.88 351.46 899.42 376.79 884.38 349.09"/><path class="cls-7" d="M686.49,747.24H436.36s-52.24-258,36.41-291.29,140.9-20.58,164.65-17.42,125.06,0,125.06,0l125.27-96.37L933.46,399l-152,148.81-114,19Z"/><path class="cls-5" d="M608.13,747.24h97.78s-22.58-26.12-50.29-36.41c-31.31-11.63-45.91-7.55-45.91-7.55Z"/><rect class="cls-3" x="59.28" y="110.54" width="433.49" height="288.61"/><polyline class="cls-6" points="492.77 399.14 59.28 399.14 59.28 110.54"/><rect class="cls-8" x="59.28" y="110.54" width="433.49" height="32.24"/><path class="cls-2" d="M82.92,126.66a6.45,6.45,0,1,1-6.45-6.45A6.45,6.45,0,0,1,82.92,126.66Z"/><path class="cls-9" d="M103.34,126.66a6.44,6.44,0,1,1-6.45-6.45A6.45,6.45,0,0,1,103.34,126.66Z"/><path class="cls-10" d="M123.76,126.66a6.45,6.45,0,1,1-6.45-6.45A6.46,6.46,0,0,1,123.76,126.66Z"/><path class="cls-2" d="M702.94,738.39a1.35,1.35,0,0,1-.14-.22l0-7.64,315.42-5.73.14,7.61a.47.47,0,0,1,0,.25l-.79,1.42c-3.94,6.7-11.18,8-19.51,8.16l-274.46,5c-8.33.16-15.62-.89-19.82-7.42Z"/><path class="cls-7" d="M779,738.29a.43.43,0,0,1,0,.2l-.76,1.2a12.93,12.93,0,0,1-4.54,3.95l-48,.86c-8,.16-15-.66-19-6l-.78-1.13a1.91,1.91,0,0,0-.14-.21l0-3.73,73.08-1.31Z"/><polygon class="cls-8" points="821.5 735.5 979.11 732.63 979.01 727.26 821.41 730.12 821.5 735.5"/><path class="cls-1" d="M780.54,728.87l38.07-155.76a10.33,10.33,0,0,1,9.22-7.58l221.28-4c4.09-.07,6.6,3.19,5.58,7.3l-38.08,155.76Z"/><path class="cls-2" d="M904.21,645.36c-2,7.94,2.89,14.3,10.81,14.15s15.88-6.74,17.84-14.65-2.92-14.3-10.82-14.15S906.14,637.41,904.21,645.36Z"/><polyline class="cls-6" points="608.92 747.04 608.92 691.83 608.92 677.58 501.27 677.58 507.6 569.93"/><path class="cls-6" d="M703.07,746.47s-27.32-39.58-93.81-44.33"/><path class="cls-6" d="M641.39,722.31c36.78,2.63,49.92,24.53,49.92,24.53"/><path class="cls-11" d="M603.53,387.13S550,374.24,535.88,360.87s17.35-17,8.76-40.31c-12.51-33.87,25.59-84.75,39-47.47s-5.56,50.66-4.39,33-8.06-65.32,41.87-58.45,65,40.28,22.13,52.95,52.62-40.42,48.23-7.43-33.61,27.05-43.7,25.93,42.11-22,34.08,12.48S643,379.11,603.53,387.13Z"/><path class="cls-5" d="M562,383.43s-5.3,30.92-11.32,44.91c-10.83,25.22-24.36,66.69,57.46,47.18,13.73-3.27-25.09-44.51-5.65-64.85S562,383.43,562,383.43Z"/><path class="cls-12" d="M555.22,383s10.67,11.46-3.36,49.35c0,0,26.65,13.3,43.79-2-.69-6.24.54-13.05,6.86-19.66C621.94,390.33,555.22,383,555.22,383Z"/><path class="cls-5" d="M644.74,315.31s7,25.94-2.12,65.32-29.8,48.52-62.19,38.57-32.06-50-30.11-59.63-29.84-6.1-20-27.48S552.57,321,553,330s4.63,21,12.54,14.81-1.36-42.62,13.76-35.08S621,328.3,644.74,315.31Z"/><path class="cls-6" d="M640.58,733.4s25.33.58,33.25,12.45H640.58"/><line class="cls-6" x1="154.57" y1="748.01" x2="1137.68" y2="748.01"/><path class="cls-13" d="M155.21,658.67a13.47,13.47,0,0,0,11-12.31l-3.19-.22a10.23,10.23,0,0,1-10.92,9.53,7.87,7.87,0,0,1-7.32-8.4,6,6,0,0,1,6.37-5.56,4.48,4.48,0,0,1,4.16,4.76l3.19.21a7.66,7.66,0,0,0-1.88-5.56,7.56,7.56,0,0,0-5.25-2.6,9.19,9.19,0,0,0-9.79,8.53,11.09,11.09,0,0,0,10.3,11.81A14,14,0,0,0,155.21,658.67Z"/><path class="cls-14" d="M280.39,716.71h23.67a3.2,3.2,0,0,1,3.2,3.2v28.49a3.19,3.19,0,0,1-3.19,3.19H280.39a3.2,3.2,0,0,1-3.2-3.2V719.9A3.2,3.2,0,0,1,280.39,716.71Z"/><path class="cls-14" d="M199,748.39a3.21,3.21,0,0,0,3.2,3.2h23.68a3.2,3.2,0,0,0,3.19-3.2V719.9a3.19,3.19,0,0,0-3.19-3.19H202.21a3.2,3.2,0,0,0-3.2,3.19Z"/><path class="cls-15" d="M337.94,567.56l.6,0v55.29h-30a35.49,35.49,0,0,1,29.42-55.32Z"/><path class="cls-13" d="M233.89,586.8h52.93a72.2,72.2,0,0,1,68.86,50.52h18.94v42.1H362.19l2.68,13H351.94a72.13,72.13,0,0,1-65.12,41.14H233.89a72.17,72.17,0,0,1-72.17-72.17V659A72.17,72.17,0,0,1,233.89,586.8Z"/><path class="cls-13" d="M224.82,750.11a8.07,8.07,0,0,1-.15,1.48H202.21a3.21,3.21,0,0,1-3.2-3.2V731.48a71.8,71.8,0,0,0,25.81,9.21Z"/><path class="cls-13" d="M307.26,740.2v8.19a3.21,3.21,0,0,1-3.19,3.2H285.72V741.8h6.42A72.35,72.35,0,0,0,307.26,740.2Z"/><path class="cls-15" d="M319,653h3a9.31,9.31,0,1,1,18.61,0h3a12.35,12.35,0,1,0-24.7,0Z"/><path class="cls-13" d="M311.47,567.56c.21,0,.4,0,.6,0v55.29h-30a35.49,35.49,0,0,1,29.42-55.32Z"/><path class="cls-13" d="M147.09,637.35a7.68,7.68,0,0,1,9.78-4.68l-1.07,3a4.39,4.39,0,0,0-3.41.18,4.44,4.44,0,0,0-2.29,2.54,6,6,0,0,0,3.65,7.64,5.85,5.85,0,0,0,4.22-.59c1.13-.5.71,5.17-4.51,3.84a7.58,7.58,0,0,1-.77-.24A9.18,9.18,0,0,1,147.09,637.35Z"/><path class="cls-6" d="M948.84,309.07s-9.49,7.91-10.29,10.29-1,5.49,4.16,7"/><path class="cls-6" d="M953.06,315.46s-9.5,7.91-10.29,10.29-.95,6.07,3.5,6.67"/><path class="cls-6" d="M956.66,321.88l-5.49,5c-2.6,2.37-5.46,5.18-5.88,6.44-.79,2.37.24,5.92,4.39,5.78"/><path class="cls-6" d="M961.08,328s-4,3.44-4.41,3.85c-2.6,2.37-5.46,5.18-5.88,6.44-.79,2.37-1.18,4.75,1.59,5.93"/><path class="cls-6" d="M925.94,318.61l3.31,2.48a5.71,5.71,0,0,0,8,0h0a5.71,5.71,0,0,0,0-8l-8.77-8.77a5.71,5.71,0,0,0-8,0h0c-2.2,2.21-6,12.94-9.19,21.84l-22.16,17.42"/><polyline class="cls-6" points="474.36 358.57 94.41 358.57 94.41 168.6"/><polyline class="cls-6" points="93.42 335.81 147.24 258.23 186.82 296.23 201.07 281.98 239.06 294.64 292.89 234.49 341.96 299.39 389.46 253.48 413.41 276.05 465.65 220.64"/><line class="cls-6" x1="93.62" y1="372.04" x2="93.62" y2="385.7"/><line class="cls-6" x1="114.57" y1="372.04" x2="114.57" y2="385.7"/><line class="cls-6" x1="135.52" y1="372.04" x2="135.52" y2="385.7"/><line class="cls-6" x1="156.47" y1="372.04" x2="156.47" y2="385.7"/><line class="cls-6" x1="177.42" y1="372.04" x2="177.42" y2="385.7"/><line class="cls-6" x1="198.37" y1="372.04" x2="198.37" y2="385.7"/><line class="cls-6" x1="219.32" y1="372.04" x2="219.32" y2="385.7"/><line class="cls-6" x1="240.27" y1="372.04" x2="240.27" y2="385.7"/><line class="cls-6" x1="261.22" y1="372.04" x2="261.22" y2="385.7"/><line class="cls-6" x1="282.17" y1="372.04" x2="282.17" y2="385.7"/><line class="cls-6" x1="84.37" y1="169.33" x2="70.72" y2="169.33"/><line class="cls-6" x1="84.37" y1="190.28" x2="70.72" y2="190.28"/><line class="cls-6" x1="84.37" y1="211.23" x2="70.72" y2="211.23"/><line class="cls-6" x1="84.37" y1="232.18" x2="70.72" y2="232.18"/><line class="cls-6" x1="84.37" y1="253.13" x2="70.72" y2="253.13"/><line class="cls-6" x1="84.37" y1="274.08" x2="70.72" y2="274.08"/><line class="cls-6" x1="84.37" y1="295.03" x2="70.72" y2="295.03"/><line class="cls-6" x1="84.37" y1="315.98" x2="70.72" y2="315.98"/><line class="cls-6" x1="84.37" y1="336.93" x2="70.72" y2="336.93"/><line class="cls-6" x1="84.37" y1="357.88" x2="70.72" y2="357.88"/><line class="cls-6" x1="303.12" y1="372.04" x2="303.12" y2="385.7"/><line class="cls-6" x1="324.07" y1="372.04" x2="324.07" y2="385.7"/><line class="cls-6" x1="345.02" y1="372.04" x2="345.02" y2="385.7"/><line class="cls-6" x1="365.97" y1="372.04" x2="365.97" y2="385.7"/><line class="cls-6" x1="386.92" y1="372.04" x2="386.92" y2="385.7"/><line class="cls-6" x1="407.87" y1="372.04" x2="407.87" y2="385.7"/><line class="cls-6" x1="428.82" y1="372.04" x2="428.82" y2="385.7"/><line class="cls-6" x1="449.77" y1="372.04" x2="449.77" y2="385.7"/><line class="cls-6" x1="470.72" y1="372.04" x2="470.72" y2="385.7"/></svg>