<svg id="Camada_1" data-name="Camada 1" xmlns="http://www.w3.org/2000/svg" xmlns:xlink="http://www.w3.org/1999/xlink" viewBox="0 0 1190.55 841.89"><defs><style>.cls-1,.cls-12,.cls-15,.cls-18,.cls-19{fill:none;}.cls-2{clip-path:url(#clip-path);}.cls-3{fill:#f7b68b;}.cls-4{fill:#ffab01;}.cls-5{fill:#194866;}.cls-6{fill:#fec12f;}.cls-7{fill:#163f59;}.cls-8{fill:#eaf4fe;}.cls-9{fill:#9ac7f7;}.cls-10{fill:#387bff;}.cls-11{fill:#fbd260;}.cls-12{stroke:#7eb3ff;stroke-width:7.34px;}.cls-12,.cls-15,.cls-18,.cls-19,.cls-20,.cls-21{stroke-miterlimit:10;}.cls-13{fill:#0450cf;}.cls-14{fill:#c5e1f9;}.cls-15{stroke:#0561fc;stroke-width:0.51px;}.cls-16,.cls-20,.cls-21{fill:#fff;}.cls-16{opacity:0.34;}.cls-17{fill:#0561fc;}.cls-18,.cls-21{stroke:#0450cf;}.cls-18,.cls-19,.cls-20,.cls-21{stroke-width:2.91px;}.cls-19,.cls-20{stroke:#c5e1f9;}</style><clipPath id="clip-path"><rect class="cls-1" x="471.68" y="40.53" width="565.12" height="741.3"/></clipPath></defs><g class="cls-2"><path class="cls-3" d="M693.57,285.62,578.79,298.21s54.87-42,96.71-53.26S695.34,286.11,693.57,285.62Z"/><path class="cls-3" d="M880.05,209.22c1.11,13.12,8.17,24.51,15.59,25.05h21.13c7.43-.54,14.5-11.93,15.59-25.05q2.58-32.5,5.2-65c1.15-13-3.92-39.07-15.18-46.78-10.27-6.84-22.07-6.84-32.36,0-11.23,7.71-16.33,33.78-15.16,46.78Q877.46,176.7,880.05,209.22Z"/><path class="cls-4" d="M923.59,223.1s-32-21.16-129.46-11.93C746.79,215.65,662,250.82,662,250.82L669.28,291l146.28,5.51Z"/><path class="cls-5" d="M892.25,531.63s-31.54,180.45-64.4,259.65c-29.13,70.17-63.1-21.11-63.1-21.11L817.92,467.4l87.62-6.65S911.57,463,892.25,531.63Z"/><path class="cls-5" d="M885,461.48,874.18,577.83l15.18,8.93s8.8,172.83,11.67,181.57c16.43,50,58.94,20,64.74,3.34s15.47-140.1,13.54-230.15l-1.94-90Z"/><path class="cls-5" d="M904.72,722s-7,30.78-6,89c.64,36.91,4.27,134.59,11,207.32.42,4.45,36.73,1.09,36.73,1.09s22.12-236.06,24.06-281.78C971.09,723.82,933.71,689.39,904.72,722Z"/><path class="cls-6" d="M791.92,210.06l85.69-3.69,27.92,18.18,40.78-4.66,45,19.48s20.28,19.5,1.44,82.15-16,166.1-16,166.1L813.48,498S807.87,244.87,791.92,210.06Z"/><polygon class="cls-4" points="913.59 223.13 929.71 240.75 945.84 217.5 936.16 203.18 913.59 223.13"/><polygon class="cls-4" points="878.18 204.57 909.19 224.55 894.54 242.15 870.33 214.68 878.18 204.57"/><path class="cls-5" d="M779.42,766.08s10.18,3.33,42.55,4.48-41.59,260.63-41.59,260.63l-45.79-16.83,33-261.21Z"/><path class="cls-7" d="M903.1,82.15v-15H870.64A19.77,19.77,0,0,0,850.88,86.9v15h32.45A19.77,19.77,0,0,0,903.1,82.15Z"/><path class="cls-3" d="M934.2,173.37a17.58,17.58,0,0,1-17.58,17.57H876.73a17.57,17.57,0,0,1-17.57-17.57V93.61A17.58,17.58,0,0,1,876.73,76h39.89A17.58,17.58,0,0,1,934.2,93.61Z"/><path class="cls-7" d="M904.36,67.12a19.74,19.74,0,0,1,16.52,8.95h6.78A15.31,15.31,0,0,1,943,91.39v37.83H932.2V113.84a10.79,10.79,0,0,0-10.77-10.78H888.9A19.75,19.75,0,0,1,869.13,83.3V67.12Z"/><path class="cls-3" d="M928.8,139.05a9.37,9.37,0,0,1,9.39-9.36H939a9.36,9.36,0,0,1,9.38,9.36v11.39a9.38,9.38,0,0,1-9.38,9.38h-.77a9.38,9.38,0,0,1-8.59-5.6"/></g><rect class="cls-8" x="195.66" y="283.6" width="636.14" height="504.88"/><rect class="cls-9" x="195.66" y="283.6" width="636.14" height="60.16"/><path class="cls-10" d="M239.79,313.69a12,12,0,1,1-12-12A12.05,12.05,0,0,1,239.79,313.69Z"/><path class="cls-11" d="M277.88,313.69a12,12,0,1,1-12-12A12,12,0,0,1,277.88,313.69Z"/><path class="cls-8" d="M316,313.69a12,12,0,1,1-12-12A12,12,0,0,1,316,313.69Z"/><polygon class="cls-3" points="571.78 280.24 611.67 278.76 614.99 291.69 612.04 299.45 606.5 307.57 590.62 306.47 575.47 292.43 571.78 280.24"/><path class="cls-3" d="M610.56,279.87h9.87l8.23,7.13s-6,2.25-8.77,0S610.56,279.87,610.56,279.87Z"/><path class="cls-3" d="M940.61,426.44,840.67,462.7l6.91,18.38s93.19,3.77,107-31.47S940.61,426.44,940.61,426.44Z"/><path class="cls-4" d="M973.71,234.34s28.3-.74,35.69,37.87c12.6,65.8.18,132.53-1.85,145.63s-14.57,49-35.13,50.71l-20.6,1.67-21.55-36.67,10.34-7.11,5.83-4.79s3-48.87,2.72-94.74S973.71,234.34,973.71,234.34Z"/><line class="cls-12" x1="1050.1" y1="785.78" x2="157.37" y2="785.78"/><path class="cls-3" d="M852.37,480.38s-9.11-24.7-16.24-27-33.85-9.24-33.85-9.24l-7-1.11s-5.58,7,12.42,11.41,8,7.08,8,7.08l-17.92,2.18L776,468.08l-9.91.72s-5.62,0-7,1.13c-3.9,3.3,0,5,0,5l38.65.43L762,484.65s-4.41,2-4.3,4.47c.09,2.36,1.62,2.06,1.62,2.06l42.93-1-18,6.87S780,499,780,501.5c0,2.67-.11,3.41-.11,3.41L852.68,488Z"/><path class="cls-3" d="M797.15,482.28l-24.87,8s-5.77,1.17-8.11,3.37c-2.69,2.53-.59,4.92-.59,4.92l38.62-8.4Z"/><rect class="cls-9" x="269.56" y="398.59" width="245.59" height="10.1"/><rect class="cls-13" x="269.56" y="709.3" width="12.41" height="10.1"/><rect class="cls-9" x="269.56" y="733.59" width="206.73" height="10.1"/><rect class="cls-14" x="546.46" y="709.3" width="12.41" height="10.1"/><rect class="cls-9" x="546.46" y="733.59" width="206.73" height="10.1"/><rect class="cls-9" x="269.56" y="377.06" width="79.56" height="10.1"/><line class="cls-15" x1="660.82" y1="428.29" x2="660.82" y2="666.21"/><line class="cls-15" x1="563.87" y1="428.29" x2="563.87" y2="666.21"/><line class="cls-15" x1="466.92" y1="428.29" x2="466.92" y2="666.21"/><line class="cls-15" x1="369.97" y1="428.29" x2="369.97" y2="666.21"/><rect class="cls-16" x="466.92" y="428.29" width="193.9" height="237.92"/><rect class="cls-15" x="273.02" y="428.29" width="484.74" height="237.92"/><line class="cls-15" x1="757.77" y1="626.55" x2="273.02" y2="626.55"/><line class="cls-15" x1="273.02" y1="586.9" x2="757.77" y2="586.9"/><line class="cls-15" x1="273.02" y1="547.25" x2="757.77" y2="547.25"/><line class="cls-15" x1="273.02" y1="507.59" x2="757.77" y2="507.59"/><line class="cls-15" x1="273.02" y1="467.93" x2="757.77" y2="467.93"/><path class="cls-17" d="M264.55,664.48a6.46,6.46,0,0,1-.86,3.73,3,3,0,0,1-2.68,1.23,3.09,3.09,0,0,1-2.68-1.2,6.26,6.26,0,0,1-.9-3.57v-1.91a6.46,6.46,0,0,1,.86-3.7,3.64,3.64,0,0,1,5.38,0,6.19,6.19,0,0,1,.88,3.6Zm-1.43-2a5.29,5.29,0,0,0-.51-2.66A1.77,1.77,0,0,0,261,659a1.73,1.73,0,0,0-1.6.83,5.07,5.07,0,0,0-.52,2.55v2.29a5.37,5.37,0,0,0,.53,2.7,1.75,1.75,0,0,0,1.61.87,1.73,1.73,0,0,0,1.57-.82,5.24,5.24,0,0,0,.54-2.59Z"/><path class="cls-17" d="M253.28,629.51h-1.44V620L249,621v-1.3l4.11-1.54h.22Z"/><path class="cls-17" d="M264.55,624.7a6.48,6.48,0,0,1-.86,3.74,3,3,0,0,1-2.68,1.23,3.09,3.09,0,0,1-2.68-1.2,6.28,6.28,0,0,1-.9-3.57V623a6.44,6.44,0,0,1,.86-3.69,3.64,3.64,0,0,1,5.38,0,6.15,6.15,0,0,1,.88,3.59Zm-1.43-2a5.27,5.27,0,0,0-.51-2.65,1.77,1.77,0,0,0-1.62-.83,1.73,1.73,0,0,0-1.6.83,5.07,5.07,0,0,0-.52,2.55v2.29a5.37,5.37,0,0,0,.53,2.7,1.92,1.92,0,0,0,3.18,0,5.24,5.24,0,0,0,.54-2.59Z"/><path class="cls-17" d="M256,589.74h-7.39v-1l3.91-4.34a9.29,9.29,0,0,0,1.19-1.6,2.64,2.64,0,0,0,.33-1.27,2,2,0,0,0-.53-1.45,1.88,1.88,0,0,0-1.43-.57,2.2,2.2,0,0,0-1.66.61,2.33,2.33,0,0,0-.59,1.69h-1.43a3.28,3.28,0,0,1,1-2.51,3.68,3.68,0,0,1,2.68-1,3.58,3.58,0,0,1,2.49.83,2.81,2.81,0,0,1,.91,2.2c0,1.11-.7,2.43-2.12,4l-3,3.28H256Z"/><path class="cls-17" d="M264.55,584.93a6.5,6.5,0,0,1-.86,3.74,3.57,3.57,0,0,1-5.36,0,6.23,6.23,0,0,1-.9-3.57v-1.91a6.46,6.46,0,0,1,.86-3.7,3.64,3.64,0,0,1,5.38,0,6.19,6.19,0,0,1,.88,3.6Zm-1.43-2a5.29,5.29,0,0,0-.51-2.66,1.77,1.77,0,0,0-1.62-.83,1.73,1.73,0,0,0-1.6.83,5.07,5.07,0,0,0-.52,2.55v2.29a5.37,5.37,0,0,0,.53,2.7,1.75,1.75,0,0,0,1.61.87,1.73,1.73,0,0,0,1.57-.82,5.24,5.24,0,0,0,.54-2.59Z"/><path class="cls-17" d="M250.66,543.62h1.07a2.41,2.41,0,0,0,1.6-.54,2,2,0,0,0-1.39-3.38,2,2,0,0,0-1.49.53,1.84,1.84,0,0,0-.55,1.4h-1.44a2.88,2.88,0,0,1,1-2.22,4,4,0,0,1,5,0,3.08,3.08,0,0,1,.9,2.35,2.48,2.48,0,0,1-.48,1.43,2.74,2.74,0,0,1-1.29,1,2.88,2.88,0,0,1,1.44,1,2.78,2.78,0,0,1,.5,1.67,3.06,3.06,0,0,1-1,2.4,3.69,3.69,0,0,1-2.58.9,3.81,3.81,0,0,1-2.58-.86,2.88,2.88,0,0,1-1-2.27h1.44a1.84,1.84,0,0,0,.59,1.42,2.53,2.53,0,0,0,3.14,0,2.07,2.07,0,0,0,.55-1.55,1.87,1.87,0,0,0-.61-1.51,2.68,2.68,0,0,0-1.74-.55h-1.07Z"/><path class="cls-17" d="M264.55,545.14a6.48,6.48,0,0,1-.86,3.74,3,3,0,0,1-2.68,1.23,3.09,3.09,0,0,1-2.68-1.2,6.29,6.29,0,0,1-.9-3.58v-1.91a6.42,6.42,0,0,1,.86-3.69,3.64,3.64,0,0,1,5.38,0,6.13,6.13,0,0,1,.88,3.59Zm-1.43-2a5.24,5.24,0,0,0-.51-2.65,1.75,1.75,0,0,0-1.62-.83,1.72,1.72,0,0,0-1.6.83,5,5,0,0,0-.52,2.54v2.3a5.4,5.4,0,0,0,.53,2.7,1.91,1.91,0,0,0,3.18,0,5.17,5.17,0,0,0,.54-2.58Z"/><path class="cls-17" d="M254.62,506.39h1.57v1.17h-1.57v2.61h-1.44v-2.61h-5.13v-.85l5-7.81h1.53Zm-5,0h3.51v-5.53l-.17.31Z"/><path class="cls-17" d="M264.55,505.36a6.48,6.48,0,0,1-.86,3.74,3,3,0,0,1-2.68,1.23,3.09,3.09,0,0,1-2.68-1.2,6.26,6.26,0,0,1-.9-3.57v-1.91a6.46,6.46,0,0,1,.86-3.7,3.64,3.64,0,0,1,5.38,0,6.19,6.19,0,0,1,.88,3.6Zm-1.43-2a5.27,5.27,0,0,0-.51-2.65,1.77,1.77,0,0,0-1.62-.83,1.73,1.73,0,0,0-1.6.83,5.07,5.07,0,0,0-.52,2.55v2.29a5.37,5.37,0,0,0,.53,2.7,1.92,1.92,0,0,0,3.18,0,5.24,5.24,0,0,0,.54-2.59Z"/><path class="cls-17" d="M249.23,464.74l.57-5.63h5.78v1.33H251l-.34,3.07a3.68,3.68,0,0,1,1.88-.48,3.15,3.15,0,0,1,2.45,1,4,4,0,0,1,.91,2.76,3.84,3.84,0,0,1-.95,2.74,3.42,3.42,0,0,1-2.62,1,3.6,3.6,0,0,1-2.45-.83,3.33,3.33,0,0,1-1.07-2.29h1.36a2.26,2.26,0,0,0,.68,1.46,2.18,2.18,0,0,0,1.48.49,1.94,1.94,0,0,0,1.56-.68,2.88,2.88,0,0,0,.57-1.89,2.66,2.66,0,0,0-.61-1.81,2.09,2.09,0,0,0-1.64-.69,2.41,2.41,0,0,0-1.48.41l-.37.31Z"/><path class="cls-17" d="M264.55,465.58a6.48,6.48,0,0,1-.86,3.74,3,3,0,0,1-2.68,1.23,3.09,3.09,0,0,1-2.68-1.2,6.28,6.28,0,0,1-.9-3.57v-1.92a6.42,6.42,0,0,1,.86-3.69,3.64,3.64,0,0,1,5.38,0,6.13,6.13,0,0,1,.88,3.59Zm-1.43-2a5.24,5.24,0,0,0-.51-2.65,1.75,1.75,0,0,0-1.62-.83,1.72,1.72,0,0,0-1.6.83,5,5,0,0,0-.52,2.54v2.3a5.4,5.4,0,0,0,.53,2.7,1.92,1.92,0,0,0,3.18.05,5.24,5.24,0,0,0,.54-2.59Z"/><path class="cls-17" d="M321.39,687.75H320v-9l-2.71,1v-1.22l3.85-1.44h.21Z"/><path class="cls-17" d="M420.87,687.75H414v-1l3.66-4.06a9.46,9.46,0,0,0,1.12-1.5A2.57,2.57,0,0,0,419,680a1.9,1.9,0,0,0-.5-1.36,1.74,1.74,0,0,0-1.34-.53,2.08,2.08,0,0,0-1.56.57,2.17,2.17,0,0,0-.55,1.58h-1.34a3.14,3.14,0,0,1,.93-2.36,3.5,3.5,0,0,1,2.52-.9,3.33,3.33,0,0,1,2.33.78,2.63,2.63,0,0,1,.86,2.06c0,1-.67,2.28-2,3.71l-2.84,3.07h5.31Z"/><path class="cls-17" d="M512.86,681.81h1a2.27,2.27,0,0,0,1.5-.5,1.67,1.67,0,0,0,.54-1.31,1.64,1.64,0,0,0-1.85-1.86,2,2,0,0,0-1.4.49,1.77,1.77,0,0,0-.51,1.32H510.8a2.73,2.73,0,0,1,.92-2.09,3.36,3.36,0,0,1,2.34-.83,3.33,3.33,0,0,1,2.34.79,2.87,2.87,0,0,1,.85,2.21,2.35,2.35,0,0,1-.44,1.33,2.8,2.8,0,0,1-1.22,1,2.57,2.57,0,0,1,1.35.91,2.6,2.6,0,0,1,.47,1.56,2.89,2.89,0,0,1-.93,2.26,3.45,3.45,0,0,1-2.41.84,3.57,3.57,0,0,1-2.43-.81,2.69,2.69,0,0,1-.93-2.13h1.35a1.75,1.75,0,0,0,.54,1.34,2.11,2.11,0,0,0,1.47.5,2,2,0,0,0,1.48-.51,2,2,0,0,0,.52-1.46,1.77,1.77,0,0,0-.57-1.41,2.41,2.41,0,0,0-1.63-.51h-1Z"/><path class="cls-17" d="M613.55,684.2H615v1.1h-1.47v2.45H612.2V685.3h-4.81v-.8l4.73-7.32h1.43Zm-4.64,0h3.29V679l-.16.29Z"/><path class="cls-17" d="M705.46,682.45l.54-5.27h5.42v1.24h-4.28l-.32,2.88a3.48,3.48,0,0,1,1.77-.45,2.89,2.89,0,0,1,2.29.95,3.72,3.72,0,0,1,.85,2.58,3.58,3.58,0,0,1-.88,2.57,3.22,3.22,0,0,1-2.47.95,3.32,3.32,0,0,1-2.28-.78,3.11,3.11,0,0,1-1-2.15h1.27a2.18,2.18,0,0,0,.64,1.37,2,2,0,0,0,1.38.46,1.82,1.82,0,0,0,1.48-.64,2.71,2.71,0,0,0,.53-1.77,2.44,2.44,0,0,0-.58-1.7,2,2,0,0,0-1.53-.64,2.29,2.29,0,0,0-1.39.38l-.35.29Z"/><polyline class="cls-18" points="273.02 667.84 369.97 628.18 466.92 585.75 563.87 546.58 661.71 546.58 757.77 507.71"/><polyline class="cls-19" points="273.02 626.55 369.97 586.9 466.92 626.55 563.87 589.73 660.82 470.4 757.77 428.29"/><path class="cls-20" d="M666.37,470.4a5.55,5.55,0,1,1-5.55-5.55A5.56,5.56,0,0,1,666.37,470.4Z"/><path class="cls-20" d="M569.42,589.73a5.55,5.55,0,1,1-5.55-5.55A5.56,5.56,0,0,1,569.42,589.73Z"/><path class="cls-20" d="M472.46,626.55a5.55,5.55,0,1,1-5.54-5.55A5.54,5.54,0,0,1,472.46,626.55Z"/><path class="cls-20" d="M375.52,586.9a5.55,5.55,0,1,1-5.55-5.55A5.56,5.56,0,0,1,375.52,586.9Z"/><path class="cls-21" d="M567.19,547.06a5.55,5.55,0,1,1-5.55-5.55A5.56,5.56,0,0,1,567.19,547.06Z"/><path class="cls-21" d="M666.29,547.06a5.55,5.55,0,1,1-5.55-5.55A5.56,5.56,0,0,1,666.29,547.06Z"/></svg>